<svg class="main-svg" xmlns="http://www.w3.org/2000/svg" xmlns:xlink="http://www.w3.org/1999/xlink" width="800" height="600" style="" viewBox="0 0 800 600"><rect x="0" y="0" width="800" height="600" style="fill: rgb(255, 255, 255); fill-opacity: 1;"/><defs id="defs-7882c8"><g class="clips"><clipPath id="clip7882c8xyplot" class="plotclip"><rect width="710" height="470"/></clipPath><clipPath class="axesclip" id="clip7882c8x"><rect x="80" y="0" width="710" height="600"/></clipPath><clipPath class="axesclip" id="clip7882c8y"><rect x="0" y="50" width="800" height="470"/></clipPath><clipPath class="axesclip" id="clip7882c8xy"><rect x="80" y="50" width="710" height="470"/></clipPath></g><g class="gradients"/></defs><g class="bglayer"/><g class="layer-below"><g class="imagelayer"/><g class="shapelayer"/></g><g class="cartesianlayer"><g class="subplot xy"><g class="layer-subplot"><g class="shapelayer"/><g class="imagelayer"/></g><g class="gridlayer"><g class="x"><path class="xgrid crisp" transform="translate(212.82,0)" d="M0,50v470" style="stroke: rgb(238, 238, 238); stroke-opacity: 1; stroke-width: 1px;"/><path class="xgrid crisp" transform="translate(355.92,0)" d="M0,50v470" style="stroke: rgb(238, 238, 238); stroke-opacity: 1; stroke-width: 1px;"/><path class="xgrid crisp" transform="translate(499.01,0)" d="M0,50v470" style="stroke: rgb(238, 238, 238); stroke-opacity: 1; stroke-width: 1px;"/><path class="xgrid crisp" transform="translate(642.1,0)" d="M0,50v470" style="stroke: rgb(238, 238, 238); stroke-opacity: 1; stroke-width: 1px;"/><path class="xgrid crisp" transform="translate(785.19,0)" d="M0,50v470" style="stroke: rgb(238, 238, 238); stroke-opacity: 1; stroke-width: 1px;"/></g><g class="y"><path class="ygrid crisp" transform="translate(0,419.29)" d="M80,0h710" style="stroke: rgb(238, 238, 238); stroke-opacity: 1; stroke-width: 1px;"/><path class="ygrid crisp" transform="translate(0,335.36)" d="M80,0h710" style="stroke: rgb(238, 238, 238); stroke-opacity: 1; stroke-width: 1px;"/><path class="ygrid crisp" transform="translate(0,251.43)" d="M80,0h710" style="stroke: rgb(238, 238, 238); stroke-opacity: 1; stroke-width: 1px;"/><path class="ygrid crisp" transform="translate(0,167.5)" d="M80,0h710" style="stroke: rgb(238, 238, 238); stroke-opacity: 1; stroke-width: 1px;"/><path class="ygrid crisp" transform="translate(0,83.57)" d="M80,0h710" style="stroke: rgb(238, 238, 238); stroke-opacity: 1; stroke-width: 1px;"/></g></g><g class="zerolinelayer"><path class="yzl zl crisp" transform="translate(0,503.21)" d="M80,0h710" style="stroke: rgb(68, 68, 68); stroke-opacity: 1; stroke-width: 1px;"/></g><path class="xlines-below"/><path class="ylines-below"/><g class="overlines-below"/><g class="xaxislayer-below"/><g class="yaxislayer-below"/><g class="overaxes-below"/><g class="plot" transform="translate(80, 50)" clip-path="url('#clip7882c8xyplot')"><g class="scatterlayer mlayer"><g class="trace scatter tracef9e7d6" style="stroke-miterlimit: 2; opacity: 1;"><g class="fills"/><g class="errorbars"/><g class="lines"><path class="js-line" style="vector-effect: non-scaling-stroke; fill: none; stroke: rgb(251, 147, 65); stroke-opacity: 1; stroke-width: 1.5px; opacity: 1;" d="M-14200,446.5L-14200,399.5L-14130.66,399.5L-14122.08,23.5L-13980.42,426.36L-13943.21,399.5L-13936.06,399.5L-13870.24,399.5L-13861.65,238.36L-13741.45,446.5L-13704.25,399.5L-13685.65,399.5L-12174.59,399.5L-12153.12,238.36L-12075.85,426.36L-12031.49,399.5L-12002.87,399.5L-11982.84,23.5L-11885.54,399.5L-11861.21,399.5L-11686.64,399.5L-11683.78,238.36L-11566.44,426.36L-11559.29,399.5L-11536.39,399.5L-11530.67,426.36L-11429.07,399.5L-11411.9,399.5L-11310.31,399.5L-11307.44,23.5L-11170.07,399.5L-11167.21,399.5L-10606.29,399.5L-10599.13,238.36L-10480.37,399.5L-10464.63,399.5L-9714.82,399.5L-9701.94,238.36L-9627.53,439.79L-9603.21,399.5L-9590.33,399.5L-5885.66,399.5L-5884.23,345.79L-5814.11,426.36L-5805.53,399.5L-5801.23,399.5L-3750.71,399.5L-3742.13,399.5L-3722.1,426.36L-3699.2,399.5L-3686.32,399.5L-3388.69,399.5L-3362.93,345.79L-3325.73,399.5L-3322.87,399.5L-2959.41,399.5L-2949.4,238.36L-2933.66,426.36L-2907.9,399.5L-2893.59,399.5L-2872.13,399.5L-2859.25,345.79L-2832.06,399.5L-2812.03,399.5L-2690.4,399.5L-2688.97,439.79L-2657.49,399.5L-2646.04,399.5L-2540.15,426.36L-2538.72,345.79L-2527.27,399.5L-2495.79,399.5L-2375.59,399.5L-2372.73,426.36L-2344.11,399.5L-2331.23,399.5L-2308.34,399.5L-2268.27,426.36L-2243.95,399.5L-2225.35,426.36L-2219.62,426.36L-2212.47,399.5L-2156.66,399.5L-2155.23,345.79L-2129.47,399.5L-2125.18,399.5L-2025.02,399.5L-2015,426.36L-1980.66,399.5L-1974.93,426.36L-1954.9,399.5L-1943.45,399.5L-1807.52,399.5L-1790.34,426.36L-1774.6,399.5L-1768.88,399.5L-1757.43,399.5L-1747.42,345.79L-1741.69,345.79L-1721.66,399.5L-1558.53,399.5L-1548.52,426.36L-1542.79,426.36L-1537.07,399.5L-1499.87,399.5L-1494.14,426.36L-1484.13,426.36L-1482.69,345.79L-1456.94,399.5L-1454.08,399.5L-1369.65,399.5L-1362.5,426.36L-1341.03,399.5L-1329.59,426.36L-1316.71,399.5L-1308.12,399.5L-1134.98,399.5L-1127.82,426.36L-1109.22,426.36L-1107.79,399.5L-979.01,399.5L-967.56,426.36L-943.23,399.5L-923.2,399.5L-847.36,399.5L-840.21,426.36L-823.04,399.5L-807.3,399.5L-637.02,399.5L-615.55,345.79L-604.1,399.5L-601.24,345.79L-599.81,345.79L-589.8,399.5L-576.92,399.5L-555.45,426.36L-533.99,399.5L-516.82,399.5L-515.39,426.36L-512.53,399.5L-508.23,399.5L-453.86,399.5L-433.82,426.36L-420.95,399.5L-410.93,399.5L-357.99,399.5L-340.81,426.36L-332.23,399.5L-327.94,399.5L-227.77,399.5L-214.89,426.36L-212.03,426.36L-204.88,399.5L-184.84,399.5L-180.55,426.36L-164.81,399.5L-159.09,399.5L51.26,399.5L67,426.36L77.02,426.36L79.88,399.5L124.24,399.5L125.67,426.36L134.25,426.36L158.58,399.5L174.32,426.36L185.77,399.5L311.69,399.5L315.98,426.36L321.71,399.5L327.43,399.5L367.49,399.5L377.51,426.36L378.94,426.36L384.67,399.5L434.75,399.5L443.33,426.36L449.06,426.36L451.92,23.5L467.66,399.5L481.97,399.5L490.55,426.36L494.85,426.36L499.14,399.5L506.29,399.5L523.47,399.5L524.9,426.36L536.34,426.36L556.38,399.5L557.81,426.36L560.67,426.36L573.55,426.36L585,399.5L589.29,399.5L599.31,426.36L609.32,426.36L617.91,399.5L629.35,399.5L643.66,345.79L653.68,345.79L665.13,399.5L1477.89,399.5L1492.2,426.36L1495.07,426.36L1502.22,399.5L1706.84,399.5L1712.57,426.36L1715.43,426.36L1718.29,399.5L1796.99,399.5L1801.28,426.36L1804.15,238.36L1809.87,399.5L1815.59,399.5L1851.37,399.5L1872.83,345.79L1891.43,399.5L1892.86,399.5L1938.65,399.5L1944.38,426.36L1947.24,426.36L1952.96,399.5L2140.41,399.5L2150.43,426.36L2157.59,426.36L2163.31,399.5L2191.93,399.5L2197.65,426.36L2214.82,399.5L2216.25,399.5L2393.69,399.5L2395.12,426.36L2415.15,399.5L2422.31,399.5L2463.8,399.5L2466.67,426.36L2478.11,426.36L2483.84,399.5L2503.87,399.5L2505.3,426.36L2509.59,426.36L2518.18,399.5L3122.03,399.5L3132.05,426.36L3157.8,399.5L3163.53,399.5L3225.06,399.5L3227.92,345.79L3256.54,399.5L3263.69,238.36L3293.74,399.5L3298.03,399.5L3847.51,399.5L3858.96,23.5L3896.16,399.5L3901.89,399.5L4472.83,426.36L4482.84,345.79L4527.2,399.5L4528.63,399.5L5046.63,399.5L5052.35,238.36L5106.73,399.5L5126.76,399.5L6167.04,399.5L6169.91,345.79L6218.56,426.36L6255.76,399.5L6260.06,399.5L6267.21,23.5L6318.72,399.5L6324.45,399.5L6378.82,399.5L6387.41,345.79L6417.46,426.36L6448.94,399.5L6463.25,399.5L7005.57,399.5L7014.15,345.79L7027.03,426.36L7085.7,399.5L7091.42,399.5L8951.63,399.5L8957.35,238.36L8978.82,426.36L9041.78,399.5L9050.36,399.5L9103.31,426.36L9143.37,399.5L9144.81,345.79L9153.39,426.36L9232.09,399.5L9239.25,399.5L14910,399.5"/></g><g class="points"/><g class="text"/></g><g class="trace scatter traceb615f0" style="stroke-miterlimit: 2; opacity: 1;"><g class="fills"/><g class="errorbars"/><g class="lines"/><g class="points"><path class="point" transform="translate(35046.03,399.5)" style="opacity: 1; stroke-width: 0px; fill: rgb(251, 147, 65); fill-opacity: 1;" d="M3,0A3,3 0 1,1 0,-3A3,3 0 0,1 3,0Z"/></g><g class="text"/></g></g></g><g class="overplot"/><path class="xlines-above crisp" style="fill: none;" d="M0,0"/><path class="ylines-above crisp" style="fill: none;" d="M0,0"/><g class="overlines-above"/><g class="xaxislayer-above"><g class="xtick"><text text-anchor="middle" x="0" y="543" style="font-family: TOBESTRIPPEDOpen SansTOBESTRIPPED, verdana, arial, sans-serif; font-size: 12px; fill: rgb(32, 32, 32); fill-opacity: 1; white-space: pre;" transform="translate(212.82,0)">35.6k</text></g><g class="xtick"><text text-anchor="middle" x="0" y="543" style="font-family: TOBESTRIPPEDOpen SansTOBESTRIPPED, verdana, arial, sans-serif; font-size: 12px; fill: rgb(32, 32, 32); fill-opacity: 1; white-space: pre;" transform="translate(355.92,0)">35.7k</text></g><g class="xtick"><text text-anchor="middle" x="0" y="543" style="font-family: TOBESTRIPPEDOpen SansTOBESTRIPPED, verdana, arial, sans-serif; font-size: 12px; fill: rgb(32, 32, 32); fill-opacity: 1; white-space: pre;" transform="translate(499.01,0)">35.8k</text></g><g class="xtick"><text text-anchor="middle" x="0" y="543" style="font-family: TOBESTRIPPEDOpen SansTOBESTRIPPED, verdana, arial, sans-serif; font-size: 12px; fill: rgb(32, 32, 32); fill-opacity: 1; white-space: pre;" transform="translate(642.1,0)">35.9k</text></g><g class="xtick"><text text-anchor="middle" x="0" y="543" style="font-family: TOBESTRIPPEDOpen SansTOBESTRIPPED, verdana, arial, sans-serif; font-size: 12px; fill: rgb(32, 32, 32); fill-opacity: 1; white-space: pre;" transform="translate(785.19,0)">36k</text></g></g><g class="yaxislayer-above"><g class="ytick"><text text-anchor="end" x="69" y="4.199999999999999" style="font-family: TOBESTRIPPEDOpen SansTOBESTRIPPED, verdana, arial, sans-serif; font-size: 12px; fill: rgb(32, 32, 32); fill-opacity: 1; white-space: pre;" transform="translate(0,503.21)">0</text></g><g class="ytick"><text text-anchor="end" x="69" y="4.199999999999999" style="font-family: TOBESTRIPPEDOpen SansTOBESTRIPPED, verdana, arial, sans-serif; font-size: 12px; fill: rgb(32, 32, 32); fill-opacity: 1; white-space: pre;" transform="translate(0,419.29)">200</text></g><g class="ytick"><text text-anchor="end" x="69" y="4.199999999999999" style="font-family: TOBESTRIPPEDOpen SansTOBESTRIPPED, verdana, arial, sans-serif; font-size: 12px; fill: rgb(32, 32, 32); fill-opacity: 1; white-space: pre;" transform="translate(0,335.36)">400</text></g><g class="ytick"><text text-anchor="end" x="69" y="4.199999999999999" style="font-family: TOBESTRIPPEDOpen SansTOBESTRIPPED, verdana, arial, sans-serif; font-size: 12px; fill: rgb(32, 32, 32); fill-opacity: 1; white-space: pre;" transform="translate(0,251.43)">600</text></g><g class="ytick"><text text-anchor="end" x="69" y="4.199999999999999" style="font-family: TOBESTRIPPEDOpen SansTOBESTRIPPED, verdana, arial, sans-serif; font-size: 12px; fill: rgb(32, 32, 32); fill-opacity: 1; white-space: pre;" transform="translate(0,167.5)">800</text></g><g class="ytick"><text text-anchor="end" x="69" y="4.199999999999999" style="font-family: TOBESTRIPPEDOpen SansTOBESTRIPPED, verdana, arial, sans-serif; font-size: 12px; fill: rgb(32, 32, 32); fill-opacity: 1; white-space: pre;" transform="translate(0,83.57)">1000</text></g></g><g class="overaxes-above"/></g></g><g class="polarlayer"/><g class="ternarylayer"/><g class="geolayer"/><g class="pielayer"/><g class="sunburstlayer"/><g class="glimages"/><defs id="topdefs-7882c8"><g class="clips"/></defs><g class="layer-above"><g class="imagelayer"/><g class="shapelayer"/></g><g class="infolayer"><g class="g-gtitle"/><g class="g-xtitle"/><g class="g-ytitle"/></g></svg>