<svg class="main-svg" xmlns="http://www.w3.org/2000/svg" xmlns:xlink="http://www.w3.org/1999/xlink" width="800" height="600" style="" viewBox="0 0 800 600"><rect x="0" y="0" width="800" height="600" style="fill: rgb(255, 255, 255); fill-opacity: 1;"/><defs id="defs-3b4096"><g class="clips"><clipPath id="clip3b4096xyplot" class="plotclip"><rect width="710" height="470"/></clipPath><clipPath class="axesclip" id="clip3b4096x"><rect x="80" y="0" width="710" height="600"/></clipPath><clipPath class="axesclip" id="clip3b4096y"><rect x="0" y="50" width="800" height="470"/></clipPath><clipPath class="axesclip" id="clip3b4096xy"><rect x="80" y="50" width="710" height="470"/></clipPath></g><g class="gradients"/></defs><g class="bglayer"/><g class="layer-below"><g class="imagelayer"/><g class="shapelayer"/></g><g class="cartesianlayer"><g class="subplot xy"><g class="layer-subplot"><g class="shapelayer"/><g class="imagelayer"/></g><g class="gridlayer"><g class="x"><path class="xgrid crisp" transform="translate(105.01,0)" d="M0,50v470" style="stroke: rgb(238, 238, 238); stroke-opacity: 1; stroke-width: 1px;"/><path class="xgrid crisp" transform="translate(238.63,0)" d="M0,50v470" style="stroke: rgb(238, 238, 238); stroke-opacity: 1; stroke-width: 1px;"/><path class="xgrid crisp" transform="translate(372.24,0)" d="M0,50v470" style="stroke: rgb(238, 238, 238); stroke-opacity: 1; stroke-width: 1px;"/><path class="xgrid crisp" transform="translate(505.85,0)" d="M0,50v470" style="stroke: rgb(238, 238, 238); stroke-opacity: 1; stroke-width: 1px;"/><path class="xgrid crisp" transform="translate(639.46,0)" d="M0,50v470" style="stroke: rgb(238, 238, 238); stroke-opacity: 1; stroke-width: 1px;"/><path class="xgrid crisp" transform="translate(773.07,0)" d="M0,50v470" style="stroke: rgb(238, 238, 238); stroke-opacity: 1; stroke-width: 1px;"/></g><g class="y"><path class="ygrid crisp" transform="translate(0,419.29)" d="M80,0h710" style="stroke: rgb(238, 238, 238); stroke-opacity: 1; stroke-width: 1px;"/><path class="ygrid crisp" transform="translate(0,335.36)" d="M80,0h710" style="stroke: rgb(238, 238, 238); stroke-opacity: 1; stroke-width: 1px;"/><path class="ygrid crisp" transform="translate(0,251.43)" d="M80,0h710" style="stroke: rgb(238, 238, 238); stroke-opacity: 1; stroke-width: 1px;"/><path class="ygrid crisp" transform="translate(0,167.5)" d="M80,0h710" style="stroke: rgb(238, 238, 238); stroke-opacity: 1; stroke-width: 1px;"/><path class="ygrid crisp" transform="translate(0,83.57)" d="M80,0h710" style="stroke: rgb(238, 238, 238); stroke-opacity: 1; stroke-width: 1px;"/></g></g><g class="zerolinelayer"><path class="yzl zl crisp" transform="translate(0,503.21)" d="M80,0h710" style="stroke: rgb(68, 68, 68); stroke-opacity: 1; stroke-width: 1px;"/></g><path class="xlines-below"/><path class="ylines-below"/><g class="overlines-below"/><g class="xaxislayer-below"/><g class="yaxislayer-below"/><g class="overaxes-below"/><g class="plot" transform="translate(80, 50)" clip-path="url('#clip3b4096xyplot')"><g class="scatterlayer mlayer"><g class="trace scatter trace5b1ecc" style="stroke-miterlimit: 2; opacity: 1;"><g class="fills"/><g class="errorbars"/><g class="lines"><path class="js-line" style="vector-effect: non-scaling-stroke; fill: none; stroke: rgb(251, 147, 65); stroke-opacity: 1; stroke-width: 1.5px; opacity: 1;" d="M-14200,446.5L-14200,427.5437371021654L-14116.34,439.79L-14106.99,399.5L-14098.97,23.5L-14008.12,426.36L-13931.96,345.79L-13927.95,23.5L-13919.94,439.79L-13784.99,426.36L-13759.6,446.5L-13547.16,399.5L-13540.48,426.36L-13521.78,345.79L-13505.74,439.79L-13421.57,426.36L-13377.48,426.36L-13051.47,426.36L-12999.36,238.36L-12941.91,446.5L-12929.88,399.5L-12852.39,426.36L-12833.68,23.5L-12821.66,439.79L-12748.17,399.5L-12655.98,345.79L-12575.81,426.36L-12561.11,238.36L-12542.41,399.5L-12513.02,399.5L-12447.55,399.5L-12444.87,238.36L-12328.63,446.5L-12297.9,426.36L-12291.22,238.36L-12228.42,439.79L-12157.61,426.36L-12148.26,23.5L-12048.05,426.36L-12013.31,426.36L-11961.2,426.36L-11911.77,23.5L-11879.7,446.5L-11756.78,426.36L-11754.11,426.36L-11748.76,345.79L-11735.4,439.79L-11672.6,426.36L-11601.79,426.36L-11595.11,23.5L-11489.56,426.36L-11476.2,426.36L-11365.3,399.5L-11363.96,426.36L-11351.94,23.5L-11346.59,439.79L-11250.39,399.5L-11199.62,426.36L-11108.77,426.36L-11104.76,23.5L-11063.34,446.5L-10987.18,399.5L-10976.49,426.36L-10800.13,399.5L-10790.77,23.5L-10698.58,426.36L-10662.51,399.5L-10647.81,238.36L-10602.38,426.36L-10566.31,399.5L-10550.27,426.36L-10539.58,238.36L-10467.43,399.5L-10413.99,426.36L-9941.01,426.36L-9931.66,23.5L-9920.97,446.5L-9828.78,426.36L-9806.06,426.36L-9715.21,399.5L-9639.05,426.36L-9625.69,238.36L-9616.33,399.5L-9564.23,439.79L-9514.79,399.5L-9464.02,426.36L-9415.92,426.36L-9397.21,399.5L-9391.87,426.36L-9390.53,238.36L-9305.02,426.36L-9232.87,426.36L-9048.49,399.5L-9036.46,238.36L-8952.29,439.79L-8880.14,439.79L-8860.1,238.36L-8813.33,446.5L-8812,345.79L-8763.9,446.5L-8618.26,399.5L-8547.45,238.36L-8491.33,23.5L-8451.25,426.36L-8441.9,399.5L-8356.39,23.5L-8347.03,399.5L-8230.79,426.36L-8154.63,426.36L-8095.84,426.36L-8071.79,238.36L-8017.01,238.36L-7928.83,399.5L-7860.69,426.36L-7763.15,399.5L-7712.38,426.36L-7604.16,345.79L-7532.01,426.36L-7499.94,446.5L-7487.92,238.36L-7457.19,426.36L-7410.42,439.79L-7389.04,345.79L-7379.69,399.5L-6892.01,399.5L-6151.81,439.79L-6149.14,238.36L-6131.77,23.5L-6118.41,399.5L-6086.34,426.36L-6059.62,446.5L-6044.92,399.5L-6011.52,399.5L-5917.99,399.5L-5911.31,345.79L-5865.88,399.5L-5840.5,426.36L-5760.33,426.36L-5752.31,439.79L-5685.51,399.5L-5657.45,399.5L-5465.05,426.36L-5446.34,399.5L-5410.27,399.5L-5396.91,238.36L-5352.82,426.36L-5318.08,399.5L-5287.35,399.5L-5279.33,426.36L-5231.23,399.5L-5205.85,399.5L-5121.67,426.36L-5105.64,399.5L-5054.86,446.5L-5046.85,399.5L-5022.8,238.36L-5020.13,426.36L-4988.06,23.5L-4934.62,238.36L-4870.48,426.36L-4851.78,399.5L-4759.59,426.36L-4707.48,399.5L-4696.79,23.5L-4676.75,399.5L-4583.22,399.5L-4497.71,399.5L-4457.63,238.36L-4428.23,439.79L-4394.83,426.36L-4376.12,399.5L-4290.61,426.36L-4258.55,238.36L-4147.65,399.5L-4118.25,399.5L-3855.04,426.36L-3847.02,23.5L-3796.25,426.36L-3770.87,426.36L-3527.69,399.5L-3518.34,23.5L-3482.27,399.5L-3471.58,399.5L-3010.62,426.36L-3001.27,439.79L-2983.9,426.36L-2898.39,426.36L-2860.98,399.5L-2842.27,446.5L-2814.21,399.5L-2790.16,399.5L-2747.41,426.36L-2693.96,399.5L-2462.82,399.5L-2454.8,439.79L-2396.01,399.5L-2377.31,426.36L-2370.63,345.79L-2350.58,426.36L-2323.86,345.79L-2311.84,426.36L-2290.46,23.5L-2287.79,426.36L-2267.75,426.36L-2135.47,426.36L-2119.44,399.5L-2112.76,399.5L-2111.42,439.79L-2029.92,426.36L-2017.89,446.5L-2001.86,426.36L-1991.17,426.36L-1967.12,399.5L-1956.43,426.36L-1920.36,399.5L-1912.34,238.36L-1894.97,399.5L-1862.91,399.5L-1739.98,399.5L-1735.97,23.5L-1670.51,399.5L-1631.76,399.5L-1524.87,399.5L-1483.45,426.36L-1369.88,426.36L-1357.86,23.5L-1352.51,426.36L-1333.81,426.36L-1210.88,426.36L-1165.46,399.5L-1157.44,399.5L-1144.08,439.79L-1097.32,345.79L-1091.97,426.36L-1087.96,426.36L-1078.61,399.5L-1059.9,345.79L-1055.9,399.5L-1030.51,399.5L-927.63,426.36L-918.28,426.36L-904.92,23.5L-871.51,399.5L-846.13,399.5L-804.71,399.5L-739.24,426.36L-737.9,399.5L-689.8,399.5L-667.09,399.5L-633.69,426.36L-590.93,399.5L-554.86,399.5L-534.81,399.5L-530.81,426.36L-524.13,345.79L-520.12,426.36L-516.11,399.5L-508.09,399.5L-498.74,439.79L-496.07,399.5L-482.71,426.36L-451.98,426.36L-445.3,439.79L-443.96,426.36L-429.26,426.36L-407.88,446.5L-354.44,426.36L-337.07,399.5L-330.39,399.5L-296.99,426.36L-295.65,238.36L-246.22,399.5L-230.18,439.79L-223.5,399.5L-212.81,426.36L-198.12,426.36L-194.11,399.5L-176.74,399.5L-128.64,399.5L-111.27,23.5L-64.5,399.5L-63.17,399.5L-4.38,399.5L50.4,426.36L66.43,399.5L74.45,426.36L106.52,426.36L125.22,399.5L159.96,426.36L170.65,399.5L188.02,399.5L201.38,426.36L221.42,399.5L232.11,399.5L252.15,399.5L257.5,426.36L278.87,399.5L305.6,399.5L417.83,399.5L441.88,426.36L464.59,399.5L484.64,399.5L516.7,399.5L526.05,446.5L531.4,399.5L534.07,399.5L542.09,399.5L543.42,446.5L547.43,345.79L548.77,399.5L555.45,439.79L574.15,399.5L1294.32,399.5L1303.67,426.36L1346.42,426.36L1351.77,399.5L1366.47,399.5L1371.81,426.36L1390.52,399.5L1413.23,426.36L1457.32,426.36L1474.69,399.5L1556.19,399.5L1562.87,426.36L1576.23,439.79L1596.28,345.79L1600.28,446.5L1609.64,399.5L1655.07,399.5L1684.46,426.36L1744.58,426.36L1748.59,399.5L1752.6,399.5L1767.3,426.36L1777.99,399.5L1812.73,399.5L1953.02,399.5L1959.7,426.36L1979.74,399.5L1982.41,345.79L1983.75,399.5L2018.49,399.5L2021.16,238.36L2073.27,426.36L2087.96,399.5L2097.32,439.79L2116.02,399.5L2133.39,399.5L2367.21,399.5L2384.58,426.36L2412.64,426.36L2431.34,399.5L2435.35,399.5L2487.46,426.36L2524.87,399.5L2535.56,399.5L2589,399.5L2651.8,238.36L2677.19,426.36L2694.56,399.5L2702.57,399.5L2729.3,426.36L2766.71,426.36L2812.13,399.5L2816.14,399.5L2933.72,399.5L2941.74,426.36L2965.79,399.5L2968.46,439.79L3009.88,399.5L3055.31,399.5L3839.6,426.36L3847.62,345.79L3883.69,426.36L3889.04,426.36L4416.8,399.5L4426.15,345.79L4451.54,399.5L4468.91,399.5L4513,426.36L4523.69,399.5L4698.72,399.5L4712.08,446.5L4753.5,345.79L4786.9,345.79L4800.26,439.79L4837.67,399.5L4877.76,399.5L4965.94,399.5L5010.03,399.5L5064.81,426.36L5111.57,426.36L5604.6,399.5L5609.94,23.5L5674.08,426.36L5678.08,399.5L5686.1,399.5L5695.45,345.79L5704.81,426.36L5735.54,399.5L5764.93,399.5L5846.43,426.36L5889.19,426.36L6177.79,399.5L6179.12,238.36L6236.58,439.79L6237.91,399.5L6240.58,399.5L6871.23,399.5L6881.92,238.36L6938.03,399.5L6967.43,399.5L7310.81,399.5L7329.51,345.79L7408.34,399.5L7420.37,399.5L8287.5,399.5L8324.91,238.36L8425.12,426.36L8441.15,399.5L8451.84,399.5L8560.07,399.5L8566.75,399.5L10890.24,399.5L10898.25,23.5L11030.53,426.36L11053.24,399.5L11133.41,399.5L11141.43,238.36L11253.66,446.5L11257.67,399.5L11275.04,399.5L12716.7,399.5L12736.74,238.36L12808.89,426.36L12850.31,399.5L12877.03,399.5L12895.73,23.5L12986.59,399.5L13009.3,399.5L13172.31,399.5L13174.98,238.36L13317.94,426.36L13335.31,399.5L13523.7,399.5L13526.38,23.5L13682.7,399.5L13686.71,399.5L14181.07,399.5L14187.75,238.36L14342.74,426.36L14354.76,399.5L14910,399.5"/></g><g class="points"/><g class="text"/></g><g class="trace scatter tracee6c467" style="stroke-miterlimit: 2; opacity: 1;"><g class="fills"/><g class="errorbars"/><g class="lines"/><g class="points"><path class="point" transform="translate(56808.23,399.5)" style="opacity: 1; stroke-width: 0px; fill: rgb(251, 147, 65); fill-opacity: 1;" d="M3,0A3,3 0 1,1 0,-3A3,3 0 0,1 3,0Z"/></g><g class="text"/></g></g></g><g class="overplot"/><path class="xlines-above crisp" style="fill: none;" d="M0,0"/><path class="ylines-above crisp" style="fill: none;" d="M0,0"/><g class="overlines-above"/><g class="xaxislayer-above"><g class="xtick"><text text-anchor="middle" x="0" y="543" style="font-family: TOBESTRIPPEDOpen SansTOBESTRIPPED, verdana, arial, sans-serif; font-size: 12px; fill: rgb(32, 32, 32); fill-opacity: 1; white-space: pre;" transform="translate(105.01,0)">17.5k</text></g><g class="xtick"><text text-anchor="middle" x="0" y="543" style="font-family: TOBESTRIPPEDOpen SansTOBESTRIPPED, verdana, arial, sans-serif; font-size: 12px; fill: rgb(32, 32, 32); fill-opacity: 1; white-space: pre;" transform="translate(238.63,0)">17.6k</text></g><g class="xtick"><text text-anchor="middle" x="0" y="543" style="font-family: TOBESTRIPPEDOpen SansTOBESTRIPPED, verdana, arial, sans-serif; font-size: 12px; fill: rgb(32, 32, 32); fill-opacity: 1; white-space: pre;" transform="translate(372.24,0)">17.7k</text></g><g class="xtick"><text text-anchor="middle" x="0" y="543" style="font-family: TOBESTRIPPEDOpen SansTOBESTRIPPED, verdana, arial, sans-serif; font-size: 12px; fill: rgb(32, 32, 32); fill-opacity: 1; white-space: pre;" transform="translate(505.85,0)">17.8k</text></g><g class="xtick"><text text-anchor="middle" x="0" y="543" style="font-family: TOBESTRIPPEDOpen SansTOBESTRIPPED, verdana, arial, sans-serif; font-size: 12px; fill: rgb(32, 32, 32); fill-opacity: 1; white-space: pre;" transform="translate(639.46,0)">17.9k</text></g><g class="xtick"><text text-anchor="middle" x="0" y="543" style="font-family: TOBESTRIPPEDOpen SansTOBESTRIPPED, verdana, arial, sans-serif; font-size: 12px; fill: rgb(32, 32, 32); fill-opacity: 1; white-space: pre;" transform="translate(773.07,0)">18k</text></g></g><g class="yaxislayer-above"><g class="ytick"><text text-anchor="end" x="69" y="4.199999999999999" style="font-family: TOBESTRIPPEDOpen SansTOBESTRIPPED, verdana, arial, sans-serif; font-size: 12px; fill: rgb(32, 32, 32); fill-opacity: 1; white-space: pre;" transform="translate(0,503.21)">0</text></g><g class="ytick"><text text-anchor="end" x="69" y="4.199999999999999" style="font-family: TOBESTRIPPEDOpen SansTOBESTRIPPED, verdana, arial, sans-serif; font-size: 12px; fill: rgb(32, 32, 32); fill-opacity: 1; white-space: pre;" transform="translate(0,419.29)">200</text></g><g class="ytick"><text text-anchor="end" x="69" y="4.199999999999999" style="font-family: TOBESTRIPPEDOpen SansTOBESTRIPPED, verdana, arial, sans-serif; font-size: 12px; fill: rgb(32, 32, 32); fill-opacity: 1; white-space: pre;" transform="translate(0,335.36)">400</text></g><g class="ytick"><text text-anchor="end" x="69" y="4.199999999999999" style="font-family: TOBESTRIPPEDOpen SansTOBESTRIPPED, verdana, arial, sans-serif; font-size: 12px; fill: rgb(32, 32, 32); fill-opacity: 1; white-space: pre;" transform="translate(0,251.43)">600</text></g><g class="ytick"><text text-anchor="end" x="69" y="4.199999999999999" style="font-family: TOBESTRIPPEDOpen SansTOBESTRIPPED, verdana, arial, sans-serif; font-size: 12px; fill: rgb(32, 32, 32); fill-opacity: 1; white-space: pre;" transform="translate(0,167.5)">800</text></g><g class="ytick"><text text-anchor="end" x="69" y="4.199999999999999" style="font-family: TOBESTRIPPEDOpen SansTOBESTRIPPED, verdana, arial, sans-serif; font-size: 12px; fill: rgb(32, 32, 32); fill-opacity: 1; white-space: pre;" transform="translate(0,83.57)">1000</text></g></g><g class="overaxes-above"/></g></g><g class="polarlayer"/><g class="ternarylayer"/><g class="geolayer"/><g class="pielayer"/><g class="sunburstlayer"/><g class="glimages"/><defs id="topdefs-3b4096"><g class="clips"/></defs><g class="layer-above"><g class="imagelayer"/><g class="shapelayer"/></g><g class="infolayer"><g class="g-gtitle"/><g class="g-xtitle"/><g class="g-ytitle"/></g></svg>