<svg class="main-svg" xmlns="http://www.w3.org/2000/svg" xmlns:xlink="http://www.w3.org/1999/xlink" width="800" height="600" style="" viewBox="0 0 800 600"><rect x="0" y="0" width="800" height="600" style="fill: rgb(255, 255, 255); fill-opacity: 1;"/><defs id="defs-1f0399"><g class="clips"><clipPath id="clip1f0399xyplot" class="plotclip"><rect width="710" height="470"/></clipPath><clipPath class="axesclip" id="clip1f0399x"><rect x="80" y="0" width="710" height="600"/></clipPath><clipPath class="axesclip" id="clip1f0399y"><rect x="0" y="50" width="800" height="470"/></clipPath><clipPath class="axesclip" id="clip1f0399xy"><rect x="80" y="50" width="710" height="470"/></clipPath></g><g class="gradients"/></defs><g class="bglayer"/><g class="layer-below"><g class="imagelayer"/><g class="shapelayer"/></g><g class="cartesianlayer"><g class="subplot xy"><g class="layer-subplot"><g class="shapelayer"/><g class="imagelayer"/></g><g class="gridlayer"><g class="x"><path class="xgrid crisp" transform="translate(96.78999999999999,0)" d="M0,50v470" style="stroke: rgb(238, 238, 238); stroke-opacity: 1; stroke-width: 1px;"/><path class="xgrid crisp" transform="translate(235.03,0)" d="M0,50v470" style="stroke: rgb(238, 238, 238); stroke-opacity: 1; stroke-width: 1px;"/><path class="xgrid crisp" transform="translate(373.27,0)" d="M0,50v470" style="stroke: rgb(238, 238, 238); stroke-opacity: 1; stroke-width: 1px;"/><path class="xgrid crisp" transform="translate(511.5,0)" d="M0,50v470" style="stroke: rgb(238, 238, 238); stroke-opacity: 1; stroke-width: 1px;"/><path class="xgrid crisp" transform="translate(649.74,0)" d="M0,50v470" style="stroke: rgb(238, 238, 238); stroke-opacity: 1; stroke-width: 1px;"/><path class="xgrid crisp" transform="translate(787.98,0)" d="M0,50v470" style="stroke: rgb(238, 238, 238); stroke-opacity: 1; stroke-width: 1px;"/></g><g class="y"><path class="ygrid crisp" transform="translate(0,419.29)" d="M80,0h710" style="stroke: rgb(238, 238, 238); stroke-opacity: 1; stroke-width: 1px;"/><path class="ygrid crisp" transform="translate(0,335.36)" d="M80,0h710" style="stroke: rgb(238, 238, 238); stroke-opacity: 1; stroke-width: 1px;"/><path class="ygrid crisp" transform="translate(0,251.43)" d="M80,0h710" style="stroke: rgb(238, 238, 238); stroke-opacity: 1; stroke-width: 1px;"/><path class="ygrid crisp" transform="translate(0,167.5)" d="M80,0h710" style="stroke: rgb(238, 238, 238); stroke-opacity: 1; stroke-width: 1px;"/><path class="ygrid crisp" transform="translate(0,83.57)" d="M80,0h710" style="stroke: rgb(238, 238, 238); stroke-opacity: 1; stroke-width: 1px;"/></g></g><g class="zerolinelayer"><path class="yzl zl crisp" transform="translate(0,503.21)" d="M80,0h710" style="stroke: rgb(68, 68, 68); stroke-opacity: 1; stroke-width: 1px;"/></g><path class="xlines-below"/><path class="ylines-below"/><g class="overlines-below"/><g class="xaxislayer-below"/><g class="yaxislayer-below"/><g class="overaxes-below"/><g class="plot" transform="translate(80, 50)" clip-path="url('#clip1f0399xyplot')"><g class="scatterlayer mlayer"><g class="trace scatter traceaeab18" style="stroke-miterlimit: 2; opacity: 1;"><g class="fills"/><g class="errorbars"/><g class="lines"><path class="js-line" style="vector-effect: non-scaling-stroke; fill: none; stroke: rgb(251, 147, 65); stroke-opacity: 1; stroke-width: 1.5px; opacity: 1;" d="M-14200,446.5L-14200,401.74912073357115L-14036.39,345.79L-14011.51,23.5L-13880.19,446.5L-13826.27,399.5L-13772.36,446.5L-13733.65,238.36L-13628.59,446.5L-13577.45,345.79L-13544.27,23.5L-13473.77,426.36L-13459.95,426.36L-13411.56,426.36L-13382.53,426.36L-13354.88,23.5L-13324.47,446.5L-13215.27,426.36L-13175.18,23.5L-13119.88,446.5L-13030.03,345.79L-12976.12,439.79L-12967.82,23.5L-12847.55,426.36L-12819.91,23.5L-12741.11,446.5L-12662.32,426.36L-12654.02,399.5L-12605.64,426.36L-12561.4,23.5L-12515.79,446.5L-12425.93,345.79L-12365.11,426.36L-12218.58,238.36L-12189.55,345.79L-12119.05,446.5L-12110.75,426.36L-12098.31,23.5L-12065.13,439.79L-11965.6,238.36L-11960.07,23.5L-11839.81,446.5L-11808.01,446.5L-11772.07,23.5L-11707.1,426.36L-11678.07,446.5L-11531.54,426.36L-11523.24,23.5L-11461.04,439.79L-11407.12,238.36L-11325.56,345.79L-11227.42,238.36L-11226.03,426.36L-11205.3,426.36L-11151.39,238.36L-11140.33,426.36L-11130.65,23.5L-11056,446.5L-11033.88,238.36L-11022.82,426.36L-10995.18,23.5L-10953.71,439.79L-10908.09,399.5L-10859.7,426.36L-10830.68,399.5L-10753.26,446.5L-10742.2,399.5L-10721.47,446.5L-10682.76,23.5L-10615.03,399.5L-10591.52,439.79L-10483.7,238.36L-10482.32,399.5L-10457.43,399.5L-10431.17,446.5L-10395.23,399.5L-10360.67,23.5L-10283.26,446.5L-10268.05,238.36L-10219.67,446.5L-10204.46,238.36L-10107.69,345.79L-10088.34,399.5L-10067.61,446.5L-10053.78,23.5L-10046.87,426.36L-9972.22,345.79L-9945.96,23.5L-9886.52,439.79L-9871.31,426.36L-9856.1,345.79L-9827.07,439.79L-9791.13,238.36L-9757.95,238.36L-9730.31,439.79L-9633.54,439.79L-9603.13,446.5L-9527.1,23.5L-9520.19,446.5L-9440.01,23.5L-9434.48,399.5L-9397.16,345.79L-9393.01,446.5L-9358.45,439.79L-9325.27,439.79L-9250.62,399.5L-9238.18,23.5L-9225.74,439.79L-9135.89,238.36L-9124.83,399.5L-9116.53,439.79L-9077.83,345.79L-9026.68,426.36L-9023.92,238.36L-8983.83,426.36L-8950.65,23.5L-8860.8,426.36L-8859.41,23.5L-8844.21,238.36L-8722.56,446.5L-8694.91,399.5L-8692.15,439.79L-8638.23,238.36L-8627.18,426.36L-8617.5,23.5L-8594,23.5L-8556.67,426.36L-8491.7,439.79L-8488.94,238.36L-8473.73,23.5L-8421.2,446.5L-8415.67,439.79L-8372.82,446.5L-8288.49,345.79L-8263.61,23.5L-8190.35,446.5L-8173.76,345.79L-8132.29,426.36L-8060.4,446.5L-8057.64,23.5L-8050.73,399.5L-7982.99,426.36L-7934.61,439.79L-7927.7,23.5L-7898.67,345.79L-7893.14,446.5L-7794.99,426.36L-7742.46,345.79L-7703.75,446.5L-7687.16,23.5L-7640.16,439.79L-7605.6,426.36L-7594.54,238.36L-7589.01,446.5L-7587.63,345.79L-7164.63,399.5L-7160.48,439.79L-7138.36,238.36L-7095.51,426.36L-7073.39,23.5L-7004.27,426.36L-6973.86,399.5L-6885.39,426.36L-6770.65,23.5L-6709.83,446.5L-6693.24,426.36L-6310.32,399.5L-6302.03,23.5L-6230.14,426.36L-6208.03,426.36L-6129.23,345.79L-6126.47,399.5L-6125.08,23.5L-6116.79,439.79L-6058.73,399.5L-6042.14,399.5L-5910.82,399.5L-5895.61,399.5L-5881.79,446.5L-5874.87,426.36L-5825.11,345.79L-5749.08,426.36L-5731.11,399.5L-5704.84,345.79L-5688.25,439.79L-5679.96,426.36L-5660.61,426.36L-5646.78,399.5L-5601.16,426.36L-5555.55,426.36L-5414.54,426.36L-5382.75,345.79L-5339.9,446.5L-5303.95,426.36L-5266.63,399.5L-5258.34,345.79L-5244.51,426.36L-5218.25,426.36L-5164.34,238.36L-5149.13,446.5L-5111.81,426.36L-5104.89,446.5L-5092.45,399.5L-5012.27,426.36L-4992.92,23.5L-4980.48,439.79L-4909.98,399.5L-4809.07,345.79L-4802.15,426.36L-4742.71,399.5L-4728.89,399.5L-4726.12,426.36L-4710.92,238.36L-4691.56,399.5L-4661.15,399.5L-4593.42,399.5L-4590.65,238.36L-4535.36,399.5L-4500.8,238.36L-4470.38,446.5L-4438.59,426.36L-4431.68,238.36L-4366.71,439.79L-4351.5,399.5L-4315.56,426.36L-4301.74,238.36L-4283.76,23.5L-4278.24,426.36L-4258.88,399.5L-4187,426.36L-4090.23,426.36L-4039.09,23.5L-4005.91,446.5L-3985.17,399.5L-3952,426.36L-3875.97,426.36L-3870.44,345.79L-3856.61,439.79L-3855.23,399.5L-3797.17,426.36L-3718.38,426.36L-3711.46,23.5L-3703.17,426.36L-3664.46,399.5L-3656.17,426.36L-3631.29,399.5L-3602.26,426.36L-3515.17,399.5L-3480.61,439.79L-3459.87,23.5L-3454.34,439.79L-3370.02,399.5L-3367.25,238.36L-3361.72,426.36L-3354.81,399.5L-3302.28,426.36L-3258.05,439.79L-3241.46,399.5L-3208.28,426.36L-3204.13,23.5L-3161.28,446.5L-3159.9,238.36L-3135.01,439.79L-3112.9,426.36L-3097.69,399.5L-2888.95,399.5L-2879.28,23.5L-2866.83,426.36L-2850.25,399.5L-2812.92,23.5L-2783.89,426.36L-2746.57,399.5L-2731.36,238.36L-2729.98,399.5L-2713.39,399.5L-2691.27,345.79L-2684.36,426.36L-2647.04,399.5L-2630.45,426.36L-2619.39,238.36L-2594.51,426.36L-2544.74,399.5L-2489.45,426.36L-2434.15,426.36L-2316.65,399.5L-2309.74,426.36L-2265.5,426.36L-2230.94,446.5L-2210.21,426.36L-2167.35,426.36L-2146.62,399.5L-2096.85,426.36L-2059.53,399.5L-2044.32,426.36L-2000.09,426.36L-1990.41,23.5L-1979.35,446.5L-1971.06,345.79L-1966.91,23.5L-1943.41,399.5L-1893.65,399.5L-1886.73,426.36L-1853.56,426.36L-1838.35,399.5L-1766.47,399.5L-1687.67,426.36L-1675.23,399.5L-1673.85,238.36L-1664.17,399.5L-1610.26,439.79L-1607.49,399.5L-1582.61,399.5L-1559.11,399.5L-1553.58,426.36L-1438.84,426.36L-1437.46,399.5L-1431.93,426.36L-1430.55,238.36L-1408.43,426.36L-1395.99,426.36L-1267.43,426.36L-1205.22,399.5L-1177.58,399.5L-1169.28,426.36L-1151.31,399.5L-1147.16,426.36L-1076.66,399.5L-1064.22,238.36L-1057.31,238.36L-1050.4,399.5L-1022.75,426.36L-993.72,345.79L-989.57,426.36L-977.13,439.79L-902.48,439.79L-881.75,238.36L-861.01,426.36L-833.37,446.5L-831.98,345.79L-782.22,446.5L-743.51,426.36L-735.22,399.5L-731.07,399.5L-697.89,446.5L-689.6,399.5L-631.54,399.5L-558.27,238.36L-547.22,399.5L-511.27,399.5L-500.21,23.5L-483.63,399.5L-458.74,426.36L-449.07,399.5L-386.86,23.5L-360.6,23.5L-350.92,399.5L-334.33,399.5L-316.36,426.36L-111.77,426.36L-95.18,446.5L-91.03,426.36L-66.15,238.36L-9.47,238.36L81.76,399.5L83.15,399.5L121.85,426.36L141.21,399.5L149.5,426.36L150.88,399.5L152.26,426.36L253.18,399.5L268.38,399.5L269.77,426.36L275.3,399.5L283.59,399.5L305.71,426.36L417.68,345.79L423.21,399.5L453.62,399.5L484.03,426.36L492.33,426.36L525.5,446.5L537.95,238.36L547.62,426.36L562.83,399.5L569.74,426.36L618.12,439.79L640.24,345.79L643.01,426.36L645.77,439.79L649.92,399.5L1154.48,399.5L1205.63,399.5L1227.75,426.36L1331.43,426.36L1348.02,399.5L1383.96,399.5L1388.1,426.36L1401.93,399.5L1428.19,399.5L1453.08,426.36L1477.96,426.36L1585.78,399.5L1628.64,426.36L1657.67,399.5L1671.49,426.36L1686.7,399.5L1697.76,426.36L1733.7,399.5L1784.84,399.5L1838.76,426.36L1920.32,439.79L1923.08,238.36L1941.05,23.5L1954.88,399.5L1988.05,426.36L2015.7,446.5L2030.91,399.5L2065.47,399.5L2104.17,426.36L2130.44,399.5L2135.97,426.36L2162.23,399.5L2169.14,345.79L2184.35,399.5L2216.14,399.5L2242.41,426.36L2267.29,399.5L2274.2,426.36L2325.35,426.36L2333.65,439.79L2340.56,399.5L2351.62,426.36L2368.21,426.36L2431.79,399.5L2444.24,399.5L2517.5,426.36L2581.09,426.36L2630.86,426.36L2650.21,399.5L2666.8,399.5L2677.86,426.36L2687.53,399.5L2701.36,238.36L2746.98,426.36L2782.92,399.5L2814.71,399.5L2823.01,426.36L2852.04,399.5L2872.77,399.5L2899.04,399.5L2922.54,426.36L2959.86,399.5L2986.13,426.36L3011.01,399.5L3049.71,426.36L3055.24,446.5L3063.54,399.5L3088.42,238.36L3091.19,426.36L3124.36,23.5L3246.01,426.36L3265.36,399.5L3371.81,399.5L3414.66,399.5L3425.72,23.5L3428.48,399.5L3446.46,399.5L3631.69,399.5L3673.16,238.36L3703.58,439.79L3732.61,426.36L3772.69,399.5L3825.22,399.5L3845.96,426.36L3879.14,238.36L3993.87,399.5L4024.29,399.5L4296.61,426.36L4304.91,23.5L4357.44,426.36L4383.7,426.36L4635.29,399.5L4644.97,23.5L4682.29,399.5L4693.35,399.5L5825.52,426.36L5832.43,345.79L5893.25,426.36L5915.37,23.5L5966.52,426.36L5980.34,426.36L6298.29,399.5L6306.58,238.36L6357.73,399.5L6378.46,399.5L6484.91,399.5L6489.05,23.5L6605.17,399.5L6625.91,399.5L6867.82,426.36L6880.27,23.5L6905.15,426.36L7006.06,426.36L7127.71,399.5L7149.83,345.79L7159.5,426.36L7218.95,399.5L7325.39,426.36L7348.89,23.5L7383.45,399.5L7409.71,399.5L7735.95,426.36L7742.86,345.79L7769.13,439.79L7817.51,426.36L7824.42,439.79L7943.31,399.5L7977.87,426.36L7979.25,238.36L8046.99,439.79L8053.9,399.5L8064.96,426.36L8152.05,399.5L8170.02,23.5L8280.61,399.5L8337.28,426.36L8414.7,399.5L8450.64,426.36L8546.02,399.5L8551.55,426.36L8601.32,399.5L8706.38,399.5L8847.38,446.5L8851.53,345.79L8859.82,439.79L8887.47,399.5L8962.12,399.5L9938.07,426.36L9940.84,446.5L9997.51,399.5L10027.92,426.36L10079.07,426.36L10210.4,399.5L10222.84,399.5L10373.52,399.5L10376.28,238.36L10455.08,439.79L10504.84,399.5L10572.58,399.5L10963.79,399.5L11028.76,238.36L11147.65,426.36L11168.38,399.5L14083.8,399.5L14089.33,23.5L14187.48,426.36L14249.69,399.5L14255.22,399.5L14432.16,426.36L14451.51,426.36L14676.84,399.5L14678.22,238.36L14737.66,439.79L14817.84,399.5L14844.11,399.5L14910,399.5"/></g><g class="points"/><g class="text"/></g><g class="trace scatter tracec32572" style="stroke-miterlimit: 2; opacity: 1;"><g class="fills"/><g class="errorbars"/><g class="lines"/><g class="points"><path class="point" transform="translate(67060.41,399.5)" style="opacity: 1; stroke-width: 0px; fill: rgb(251, 147, 65); fill-opacity: 1;" d="M3,0A3,3 0 1,1 0,-3A3,3 0 0,1 3,0Z"/></g><g class="text"/></g></g></g><g class="overplot"/><path class="xlines-above crisp" style="fill: none;" d="M0,0"/><path class="ylines-above crisp" style="fill: none;" d="M0,0"/><g class="overlines-above"/><g class="xaxislayer-above"><g class="xtick"><text text-anchor="middle" x="0" y="543" style="font-family: TOBESTRIPPEDOpen SansTOBESTRIPPED, verdana, arial, sans-serif; font-size: 12px; fill: rgb(32, 32, 32); fill-opacity: 1; white-space: pre;" transform="translate(96.78999999999999,0)">11.5k</text></g><g class="xtick"><text text-anchor="middle" x="0" y="543" style="font-family: TOBESTRIPPEDOpen SansTOBESTRIPPED, verdana, arial, sans-serif; font-size: 12px; fill: rgb(32, 32, 32); fill-opacity: 1; white-space: pre;" transform="translate(235.03,0)">11.6k</text></g><g class="xtick"><text text-anchor="middle" x="0" y="543" style="font-family: TOBESTRIPPEDOpen SansTOBESTRIPPED, verdana, arial, sans-serif; font-size: 12px; fill: rgb(32, 32, 32); fill-opacity: 1; white-space: pre;" transform="translate(373.27,0)">11.7k</text></g><g class="xtick"><text text-anchor="middle" x="0" y="543" style="font-family: TOBESTRIPPEDOpen SansTOBESTRIPPED, verdana, arial, sans-serif; font-size: 12px; fill: rgb(32, 32, 32); fill-opacity: 1; white-space: pre;" transform="translate(511.5,0)">11.8k</text></g><g class="xtick"><text text-anchor="middle" x="0" y="543" style="font-family: TOBESTRIPPEDOpen SansTOBESTRIPPED, verdana, arial, sans-serif; font-size: 12px; fill: rgb(32, 32, 32); fill-opacity: 1; white-space: pre;" transform="translate(649.74,0)">11.9k</text></g><g class="xtick"><text text-anchor="middle" x="0" y="543" style="font-family: TOBESTRIPPEDOpen SansTOBESTRIPPED, verdana, arial, sans-serif; font-size: 12px; fill: rgb(32, 32, 32); fill-opacity: 1; white-space: pre;" transform="translate(787.98,0)">12k</text></g></g><g class="yaxislayer-above"><g class="ytick"><text text-anchor="end" x="69" y="4.199999999999999" style="font-family: TOBESTRIPPEDOpen SansTOBESTRIPPED, verdana, arial, sans-serif; font-size: 12px; fill: rgb(32, 32, 32); fill-opacity: 1; white-space: pre;" transform="translate(0,503.21)">0</text></g><g class="ytick"><text text-anchor="end" x="69" y="4.199999999999999" style="font-family: TOBESTRIPPEDOpen SansTOBESTRIPPED, verdana, arial, sans-serif; font-size: 12px; fill: rgb(32, 32, 32); fill-opacity: 1; white-space: pre;" transform="translate(0,419.29)">200</text></g><g class="ytick"><text text-anchor="end" x="69" y="4.199999999999999" style="font-family: TOBESTRIPPEDOpen SansTOBESTRIPPED, verdana, arial, sans-serif; font-size: 12px; fill: rgb(32, 32, 32); fill-opacity: 1; white-space: pre;" transform="translate(0,335.36)">400</text></g><g class="ytick"><text text-anchor="end" x="69" y="4.199999999999999" style="font-family: TOBESTRIPPEDOpen SansTOBESTRIPPED, verdana, arial, sans-serif; font-size: 12px; fill: rgb(32, 32, 32); fill-opacity: 1; white-space: pre;" transform="translate(0,251.43)">600</text></g><g class="ytick"><text text-anchor="end" x="69" y="4.199999999999999" style="font-family: TOBESTRIPPEDOpen SansTOBESTRIPPED, verdana, arial, sans-serif; font-size: 12px; fill: rgb(32, 32, 32); fill-opacity: 1; white-space: pre;" transform="translate(0,167.5)">800</text></g><g class="ytick"><text text-anchor="end" x="69" y="4.199999999999999" style="font-family: TOBESTRIPPEDOpen SansTOBESTRIPPED, verdana, arial, sans-serif; font-size: 12px; fill: rgb(32, 32, 32); fill-opacity: 1; white-space: pre;" transform="translate(0,83.57)">1000</text></g></g><g class="overaxes-above"/></g></g><g class="polarlayer"/><g class="ternarylayer"/><g class="geolayer"/><g class="pielayer"/><g class="sunburstlayer"/><g class="glimages"/><defs id="topdefs-1f0399"><g class="clips"/></defs><g class="layer-above"><g class="imagelayer"/><g class="shapelayer"/></g><g class="infolayer"><g class="g-gtitle"/><g class="g-xtitle"/><g class="g-ytitle"/></g></svg>