<svg class="main-svg" xmlns="http://www.w3.org/2000/svg" xmlns:xlink="http://www.w3.org/1999/xlink" width="800" height="600" style="" viewBox="0 0 800 600"><rect x="0" y="0" width="800" height="600" style="fill: rgb(255, 255, 255); fill-opacity: 1;"/><defs id="defs-cff47a"><g class="clips"><clipPath id="clipcff47axyplot" class="plotclip"><rect width="710" height="470"/></clipPath><clipPath class="axesclip" id="clipcff47ax"><rect x="80" y="0" width="710" height="600"/></clipPath><clipPath class="axesclip" id="clipcff47ay"><rect x="0" y="50" width="800" height="470"/></clipPath><clipPath class="axesclip" id="clipcff47axy"><rect x="80" y="50" width="710" height="470"/></clipPath></g><g class="gradients"/></defs><g class="bglayer"/><g class="layer-below"><g class="imagelayer"/><g class="shapelayer"/></g><g class="cartesianlayer"><g class="subplot xy"><g class="layer-subplot"><g class="shapelayer"/><g class="imagelayer"/></g><g class="gridlayer"><g class="x"><path class="xgrid crisp" transform="translate(219.58,0)" d="M0,50v470" style="stroke: rgb(238, 238, 238); stroke-opacity: 1; stroke-width: 1px;"/><path class="xgrid crisp" transform="translate(361.28,0)" d="M0,50v470" style="stroke: rgb(238, 238, 238); stroke-opacity: 1; stroke-width: 1px;"/><path class="xgrid crisp" transform="translate(502.98,0)" d="M0,50v470" style="stroke: rgb(238, 238, 238); stroke-opacity: 1; stroke-width: 1px;"/><path class="xgrid crisp" transform="translate(644.68,0)" d="M0,50v470" style="stroke: rgb(238, 238, 238); stroke-opacity: 1; stroke-width: 1px;"/><path class="xgrid crisp" transform="translate(786.38,0)" d="M0,50v470" style="stroke: rgb(238, 238, 238); stroke-opacity: 1; stroke-width: 1px;"/></g><g class="y"><path class="ygrid crisp" transform="translate(0,419.29)" d="M80,0h710" style="stroke: rgb(238, 238, 238); stroke-opacity: 1; stroke-width: 1px;"/><path class="ygrid crisp" transform="translate(0,335.36)" d="M80,0h710" style="stroke: rgb(238, 238, 238); stroke-opacity: 1; stroke-width: 1px;"/><path class="ygrid crisp" transform="translate(0,251.43)" d="M80,0h710" style="stroke: rgb(238, 238, 238); stroke-opacity: 1; stroke-width: 1px;"/><path class="ygrid crisp" transform="translate(0,167.5)" d="M80,0h710" style="stroke: rgb(238, 238, 238); stroke-opacity: 1; stroke-width: 1px;"/><path class="ygrid crisp" transform="translate(0,83.57)" d="M80,0h710" style="stroke: rgb(238, 238, 238); stroke-opacity: 1; stroke-width: 1px;"/></g></g><g class="zerolinelayer"><path class="yzl zl crisp" transform="translate(0,503.21)" d="M80,0h710" style="stroke: rgb(68, 68, 68); stroke-opacity: 1; stroke-width: 1px;"/></g><path class="xlines-below"/><path class="ylines-below"/><g class="overlines-below"/><g class="xaxislayer-below"/><g class="yaxislayer-below"/><g class="overaxes-below"/><g class="plot" transform="translate(80, 50)" clip-path="url('#clipcff47axyplot')"><g class="scatterlayer mlayer"><g class="trace scatter tracedf8173" style="stroke-miterlimit: 2; opacity: 1;"><g class="fills"/><g class="errorbars"/><g class="lines"><path class="js-line" style="vector-effect: non-scaling-stroke; fill: none; stroke: rgb(251, 147, 65); stroke-opacity: 1; stroke-width: 1.5px; opacity: 1;" d="M-14200,446.5L-14200,399.5L-13771.06,399.5L-13763.97,238.36L-13615.19,399.5L-13612.35,399.5L-13185.84,399.5L-13174.5,23.5L-13032.8,399.5L-13027.13,399.5L-12838.67,426.36L-12825.92,399.5L-12816,399.5L-12694.14,426.36L-12657.3,399.5L-12651.63,399.5L-11998.39,399.5L-11992.73,238.36L-11877.95,426.36L-11866.61,399.5L-11853.86,399.5L-10791.12,399.5L-10789.7,23.5L-10716.01,426.36L-10670.67,345.79L-10665,345.79L-10640.91,426.36L-10550.23,399.5L-10547.39,399.5L-10415.61,426.36L-10402.86,399.5L-10246.99,399.5L-10242.74,399.5L-8474.33,426.36L-8467.24,439.79L-8370.89,399.5L-8365.22,399.5L-8131.42,399.5L-8125.75,238.36L-8104.49,426.36L-8042.15,399.5L-8033.64,399.5L-7981.21,426.36L-7941.54,399.5L-7940.12,345.79L-7931.62,426.36L-7853.68,399.5L-7846.6,399.5L-6469.28,399.5L-6465.03,345.79L-6421.1,426.36L-6392.76,399.5L-6387.09,399.5L-2744,426.36L-2738.33,345.79L-2702.91,399.5L-2701.49,399.5L-1848.46,399.5L-1845.63,426.36L-1822.95,399.5L-1814.45,399.5L-1771.94,399.5L-1769.11,426.36L-1756.36,426.36L-1754.94,399.5L-1650.08,399.5L-1648.66,426.36L-1641.58,426.36L-1638.74,399.5L-1608.99,399.5L-1600.49,426.36L-1569.31,399.5L-1566.48,399.5L-1501.3,399.5L-1498.46,426.36L-1488.54,426.36L-1482.88,399.5L-1451.7,399.5L-1448.87,426.36L-1437.53,426.36L-1424.78,399.5L-1417.69,426.36L-1410.61,399.5L-1407.77,399.5L-986.93,399.5L-984.09,426.36L-979.84,426.36L-978.43,399.5L-940.17,399.5L-938.75,426.36L-930.25,399.5L-926,399.5L-788.55,399.5L-784.3,426.36L-781.46,426.36L-778.63,399.5L-695.03,399.5L-685.11,426.36L-680.86,399.5L-675.19,399.5L-441.38,399.5L-439.97,426.36L-438.55,426.36L-430.05,399.5L-353.53,399.5L-350.7,426.36L-332.28,426.36L-328.02,399.5L-305.35,399.5L-302.52,426.36L-301.1,426.36L-292.6,399.5L-207.58,399.5L-206.16,426.36L-196.24,426.36L-191.99,399.5L-36.12,399.5L-24.79,426.36L-20.54,426.36L-19.12,399.5L109.83,399.5L112.66,426.36L119.75,399.5L121.16,399.5L146.67,399.5L149.5,426.36L153.75,426.36L155.17,399.5L417.31,399.5L425.82,426.36L439.99,399.5L444.24,399.5L539.18,399.5L549.1,426.36L554.76,426.36L557.6,399.5L560.43,446.5L561.85,399.5L1166.91,399.5L1171.16,426.36L1175.41,426.36L1182.49,399.5L1365.28,399.5L1369.54,426.36L1373.79,426.36L1378.04,399.5L1514.07,399.5L1515.49,426.36L1535.32,399.5L1548.08,399.5L1650.1,399.5L1652.93,345.79L1660.02,345.79L1661.44,399.5L1691.19,399.5L1695.44,426.36L1702.53,426.36L1709.61,399.5L1902.33,399.5L1909.41,426.36L1915.08,426.36L1917.91,399.5L1970.34,399.5L1973.18,426.36L1980.26,426.36L1981.68,399.5L2042.61,399.5L2048.28,23.5L2063.86,399.5L2069.53,399.5L2167.3,399.5L2174.39,426.36L2180.06,426.36L2181.47,399.5L2257.99,399.5L2260.83,426.36L2280.66,399.5L2287.75,426.36L2307.59,399.5L2314.67,399.5L2483.29,399.5L2484.71,426.36L2517.3,399.5L2520.14,399.5L2742.6,399.5L2745.44,426.36L2772.36,399.5L2773.78,399.5L2803.53,399.5L2810.62,426.36L2824.79,426.36L2826.21,399.5L2897.06,399.5L2898.47,426.36L2906.97,426.36L2912.64,399.5L2957.99,399.5L2965.07,345.79L2999.08,426.36L3001.91,426.36L3028.84,399.5L3034.5,399.5L3120.94,399.5L3126.61,426.36L3157.78,399.5L3160.62,399.5L3169.12,399.5L3176.2,426.36L3204.54,399.5L3208.79,399.5L3818.1,399.5L3820.94,345.79L3835.11,345.79L3839.36,399.5L4564.86,399.5L4569.11,345.79L4615.87,426.36L4620.12,399.5L4622.96,399.5L5014.05,399.5L5016.88,345.79L5028.22,345.79L5033.88,399.5L14910,399.5"/></g><g class="points"/><g class="text"/></g><g class="trace scatter tracec938e0" style="stroke-miterlimit: 2; opacity: 1;"><g class="fills"/><g class="errorbars"/><g class="lines"/><g class="points"><path class="point" transform="translate(17708.9,399.5)" style="opacity: 1; stroke-width: 0px; fill: rgb(251, 147, 65); fill-opacity: 1;" d="M3,0A3,3 0 1,1 0,-3A3,3 0 0,1 3,0Z"/></g><g class="text"/></g></g></g><g class="overplot"/><path class="xlines-above crisp" style="fill: none;" d="M0,0"/><path class="ylines-above crisp" style="fill: none;" d="M0,0"/><g class="overlines-above"/><g class="xaxislayer-above"><g class="xtick"><text text-anchor="middle" x="0" y="543" style="font-family: TOBESTRIPPEDOpen SansTOBESTRIPPED, verdana, arial, sans-serif; font-size: 12px; fill: rgb(32, 32, 32); fill-opacity: 1; white-space: pre;" transform="translate(219.58,0)">47.6k</text></g><g class="xtick"><text text-anchor="middle" x="0" y="543" style="font-family: TOBESTRIPPEDOpen SansTOBESTRIPPED, verdana, arial, sans-serif; font-size: 12px; fill: rgb(32, 32, 32); fill-opacity: 1; white-space: pre;" transform="translate(361.28,0)">47.7k</text></g><g class="xtick"><text text-anchor="middle" x="0" y="543" style="font-family: TOBESTRIPPEDOpen SansTOBESTRIPPED, verdana, arial, sans-serif; font-size: 12px; fill: rgb(32, 32, 32); fill-opacity: 1; white-space: pre;" transform="translate(502.98,0)">47.8k</text></g><g class="xtick"><text text-anchor="middle" x="0" y="543" style="font-family: TOBESTRIPPEDOpen SansTOBESTRIPPED, verdana, arial, sans-serif; font-size: 12px; fill: rgb(32, 32, 32); fill-opacity: 1; white-space: pre;" transform="translate(644.68,0)">47.9k</text></g><g class="xtick"><text text-anchor="middle" x="0" y="543" style="font-family: TOBESTRIPPEDOpen SansTOBESTRIPPED, verdana, arial, sans-serif; font-size: 12px; fill: rgb(32, 32, 32); fill-opacity: 1; white-space: pre;" transform="translate(786.38,0)">48k</text></g></g><g class="yaxislayer-above"><g class="ytick"><text text-anchor="end" x="69" y="4.199999999999999" style="font-family: TOBESTRIPPEDOpen SansTOBESTRIPPED, verdana, arial, sans-serif; font-size: 12px; fill: rgb(32, 32, 32); fill-opacity: 1; white-space: pre;" transform="translate(0,503.21)">0</text></g><g class="ytick"><text text-anchor="end" x="69" y="4.199999999999999" style="font-family: TOBESTRIPPEDOpen SansTOBESTRIPPED, verdana, arial, sans-serif; font-size: 12px; fill: rgb(32, 32, 32); fill-opacity: 1; white-space: pre;" transform="translate(0,419.29)">200</text></g><g class="ytick"><text text-anchor="end" x="69" y="4.199999999999999" style="font-family: TOBESTRIPPEDOpen SansTOBESTRIPPED, verdana, arial, sans-serif; font-size: 12px; fill: rgb(32, 32, 32); fill-opacity: 1; white-space: pre;" transform="translate(0,335.36)">400</text></g><g class="ytick"><text text-anchor="end" x="69" y="4.199999999999999" style="font-family: TOBESTRIPPEDOpen SansTOBESTRIPPED, verdana, arial, sans-serif; font-size: 12px; fill: rgb(32, 32, 32); fill-opacity: 1; white-space: pre;" transform="translate(0,251.43)">600</text></g><g class="ytick"><text text-anchor="end" x="69" y="4.199999999999999" style="font-family: TOBESTRIPPEDOpen SansTOBESTRIPPED, verdana, arial, sans-serif; font-size: 12px; fill: rgb(32, 32, 32); fill-opacity: 1; white-space: pre;" transform="translate(0,167.5)">800</text></g><g class="ytick"><text text-anchor="end" x="69" y="4.199999999999999" style="font-family: TOBESTRIPPEDOpen SansTOBESTRIPPED, verdana, arial, sans-serif; font-size: 12px; fill: rgb(32, 32, 32); fill-opacity: 1; white-space: pre;" transform="translate(0,83.57)">1000</text></g></g><g class="overaxes-above"/></g></g><g class="polarlayer"/><g class="ternarylayer"/><g class="geolayer"/><g class="pielayer"/><g class="sunburstlayer"/><g class="glimages"/><defs id="topdefs-cff47a"><g class="clips"/></defs><g class="layer-above"><g class="imagelayer"/><g class="shapelayer"/></g><g class="infolayer"><g class="g-gtitle"/><g class="g-xtitle"/><g class="g-ytitle"/></g></svg>