<svg class="main-svg" xmlns="http://www.w3.org/2000/svg" xmlns:xlink="http://www.w3.org/1999/xlink" width="800" height="600" style="" viewBox="0 0 800 600"><rect x="0" y="0" width="800" height="600" style="fill: rgb(255, 255, 255); fill-opacity: 1;"/><defs id="defs-c68b4e"><g class="clips"><clipPath id="clipc68b4exyplot" class="plotclip"><rect width="710" height="470"/></clipPath><clipPath class="axesclip" id="clipc68b4ex"><rect x="80" y="0" width="710" height="600"/></clipPath><clipPath class="axesclip" id="clipc68b4ey"><rect x="0" y="50" width="800" height="470"/></clipPath><clipPath class="axesclip" id="clipc68b4exy"><rect x="80" y="50" width="710" height="470"/></clipPath></g><g class="gradients"/></defs><g class="bglayer"/><g class="layer-below"><g class="imagelayer"/><g class="shapelayer"/></g><g class="cartesianlayer"><g class="subplot xy"><g class="layer-subplot"><g class="shapelayer"/><g class="imagelayer"/></g><g class="gridlayer"><g class="x"><path class="xgrid crisp" transform="translate(88.31,0)" d="M0,50v470" style="stroke: rgb(238, 238, 238); stroke-opacity: 1; stroke-width: 1px;"/><path class="xgrid crisp" transform="translate(163.70999999999998,0)" d="M0,50v470" style="stroke: rgb(238, 238, 238); stroke-opacity: 1; stroke-width: 1px;"/><path class="xgrid crisp" transform="translate(239.11,0)" d="M0,50v470" style="stroke: rgb(238, 238, 238); stroke-opacity: 1; stroke-width: 1px;"/><path class="xgrid crisp" transform="translate(314.51,0)" d="M0,50v470" style="stroke: rgb(238, 238, 238); stroke-opacity: 1; stroke-width: 1px;"/><path class="xgrid crisp" transform="translate(389.92,0)" d="M0,50v470" style="stroke: rgb(238, 238, 238); stroke-opacity: 1; stroke-width: 1px;"/><path class="xgrid crisp" transform="translate(465.32,0)" d="M0,50v470" style="stroke: rgb(238, 238, 238); stroke-opacity: 1; stroke-width: 1px;"/><path class="xgrid crisp" transform="translate(540.72,0)" d="M0,50v470" style="stroke: rgb(238, 238, 238); stroke-opacity: 1; stroke-width: 1px;"/><path class="xgrid crisp" transform="translate(616.12,0)" d="M0,50v470" style="stroke: rgb(238, 238, 238); stroke-opacity: 1; stroke-width: 1px;"/><path class="xgrid crisp" transform="translate(691.52,0)" d="M0,50v470" style="stroke: rgb(238, 238, 238); stroke-opacity: 1; stroke-width: 1px;"/><path class="xgrid crisp" transform="translate(766.93,0)" d="M0,50v470" style="stroke: rgb(238, 238, 238); stroke-opacity: 1; stroke-width: 1px;"/></g><g class="y"><path class="ygrid crisp" transform="translate(0,419.29)" d="M80,0h710" style="stroke: rgb(238, 238, 238); stroke-opacity: 1; stroke-width: 1px;"/><path class="ygrid crisp" transform="translate(0,335.36)" d="M80,0h710" style="stroke: rgb(238, 238, 238); stroke-opacity: 1; stroke-width: 1px;"/><path class="ygrid crisp" transform="translate(0,251.43)" d="M80,0h710" style="stroke: rgb(238, 238, 238); stroke-opacity: 1; stroke-width: 1px;"/><path class="ygrid crisp" transform="translate(0,167.5)" d="M80,0h710" style="stroke: rgb(238, 238, 238); stroke-opacity: 1; stroke-width: 1px;"/><path class="ygrid crisp" transform="translate(0,83.57)" d="M80,0h710" style="stroke: rgb(238, 238, 238); stroke-opacity: 1; stroke-width: 1px;"/></g></g><g class="zerolinelayer"><path class="yzl zl crisp" transform="translate(0,503.21)" d="M80,0h710" style="stroke: rgb(68, 68, 68); stroke-opacity: 1; stroke-width: 1px;"/></g><path class="xlines-below"/><path class="ylines-below"/><g class="overlines-below"/><g class="xaxislayer-below"/><g class="yaxislayer-below"/><g class="overaxes-below"/><g class="plot" transform="translate(80, 50)" clip-path="url('#clipc68b4exyplot')"><g class="scatterlayer mlayer"><g class="trace scatter trace0049a0" style="stroke-miterlimit: 2; opacity: 1;"><g class="fills"/><g class="errorbars"/><g class="lines"><path class="js-line" style="vector-effect: non-scaling-stroke; fill: none; stroke: rgb(251, 147, 65); stroke-opacity: 1; stroke-width: 1.5px; opacity: 1;" d="M-14200,446.5L-14200,399.5L-8519.67,399.5L-8516.65,446.5L-8426.17,399.5L-8424.66,399.5L-7356.97,399.5L-7353.95,345.79L-7301.17,426.36L-7269.5,399.5L-7264.98,399.5L-6939.24,399.5L-6933.21,23.5L-6863.84,399.5L-6857.81,399.5L-5965.04,399.5L-5957.5,345.79L-5918.3,426.36L-5889.64,399.5L-5883.61,399.5L-5049.66,399.5L-5046.65,345.79L-5014.98,399.5L-5011.96,399.5L-5002.91,426.36L-4962.2,399.5L-4954.66,399.5L-4254.93,399.5L-4250.4,345.79L-4200.64,426.36L-4196.11,399.5L-4193.1,399.5L-3776.88,399.5L-3773.86,345.79L-3761.8,345.79L-3755.76,399.5L-2473.93,399.5L-2470.91,399.5L-2436.23,399.5L-2431.7,426.36L-2425.67,426.36L-2422.66,399.5L-2389.48,399.5L-2383.45,426.36L-2351.78,399.5L-2342.73,399.5L-2136.13,399.5L-2133.11,426.36L-2104.46,399.5L-2099.93,399.5L-2074.3,399.5L-2072.79,426.36L-2066.76,426.36L-2065.25,399.5L-1985.32,399.5L-1980.8,426.36L-1970.24,426.36L-1968.74,399.5L-1929.53,399.5L-1928.02,426.36L-1905.4,399.5L-1902.38,399.5L-1792.29,399.5L-1789.28,426.36L-1778.72,426.36L-1775.71,399.5L-1311.23,399.5L-1309.72,426.36L-1303.69,426.36L-1302.18,399.5L-1288.61,426.36L-1282.58,426.36L-1265.99,399.5L-1262.97,399.5L-1131.77,399.5L-1128.76,426.36L-1110.66,426.36L-1106.14,399.5L-260.12,399.5L-257.11,426.36L-248.06,426.36L-245.04,399.5L-98.76,399.5L-89.72,426.36L-82.18,426.36L-77.65,399.5L61.09,399.5L62.6,345.79L79.18,345.79L80.69,399.5L85.22,399.5L88.23,426.36L92.76,426.36L94.27,399.5L147.05,399.5L148.55,345.79L156.09,345.79L163.64,399.5L205.86,399.5L207.37,426.36L211.89,426.36L216.42,399.5L444.13,399.5L445.64,426.36L462.23,426.36L469.77,399.5L1166.48,399.5L1167.99,426.36L1174.02,399.5L1180.06,399.5L1195.14,399.5L1196.64,426.36L1208.71,426.36L1211.72,399.5L1241.88,399.5L1243.39,426.36L1252.44,426.36L1256.97,399.5L1293.16,399.5L1296.17,426.36L1302.21,399.5L1308.24,399.5L1475.63,399.5L1477.14,426.36L1487.7,426.36L1489.2,399.5L1973.28,399.5L1976.3,426.36L1989.87,426.36L1994.4,399.5L2018.53,399.5L2021.54,426.36L2032.1,426.36L2033.61,399.5L2078.85,399.5L2080.36,345.79L2095.44,345.79L2096.94,399.5L2276.4,399.5L2277.91,426.36L2286.96,426.36L2288.47,399.5L2431.73,399.5L2433.24,426.36L2439.27,426.36L2443.79,399.5L2449.83,426.36L2461.89,399.5L2463.4,399.5L2792.15,399.5L2795.17,426.36L2823.82,399.5L2826.84,399.5L2923.35,399.5L2926.37,426.36L2935.42,426.36L2938.43,399.5L5331.69,399.5L5333.2,345.79L5354.31,345.79L5355.82,399.5L6233.5,426.36L6235.01,345.79L6292.32,426.36L6295.33,399.5L6296.84,399.5L7981.32,426.36L7982.83,345.79L8070.3,399.5L8071.8,399.5L8136.65,426.36L8162.29,399.5L8163.79,399.5L8186.42,426.36L8193.96,345.79L8246.74,399.5L8248.24,399.5L9733.67,399.5"/></g><g class="points"/><g class="text"/></g><g class="trace scatter tracec43c95" style="stroke-miterlimit: 2; opacity: 1;"><g class="fills"/><g class="errorbars"/><g class="lines"/><g class="points"><path class="point" transform="translate(9733.67,399.5)" style="opacity: 1; stroke-width: 0px; fill: rgb(251, 147, 65); fill-opacity: 1;" d="M3,0A3,3 0 1,1 0,-3A3,3 0 0,1 3,0Z"/></g><g class="text"/></g></g></g><g class="overplot"/><path class="xlines-above crisp" style="fill: none;" d="M0,0"/><path class="ylines-above crisp" style="fill: none;" d="M0,0"/><g class="overlines-above"/><g class="xaxislayer-above"><g class="xtick"><text text-anchor="middle" x="0" y="543" style="font-family: TOBESTRIPPEDOpen SansTOBESTRIPPED, verdana, arial, sans-serif; font-size: 12px; fill: rgb(32, 32, 32); fill-opacity: 1; white-space: pre;" transform="translate(88.31,0)">53.55k</text></g><g class="xtick"><text text-anchor="middle" x="0" y="543" style="font-family: TOBESTRIPPEDOpen SansTOBESTRIPPED, verdana, arial, sans-serif; font-size: 12px; fill: rgb(32, 32, 32); fill-opacity: 1; white-space: pre;" transform="translate(163.70999999999998,0)">53.6k</text></g><g class="xtick"><text text-anchor="middle" x="0" y="543" style="font-family: TOBESTRIPPEDOpen SansTOBESTRIPPED, verdana, arial, sans-serif; font-size: 12px; fill: rgb(32, 32, 32); fill-opacity: 1; white-space: pre;" transform="translate(239.11,0)">53.65k</text></g><g class="xtick"><text text-anchor="middle" x="0" y="543" style="font-family: TOBESTRIPPEDOpen SansTOBESTRIPPED, verdana, arial, sans-serif; font-size: 12px; fill: rgb(32, 32, 32); fill-opacity: 1; white-space: pre;" transform="translate(314.51,0)">53.7k</text></g><g class="xtick"><text text-anchor="middle" x="0" y="543" style="font-family: TOBESTRIPPEDOpen SansTOBESTRIPPED, verdana, arial, sans-serif; font-size: 12px; fill: rgb(32, 32, 32); fill-opacity: 1; white-space: pre;" transform="translate(389.92,0)">53.75k</text></g><g class="xtick"><text text-anchor="middle" x="0" y="543" style="font-family: TOBESTRIPPEDOpen SansTOBESTRIPPED, verdana, arial, sans-serif; font-size: 12px; fill: rgb(32, 32, 32); fill-opacity: 1; white-space: pre;" transform="translate(465.32,0)">53.8k</text></g><g class="xtick"><text text-anchor="middle" x="0" y="543" style="font-family: TOBESTRIPPEDOpen SansTOBESTRIPPED, verdana, arial, sans-serif; font-size: 12px; fill: rgb(32, 32, 32); fill-opacity: 1; white-space: pre;" transform="translate(540.72,0)">53.85k</text></g><g class="xtick"><text text-anchor="middle" x="0" y="543" style="font-family: TOBESTRIPPEDOpen SansTOBESTRIPPED, verdana, arial, sans-serif; font-size: 12px; fill: rgb(32, 32, 32); fill-opacity: 1; white-space: pre;" transform="translate(616.12,0)">53.9k</text></g><g class="xtick"><text text-anchor="middle" x="0" y="543" style="font-family: TOBESTRIPPEDOpen SansTOBESTRIPPED, verdana, arial, sans-serif; font-size: 12px; fill: rgb(32, 32, 32); fill-opacity: 1; white-space: pre;" transform="translate(691.52,0)">53.95k</text></g><g class="xtick"><text text-anchor="middle" x="0" y="543" style="font-family: TOBESTRIPPEDOpen SansTOBESTRIPPED, verdana, arial, sans-serif; font-size: 12px; fill: rgb(32, 32, 32); fill-opacity: 1; white-space: pre;" transform="translate(766.93,0)">54k</text></g></g><g class="yaxislayer-above"><g class="ytick"><text text-anchor="end" x="69" y="4.199999999999999" style="font-family: TOBESTRIPPEDOpen SansTOBESTRIPPED, verdana, arial, sans-serif; font-size: 12px; fill: rgb(32, 32, 32); fill-opacity: 1; white-space: pre;" transform="translate(0,503.21)">0</text></g><g class="ytick"><text text-anchor="end" x="69" y="4.199999999999999" style="font-family: TOBESTRIPPEDOpen SansTOBESTRIPPED, verdana, arial, sans-serif; font-size: 12px; fill: rgb(32, 32, 32); fill-opacity: 1; white-space: pre;" transform="translate(0,419.29)">200</text></g><g class="ytick"><text text-anchor="end" x="69" y="4.199999999999999" style="font-family: TOBESTRIPPEDOpen SansTOBESTRIPPED, verdana, arial, sans-serif; font-size: 12px; fill: rgb(32, 32, 32); fill-opacity: 1; white-space: pre;" transform="translate(0,335.36)">400</text></g><g class="ytick"><text text-anchor="end" x="69" y="4.199999999999999" style="font-family: TOBESTRIPPEDOpen SansTOBESTRIPPED, verdana, arial, sans-serif; font-size: 12px; fill: rgb(32, 32, 32); fill-opacity: 1; white-space: pre;" transform="translate(0,251.43)">600</text></g><g class="ytick"><text text-anchor="end" x="69" y="4.199999999999999" style="font-family: TOBESTRIPPEDOpen SansTOBESTRIPPED, verdana, arial, sans-serif; font-size: 12px; fill: rgb(32, 32, 32); fill-opacity: 1; white-space: pre;" transform="translate(0,167.5)">800</text></g><g class="ytick"><text text-anchor="end" x="69" y="4.199999999999999" style="font-family: TOBESTRIPPEDOpen SansTOBESTRIPPED, verdana, arial, sans-serif; font-size: 12px; fill: rgb(32, 32, 32); fill-opacity: 1; white-space: pre;" transform="translate(0,83.57)">1000</text></g></g><g class="overaxes-above"/></g></g><g class="polarlayer"/><g class="ternarylayer"/><g class="geolayer"/><g class="pielayer"/><g class="sunburstlayer"/><g class="glimages"/><defs id="topdefs-c68b4e"><g class="clips"/></defs><g class="layer-above"><g class="imagelayer"/><g class="shapelayer"/></g><g class="infolayer"><g class="g-gtitle"/><g class="g-xtitle"/><g class="g-ytitle"/></g></svg>