<svg class="main-svg" xmlns="http://www.w3.org/2000/svg" xmlns:xlink="http://www.w3.org/1999/xlink" width="800" height="600" style="" viewBox="0 0 800 600"><rect x="0" y="0" width="800" height="600" style="fill: rgb(255, 255, 255); fill-opacity: 1;"/><defs id="defs-811032"><g class="clips"><clipPath id="clip811032xyplot" class="plotclip"><rect width="710" height="470"/></clipPath><clipPath class="axesclip" id="clip811032x"><rect x="80" y="0" width="710" height="600"/></clipPath><clipPath class="axesclip" id="clip811032y"><rect x="0" y="50" width="800" height="470"/></clipPath><clipPath class="axesclip" id="clip811032xy"><rect x="80" y="50" width="710" height="470"/></clipPath></g><g class="gradients"/></defs><g class="bglayer"/><g class="layer-below"><g class="imagelayer"/><g class="shapelayer"/></g><g class="cartesianlayer"><g class="subplot xy"><g class="layer-subplot"><g class="shapelayer"/><g class="imagelayer"/></g><g class="gridlayer"><g class="x"><path class="xgrid crisp" transform="translate(99.41,0)" d="M0,50v470" style="stroke: rgb(238, 238, 238); stroke-opacity: 1; stroke-width: 1px;"/><path class="xgrid crisp" transform="translate(235.76,0)" d="M0,50v470" style="stroke: rgb(238, 238, 238); stroke-opacity: 1; stroke-width: 1px;"/><path class="xgrid crisp" transform="translate(372.11,0)" d="M0,50v470" style="stroke: rgb(238, 238, 238); stroke-opacity: 1; stroke-width: 1px;"/><path class="xgrid crisp" transform="translate(508.46,0)" d="M0,50v470" style="stroke: rgb(238, 238, 238); stroke-opacity: 1; stroke-width: 1px;"/><path class="xgrid crisp" transform="translate(644.81,0)" d="M0,50v470" style="stroke: rgb(238, 238, 238); stroke-opacity: 1; stroke-width: 1px;"/><path class="xgrid crisp" transform="translate(781.16,0)" d="M0,50v470" style="stroke: rgb(238, 238, 238); stroke-opacity: 1; stroke-width: 1px;"/></g><g class="y"><path class="ygrid crisp" transform="translate(0,419.29)" d="M80,0h710" style="stroke: rgb(238, 238, 238); stroke-opacity: 1; stroke-width: 1px;"/><path class="ygrid crisp" transform="translate(0,335.36)" d="M80,0h710" style="stroke: rgb(238, 238, 238); stroke-opacity: 1; stroke-width: 1px;"/><path class="ygrid crisp" transform="translate(0,251.43)" d="M80,0h710" style="stroke: rgb(238, 238, 238); stroke-opacity: 1; stroke-width: 1px;"/><path class="ygrid crisp" transform="translate(0,167.5)" d="M80,0h710" style="stroke: rgb(238, 238, 238); stroke-opacity: 1; stroke-width: 1px;"/><path class="ygrid crisp" transform="translate(0,83.57)" d="M80,0h710" style="stroke: rgb(238, 238, 238); stroke-opacity: 1; stroke-width: 1px;"/></g></g><g class="zerolinelayer"><path class="yzl zl crisp" transform="translate(0,503.21)" d="M80,0h710" style="stroke: rgb(68, 68, 68); stroke-opacity: 1; stroke-width: 1px;"/></g><path class="xlines-below"/><path class="ylines-below"/><g class="overlines-below"/><g class="xaxislayer-below"/><g class="yaxislayer-below"/><g class="overaxes-below"/><g class="plot" transform="translate(80, 50)" clip-path="url('#clip811032xyplot')"><g class="scatterlayer mlayer"><g class="trace scatter trace0d9312" style="stroke-miterlimit: 2; opacity: 1;"><g class="fills"/><g class="errorbars"/><g class="lines"><path class="js-line" style="vector-effect: non-scaling-stroke; fill: none; stroke: rgb(251, 147, 65); stroke-opacity: 1; stroke-width: 1.5px; opacity: 1;" d="M-14200,446.5L-14200,399.5L-7558.84,399.5L-7554.75,399.5L-6221.26,399.5L-6219.9,345.79L-6042.65,399.5L-6041.28,426.36L-5966.29,399.5L-5963.56,399.5L-3280.22,399.5L-3278.86,345.79L-3259.77,345.79L-3258.41,399.5L-2473.04,426.36L-2471.68,426.36L-2464.86,426.36L-2463.49,345.79L-2436.23,399.5L-2433.5,399.5L-2423.95,399.5L-2422.59,426.36L-2411.68,426.36L-2410.32,399.5L-2302.6,399.5L-2301.24,426.36L-2294.42,426.36L-2293.06,399.5L-2155.35,399.5L-2153.98,426.36L-2148.53,426.36L-2147.17,399.5L-2054.45,399.5L-2053.09,426.36L-2043.54,426.36L-2040.81,399.5L-1942.64,399.5L-1941.28,426.36L-1931.74,426.36L-1930.37,399.5L-1828.11,399.5L-1825.38,426.36L-1804.93,399.5L-1803.57,399.5L-1766.75,399.5L-1765.39,426.36L-1755.85,426.36L-1753.12,399.5L-1676.76,399.5L-1675.4,426.36L-1669.95,426.36L-1668.58,399.5L-1637.22,399.5L-1634.5,426.36L-1620.86,426.36L-1619.5,399.5L-1389.07,399.5L-1386.34,426.36L-1371.34,426.36L-1368.62,399.5L-1271.81,399.5L-1269.08,426.36L-1254.08,399.5L-1251.36,399.5L-1022.29,399.5L-1020.93,426.36L-1005.93,399.5L-1004.56,399.5L-890.03,399.5L-887.3,426.36L-884.58,426.36L-883.21,345.79L-876.4,345.79L-875.03,399.5L-790.5,399.5L-789.13,426.36L-785.04,426.36L-783.68,399.5L-749.59,399.5L-748.23,426.36L-744.14,426.36L-742.78,399.5L-705.96,399.5L-704.6,345.79L-696.42,426.36L-695.05,345.79L-692.33,345.79L-690.96,399.5L-547.8,399.5L-546.43,426.36L-540.98,426.36L-536.89,399.5L-494.62,399.5L-493.26,426.36L-487.8,426.36L-486.44,399.5L-456.44,399.5L-453.72,426.36L-449.63,426.36L-446.9,399.5L-384.18,399.5L-382.81,426.36L-376,426.36L-374.63,399.5L-346,399.5L-344.64,426.36L-336.46,426.36L-335.09,399.5L-277.83,399.5L-276.46,426.36L-269.65,426.36L-268.28,399.5L-197.38,399.5L-196.02,426.36L-193.29,426.36L-191.93,399.5L-137.39,399.5L-136.02,426.36L-131.93,426.36L-130.57,399.5L-5.13,399.5L-3.77,426.36L4.42,426.36L5.78,399.5L123.04,399.5L124.4,426.36L131.22,426.36L132.58,399.5L382.1,399.5L383.46,426.36L394.37,426.36L395.74,399.5L484.36,399.5L487.09,426.36L489.82,426.36L491.18,399.5L511.63,399.5L513,345.79L521.18,345.79L522.54,399.5L652.07,399.5L653.43,426.36L661.62,426.36L662.98,399.5L699.79,399.5"/></g><g class="points"/><g class="text"/></g><g class="trace scatter traceced167" style="stroke-miterlimit: 2; opacity: 1;"><g class="fills"/><g class="errorbars"/><g class="lines"/><g class="points"><path class="point" transform="translate(699.79,399.5)" style="opacity: 1; stroke-width: 0px; fill: rgb(251, 147, 65); fill-opacity: 1;" d="M3,0A3,3 0 1,1 0,-3A3,3 0 0,1 3,0Z"/></g><g class="text"/></g></g></g><g class="overplot"/><path class="xlines-above crisp" style="fill: none;" d="M0,0"/><path class="ylines-above crisp" style="fill: none;" d="M0,0"/><g class="overlines-above"/><g class="xaxislayer-above"><g class="xtick"><text text-anchor="middle" x="0" y="543" style="font-family: TOBESTRIPPEDOpen SansTOBESTRIPPED, verdana, arial, sans-serif; font-size: 12px; fill: rgb(32, 32, 32); fill-opacity: 1; white-space: pre;" transform="translate(99.41,0)">59.5k</text></g><g class="xtick"><text text-anchor="middle" x="0" y="543" style="font-family: TOBESTRIPPEDOpen SansTOBESTRIPPED, verdana, arial, sans-serif; font-size: 12px; fill: rgb(32, 32, 32); fill-opacity: 1; white-space: pre;" transform="translate(235.76,0)">59.6k</text></g><g class="xtick"><text text-anchor="middle" x="0" y="543" style="font-family: TOBESTRIPPEDOpen SansTOBESTRIPPED, verdana, arial, sans-serif; font-size: 12px; fill: rgb(32, 32, 32); fill-opacity: 1; white-space: pre;" transform="translate(372.11,0)">59.7k</text></g><g class="xtick"><text text-anchor="middle" x="0" y="543" style="font-family: TOBESTRIPPEDOpen SansTOBESTRIPPED, verdana, arial, sans-serif; font-size: 12px; fill: rgb(32, 32, 32); fill-opacity: 1; white-space: pre;" transform="translate(508.46,0)">59.8k</text></g><g class="xtick"><text text-anchor="middle" x="0" y="543" style="font-family: TOBESTRIPPEDOpen SansTOBESTRIPPED, verdana, arial, sans-serif; font-size: 12px; fill: rgb(32, 32, 32); fill-opacity: 1; white-space: pre;" transform="translate(644.81,0)">59.9k</text></g><g class="xtick"><text text-anchor="middle" x="0" y="543" style="font-family: TOBESTRIPPEDOpen SansTOBESTRIPPED, verdana, arial, sans-serif; font-size: 12px; fill: rgb(32, 32, 32); fill-opacity: 1; white-space: pre;" transform="translate(781.16,0)">60k</text></g></g><g class="yaxislayer-above"><g class="ytick"><text text-anchor="end" x="69" y="4.199999999999999" style="font-family: TOBESTRIPPEDOpen SansTOBESTRIPPED, verdana, arial, sans-serif; font-size: 12px; fill: rgb(32, 32, 32); fill-opacity: 1; white-space: pre;" transform="translate(0,503.21)">0</text></g><g class="ytick"><text text-anchor="end" x="69" y="4.199999999999999" style="font-family: TOBESTRIPPEDOpen SansTOBESTRIPPED, verdana, arial, sans-serif; font-size: 12px; fill: rgb(32, 32, 32); fill-opacity: 1; white-space: pre;" transform="translate(0,419.29)">200</text></g><g class="ytick"><text text-anchor="end" x="69" y="4.199999999999999" style="font-family: TOBESTRIPPEDOpen SansTOBESTRIPPED, verdana, arial, sans-serif; font-size: 12px; fill: rgb(32, 32, 32); fill-opacity: 1; white-space: pre;" transform="translate(0,335.36)">400</text></g><g class="ytick"><text text-anchor="end" x="69" y="4.199999999999999" style="font-family: TOBESTRIPPEDOpen SansTOBESTRIPPED, verdana, arial, sans-serif; font-size: 12px; fill: rgb(32, 32, 32); fill-opacity: 1; white-space: pre;" transform="translate(0,251.43)">600</text></g><g class="ytick"><text text-anchor="end" x="69" y="4.199999999999999" style="font-family: TOBESTRIPPEDOpen SansTOBESTRIPPED, verdana, arial, sans-serif; font-size: 12px; fill: rgb(32, 32, 32); fill-opacity: 1; white-space: pre;" transform="translate(0,167.5)">800</text></g><g class="ytick"><text text-anchor="end" x="69" y="4.199999999999999" style="font-family: TOBESTRIPPEDOpen SansTOBESTRIPPED, verdana, arial, sans-serif; font-size: 12px; fill: rgb(32, 32, 32); fill-opacity: 1; white-space: pre;" transform="translate(0,83.57)">1000</text></g></g><g class="overaxes-above"/></g></g><g class="polarlayer"/><g class="ternarylayer"/><g class="geolayer"/><g class="pielayer"/><g class="sunburstlayer"/><g class="glimages"/><defs id="topdefs-811032"><g class="clips"/></defs><g class="layer-above"><g class="imagelayer"/><g class="shapelayer"/></g><g class="infolayer"><g class="g-gtitle"/><g class="g-xtitle"/><g class="g-ytitle"/></g></svg>