<svg class="main-svg" xmlns="http://www.w3.org/2000/svg" xmlns:xlink="http://www.w3.org/1999/xlink" width="800" height="600" style="" viewBox="0 0 800 600"><rect x="0" y="0" width="800" height="600" style="fill: rgb(255, 255, 255); fill-opacity: 1;"/><defs id="defs-d56200"><g class="clips"><clipPath id="clipd56200xyplot" class="plotclip"><rect width="710" height="470"/></clipPath><clipPath class="axesclip" id="clipd56200x"><rect x="80" y="0" width="710" height="600"/></clipPath><clipPath class="axesclip" id="clipd56200y"><rect x="0" y="50" width="800" height="470"/></clipPath><clipPath class="axesclip" id="clipd56200xy"><rect x="80" y="50" width="710" height="470"/></clipPath></g><g class="gradients"/></defs><g class="bglayer"/><g class="layer-below"><g class="imagelayer"/><g class="shapelayer"/></g><g class="cartesianlayer"><g class="subplot xy"><g class="layer-subplot"><g class="shapelayer"/><g class="imagelayer"/></g><g class="gridlayer"><g class="x"><path class="xgrid crisp" transform="translate(213.43,0)" d="M0,50v470" style="stroke: rgb(238, 238, 238); stroke-opacity: 1; stroke-width: 1px;"/><path class="xgrid crisp" transform="translate(351.41,0)" d="M0,50v470" style="stroke: rgb(238, 238, 238); stroke-opacity: 1; stroke-width: 1px;"/><path class="xgrid crisp" transform="translate(489.4,0)" d="M0,50v470" style="stroke: rgb(238, 238, 238); stroke-opacity: 1; stroke-width: 1px;"/><path class="xgrid crisp" transform="translate(627.38,0)" d="M0,50v470" style="stroke: rgb(238, 238, 238); stroke-opacity: 1; stroke-width: 1px;"/><path class="xgrid crisp" transform="translate(765.36,0)" d="M0,50v470" style="stroke: rgb(238, 238, 238); stroke-opacity: 1; stroke-width: 1px;"/></g><g class="y"><path class="ygrid crisp" transform="translate(0,419.29)" d="M80,0h710" style="stroke: rgb(238, 238, 238); stroke-opacity: 1; stroke-width: 1px;"/><path class="ygrid crisp" transform="translate(0,335.36)" d="M80,0h710" style="stroke: rgb(238, 238, 238); stroke-opacity: 1; stroke-width: 1px;"/><path class="ygrid crisp" transform="translate(0,251.43)" d="M80,0h710" style="stroke: rgb(238, 238, 238); stroke-opacity: 1; stroke-width: 1px;"/><path class="ygrid crisp" transform="translate(0,167.5)" d="M80,0h710" style="stroke: rgb(238, 238, 238); stroke-opacity: 1; stroke-width: 1px;"/><path class="ygrid crisp" transform="translate(0,83.57)" d="M80,0h710" style="stroke: rgb(238, 238, 238); stroke-opacity: 1; stroke-width: 1px;"/></g></g><g class="zerolinelayer"><path class="yzl zl crisp" transform="translate(0,503.21)" d="M80,0h710" style="stroke: rgb(68, 68, 68); stroke-opacity: 1; stroke-width: 1px;"/></g><path class="xlines-below"/><path class="ylines-below"/><g class="overlines-below"/><g class="xaxislayer-below"/><g class="yaxislayer-below"/><g class="overaxes-below"/><g class="plot" transform="translate(80, 50)" clip-path="url('#clipd56200xyplot')"><g class="scatterlayer mlayer"><g class="trace scatter traceb62e78" style="stroke-miterlimit: 2; opacity: 1;"><g class="fills"/><g class="errorbars"/><g class="lines"><path class="js-line" style="vector-effect: non-scaling-stroke; fill: none; stroke: rgb(251, 147, 65); stroke-opacity: 1; stroke-width: 1.5px; opacity: 1;" d="M-7178.25,446.5L-7160.31,23.5L-7109.26,426.36L-7100.98,439.79L-7077.52,446.5L-7044.41,345.79L-7038.89,439.79L-7023.71,439.79L-7018.19,399.5L-6982.32,439.79L-6900.91,446.5L-6866.41,426.36L-6856.75,23.5L-6818.12,439.79L-6732.57,439.79L-6687.03,426.36L-6607,238.36L-6538.01,426.36L-6522.83,345.79L-6466.26,345.79L-6446.94,345.79L-6413.83,426.36L-6397.27,426.36L-6386.23,23.5L-6302.06,446.5L-6282.75,439.79L-6237.21,399.5L-6216.51,439.79L-6206.86,426.36L-6187.54,238.36L-6184.78,439.79L-6179.26,426.36L-6135.1,399.5L-5946.07,399.5L-5895.01,345.79L-5872.94,439.79L-5816.37,426.36L-5752.89,345.79L-5728.06,23.5L-5671.48,426.36L-5486.59,426.36L-5452.09,238.36L-5405.18,426.36L-5365.16,426.36L-5345.85,446.5L-5294.79,345.79L-5272.71,345.79L-5261.68,23.5L-5177.51,426.36L-5129.21,426.36L-5100.24,426.36L-5072.64,23.5L-5042.28,446.5L-5038.14,399.5L-4978.81,238.36L-4933.28,426.36L-4893.26,23.5L-4838.07,446.5L-4751.14,426.36L-4748.38,345.79L-4694.57,439.79L-4686.29,23.5L-4655.93,426.36L-4599.36,238.36L-4566.25,426.36L-4538.65,23.5L-4511.05,439.79L-4469.66,426.36L-4466.9,238.36L-4460,446.5L-4455.86,399.5L-4381.35,426.36L-4373.07,399.5L-4338.57,426.36L-4324.78,426.36L-4280.62,23.5L-4268.2,426.36L-4253.03,238.36L-4235.09,446.5L-4218.53,345.79L-4208.87,345.79L-4145.4,345.79L-4084.69,426.36L-4006.04,238.36L-3972.92,399.5L-3938.43,238.36L-3909.45,345.79L-3839.08,446.5L-3830.8,426.36L-3818.38,23.5L-3785.27,439.79L-3685.92,238.36L-3666.6,439.79L-3665.22,23.5L-3661.08,439.79L-3593.47,446.5L-3568.63,399.5L-3560.35,446.5L-3528.62,446.5L-3492.74,23.5L-3448.59,446.5L-3440.31,399.5L-3427.89,426.36L-3398.92,446.5L-3321.64,446.5L-3289.91,399.5L-3283.01,345.79L-3259.55,399.5L-3252.65,426.36L-3244.37,23.5L-3240.24,426.36L-3200.22,238.36L-3182.28,439.79L-3172.62,23.5L-3128.47,238.36L-3047.06,345.79L-3033.26,238.36L-3018.08,399.5L-2982.21,345.79L-2957.37,345.79L-2949.09,238.36L-2927.02,426.36L-2898.04,399.5L-2873.2,238.36L-2862.16,426.36L-2856.64,446.5L-2852.51,23.5L-2823.53,399.5L-2777.99,446.5L-2755.92,238.36L-2744.88,426.36L-2717.28,23.5L-2692.45,399.5L-2675.89,439.79L-2630.35,399.5L-2557.22,439.79L-2553.08,399.5L-2475.81,446.5L-2464.77,399.5L-2444.08,446.5L-2427.52,23.5L-2405.44,23.5L-2359.91,446.5L-2346.11,238.36L-2337.83,399.5L-2314.37,439.79L-2289.54,238.36L-2257.8,238.36L-2235.72,446.5L-2206.75,238.36L-2205.37,399.5L-2180.53,399.5L-2154.31,446.5L-2118.44,399.5L-2083.94,23.5L-2079.8,439.79L-2006.67,446.5L-1994.26,399.5L-1991.5,238.36L-1943.2,446.5L-1928.02,238.36L-1918.36,399.5L-1888.01,426.36L-1831.44,345.79L-1812.12,399.5L-1810.74,23.5L-1791.42,446.5L-1783.14,345.79L-1777.62,23.5L-1770.72,426.36L-1696.21,345.79L-1692.07,426.36L-1672.76,238.36L-1670,23.5L-1664.48,426.36L-1654.82,345.79L-1639.64,439.79L-1625.84,426.36L-1623.08,426.36L-1610.66,439.79L-1595.49,426.36L-1580.31,345.79L-1560.99,439.79L-1551.33,439.79L-1515.46,238.36L-1482.34,238.36L-1479.58,426.36L-1464.4,399.5L-1463.02,426.36L-1454.74,439.79L-1358.16,439.79L-1354.02,399.5L-1327.8,446.5L-1318.14,426.36L-1283.65,23.5L-1251.91,23.5L-1235.35,446.5L-1205,446.5L-1199.48,23.5L-1170.5,23.5L-1164.98,23.5L-1159.46,399.5L-1156.7,399.5L-1122.21,345.79L-1118.07,446.5L-1090.47,446.5L-1083.57,439.79L-1050.46,439.79L-1011.82,399.5L-1006.3,426.36L-975.95,399.5L-963.53,23.5L-951.11,439.79L-946.97,23.5L-891.78,426.36L-880.74,345.79L-861.42,238.36L-850.38,399.5L-842.1,439.79L-803.47,345.79L-752.41,426.36L-749.65,238.36L-722.06,345.79L-720.68,426.36L-717.92,399.5L-716.54,426.36L-709.64,426.36L-676.52,23.5L-665.49,426.36L-657.21,399.5L-611.67,23.5L-597.87,399.5L-586.84,426.36L-585.46,23.5L-570.28,238.36L-555.1,238.36L-553.72,345.79L-495.77,238.36L-490.25,446.5L-483.35,439.79L-473.69,446.5L-465.41,345.79L-448.85,446.5L-421.26,399.5L-418.5,439.79L-364.68,238.36L-353.65,426.36L-343.99,23.5L-320.53,23.5L-283.27,426.36L-272.24,426.36L-218.42,439.79L-215.66,238.36L-207.38,399.5L-200.49,23.5L-189.45,439.79L-174.27,238.36L-168.75,238.36L-148.05,446.5L-142.53,439.79L-99.76,446.5L-95.62,439.79L-88.72,426.36L-63.88,446.5L-41.81,399.5L-34.91,426.36L-15.59,345.79L9.25,23.5L16.15,439.79L27.19,345.79L67.2,426.36L68.58,446.5L82.38,446.5L85.14,345.79L90.66,426.36L98.94,345.79L140.33,426.36L154.13,426.36L190,23.5L192.76,426.36L212.08,446.5L214.84,23.5L216.22,426.36L218.98,238.36L221.74,399.5L289.35,426.36L290.73,238.36L301.77,426.36L318.33,23.5L329.37,426.36L337.65,439.79L344.54,23.5L359.72,426.36L369.38,439.79L373.52,345.79L379.04,446.5L396.98,446.5L456.31,426.36L474.25,399.5L477.01,426.36L529.44,345.79L536.34,426.36L565.32,446.5L568.08,446.5L584.63,23.5L597.05,426.36L620.51,399.5L623.27,238.36L631.55,439.79L632.93,23.5L666.04,426.36L677.08,238.36L682.6,446.5L683.98,345.79L1106.21,399.5L1110.35,439.79L1132.42,238.36L1136.56,426.36L1146.22,426.36L1175.2,426.36L1197.28,23.5L1200.04,23.5L1212.45,345.79L1231.77,399.5L1240.05,399.5L1242.81,399.5L1266.27,426.36L1296.62,399.5L1315.94,426.36L1321.46,426.36L1347.68,399.5L1375.27,426.36L1383.55,426.36L1499.46,23.5L1504.98,426.36L1514.63,426.36L1518.77,238.36L1525.67,399.5L1542.23,446.5L1579.49,426.36L1602.94,426.36L1616.74,399.5L1640.2,426.36L1667.8,399.5L1724.37,426.36L1728.51,439.79L1738.17,399.5L1751.96,426.36L1786.46,399.5L1818.2,446.5L1823.72,399.5L1891.33,399.5L1894.09,426.36L1905.12,426.36L1914.78,399.5L1920.3,399.5L1949.28,439.79L1958.94,399.5L1967.22,23.5L1981.02,426.36L1993.43,399.5L2033.45,426.36L2061.04,426.36L2139.69,345.79L2142.45,399.5L2143.83,23.5L2152.11,439.79L2165.91,426.36L2179.71,345.79L2208.69,399.5L2210.07,399.5L2226.62,399.5L2291.48,426.36L2317.69,446.5L2357.71,399.5L2375.64,399.5L2382.54,426.36L2386.68,446.5L2393.58,426.36L2443.26,345.79L2468.09,426.36L2486.03,426.36L2519.15,426.36L2537.08,399.5L2559.16,426.36L2563.3,345.79L2579.86,439.79L2588.14,426.36L2607.45,426.36L2621.25,399.5L2650.23,446.5L2666.79,426.36L2712.32,426.36L2770.27,426.36L2792.35,399.5L2813.05,446.5L2853.06,426.36L2884.8,345.79L2927.57,446.5L3000.7,399.5L3008.98,345.79L3022.78,426.36L3049,426.36L3102.81,238.36L3106.95,426.36L3117.99,446.5L3127.65,238.36L3162.14,446.5L3174.56,399.5L3254.59,426.36L3273.91,23.5L3286.33,439.79L3457.43,345.79L3464.32,426.36L3483.64,399.5L3493.3,426.36L3497.44,426.36L3537.46,399.5L3540.22,426.36L3555.39,238.36L3605.07,399.5L3672.68,399.5L3675.44,238.36L3730.63,399.5L3765.13,238.36L3795.48,446.5L3834.12,238.36L3852.06,426.36L3898.97,439.79L3914.15,399.5L3950.02,426.36L3963.82,238.36L3981.76,23.5L3987.28,426.36L3991.42,238.36L4006.6,399.5L4174.93,426.36L4225.99,23.5L4259.1,446.5L4279.8,399.5L4312.92,426.36L4388.81,426.36L4394.33,345.79L4408.12,439.79L4409.5,399.5L4467.46,426.36L4546.11,426.36L4553.01,23.5L4561.28,426.36L4599.92,399.5L4608.2,426.36L4633.04,399.5L4662.01,426.36L4675.81,426.36L4748.94,399.5L4783.44,439.79L4804.13,23.5L4809.65,439.79L4893.82,399.5L4896.58,238.36L4902.1,426.36L4909,399.5L4961.43,426.36L5055.26,426.36L5059.4,23.5L5102.17,446.5L5103.55,238.36L5122.87,426.36L5128.39,439.79L5150.47,426.36L5165.65,399.5L5374,399.5L5383.66,23.5L5396.08,426.36L5412.64,399.5L5449.89,23.5L5478.87,426.36L5516.12,399.5L5531.3,238.36L5578.21,426.36L5592.01,399.5L5637.55,399.5L5643.07,238.36L5669.28,426.36L5717.58,399.5L5772.77,426.36L6261.23,426.36L6270.89,23.5L6281.92,446.5L6317.8,399.5L6367.47,399.5L6407.49,426.36L6422.67,399.5L6494.42,399.5L6585.48,399.5L6586.86,238.36L6650.34,439.79L6653.1,399.5L6677.93,399.5L6828.33,426.36L6829.71,238.36L6890.43,426.36L6918.02,426.36L7182.95,399.5L7195.37,238.36L7282.3,439.79L7356.81,439.79L7377.5,238.36L7427.18,345.79L7476.85,446.5L7627.25,399.5L7700.38,238.36L7758.33,23.5L7774.89,399.5L7799.73,426.36L7897.7,23.5L7907.36,399.5L8166.76,426.36L8191.6,238.36L8248.17,238.36L8339.24,399.5L8409.61,426.36L8510.34,399.5L8562.77,426.36L8674.54,345.79L8749.05,426.36L8782.16,446.5L8794.58,238.36L8826.32,426.36L8874.61,439.79L8896.69,345.79L8906.35,399.5L9409.98,399.5L10174.4,439.79L10177.16,238.36L10195.1,23.5L10242.02,426.36L10269.61,446.5L10384.14,399.5L10389.66,426.36L10422.77,345.79L10469.69,399.5L10495.9,426.36L10655.96,399.5L10684.94,399.5L10940.21,399.5L10954,238.36L11075.43,426.36L11104.41,399.5L11125.1,399.5L11315.52,399.5L11340.36,238.36L11343.11,426.36L11376.23,23.5L11431.42,238.36L11478.34,345.79L11497.65,426.36L11516.97,399.5L11612.18,426.36L11665.99,399.5L11677.03,23.5L11797.08,399.5L11799.84,399.5L11882.63,399.5L11924.02,238.36L11954.38,439.79L12023.37,399.5L12075.8,399.5L12096.5,426.36L12129.61,238.36L12277.26,399.5L12386.26,399.5L12546.32,426.36L12554.6,23.5L12695.34,426.36L12765.71,399.5L12884.38,399.5L12894.04,23.5L13005.8,399.5L13038.92,399.5L13083.07,426.36L13125.85,399.5L13234.85,399.5L13543.93,426.36L13572.91,399.5L13690.19,426.36L13745.39,399.5L14140.02,426.36L14162.09,23.5L14226.95,426.36L14322.15,426.36L14496.01,399.5L14507.05,426.36L14552.58,238.36L14603.64,399.5L14624.33,399.5L14730.58,399.5L14734.72,23.5L14910,339.8200383969289L14910,399.5"/></g><g class="points"/><g class="text"/></g><g class="trace scatter tracec08355" style="stroke-miterlimit: 2; opacity: 1;"><g class="fills"/><g class="errorbars"/><g class="lines"/><g class="points"><path class="point" transform="translate(75194.43,399.5)" style="opacity: 1; stroke-width: 0px; fill: rgb(251, 147, 65); fill-opacity: 1;" d="M3,0A3,3 0 1,1 0,-3A3,3 0 0,1 3,0Z"/></g><g class="text"/></g></g></g><g class="overplot"/><path class="xlines-above crisp" style="fill: none;" d="M0,0"/><path class="ylines-above crisp" style="fill: none;" d="M0,0"/><g class="overlines-above"/><g class="xaxislayer-above"><g class="xtick"><text text-anchor="middle" x="0" y="543" style="font-family: TOBESTRIPPEDOpen SansTOBESTRIPPED, verdana, arial, sans-serif; font-size: 12px; fill: rgb(32, 32, 32); fill-opacity: 1; white-space: pre;" transform="translate(213.43,0)">5600</text></g><g class="xtick"><text text-anchor="middle" x="0" y="543" style="font-family: TOBESTRIPPEDOpen SansTOBESTRIPPED, verdana, arial, sans-serif; font-size: 12px; fill: rgb(32, 32, 32); fill-opacity: 1; white-space: pre;" transform="translate(351.41,0)">5700</text></g><g class="xtick"><text text-anchor="middle" x="0" y="543" style="font-family: TOBESTRIPPEDOpen SansTOBESTRIPPED, verdana, arial, sans-serif; font-size: 12px; fill: rgb(32, 32, 32); fill-opacity: 1; white-space: pre;" transform="translate(489.4,0)">5800</text></g><g class="xtick"><text text-anchor="middle" x="0" y="543" style="font-family: TOBESTRIPPEDOpen SansTOBESTRIPPED, verdana, arial, sans-serif; font-size: 12px; fill: rgb(32, 32, 32); fill-opacity: 1; white-space: pre;" transform="translate(627.38,0)">5900</text></g><g class="xtick"><text text-anchor="middle" x="0" y="543" style="font-family: TOBESTRIPPEDOpen SansTOBESTRIPPED, verdana, arial, sans-serif; font-size: 12px; fill: rgb(32, 32, 32); fill-opacity: 1; white-space: pre;" transform="translate(765.36,0)">6000</text></g></g><g class="yaxislayer-above"><g class="ytick"><text text-anchor="end" x="69" y="4.199999999999999" style="font-family: TOBESTRIPPEDOpen SansTOBESTRIPPED, verdana, arial, sans-serif; font-size: 12px; fill: rgb(32, 32, 32); fill-opacity: 1; white-space: pre;" transform="translate(0,503.21)">0</text></g><g class="ytick"><text text-anchor="end" x="69" y="4.199999999999999" style="font-family: TOBESTRIPPEDOpen SansTOBESTRIPPED, verdana, arial, sans-serif; font-size: 12px; fill: rgb(32, 32, 32); fill-opacity: 1; white-space: pre;" transform="translate(0,419.29)">200</text></g><g class="ytick"><text text-anchor="end" x="69" y="4.199999999999999" style="font-family: TOBESTRIPPEDOpen SansTOBESTRIPPED, verdana, arial, sans-serif; font-size: 12px; fill: rgb(32, 32, 32); fill-opacity: 1; white-space: pre;" transform="translate(0,335.36)">400</text></g><g class="ytick"><text text-anchor="end" x="69" y="4.199999999999999" style="font-family: TOBESTRIPPEDOpen SansTOBESTRIPPED, verdana, arial, sans-serif; font-size: 12px; fill: rgb(32, 32, 32); fill-opacity: 1; white-space: pre;" transform="translate(0,251.43)">600</text></g><g class="ytick"><text text-anchor="end" x="69" y="4.199999999999999" style="font-family: TOBESTRIPPEDOpen SansTOBESTRIPPED, verdana, arial, sans-serif; font-size: 12px; fill: rgb(32, 32, 32); fill-opacity: 1; white-space: pre;" transform="translate(0,167.5)">800</text></g><g class="ytick"><text text-anchor="end" x="69" y="4.199999999999999" style="font-family: TOBESTRIPPEDOpen SansTOBESTRIPPED, verdana, arial, sans-serif; font-size: 12px; fill: rgb(32, 32, 32); fill-opacity: 1; white-space: pre;" transform="translate(0,83.57)">1000</text></g></g><g class="overaxes-above"/></g></g><g class="polarlayer"/><g class="ternarylayer"/><g class="geolayer"/><g class="pielayer"/><g class="sunburstlayer"/><g class="glimages"/><defs id="topdefs-d56200"><g class="clips"/></defs><g class="layer-above"><g class="imagelayer"/><g class="shapelayer"/></g><g class="infolayer"><g class="g-gtitle"/><g class="g-xtitle"/><g class="g-ytitle"/></g></svg>