<svg class="main-svg" xmlns="http://www.w3.org/2000/svg" xmlns:xlink="http://www.w3.org/1999/xlink" width="800" height="600" style="" viewBox="0 0 800 600"><rect x="0" y="0" width="800" height="600" style="fill: rgb(255, 255, 255); fill-opacity: 1;"/><defs id="defs-74142d"><g class="clips"><clipPath id="clip74142dxyplot" class="plotclip"><rect width="710" height="470"/></clipPath><clipPath class="axesclip" id="clip74142dx"><rect x="80" y="0" width="710" height="600"/></clipPath><clipPath class="axesclip" id="clip74142dy"><rect x="0" y="50" width="800" height="470"/></clipPath><clipPath class="axesclip" id="clip74142dxy"><rect x="80" y="50" width="710" height="470"/></clipPath></g><g class="gradients"/></defs><g class="bglayer"/><g class="layer-below"><g class="imagelayer"/><g class="shapelayer"/></g><g class="cartesianlayer"><g class="subplot xy"><g class="layer-subplot"><g class="shapelayer"/><g class="imagelayer"/></g><g class="gridlayer"><g class="x"><path class="xgrid crisp" transform="translate(157.17000000000002,0)" d="M0,50v470" style="stroke: rgb(238, 238, 238); stroke-opacity: 1; stroke-width: 1px;"/><path class="xgrid crisp" transform="translate(236.3,0)" d="M0,50v470" style="stroke: rgb(238, 238, 238); stroke-opacity: 1; stroke-width: 1px;"/><path class="xgrid crisp" transform="translate(315.43,0)" d="M0,50v470" style="stroke: rgb(238, 238, 238); stroke-opacity: 1; stroke-width: 1px;"/><path class="xgrid crisp" transform="translate(394.56,0)" d="M0,50v470" style="stroke: rgb(238, 238, 238); stroke-opacity: 1; stroke-width: 1px;"/><path class="xgrid crisp" transform="translate(473.68,0)" d="M0,50v470" style="stroke: rgb(238, 238, 238); stroke-opacity: 1; stroke-width: 1px;"/><path class="xgrid crisp" transform="translate(552.81,0)" d="M0,50v470" style="stroke: rgb(238, 238, 238); stroke-opacity: 1; stroke-width: 1px;"/><path class="xgrid crisp" transform="translate(631.94,0)" d="M0,50v470" style="stroke: rgb(238, 238, 238); stroke-opacity: 1; stroke-width: 1px;"/><path class="xgrid crisp" transform="translate(711.07,0)" d="M0,50v470" style="stroke: rgb(238, 238, 238); stroke-opacity: 1; stroke-width: 1px;"/></g><g class="y"><path class="ygrid crisp" transform="translate(0,419.29)" d="M80,0h710" style="stroke: rgb(238, 238, 238); stroke-opacity: 1; stroke-width: 1px;"/><path class="ygrid crisp" transform="translate(0,335.36)" d="M80,0h710" style="stroke: rgb(238, 238, 238); stroke-opacity: 1; stroke-width: 1px;"/><path class="ygrid crisp" transform="translate(0,251.43)" d="M80,0h710" style="stroke: rgb(238, 238, 238); stroke-opacity: 1; stroke-width: 1px;"/><path class="ygrid crisp" transform="translate(0,167.5)" d="M80,0h710" style="stroke: rgb(238, 238, 238); stroke-opacity: 1; stroke-width: 1px;"/><path class="ygrid crisp" transform="translate(0,83.57)" d="M80,0h710" style="stroke: rgb(238, 238, 238); stroke-opacity: 1; stroke-width: 1px;"/></g></g><g class="zerolinelayer"><path class="yzl zl crisp" transform="translate(0,503.21)" d="M80,0h710" style="stroke: rgb(68, 68, 68); stroke-opacity: 1; stroke-width: 1px;"/></g><path class="xlines-below"/><path class="ylines-below"/><g class="overlines-below"/><g class="xaxislayer-below"/><g class="yaxislayer-below"/><g class="overaxes-below"/><g class="plot" transform="translate(80, 50)" clip-path="url('#clip74142dxyplot')"><g class="scatterlayer mlayer"><g class="trace scatter trace1e444a" style="stroke-miterlimit: 2; opacity: 1;"><g class="fills"/><g class="errorbars"/><g class="lines"><path class="js-line" style="vector-effect: non-scaling-stroke; fill: none; stroke: rgb(251, 147, 65); stroke-opacity: 1; stroke-width: 1.5px; opacity: 1;" d="M-14200,446.5L-14200,399.5L-12838.15,399.5L-12827.08,238.36L-12809.67,426.36L-12697.31,399.5L-12675.15,399.5L-12485.24,399.5L-12480.49,399.5L-9068.48,426.36L-9065.32,23.5L-8971.94,426.36L-8949.79,399.5L-8891.23,426.36L-8869.08,399.5L-8853.25,345.79L-8797.86,399.5L-8307.27,399.5L-7572.96,426.36L-7569.79,238.36L-7517.57,399.5L-7493.83,345.79L-7487.5,399.5L-5998.3,399.5L-5995.14,345.79L-5955.57,238.36L-5917.59,399.5L-5911.26,399.5L-5309.89,399.5L-5297.22,23.5L-5238.67,399.5L-5232.34,399.5L-4618.3,426.36L-4607.23,345.79L-4556.58,399.5L-4545.51,399.5L-3983.69,399.5L-3977.36,238.36L-3928.3,399.5L-3920.39,399.5L-3388.65,399.5L-3380.74,439.79L-3342.75,439.79L-3320.6,399.5L-2744.54,399.5L-2741.38,345.79L-2730.3,345.79L-2714.48,399.5L-2687.57,426.36L-2684.41,399.5L-2679.66,399.5L-2635.35,399.5L-2633.76,23.5L-2600.53,399.5L-2597.37,399.5L-2510.32,399.5L-2500.83,345.79L-2492.92,345.79L-2489.75,399.5L-2483.42,399.5L-2469.18,426.36L-2445.44,399.5L-2439.11,399.5L-2353.65,399.5L-2342.57,426.36L-2323.58,399.5L-2309.34,399.5L-2223.88,399.5L-2215.97,426.36L-2182.73,399.5L-2170.07,426.36L-2157.41,426.36L-2146.33,399.5L-1817.16,399.5L-1807.67,345.79L-1801.33,345.79L-1796.59,426.36L-1764.94,399.5L-1763.35,399.5L-1665.23,399.5L-1658.9,426.36L-1641.5,426.36L-1628.84,399.5L-1282.25,399.5L-1280.67,426.36L-1269.59,399.5L-1252.18,399.5L-1225.28,399.5L-1220.53,426.36L-1195.21,399.5L-1188.88,399.5L-1165.14,426.36L-1161.98,399.5L-555.85,399.5L-552.69,426.36L-544.78,426.36L-538.45,399.5L-449.82,399.5L-448.24,426.36L-443.49,426.36L-440.33,399.5L-372.28,399.5L-365.95,426.36L-351.7,399.5L-343.79,399.5L-130.14,399.5L-123.81,426.36L-120.65,399.5L-114.32,399.5L-66.84,399.5L-57.35,426.36L-47.85,426.36L-39.94,439.79L-32.03,399.5L-30.44,399.5L138.89,399.5L145.22,426.36L149.97,426.36L159.47,399.5L262.33,399.5L263.91,426.36L274.99,426.36L284.49,399.5L305.06,399.5L312.97,426.36L316.14,426.36L325.63,399.5L335.13,399.5L341.46,238.36L343.04,399.5L357.29,426.36L365.2,426.36L379.44,399.5L456.99,399.5L460.15,426.36L466.48,426.36L474.4,399.5L499.72,399.5L502.88,426.36L520.29,399.5L523.46,399.5L547.19,399.5L548.78,345.79L553.52,426.36L555.11,426.36L558.27,426.36L563.02,399.5L1240.36,399.5L1243.52,426.36L1260.93,426.36L1270.43,399.5L1409.69,399.5L1412.86,426.36L1416.02,399.5L1428.68,399.5L1874.97,399.5L1879.72,426.36L1901.87,399.5L1908.2,399.5L2191.48,399.5L2196.23,345.79L2221.55,399.5L2227.88,399.5L2232.63,399.5L2237.38,426.36L2245.29,426.36L2251.62,399.5L2413.04,399.5L2417.79,426.36L2430.45,426.36L2433.61,399.5L2455.77,399.5L2470.01,426.36L2496.92,399.5L2511.16,399.5L2517.49,426.36L2530.15,399.5L2533.32,399.5L2796.02,399.5L2803.93,426.36L2824.51,399.5L2837.17,399.5L2966.94,399.5L2978.02,426.36L2998.59,399.5L3006.5,399.5L3023.91,426.36L3034.99,399.5L3038.15,399.5L3066.64,399.5L3069.81,426.36L3087.21,426.36L3091.96,399.5L3120.45,399.5L3128.36,426.36L3137.86,426.36L3144.19,399.5L6352.05,426.36L6358.38,345.79L6428.01,399.5L6432.76,399.5L11697.96,399.5L11704.29,23.5L11819.82,399.5L11826.15,399.5L11973.33,426.36L11978.07,399.5L14910,399.5"/></g><g class="points"/><g class="text"/></g><g class="trace scatter trace2ae28e" style="stroke-miterlimit: 2; opacity: 1;"><g class="fills"/><g class="errorbars"/><g class="lines"/><g class="points"><path class="point" transform="translate(29194.82,399.5)" style="opacity: 1; stroke-width: 0px; fill: rgb(251, 147, 65); fill-opacity: 1;" d="M3,0A3,3 0 1,1 0,-3A3,3 0 0,1 3,0Z"/></g><g class="text"/></g></g></g><g class="overplot"/><path class="xlines-above crisp" style="fill: none;" d="M0,0"/><path class="ylines-above crisp" style="fill: none;" d="M0,0"/><g class="overlines-above"/><g class="xaxislayer-above"><g class="xtick"><text text-anchor="middle" x="0" y="543" style="font-family: TOBESTRIPPEDOpen SansTOBESTRIPPED, verdana, arial, sans-serif; font-size: 12px; fill: rgb(32, 32, 32); fill-opacity: 1; white-space: pre;" transform="translate(157.17000000000002,0)">41.6k</text></g><g class="xtick"><text text-anchor="middle" x="0" y="543" style="font-family: TOBESTRIPPEDOpen SansTOBESTRIPPED, verdana, arial, sans-serif; font-size: 12px; fill: rgb(32, 32, 32); fill-opacity: 1; white-space: pre;" transform="translate(236.3,0)">41.65k</text></g><g class="xtick"><text text-anchor="middle" x="0" y="543" style="font-family: TOBESTRIPPEDOpen SansTOBESTRIPPED, verdana, arial, sans-serif; font-size: 12px; fill: rgb(32, 32, 32); fill-opacity: 1; white-space: pre;" transform="translate(315.43,0)">41.7k</text></g><g class="xtick"><text text-anchor="middle" x="0" y="543" style="font-family: TOBESTRIPPEDOpen SansTOBESTRIPPED, verdana, arial, sans-serif; font-size: 12px; fill: rgb(32, 32, 32); fill-opacity: 1; white-space: pre;" transform="translate(394.56,0)">41.75k</text></g><g class="xtick"><text text-anchor="middle" x="0" y="543" style="font-family: TOBESTRIPPEDOpen SansTOBESTRIPPED, verdana, arial, sans-serif; font-size: 12px; fill: rgb(32, 32, 32); fill-opacity: 1; white-space: pre;" transform="translate(473.68,0)">41.8k</text></g><g class="xtick"><text text-anchor="middle" x="0" y="543" style="font-family: TOBESTRIPPEDOpen SansTOBESTRIPPED, verdana, arial, sans-serif; font-size: 12px; fill: rgb(32, 32, 32); fill-opacity: 1; white-space: pre;" transform="translate(552.81,0)">41.85k</text></g><g class="xtick"><text text-anchor="middle" x="0" y="543" style="font-family: TOBESTRIPPEDOpen SansTOBESTRIPPED, verdana, arial, sans-serif; font-size: 12px; fill: rgb(32, 32, 32); fill-opacity: 1; white-space: pre;" transform="translate(631.94,0)">41.9k</text></g><g class="xtick"><text text-anchor="middle" x="0" y="543" style="font-family: TOBESTRIPPEDOpen SansTOBESTRIPPED, verdana, arial, sans-serif; font-size: 12px; fill: rgb(32, 32, 32); fill-opacity: 1; white-space: pre;" transform="translate(711.07,0)">41.95k</text></g></g><g class="yaxislayer-above"><g class="ytick"><text text-anchor="end" x="69" y="4.199999999999999" style="font-family: TOBESTRIPPEDOpen SansTOBESTRIPPED, verdana, arial, sans-serif; font-size: 12px; fill: rgb(32, 32, 32); fill-opacity: 1; white-space: pre;" transform="translate(0,503.21)">0</text></g><g class="ytick"><text text-anchor="end" x="69" y="4.199999999999999" style="font-family: TOBESTRIPPEDOpen SansTOBESTRIPPED, verdana, arial, sans-serif; font-size: 12px; fill: rgb(32, 32, 32); fill-opacity: 1; white-space: pre;" transform="translate(0,419.29)">200</text></g><g class="ytick"><text text-anchor="end" x="69" y="4.199999999999999" style="font-family: TOBESTRIPPEDOpen SansTOBESTRIPPED, verdana, arial, sans-serif; font-size: 12px; fill: rgb(32, 32, 32); fill-opacity: 1; white-space: pre;" transform="translate(0,335.36)">400</text></g><g class="ytick"><text text-anchor="end" x="69" y="4.199999999999999" style="font-family: TOBESTRIPPEDOpen SansTOBESTRIPPED, verdana, arial, sans-serif; font-size: 12px; fill: rgb(32, 32, 32); fill-opacity: 1; white-space: pre;" transform="translate(0,251.43)">600</text></g><g class="ytick"><text text-anchor="end" x="69" y="4.199999999999999" style="font-family: TOBESTRIPPEDOpen SansTOBESTRIPPED, verdana, arial, sans-serif; font-size: 12px; fill: rgb(32, 32, 32); fill-opacity: 1; white-space: pre;" transform="translate(0,167.5)">800</text></g><g class="ytick"><text text-anchor="end" x="69" y="4.199999999999999" style="font-family: TOBESTRIPPEDOpen SansTOBESTRIPPED, verdana, arial, sans-serif; font-size: 12px; fill: rgb(32, 32, 32); fill-opacity: 1; white-space: pre;" transform="translate(0,83.57)">1000</text></g></g><g class="overaxes-above"/></g></g><g class="polarlayer"/><g class="ternarylayer"/><g class="geolayer"/><g class="pielayer"/><g class="sunburstlayer"/><g class="glimages"/><defs id="topdefs-74142d"><g class="clips"/></defs><g class="layer-above"><g class="imagelayer"/><g class="shapelayer"/></g><g class="infolayer"><g class="g-gtitle"/><g class="g-xtitle"/><g class="g-ytitle"/></g></svg>