<svg class="main-svg" xmlns="http://www.w3.org/2000/svg" xmlns:xlink="http://www.w3.org/1999/xlink" width="800" height="600" style="" viewBox="0 0 800 600"><rect x="0" y="0" width="800" height="600" style="fill: rgb(255, 255, 255); fill-opacity: 1;"/><defs id="defs-b1ca1e"><g class="clips"><clipPath id="clipb1ca1exyplot" class="plotclip"><rect width="710" height="470"/></clipPath><clipPath class="axesclip" id="clipb1ca1ex"><rect x="80" y="0" width="710" height="600"/></clipPath><clipPath class="axesclip" id="clipb1ca1ey"><rect x="0" y="50" width="800" height="470"/></clipPath><clipPath class="axesclip" id="clipb1ca1exy"><rect x="80" y="50" width="710" height="470"/></clipPath></g><g class="gradients"/></defs><g class="bglayer"/><g class="layer-below"><g class="imagelayer"/><g class="shapelayer"/></g><g class="cartesianlayer"><g class="subplot xy"><g class="layer-subplot"><g class="shapelayer"/><g class="imagelayer"/></g><g class="gridlayer"><g class="x"><path class="xgrid crisp" transform="translate(87.37,0)" d="M0,50v470" style="stroke: rgb(238, 238, 238); stroke-opacity: 1; stroke-width: 1px;"/><path class="xgrid crisp" transform="translate(227.53,0)" d="M0,50v470" style="stroke: rgb(238, 238, 238); stroke-opacity: 1; stroke-width: 1px;"/><path class="xgrid crisp" transform="translate(367.69,0)" d="M0,50v470" style="stroke: rgb(238, 238, 238); stroke-opacity: 1; stroke-width: 1px;"/><path class="xgrid crisp" transform="translate(507.85,0)" d="M0,50v470" style="stroke: rgb(238, 238, 238); stroke-opacity: 1; stroke-width: 1px;"/><path class="xgrid crisp" transform="translate(648.01,0)" d="M0,50v470" style="stroke: rgb(238, 238, 238); stroke-opacity: 1; stroke-width: 1px;"/><path class="xgrid crisp" transform="translate(788.17,0)" d="M0,50v470" style="stroke: rgb(238, 238, 238); stroke-opacity: 1; stroke-width: 1px;"/></g><g class="y"><path class="ygrid crisp" transform="translate(0,419.29)" d="M80,0h710" style="stroke: rgb(238, 238, 238); stroke-opacity: 1; stroke-width: 1px;"/><path class="ygrid crisp" transform="translate(0,335.36)" d="M80,0h710" style="stroke: rgb(238, 238, 238); stroke-opacity: 1; stroke-width: 1px;"/><path class="ygrid crisp" transform="translate(0,251.43)" d="M80,0h710" style="stroke: rgb(238, 238, 238); stroke-opacity: 1; stroke-width: 1px;"/><path class="ygrid crisp" transform="translate(0,167.5)" d="M80,0h710" style="stroke: rgb(238, 238, 238); stroke-opacity: 1; stroke-width: 1px;"/><path class="ygrid crisp" transform="translate(0,83.57)" d="M80,0h710" style="stroke: rgb(238, 238, 238); stroke-opacity: 1; stroke-width: 1px;"/></g></g><g class="zerolinelayer"><path class="yzl zl crisp" transform="translate(0,503.21)" d="M80,0h710" style="stroke: rgb(68, 68, 68); stroke-opacity: 1; stroke-width: 1px;"/></g><path class="xlines-below"/><path class="ylines-below"/><g class="overlines-below"/><g class="xaxislayer-below"/><g class="yaxislayer-below"/><g class="overaxes-below"/><g class="plot" transform="translate(80, 50)" clip-path="url('#clipb1ca1exyplot')"><g class="scatterlayer mlayer"><g class="trace scatter trace323b80" style="stroke-miterlimit: 2; opacity: 1;"><g class="fills"/><g class="errorbars"/><g class="lines"><path class="js-line" style="vector-effect: non-scaling-stroke; fill: none; stroke: rgb(251, 147, 65); stroke-opacity: 1; stroke-width: 1.5px; opacity: 1;" d="M-14200,446.5L-14200,399.5L-14122.14,399.5L-14056.26,238.36L-13935.72,426.36L-13888.07,399.5L-13883.87,399.5L-10958.73,399.5L-10953.12,23.5L-10853.61,426.36L-10821.37,399.5L-10790.54,399.5L-10643.37,426.36L-10605.53,426.36L-10357.45,399.5L-10356.04,238.36L-10295.78,439.79L-10252.33,399.5L-10243.92,399.5L-9630.02,399.5L-9618.8,238.36L-9515.09,399.5L-9498.27,399.5L-9168.89,399.5L-9149.27,345.79L-9037.14,399.5L-9031.53,399.5L-8144.32,399.5L-8105.08,238.36L-7999.96,426.36L-7983.14,399.5L-7971.93,399.5L-7858.4,399.5L-7851.39,399.5L-5414.01,399.5L-5405.6,23.5L-5318.7,399.5L-5314.5,399.5L-5158.92,399.5L-5150.51,238.36L-5121.08,399.5L-5080.43,399.5L-4666.96,399.5L-4665.56,345.79L-4608.09,399.5L-4605.29,399.5L-3636.78,399.5L-3632.58,345.79L-3608.75,399.5L-3584.92,399.5L-3498.03,399.5L-3477,238.36L-3432.15,399.5L-3426.54,399.5L-3318.62,399.5L-3310.21,23.5L-3293.39,399.5L-3261.16,399.5L-3020.08,399.5L-3017.28,238.36L-2969.62,399.5L-2966.82,399.5L-2950,399.5L-2940.19,238.36L-2902.35,426.36L-2895.34,399.5L-2651.46,399.5L-2648.66,23.5L-2608.01,399.5L-2596.8,399.5L-2334.7,399.5L-2312.27,426.36L-2278.64,399.5L-2270.23,426.36L-2245,399.5L-2204.35,399.5L-2016.54,399.5L-2010.93,426.36L-2001.12,399.5L-1977.29,399.5L-1961.87,399.5L-1954.87,238.36L-1942.25,399.5L-1870.77,399.5L-1800.69,399.5L-1799.29,426.36L-1792.28,426.36L-1779.67,399.5L-1315.74,399.5L-1305.93,426.36L-1277.89,399.5L-1258.27,399.5L-1251.26,426.36L-1247.06,399.5L-1199.41,399.5L-1154.55,399.5L-1144.74,426.36L-1133.53,399.5L-1118.11,399.5L-1113.91,426.36L-1105.5,399.5L-1088.68,399.5L-1076.06,238.36L-1071.86,426.36L-1053.64,399.5L-1010.19,399.5L-1003.18,439.79L-990.57,399.5L-979.35,399.5L-874.23,399.5L-863.02,426.36L-847.6,399.5L-837.79,399.5L-784.53,399.5L-773.32,426.36L-762.11,399.5L-756.5,399.5L-739.68,399.5L-734.07,426.36L-720.06,399.5L-701.84,399.5L-577.1,399.5L-575.69,426.36L-551.87,399.5L-526.64,399.5L-507.02,399.5L-498.61,426.36L-495.8,426.36L-485.99,399.5L-286.97,399.5L-278.56,426.36L-274.35,399.5L-267.34,399.5L-78.13,399.5L-75.32,426.36L-69.72,399.5L-64.11,399.5L-47.29,426.36L-30.47,399.5L-24.87,399.5L-20.66,426.36L-16.46,426.36L-3.84,399.5L205,399.5L210.6,426.36L220.41,399.5L226.02,399.5L249.85,399.5L261.06,426.36L262.46,426.36L283.49,399.5L353.57,399.5L364.78,426.36L398.42,426.36L401.22,399.5L614.26,399.5L629.68,426.36L639.49,399.5L642.29,399.5L652.11,426.36L682.94,399.5L687.15,426.36L694.15,399.5L696.96,426.36L702.56,399.5L1437,399.5L1445.41,426.36L1451.02,426.36L1470.64,399.5L1544.92,399.5L1553.33,426.36L1560.34,426.36L1571.55,399.5L1591.18,399.5L1595.38,426.36L1603.79,399.5L1615,399.5L1798.61,399.5L1807.02,426.36L1811.23,426.36L1816.83,399.5L1992.03,399.5L1994.84,426.36L2004.65,426.36L2008.85,399.5L2167.23,399.5L2179.85,426.36L2206.48,399.5L2227.5,399.5L2558.28,399.5L2563.88,426.36L2590.52,399.5L2597.52,426.36L2603.13,426.36L2607.33,399.5L2662,399.5L2663.4,345.79L2687.23,426.36L2695.63,399.5L2702.64,399.5L2716.66,399.5L2722.27,426.36L2732.08,426.36L2740.49,399.5L2804.96,399.5L2818.98,426.36L2838.6,399.5L2841.4,426.36L2861.02,399.5L2973.15,399.5L2974.55,439.79L2999.78,399.5L3026.41,399.5L3201.61,399.5L3215.63,439.79L3246.46,399.5L3254.87,399.5L5107.78,399.5L5133.01,345.79L5180.67,399.5L5186.27,399.5L5196.09,426.36L5233.93,399.5L5239.53,399.5L5306.81,426.36L5327.84,399.5L5528.26,399.5L5538.08,238.36L5553.49,426.36L5592.74,399.5L5605.35,399.5L5626.38,345.79L5653.01,399.5L5672.63,399.5L5938.93,426.36L5940.33,345.79L6009.01,399.5L6010.41,399.5L6314.56,399.5L6315.96,345.79L6374.83,399.5L6386.04,399.5L6705.61,399.5L6715.42,345.79L6809.32,399.5L6820.54,399.5L6973.31,426.36L6974.71,345.79L7039.19,399.5L7057.41,399.5L7803.06,399.5L7824.08,345.79L7882.95,426.36L7903.97,399.5L7920.79,399.5L7922.19,426.36L7982.46,399.5L8002.08,426.36L8076.37,399.5L8093.19,426.36L8175.88,399.5L8180.09,399.5L8866.87,426.36L8869.67,23.5L8973.39,426.36L8976.19,426.36L9067.3,345.79L9106.54,399.5L9541.04,399.5L10191.38,426.36L10194.18,238.36L10296.5,399.5L10297.9,399.5L11616.8,399.5L11623.81,238.36L11744.35,399.5L11756.96,399.5L12195.66,399.5L12206.88,23.5L12334.42,399.5L12337.23,399.5L13370.2,399.5L13375.81,238.36L13489.34,426.36L13517.37,399.5L13521.58,399.5L14564.37,399.5L14565.77,23.5L14712.93,426.36L14718.54,399.5L14726.95,399.5L14910,399.5"/></g><g class="points"/><g class="text"/></g><g class="trace scatter trace479aa5" style="stroke-miterlimit: 2; opacity: 1;"><g class="fills"/><g class="errorbars"/><g class="lines"/><g class="points"><path class="point" transform="translate(42754.7,399.5)" style="opacity: 1; stroke-width: 0px; fill: rgb(251, 147, 65); fill-opacity: 1;" d="M3,0A3,3 0 1,1 0,-3A3,3 0 0,1 3,0Z"/></g><g class="text"/></g></g></g><g class="overplot"/><path class="xlines-above crisp" style="fill: none;" d="M0,0"/><path class="ylines-above crisp" style="fill: none;" d="M0,0"/><g class="overlines-above"/><g class="xaxislayer-above"><g class="xtick"><text text-anchor="middle" x="0" y="543" style="font-family: TOBESTRIPPEDOpen SansTOBESTRIPPED, verdana, arial, sans-serif; font-size: 12px; fill: rgb(32, 32, 32); fill-opacity: 1; white-space: pre;" transform="translate(87.37,0)">29.5k</text></g><g class="xtick"><text text-anchor="middle" x="0" y="543" style="font-family: TOBESTRIPPEDOpen SansTOBESTRIPPED, verdana, arial, sans-serif; font-size: 12px; fill: rgb(32, 32, 32); fill-opacity: 1; white-space: pre;" transform="translate(227.53,0)">29.6k</text></g><g class="xtick"><text text-anchor="middle" x="0" y="543" style="font-family: TOBESTRIPPEDOpen SansTOBESTRIPPED, verdana, arial, sans-serif; font-size: 12px; fill: rgb(32, 32, 32); fill-opacity: 1; white-space: pre;" transform="translate(367.69,0)">29.7k</text></g><g class="xtick"><text text-anchor="middle" x="0" y="543" style="font-family: TOBESTRIPPEDOpen SansTOBESTRIPPED, verdana, arial, sans-serif; font-size: 12px; fill: rgb(32, 32, 32); fill-opacity: 1; white-space: pre;" transform="translate(507.85,0)">29.8k</text></g><g class="xtick"><text text-anchor="middle" x="0" y="543" style="font-family: TOBESTRIPPEDOpen SansTOBESTRIPPED, verdana, arial, sans-serif; font-size: 12px; fill: rgb(32, 32, 32); fill-opacity: 1; white-space: pre;" transform="translate(648.01,0)">29.9k</text></g><g class="xtick"><text text-anchor="middle" x="0" y="543" style="font-family: TOBESTRIPPEDOpen SansTOBESTRIPPED, verdana, arial, sans-serif; font-size: 12px; fill: rgb(32, 32, 32); fill-opacity: 1; white-space: pre;" transform="translate(788.17,0)">30k</text></g></g><g class="yaxislayer-above"><g class="ytick"><text text-anchor="end" x="69" y="4.199999999999999" style="font-family: TOBESTRIPPEDOpen SansTOBESTRIPPED, verdana, arial, sans-serif; font-size: 12px; fill: rgb(32, 32, 32); fill-opacity: 1; white-space: pre;" transform="translate(0,503.21)">0</text></g><g class="ytick"><text text-anchor="end" x="69" y="4.199999999999999" style="font-family: TOBESTRIPPEDOpen SansTOBESTRIPPED, verdana, arial, sans-serif; font-size: 12px; fill: rgb(32, 32, 32); fill-opacity: 1; white-space: pre;" transform="translate(0,419.29)">200</text></g><g class="ytick"><text text-anchor="end" x="69" y="4.199999999999999" style="font-family: TOBESTRIPPEDOpen SansTOBESTRIPPED, verdana, arial, sans-serif; font-size: 12px; fill: rgb(32, 32, 32); fill-opacity: 1; white-space: pre;" transform="translate(0,335.36)">400</text></g><g class="ytick"><text text-anchor="end" x="69" y="4.199999999999999" style="font-family: TOBESTRIPPEDOpen SansTOBESTRIPPED, verdana, arial, sans-serif; font-size: 12px; fill: rgb(32, 32, 32); fill-opacity: 1; white-space: pre;" transform="translate(0,251.43)">600</text></g><g class="ytick"><text text-anchor="end" x="69" y="4.199999999999999" style="font-family: TOBESTRIPPEDOpen SansTOBESTRIPPED, verdana, arial, sans-serif; font-size: 12px; fill: rgb(32, 32, 32); fill-opacity: 1; white-space: pre;" transform="translate(0,167.5)">800</text></g><g class="ytick"><text text-anchor="end" x="69" y="4.199999999999999" style="font-family: TOBESTRIPPEDOpen SansTOBESTRIPPED, verdana, arial, sans-serif; font-size: 12px; fill: rgb(32, 32, 32); fill-opacity: 1; white-space: pre;" transform="translate(0,83.57)">1000</text></g></g><g class="overaxes-above"/></g></g><g class="polarlayer"/><g class="ternarylayer"/><g class="geolayer"/><g class="pielayer"/><g class="sunburstlayer"/><g class="glimages"/><defs id="topdefs-b1ca1e"><g class="clips"/></defs><g class="layer-above"><g class="imagelayer"/><g class="shapelayer"/></g><g class="infolayer"><g class="g-gtitle"/><g class="g-xtitle"/><g class="g-ytitle"/></g></svg>