<svg class="main-svg" xmlns="http://www.w3.org/2000/svg" xmlns:xlink="http://www.w3.org/1999/xlink" width="800" height="600" style="" viewBox="0 0 800 600"><rect x="0" y="0" width="800" height="600" style="fill: rgb(255, 255, 255); fill-opacity: 1;"/><defs id="defs-bd8284"><g class="clips"><clipPath id="clipbd8284xyplot" class="plotclip"><rect width="710" height="470"/></clipPath><clipPath class="axesclip" id="clipbd8284x"><rect x="80" y="0" width="710" height="600"/></clipPath><clipPath class="axesclip" id="clipbd8284y"><rect x="0" y="50" width="800" height="470"/></clipPath><clipPath class="axesclip" id="clipbd8284xy"><rect x="80" y="50" width="710" height="470"/></clipPath></g><g class="gradients"/></defs><g class="bglayer"/><g class="layer-below"><g class="imagelayer"/><g class="shapelayer"/></g><g class="cartesianlayer"><g class="subplot xy"><g class="layer-subplot"><g class="shapelayer"/><g class="imagelayer"/></g><g class="gridlayer"><g class="x"><path class="xgrid crisp" transform="translate(146.57,0)" d="M0,50v470" style="stroke: rgb(238, 238, 238); stroke-opacity: 1; stroke-width: 1px;"/><path class="xgrid crisp" transform="translate(218.55,0)" d="M0,50v470" style="stroke: rgb(238, 238, 238); stroke-opacity: 1; stroke-width: 1px;"/><path class="xgrid crisp" transform="translate(290.53,0)" d="M0,50v470" style="stroke: rgb(238, 238, 238); stroke-opacity: 1; stroke-width: 1px;"/><path class="xgrid crisp" transform="translate(362.5,0)" d="M0,50v470" style="stroke: rgb(238, 238, 238); stroke-opacity: 1; stroke-width: 1px;"/><path class="xgrid crisp" transform="translate(434.48,0)" d="M0,50v470" style="stroke: rgb(238, 238, 238); stroke-opacity: 1; stroke-width: 1px;"/><path class="xgrid crisp" transform="translate(506.46,0)" d="M0,50v470" style="stroke: rgb(238, 238, 238); stroke-opacity: 1; stroke-width: 1px;"/><path class="xgrid crisp" transform="translate(578.4300000000001,0)" d="M0,50v470" style="stroke: rgb(238, 238, 238); stroke-opacity: 1; stroke-width: 1px;"/><path class="xgrid crisp" transform="translate(650.41,0)" d="M0,50v470" style="stroke: rgb(238, 238, 238); stroke-opacity: 1; stroke-width: 1px;"/><path class="xgrid crisp" transform="translate(722.38,0)" d="M0,50v470" style="stroke: rgb(238, 238, 238); stroke-opacity: 1; stroke-width: 1px;"/></g><g class="y"><path class="ygrid crisp" transform="translate(0,419.29)" d="M80,0h710" style="stroke: rgb(238, 238, 238); stroke-opacity: 1; stroke-width: 1px;"/><path class="ygrid crisp" transform="translate(0,335.36)" d="M80,0h710" style="stroke: rgb(238, 238, 238); stroke-opacity: 1; stroke-width: 1px;"/><path class="ygrid crisp" transform="translate(0,251.43)" d="M80,0h710" style="stroke: rgb(238, 238, 238); stroke-opacity: 1; stroke-width: 1px;"/><path class="ygrid crisp" transform="translate(0,167.5)" d="M80,0h710" style="stroke: rgb(238, 238, 238); stroke-opacity: 1; stroke-width: 1px;"/><path class="ygrid crisp" transform="translate(0,83.57)" d="M80,0h710" style="stroke: rgb(238, 238, 238); stroke-opacity: 1; stroke-width: 1px;"/></g></g><g class="zerolinelayer"><path class="yzl zl crisp" transform="translate(0,503.21)" d="M80,0h710" style="stroke: rgb(68, 68, 68); stroke-opacity: 1; stroke-width: 1px;"/></g><path class="xlines-below"/><path class="ylines-below"/><g class="overlines-below"/><g class="xaxislayer-below"/><g class="yaxislayer-below"/><g class="overaxes-below"/><g class="plot" transform="translate(80, 50)" clip-path="url('#clipbd8284xyplot')"><g class="scatterlayer mlayer"><g class="trace scatter trace1b22f0" style="stroke-miterlimit: 2; opacity: 1;"><g class="fills"/><g class="errorbars"/><g class="lines"><path class="js-line" style="vector-effect: non-scaling-stroke; fill: none; stroke: rgb(251, 147, 65); stroke-opacity: 1; stroke-width: 1.5px; opacity: 1;" d="M-14200,446.5L-14200,399.5L-14107.01,399.5L-14081.1,238.36L-14043.67,23.5L-13931.39,426.36L-13919.87,426.36L-13741.37,399.5L-13729.85,23.5L-13601.74,399.5L-13559.99,426.36L-13472.18,238.36L-13410.28,426.36L-13404.52,426.36L-13257.69,238.36L-13178.51,399.5L-12822.95,426.36L-12814.31,23.5L-12667.48,426.36L-12594.07,399.5L-12470.27,399.5L-12460.19,23.5L-12343.59,399.5L-12309.04,399.5L-12262.98,426.36L-12218.35,399.5L-12104.63,399.5L-11160.3,426.36L-11137.26,23.5L-11069.61,426.36L-10970.28,426.36L-10856.56,426.36L-10843.6,446.5L-10729.88,238.36L-10728.44,399.5L-10711.16,399.5L-10544.18,399.5L-10539.86,23.5L-10367.12,399.5L-10358.48,399.5L-10145.43,426.36L-10132.48,23.5L-10106.56,426.36L-10001.48,426.36L-9658.87,426.36L-9644.48,23.5L-9536.51,399.5L-9465.97,426.36L-9388.24,399.5L-9352.25,426.36L-9234.21,345.79L-9189.58,426.36L-9156.48,426.36L-8989.49,426.36L-8988.05,238.36L-8917.51,439.79L-8852.74,399.5L-8834.02,399.5L-8808.11,399.5L-8789.4,23.5L-8674.23,399.5L-8615.21,426.36L-8534.6,399.5L-8497.17,426.36L-8397.85,399.5L-8392.09,426.36L-8340.26,399.5L-8230.86,399.5L-8084.03,446.5L-8079.71,345.79L-8071.07,439.79L-8042.28,399.5L-7964.55,399.5L-6971.27,439.79L-6949.68,345.79L-6945.36,446.5L-6886.34,399.5L-6854.67,426.36L-6536.54,399.5L-6533.66,345.79L-6494.79,399.5L-6491.91,238.36L-6435.77,426.36L-6358.04,399.5L-6287.5,399.5L-5880.11,399.5L-5812.45,238.36L-5728.96,426.36L-5688.66,426.36L-5635.39,399.5L-5577.81,399.5L-4532.72,426.36L-4524.08,345.79L-4479.45,426.36L-4463.62,426.36L-3910.84,399.5L-3900.76,345.79L-3873.41,399.5L-3854.7,399.5L-3807.19,426.36L-3795.68,399.5L-3607.1,399.5L-3592.7,446.5L-3548.08,345.79L-3512.09,345.79L-3497.7,439.79L-3464.59,399.5L-2838.39,399.5L-2828.32,439.79L-2780.81,399.5L-2644.06,399.5L-2631.1,399.5L-2625.34,23.5L-2580.72,426.36L-2562,426.36L-2538.97,426.36L-2533.21,345.79L-2523.14,426.36L-2502.98,399.5L-2490.03,399.5L-2449.72,399.5L-2438.2,426.36L-2181.97,426.36L-2167.57,399.5L-2124.39,399.5L-2122.95,426.36L-2075.44,399.5L-2062.49,399.5L-2013.54,399.5L-2012.1,238.36L-1990.51,399.5L-1981.87,399.5L-1968.92,399.5L-1950.2,439.79L-1935.81,399.5L-1905.58,399.5L-1829.28,399.5L-1819.21,426.36L-1813.45,426.36L-1812.01,399.5L-1617.67,399.5L-1597.52,426.36L-1586,399.5L-1535.62,399.5L-1266.43,399.5L-1254.91,238.36L-1230.44,399.5L-1217.48,399.5L-954.05,399.5L-939.66,426.36L-915.18,399.5L-902.23,399.5L-867.68,399.5L-848.97,446.5L-844.65,399.5L-805.78,399.5L-800.02,426.36L-792.82,399.5L-772.67,345.79L-755.4,399.5L-630.16,399.5L-621.52,426.36L-612.88,426.36L-605.69,399.5L-582.65,426.36L-561.06,399.5L-553.86,426.36L-527.95,399.5L-517.87,399.5L-506.36,426.36L-502.04,426.36L-466.05,399.5L-461.73,399.5L-444.46,426.36L-401.27,426.36L-398.39,399.5L-372.48,426.36L-371.04,399.5L-360.97,426.36L-339.37,399.5L-296.19,426.36L-290.43,426.36L-278.91,426.36L-271.72,399.5L-264.52,426.36L-254.44,426.36L-247.24,399.5L-242.92,426.36L-214.13,399.5L-212.69,426.36L-195.42,426.36L-173.83,439.79L-156.55,399.5L-149.36,399.5L-143.6,426.36L-84.58,399.5L-80.26,399.5L-71.62,426.36L-62.98,426.36L-58.67,399.5L-54.35,399.5L-44.27,426.36L-29.87,399.5L-25.56,399.5L135.67,399.5L139.99,426.36L145.75,399.5L151.51,399.5L213.41,399.5L220.6,426.36L229.24,399.5L237.88,399.5L259.47,399.5L299.78,238.36L351.6,426.36L363.12,426.36L377.51,399.5L386.15,426.36L403.42,399.5L407.74,426.36L420.7,399.5L425.02,399.5L436.53,399.5L462.44,426.36L469.64,399.5L479.72,399.5L481.16,426.36L484.04,399.5L682.69,399.5L705.72,426.36L710.04,426.36L1150.54,399.5L1189.4,399.5L1212.44,426.36L1234.03,399.5L1239.79,426.36L1249.86,426.36L1267.14,399.5L1854.47,399.5L1857.34,426.36L1865.98,426.36L1874.62,399.5L2015.69,399.5L2024.33,426.36L2064.64,399.5L2083.35,399.5L2093.43,399.5L2103.5,426.36L2109.26,399.5L2145.25,399.5L2385.65,399.5L2411.56,426.36L2451.87,399.5L2467.7,426.36L2474.9,399.5L2516.65,399.5L3063.67,399.5L3072.31,23.5L3129.89,399.5L3134.21,399.5L3325.66,399.5L3334.3,238.36L3364.53,399.5L3406.28,399.5L3432.19,399.5L3455.22,446.5L3481.13,399.5L3492.65,399.5L3830.94,399.5L3832.38,345.79L3877,399.5L3878.44,399.5L4888.99,399.5L4893.31,345.79L4942.25,399.5L4953.77,399.5L5031.5,399.5L5053.09,238.36L5104.92,399.5L5125.07,399.5L5130.83,426.36L5155.3,399.5L5175.45,399.5L5215.76,399.5L5224.4,23.5L5274.78,399.5L5280.54,399.5L5522.38,399.5L5525.26,238.36L5594.36,399.5L5604.43,238.36L5643.3,426.36L5650.5,399.5L5673.53,399.5L5679.29,426.36L5723.91,399.5L5752.7,399.5L5900.98,399.5L5903.86,23.5L5965.75,399.5L5984.47,399.5L6609.22,399.5L6616.42,238.36L6629.38,399.5L6702.79,399.5L7506.05,399.5L7519,238.36L7593.86,439.79L7596.74,399.5L14302.06,399.5L14312.13,238.36L14327.97,426.36L14463.28,399.5L14476.24,426.36L14661.94,399.5L14670.57,399.5L14910,401.60136117682424L14910,399.5"/></g><g class="points"/><g class="text"/></g><g class="trace scatter trace91f4ad" style="stroke-miterlimit: 2; opacity: 1;"><g class="fills"/><g class="errorbars"/><g class="lines"/><g class="points"><path class="point" transform="translate(52535.89,399.5)" style="opacity: 1; stroke-width: 0px; fill: rgb(251, 147, 65); fill-opacity: 1;" d="M3,0A3,3 0 1,1 0,-3A3,3 0 0,1 3,0Z"/></g><g class="text"/></g></g></g><g class="overplot"/><path class="xlines-above crisp" style="fill: none;" d="M0,0"/><path class="ylines-above crisp" style="fill: none;" d="M0,0"/><g class="overlines-above"/><g class="xaxislayer-above"><g class="xtick"><text text-anchor="middle" x="0" y="543" style="font-family: TOBESTRIPPEDOpen SansTOBESTRIPPED, verdana, arial, sans-serif; font-size: 12px; fill: rgb(32, 32, 32); fill-opacity: 1; white-space: pre;" transform="translate(146.57,0)">23.55k</text></g><g class="xtick"><text text-anchor="middle" x="0" y="543" style="font-family: TOBESTRIPPEDOpen SansTOBESTRIPPED, verdana, arial, sans-serif; font-size: 12px; fill: rgb(32, 32, 32); fill-opacity: 1; white-space: pre;" transform="translate(218.55,0)">23.6k</text></g><g class="xtick"><text text-anchor="middle" x="0" y="543" style="font-family: TOBESTRIPPEDOpen SansTOBESTRIPPED, verdana, arial, sans-serif; font-size: 12px; fill: rgb(32, 32, 32); fill-opacity: 1; white-space: pre;" transform="translate(290.53,0)">23.65k</text></g><g class="xtick"><text text-anchor="middle" x="0" y="543" style="font-family: TOBESTRIPPEDOpen SansTOBESTRIPPED, verdana, arial, sans-serif; font-size: 12px; fill: rgb(32, 32, 32); fill-opacity: 1; white-space: pre;" transform="translate(362.5,0)">23.7k</text></g><g class="xtick"><text text-anchor="middle" x="0" y="543" style="font-family: TOBESTRIPPEDOpen SansTOBESTRIPPED, verdana, arial, sans-serif; font-size: 12px; fill: rgb(32, 32, 32); fill-opacity: 1; white-space: pre;" transform="translate(434.48,0)">23.75k</text></g><g class="xtick"><text text-anchor="middle" x="0" y="543" style="font-family: TOBESTRIPPEDOpen SansTOBESTRIPPED, verdana, arial, sans-serif; font-size: 12px; fill: rgb(32, 32, 32); fill-opacity: 1; white-space: pre;" transform="translate(506.46,0)">23.8k</text></g><g class="xtick"><text text-anchor="middle" x="0" y="543" style="font-family: TOBESTRIPPEDOpen SansTOBESTRIPPED, verdana, arial, sans-serif; font-size: 12px; fill: rgb(32, 32, 32); fill-opacity: 1; white-space: pre;" transform="translate(578.4300000000001,0)">23.85k</text></g><g class="xtick"><text text-anchor="middle" x="0" y="543" style="font-family: TOBESTRIPPEDOpen SansTOBESTRIPPED, verdana, arial, sans-serif; font-size: 12px; fill: rgb(32, 32, 32); fill-opacity: 1; white-space: pre;" transform="translate(650.41,0)">23.9k</text></g><g class="xtick"><text text-anchor="middle" x="0" y="543" style="font-family: TOBESTRIPPEDOpen SansTOBESTRIPPED, verdana, arial, sans-serif; font-size: 12px; fill: rgb(32, 32, 32); fill-opacity: 1; white-space: pre;" transform="translate(722.38,0)">23.95k</text></g></g><g class="yaxislayer-above"><g class="ytick"><text text-anchor="end" x="69" y="4.199999999999999" style="font-family: TOBESTRIPPEDOpen SansTOBESTRIPPED, verdana, arial, sans-serif; font-size: 12px; fill: rgb(32, 32, 32); fill-opacity: 1; white-space: pre;" transform="translate(0,503.21)">0</text></g><g class="ytick"><text text-anchor="end" x="69" y="4.199999999999999" style="font-family: TOBESTRIPPEDOpen SansTOBESTRIPPED, verdana, arial, sans-serif; font-size: 12px; fill: rgb(32, 32, 32); fill-opacity: 1; white-space: pre;" transform="translate(0,419.29)">200</text></g><g class="ytick"><text text-anchor="end" x="69" y="4.199999999999999" style="font-family: TOBESTRIPPEDOpen SansTOBESTRIPPED, verdana, arial, sans-serif; font-size: 12px; fill: rgb(32, 32, 32); fill-opacity: 1; white-space: pre;" transform="translate(0,335.36)">400</text></g><g class="ytick"><text text-anchor="end" x="69" y="4.199999999999999" style="font-family: TOBESTRIPPEDOpen SansTOBESTRIPPED, verdana, arial, sans-serif; font-size: 12px; fill: rgb(32, 32, 32); fill-opacity: 1; white-space: pre;" transform="translate(0,251.43)">600</text></g><g class="ytick"><text text-anchor="end" x="69" y="4.199999999999999" style="font-family: TOBESTRIPPEDOpen SansTOBESTRIPPED, verdana, arial, sans-serif; font-size: 12px; fill: rgb(32, 32, 32); fill-opacity: 1; white-space: pre;" transform="translate(0,167.5)">800</text></g><g class="ytick"><text text-anchor="end" x="69" y="4.199999999999999" style="font-family: TOBESTRIPPEDOpen SansTOBESTRIPPED, verdana, arial, sans-serif; font-size: 12px; fill: rgb(32, 32, 32); fill-opacity: 1; white-space: pre;" transform="translate(0,83.57)">1000</text></g></g><g class="overaxes-above"/></g></g><g class="polarlayer"/><g class="ternarylayer"/><g class="geolayer"/><g class="pielayer"/><g class="sunburstlayer"/><g class="glimages"/><defs id="topdefs-bd8284"><g class="clips"/></defs><g class="layer-above"><g class="imagelayer"/><g class="shapelayer"/></g><g class="infolayer"><g class="g-gtitle"/><g class="g-xtitle"/><g class="g-ytitle"/></g></svg>