<svg class="main-svg" xmlns="http://www.w3.org/2000/svg" xmlns:xlink="http://www.w3.org/1999/xlink" width="800" height="600" style="" viewBox="0 0 800 600"><rect x="0" y="0" width="800" height="600" style="fill: rgb(255, 255, 255); fill-opacity: 1;"/><defs id="defs-b146ae"><g class="clips"><clipPath id="clipb146aexyplot" class="plotclip"><rect width="710" height="470"/></clipPath><clipPath class="axesclip" id="clipb146aex"><rect x="80" y="0" width="710" height="600"/></clipPath><clipPath class="axesclip" id="clipb146aey"><rect x="0" y="50" width="800" height="470"/></clipPath><clipPath class="axesclip" id="clipb146aexy"><rect x="80" y="50" width="710" height="470"/></clipPath></g><g class="gradients"/></defs><g class="bglayer"/><g class="layer-below"><g class="imagelayer"/><g class="shapelayer"/></g><g class="cartesianlayer"><g class="subplot xy"><g class="layer-subplot"><g class="shapelayer"/><g class="imagelayer"/></g><g class="gridlayer"><g class="x"><path class="xgrid crisp" transform="translate(145.39,0)" d="M0,50v470" style="stroke: rgb(238, 238, 238); stroke-opacity: 1; stroke-width: 1px;"/><path class="xgrid crisp" transform="translate(261.52,0)" d="M0,50v470" style="stroke: rgb(238, 238, 238); stroke-opacity: 1; stroke-width: 1px;"/><path class="xgrid crisp" transform="translate(377.65,0)" d="M0,50v470" style="stroke: rgb(238, 238, 238); stroke-opacity: 1; stroke-width: 1px;"/><path class="xgrid crisp" transform="translate(493.78,0)" d="M0,50v470" style="stroke: rgb(238, 238, 238); stroke-opacity: 1; stroke-width: 1px;"/><path class="xgrid crisp" transform="translate(609.92,0)" d="M0,50v470" style="stroke: rgb(238, 238, 238); stroke-opacity: 1; stroke-width: 1px;"/><path class="xgrid crisp" transform="translate(726.05,0)" d="M0,50v470" style="stroke: rgb(238, 238, 238); stroke-opacity: 1; stroke-width: 1px;"/></g><g class="y"><path class="ygrid crisp" transform="translate(0,419.29)" d="M80,0h710" style="stroke: rgb(238, 238, 238); stroke-opacity: 1; stroke-width: 1px;"/><path class="ygrid crisp" transform="translate(0,335.36)" d="M80,0h710" style="stroke: rgb(238, 238, 238); stroke-opacity: 1; stroke-width: 1px;"/><path class="ygrid crisp" transform="translate(0,251.43)" d="M80,0h710" style="stroke: rgb(238, 238, 238); stroke-opacity: 1; stroke-width: 1px;"/><path class="ygrid crisp" transform="translate(0,167.5)" d="M80,0h710" style="stroke: rgb(238, 238, 238); stroke-opacity: 1; stroke-width: 1px;"/><path class="ygrid crisp" transform="translate(0,83.57)" d="M80,0h710" style="stroke: rgb(238, 238, 238); stroke-opacity: 1; stroke-width: 1px;"/></g></g><g class="zerolinelayer"><path class="yzl zl crisp" transform="translate(0,503.21)" d="M80,0h710" style="stroke: rgb(68, 68, 68); stroke-opacity: 1; stroke-width: 1px;"/></g><path class="xlines-below"/><path class="ylines-below"/><g class="overlines-below"/><g class="xaxislayer-below"/><g class="yaxislayer-below"/><g class="overaxes-below"/><g class="plot" transform="translate(80, 50)" clip-path="url('#clipb146aexyplot')"><g class="scatterlayer mlayer"><g class="trace scatter tracec213dc" style="stroke-miterlimit: 2; opacity: 1;"><g class="fills"/><g class="errorbars"/><g class="lines"><path class="js-line" style="vector-effect: non-scaling-stroke; fill: none; stroke: rgb(251, 147, 65); stroke-opacity: 1; stroke-width: 1.5px; opacity: 1;" d="M-10235.47,439.79L-10235.24,446.5L-10233.96,23.5L-10165.21,345.79L-10096.58,426.36L-9348.8,399.5L-9331.5,23.5L-8923.64,446.5L-8891.47,345.79L-8867.08,345.79L-8817.49,399.5L-8759.77,439.79L-8512.88,399.5L-8505.33,446.5L-8480.36,238.36L-8412.31,399.5L-8402.32,345.79L-8355.05,399.5L-8332.75,23.5L-8250.76,399.5L-8216.62,345.79L-8199.67,399.5L-8155.65,345.79L-8130.34,439.79L-8108.85,426.36L-8024.31,439.79L-7997.71,23.5L-7993.53,439.79L-7915.26,399.5L-7900.39,426.36L-7810.16,345.79L-7793.55,426.36L-7771.95,238.36L-7689.73,446.5L-7682.99,399.5L-7668.24,238.36L-7606,446.5L-7585.32,399.5L-7569.3,345.79L-7529.7,345.79L-7526.33,439.79L-7466.52,345.79L-7445.27,426.36L-7423.55,345.79L-7350.74,345.79L-7302.54,446.5L-7276.99,345.79L-7226.71,426.36L-7216.37,426.36L-7152.85,399.5L-7151.45,426.36L-7133.1,399.5L-7080.5,426.36L-7044.49,426.36L-7036.83,345.79L-6997.81,446.5L-6978.65,426.36L-6974.23,345.79L-6964.59,439.79L-6904.21,345.79L-6880.86,345.79L-6876.1,238.36L-6827.79,446.5L-6824.65,345.79L-6802.71,345.79L-6791.09,446.5L-6745.34,399.5L-6741.97,238.36L-6667.29,446.5L-6664.28,345.79L-6646.62,345.79L-6640,439.79L-6614.57,238.36L-6569.98,426.36L-6552.21,399.5L-6515.86,426.36L-6509.24,399.5L-6503.43,399.5L-6478.93,238.36L-6454.89,426.36L-6442.35,399.5L-6431.31,399.5L-6380.33,426.36L-6362.68,399.5L-6347.35,399.5L-6347,426.36L-6324.94,23.5L-6284.29,399.5L-6281.15,23.5L-6215.54,399.5L-6211.82,345.79L-6209.96,399.5L-6191.62,426.36L-6161.77,238.36L-6141.33,345.79L-6136.92,399.5L-6097.2,23.5L-6075.83,345.79L-6067,399.5L-6021.36,238.36L-6011.03,439.79L-6003.71,345.79L-6001.39,345.79L-5988.27,345.79L-5986.87,446.5L-5926.48,238.36L-5925.67,345.79L-5917.43,345.79L-5904.77,23.5L-5894.2,399.5L-5883.05,345.79L-5844.96,426.36L-5830.33,439.79L-5803.73,399.5L-5785.73,426.36L-5784.45,439.79L-5773.77,23.5L-5749.03,399.5L-5746.59,439.79L-5725.11,238.36L-5684.23,399.5L-5681.1,399.5L-5662.4,426.36L-5648.46,345.79L-5645.44,345.79L-5633.13,345.79L-5618.27,439.79L-5588.07,345.79L-5586.22,238.36L-5580.18,23.5L-5536.28,399.5L-5525.59,345.79L-5525.13,345.79L-5512.12,345.79L-5510.03,439.79L-5460.56,238.36L-5450.8,345.79L-5440.47,345.79L-5409.93,23.5L-5407.49,446.5L-5381.59,238.36L-5377.87,345.79L-5321.43,446.5L-5319.11,345.79L-5310.17,23.5L-5282.53,399.5L-5266.04,345.79L-5261.39,345.79L-5223.53,345.79L-5220.86,238.36L-5209.48,23.5L-5180.21,399.5L-5170.46,345.79L-5163.26,345.79L-5149.44,345.79L-5110.77,426.36L-5051.66,426.36L-5049.33,345.79L-5008.57,439.79L-4991.85,426.36L-4984.42,399.5L-4813.82,399.5L-4812.89,345.79L-4792.45,426.36L-4762.37,399.5L-4756.21,345.79L-4750.41,426.36L-4724.28,238.36L-4713.48,345.79L-4702.56,345.79L-4667.84,238.36L-4650.3,426.36L-4647.28,399.5L-4596.88,345.79L-4591.89,345.79L-4582.71,399.5L-4581.43,238.36L-4545.32,345.79L-4540.56,345.79L-4536.49,238.36L-4520,439.79L-4492.36,345.79L-4491.66,345.79L-4473.9,238.36L-4457.64,399.5L-4451.02,238.36L-4449.97,446.5L-4418.62,345.79L-4380.87,426.36L-4345.92,439.79L-4337.9,238.36L-4334.77,399.5L-4332.45,426.36L-4291.1,399.5L-4283.32,426.36L-4245.23,439.79L-4238.26,399.5L-4232.69,426.36L-4220.84,23.5L-4209.23,399.5L-4207.6,426.36L-4193.55,238.36L-4162.78,399.5L-4162.66,426.36L-4149.19,439.79L-4130.14,345.79L-4115.86,399.5L-4114.81,399.5L-4105.64,399.5L-4101.92,345.79L-4094.14,426.36L-4059.53,345.79L-4053.61,399.5L-4010.87,345.79L-4010.18,399.5L-3967.09,345.79L-3962.21,345.79L-3923.89,446.5L-3921.22,345.79L-3919.48,345.79L-3910.88,345.79L-3906.35,399.5L-3899.5,426.36L-3864.55,345.79L-3859.32,345.79L-3841.9,345.79L-3839,399.5L-3800.33,345.79L-3797.31,345.79L-3779.65,238.36L-3756.54,439.79L-3756.31,345.79L-3730.53,345.79L-3729.48,238.36L-3711.48,23.5L-3686.4,399.5L-3685.93,345.79L-3649.47,399.5L-3643.2,345.79L-3606.27,446.5L-3606.04,426.36L-3582,238.36L-3568.18,345.79L-3567.13,426.36L-3528.69,399.5L-3527.99,345.79L-3509.18,426.36L-3493.85,399.5L-3493.39,23.5L-3469.58,426.36L-3454.71,399.5L-3453.9,399.5L-3449.72,426.36L-3417.2,345.79L-3415.81,399.5L-3405.13,426.36L-3382.02,23.5L-3379.69,399.5L-3379.23,399.5L-3342.76,345.79L-3341.83,399.5L-3305.83,345.79L-3304.21,399.5L-3270.99,345.79L-3267.97,399.5L-3259.03,439.79L-3234.99,345.79L-3233.6,399.5L-3231.16,345.79L-3199.92,399.5L-3197.25,345.79L-3196.2,345.79L-3181.8,23.5L-3168.33,399.5L-3162.18,345.79L-3161.36,345.79L-3151.61,345.79L-3150.91,399.5L-3117.7,345.79L-3116.54,345.79L-3108.29,345.79L-3106.66,399.5L-3074.03,345.79L-3070.2,399.5L-3064.62,426.36L-3038.03,345.79L-3037.22,345.79L-3010.97,345.79L-3009.11,399.5L-2977.06,345.79L-2975.9,345.79L-2954.41,345.79L-2914.23,426.36L-2889.61,426.36L-2888.45,345.79L-2855.7,426.36L-2854.77,426.36L-2828.29,399.5L-2828.18,439.79L-2825.27,426.36L-2823.65,426.36L-2791.71,399.5L-2789.85,426.36L-2759.43,399.5L-2758.5,399.5L-2744.91,399.5L-2744.21,345.79L-2717.62,426.36L-2715.07,399.5L-2713.09,399.5L-2712.28,238.36L-2693.12,426.36L-2684.06,399.5L-2682.78,399.5L-2673.02,439.79L-2671.75,345.79L-2660.95,399.5L-2658.62,345.79L-2634.35,426.36L-2629.24,399.5L-2628.31,345.79L-2599.4,399.5L-2599.05,345.79L-2571.99,399.5L-2571.64,345.79L-2569.09,345.79L-2541.91,399.5L-2541.33,345.79L-2513.46,399.5L-2513.11,345.79L-2507.19,345.79L-2506.37,399.5L-2478.5,345.79L-2478.27,399.5L-2474.21,23.5L-2456.67,345.79L-2456.21,345.79L-2433.33,399.5L-2430.77,345.79L-2429.61,345.79L-2407.66,399.5L-2404.64,345.79L-2402.78,345.79L-2378.86,345.79L-2378.63,399.5L-2353.66,345.79L-2352.61,345.79L-2335.43,345.79L-2334.5,399.5L-2309.18,345.79L-2308.25,345.79L-2281.19,345.79L-2280.61,399.5L-2256.81,345.79L-2255.64,345.79L-2248.91,345.79L-2248.44,238.36L-2223.94,345.79L-2223.13,238.36L-2222.55,345.79L-2187.47,426.36L-2136.26,426.36L-2134.75,399.5L-2129.29,439.79L-2111.87,399.5L-2108.27,426.36L-2100.61,439.79L-2086.09,345.79L-2085.51,439.79L-2071.57,345.79L-2062.05,399.5L-2061.47,399.5L-2042.66,426.36L-2039.29,399.5L-2038.82,399.5L-2020.13,439.79L-2017.46,399.5L-2016.53,399.5L-2009.56,399.5L-2008.86,426.36L-1997.02,345.79L-1989,439.79L-1987.61,399.5L-1986.45,399.5L-1981.69,345.79L-1973.44,426.36L-1968.22,399.5L-1966.71,345.79L-1949.4,426.36L-1945.34,399.5L-1944.64,399.5L-1929.08,426.36L-1928.38,345.79L-1923.62,399.5L-1923.27,399.5L-1903.3,345.79L-1902.37,399.5L-1882.97,345.79L-1882.74,399.5L-1881.58,399.5L-1873.1,238.36L-1860.56,345.79L-1860.33,399.5L-1839.89,345.79L-1839.66,399.5L-1820.15,345.79L-1819.68,399.5L-1814.8,238.36L-1800.64,399.5L-1799.82,399.5L-1779.96,345.79L-1779.5,345.79L-1771.02,238.36L-1759.99,399.5L-1759.76,238.36L-1755.69,23.5L-1739.78,399.5L-1739.55,345.79L-1737.34,238.36L-1720.74,345.79L-1720.27,345.79L-1709.47,345.79L-1708.66,238.36L-1705.52,399.5L-1689.61,345.79L-1689.5,345.79L-1687.41,238.36L-1671.38,345.79L-1670.92,345.79L-1660.81,238.36L-1656.28,399.5L-1652.8,345.79L-1651.99,345.79L-1633.17,345.79L-1632.82,238.36L-1628.41,23.5L-1617.96,345.79L-1615.4,238.36L-1613.55,238.36L-1606.81,238.36L-1606.58,345.79L-1588.46,238.36L-1588,238.36L-1583.82,426.36L-1570.23,345.79L-1569.88,345.79L-1562.56,345.79L-1561.98,238.36L-1544.8,399.5L-1544.1,345.79L-1541.66,399.5L-1534.34,238.36L-1531.32,345.79L-1530.98,238.36L-1516.69,345.79L-1514.48,238.36L-1514.02,238.36L-1499.62,399.5L-1496.25,345.79L-1495.79,345.79L-1491.61,345.79L-1491.26,238.36L-1450.84,439.79L-1439.23,426.36L-1438.77,426.36L-1427.5,446.5L-1425.88,399.5L-1423.09,426.36L-1422.16,426.36L-1410.31,399.5L-1406.6,426.36L-1406.25,426.36L-1394.98,399.5L-1391.27,426.36L-1391.15,439.79L-1381.51,426.36L-1381.16,399.5L-1378.96,345.79L-1374.08,426.36L-1367.69,426.36L-1366.76,426.36L-1352.6,399.5L-1351.78,426.36L-1351.2,426.36L-1346.21,426.36L-1345.28,399.5L-1339.94,446.5L-1336.92,345.79L-1330.88,399.5L-1330.53,399.5L-1318.22,426.36L-1316.01,399.5L-1315.67,399.5L-1312.76,345.79L-1310.32,426.36L-1301.96,399.5L-1301.03,399.5L-1289.07,426.36L-1287.68,399.5L-1286.52,399.5L-1283.5,426.36L-1272.46,399.5L-1272.23,399.5L-1253.88,399.5L-1253.3,426.36L-1241.46,345.79L-1239.71,399.5L-1239.02,399.5L-1231.12,426.36L-1230.42,345.79L-1225.55,399.5L-1224.73,345.79L-1211.26,426.36L-1211.15,345.79L-1208.82,426.36L-1197.09,399.5L-1196.75,345.79L-1183.51,399.5L-1183.16,345.79L-1169.92,399.5L-1169.34,399.5L-1156.22,345.79L-1155.98,399.5L-1143.67,345.79L-1143.44,399.5L-1142.86,399.5L-1132.06,345.79L-1130.43,399.5L-1129.74,399.5L-1127.65,238.36L-1117.43,399.5L-1116.85,399.5L-1104.42,345.79L-1104.3,345.79L-1097.57,345.79L-1097.34,399.5L-1084.79,345.79L-1084.33,399.5L-1072.72,345.79L-1072.37,399.5L-1072.25,399.5L-1059.59,345.79L-1058.9,399.5L-1058.08,238.36L-1047.05,345.79L-1046.24,399.5L-1035.32,345.79L-1034.74,399.5L-1034.39,399.5L-1021.5,345.79L-1021.38,345.79L-1010.47,399.5L-1009.89,345.79L-998.27,399.5L-997.69,345.79L-993.98,345.79L-993.63,399.5L-983.18,238.36L-981.55,345.79L-980.74,345.79L-975.74,345.79L-975.51,399.5L-964.13,345.79L-963.2,345.79L-952.75,345.79L-951.82,399.5L-941.14,345.79L-940.56,345.79L-924.99,345.79L-924.88,399.5L-914.43,238.36L-913.96,345.79L-913.5,345.79L-911.41,345.79L-911.17,399.5L-900.14,345.79L-900.03,345.79L-891.78,345.79L-891.2,238.36L-890.27,399.5L-880.75,345.79L-880.05,345.79L-873.43,345.79L-873.32,238.36L-868.9,399.5L-863.79,238.36L-862.28,238.36L-852.41,345.79L-851.71,345.79L-849.51,345.79L-849.28,238.36L-839.29,345.79L-838.24,345.79L-835.22,238.36L-828.84,345.79L-828.6,345.79L-817.11,345.79L-816.88,238.36L-813.16,23.5L-806.89,345.79L-806.42,345.79L-802.59,345.79L-802.01,238.36L-792.49,345.79L-791.91,345.79L-789.24,345.79L-788.42,238.36L-778.9,345.79L-778.55,345.79L-772.28,238.36L-770.19,345.79L-769.38,345.79L-762.53,238.36L-760.78,345.79L-760.32,345.79L-717.81,426.36L-717,399.5L-714.33,439.79L-708.52,426.36L-708.41,426.36L-700.39,426.36L-699.93,439.79L-698.19,439.79L-697.72,426.36L-672.75,426.36L-671.71,399.5L-663.7,426.36L-663.46,426.36L-655.33,399.5L-654.75,426.36L-647.67,426.36L-647.32,399.5L-639.31,426.36L-639.08,426.36L-632.69,399.5L-631.99,426.36L-631.64,426.36L-627.58,345.79L-624.68,426.36L-624.44,426.36L-621.19,426.36L-620.84,399.5L-618.75,399.5L-618.52,426.36L-616.43,426.36L-615.85,399.5L-611.2,345.79L-610.62,426.36L-609.35,399.5L-609.23,345.79L-601.45,426.36L-601.22,426.36L-593.78,399.5L-593.67,399.5L-586.7,399.5L-585.89,426.36L-584.03,426.36L-583.68,399.5L-579.62,399.5L-578.92,426.36L-574.74,345.79L-571.72,399.5L-571.37,426.36L-567.89,345.79L-564.98,399.5L-564.52,426.36L-556.85,399.5L-556.74,399.5L-554.3,426.36L-553.37,399.5L-552.79,345.79L-548.14,426.36L-545.94,399.5L-545.71,399.5L-544.78,345.79L-541.41,426.36L-539.55,399.5L-538.74,345.79L-534.44,426.36L-531.65,399.5L-531.54,345.79L-531.07,426.36L-525.38,399.5L-525.15,345.79L-519.46,399.5L-518.99,345.79L-518.76,345.79L-514.47,426.36L-512.14,399.5L-511.91,399.5L-506.92,426.36L-505.87,399.5L-505.64,345.79L-499.6,426.36L-498.9,399.5L-498.56,399.5L-497.28,426.36L-496.12,345.79L-494.26,399.5L-494.03,345.79L-492.75,345.79L-492.52,399.5L-492.05,439.79L-490.66,345.79L-486.94,399.5L-486.36,399.5L-479.51,345.79L-479.39,399.5L-477.77,399.5L-477.42,426.36L-471.73,345.79L-471.26,345.79L-465.46,399.5L-465.34,399.5L-461.63,345.79L-461.28,426.36L-459.88,399.5L-459.65,399.5L-457.21,426.36L-454.66,345.79L-454.31,399.5L-453.73,399.5L-449.55,399.5L-449.31,345.79L-446.99,345.79L-446.88,399.5L-442.93,345.79L-441.53,399.5L-441.19,399.5L-437.47,345.79L-435.84,399.5L-435.38,345.79L-429.46,399.5L-429.34,345.79L-425.86,426.36L-423.88,399.5L-423.65,399.5L-418.54,345.79L-418.42,399.5L-415.75,426.36L-414.01,345.79L-413.55,399.5L-413.2,399.5L-404.95,23.5L-404.72,399.5L-403.56,399.5L-403.33,345.79L-397.98,426.36L-397.75,345.79L-396.36,345.79L-395.55,399.5L-393.34,399.5L-392.87,345.79L-390.67,399.5L-388.11,345.79L-388,345.79L-387.88,399.5L-383.93,345.79L-382.89,399.5L-380.91,426.36L-378.13,345.79L-377.89,345.79L-373.36,345.79L-373.25,399.5L-366.98,345.79L-366.86,345.79L-362.8,345.79L-362.56,399.5L-358.03,345.79L-357.69,399.5L-355.02,399.5L-354.2,345.79L-347.93,345.79L-347.23,399.5L-342.82,345.79L-342.47,399.5L-338.52,345.79L-338.18,399.5L-338.06,399.5L-333.41,345.79L-332.95,345.79L-325.4,345.79L-325.05,399.5L-320.87,345.79L-320.52,345.79L-318.2,345.79L-317.85,399.5L-316.69,399.5L-316.34,345.79L-307.75,345.79L-306.94,399.5L-302.17,345.79L-302.06,345.79L-300.9,345.79L-300.78,399.5L-299.97,399.5L-299.85,345.79L-298.46,345.79L-298.11,399.5L-294.05,345.79L-293.46,345.79L-291.61,345.79L-291.26,399.5L-287.08,345.79L-286.85,345.79L-279.53,345.79L-279.41,399.5L-275.46,345.79L-275.12,345.79L-262.92,345.79L-262.69,399.5L-258.74,345.79L-258.51,345.79L-257.46,345.79L-257.23,399.5L-253.17,345.79L-253.05,345.79L-251.54,399.5L-249.68,345.79L-249.45,345.79L-244.11,345.79L-243.99,399.5L-240.28,345.79L-239.93,345.79L-237.37,345.79L-236.91,399.5L-232.96,345.79L-232.84,345.79L-231.45,399.5L-229.71,345.79L-229.13,345.79L-225.88,345.79L-225.76,238.36L-224.83,238.36L-224.37,345.79L-214.84,345.79L-214.61,399.5L-213.8,399.5L-213.45,345.79L-211.01,345.79L-210.89,399.5L-207.53,345.79L-207.29,345.79L-194.52,345.79L-194.17,399.5L-190.69,345.79L-190.34,399.5L-187.32,345.79L-186.97,345.79L-169.32,345.79L-169.2,238.36L-168.39,238.36L-167.69,345.79L-155.73,345.79L-155.5,399.5L-153.06,345.79L-152.71,345.79L-120.89,345.79L-120.66,238.36L-119.5,238.36L-119.38,345.79L-113.69,345.79L-113.58,238.36L-111.95,238.36L-111.83,345.79L-108.23,345.79L-108,238.36L-107.42,238.36L-106.96,345.79L-97.55,345.79L-97.32,238.36L-95.57,345.79L-95.46,345.79L-94.53,345.79L-94.41,238.36L-94.06,238.36L-93.95,345.79L-90,345.79L-89.88,238.36L-88.03,345.79L-87.56,345.79L-86.4,345.79L-86.05,399.5L-84.43,345.79L-84.19,345.79L-83.38,345.79L-83.26,238.36L-81.41,345.79L-81.29,345.79L-74.32,345.79L-74.09,238.36L-72.58,345.79L-72.23,238.36L-70.49,238.36L-70.03,345.79L-69.33,238.36L-68.63,345.79L-68.52,345.79L-67.12,345.79L-66.77,238.36L-65.61,238.36L-65.5,345.79L-60.27,345.79L-60.15,238.36L-59.57,238.36L-59.46,345.79L-55.39,345.79L-55.04,238.36L-54.46,238.36L-54.12,345.79L-52.49,345.79L-52.37,238.36L-50.63,345.79L-50.4,345.79L-49.35,345.79L-49.01,238.36L-47.73,238.36L-47.15,345.79L-46.1,345.79L-45.99,238.36L-44.59,345.79L-44.01,345.79L-43.66,345.79L-43.55,238.36L-42.62,238.36L-42.15,345.79L-39.83,345.79L-39.6,238.36L-38.55,345.79L-38.21,345.79L-36.58,345.79L-36.35,238.36L-35.3,238.36L-35.19,345.79L-32.98,345.79L-32.4,238.36L-31.93,238.36L-31.82,345.79L-28.91,345.79L-28.57,238.36L-27.64,238.36L7.44,426.36L8.48,426.36L8.6,399.5L9.18,399.5L9.29,426.36L12.31,426.36L12.43,399.5L12.89,399.5L13.01,426.36L15.56,426.36L15.68,399.5L16.61,399.5L16.73,426.36L22.76,426.36L23.11,439.79L26.13,439.79L26.36,426.36L33.1,426.36L33.45,439.79L34.26,439.79L34.38,426.36L49.48,426.36L49.82,439.79L50.29,439.79L50.4,426.36L51.68,426.36L52.26,439.79L53.08,439.79L53.19,426.36L54.93,426.36L55.05,399.5L56.09,399.5L56.21,426.36L57.72,426.36L57.84,399.5L58.77,399.5L59,426.36L62.13,426.36L62.25,399.5L63.29,399.5L63.53,426.36L65.62,426.36L65.73,399.5L67.36,399.5L67.71,426.36L69.68,426.36L69.91,399.5L70.61,426.36L70.84,426.36L75.95,426.36L76.19,399.5L76.77,399.5L76.88,426.36L78.97,426.36L79.21,399.5L79.79,426.36L80.25,426.36L81.64,426.36L81.76,399.5L81.99,399.5L82.46,426.36L83.39,426.36L83.62,399.5L84.32,399.5L84.55,426.36L85.13,426.36L85.36,399.5L85.94,426.36L86.17,399.5L87.1,399.5L87.33,426.36L90.93,426.36L91.05,399.5L93.26,399.5L93.49,426.36L95.7,426.36L95.81,399.5L97.44,399.5L97.67,426.36L98.83,426.36L98.95,399.5L99.53,399.5L99.76,426.36L100.34,426.36L100.57,399.5L103.01,399.5L103.13,426.36L104.52,426.36L104.64,345.79L105.45,399.5L105.57,399.5L106.26,399.5L106.5,426.36L106.73,426.36L107.19,399.5L107.77,426.36L108.01,399.5L110.1,399.5L110.21,426.36L111.72,426.36L111.84,399.5L112.65,426.36L112.88,426.36L113.23,426.36L113.46,399.5L114.63,399.5L115.09,426.36L117.76,426.36L117.88,399.5L118.46,426.36L118.69,399.5L122.06,399.5L122.17,426.36L122.99,426.36L123.1,399.5L124.96,399.5L125.19,426.36L126.36,426.36L126.59,399.5L127.52,399.5L127.63,426.36L129.14,426.36L129.26,399.5L129.72,399.5L129.96,426.36L130.77,426.36L130.88,345.79L131.35,345.79L131.46,399.5L133.44,399.5L133.56,426.36L134.25,426.36L134.6,399.5L135.65,399.5L135.76,426.36L136.57,426.36L136.69,399.5L138.32,399.5L138.43,426.36L138.9,426.36L139.25,399.5L140.64,399.5L140.76,426.36L142.27,426.36L142.61,399.5L150.28,399.5L150.63,426.36L151.32,426.36L151.44,399.5L152.6,399.5L152.83,426.36L153.76,426.36L154.11,399.5L154.81,399.5L154.92,345.79L155.27,345.79L155.5,399.5L155.74,399.5L155.85,426.36L156.43,426.36L156.78,399.5L159.22,399.5L159.45,345.79L159.8,345.79L159.92,426.36L160.5,426.36L160.61,399.5L160.96,399.5L161.66,345.79L162.12,345.79L162.36,426.36L163.05,426.36L163.17,399.5L165.72,399.5L165.96,345.79L166.77,345.79L167.12,426.36L167.47,426.36L167.58,399.5L168.63,399.5L168.86,345.79L168.98,399.5L169.56,345.79L169.79,399.5L170.02,399.5L170.14,426.36L170.6,426.36L170.72,399.5L170.95,345.79L171.41,399.5L171.53,399.5L174.67,399.5L175.13,426.36L175.48,426.36L175.71,399.5L176.99,399.5L177.22,426.36L177.8,426.36L177.92,399.5L178.85,399.5L178.96,345.79L179.43,345.79L179.54,399.5L181.63,399.5L182.1,345.79L182.8,345.79L183.03,399.5L183.72,399.5L183.96,426.36L185,426.36L185.23,345.79L186.4,345.79L186.51,399.5L188.14,399.5L188.25,345.79L189.07,345.79L189.18,399.5L190.69,399.5L190.81,345.79L191.51,345.79L191.62,399.5L194.06,399.5L194.29,426.36L194.87,426.36L195.22,399.5L195.92,399.5L196.15,345.79L196.96,345.79L197.2,399.5L198.24,399.5L198.71,345.79L199.17,345.79L199.4,399.5L200.45,426.36L200.56,426.36L200.8,426.36L200.91,399.5L201.38,399.5L201.49,345.79L202.42,399.5L202.65,399.5L203.12,399.5L203.23,426.36L203.7,426.36L203.93,399.5L204.98,399.5L205.09,345.79L206.02,345.79L206.14,399.5L207.42,399.5L207.65,345.79L207.88,345.79L208.34,399.5L208.93,345.79L209.27,426.36L209.51,426.36L209.62,399.5L211.13,399.5L211.48,345.79L211.94,345.79L212.06,399.5L212.87,399.5L212.99,345.79L213.8,345.79L214.04,399.5L214.73,399.5L214.85,345.79L215.78,345.79L216.01,399.5L216.47,345.79L216.71,399.5L216.82,399.5L218.56,399.5L218.68,345.79L219.61,399.5L219.84,399.5L220.07,399.5L220.42,426.36L221.24,426.36L221.35,399.5L222.16,399.5L222.28,345.79L222.51,345.79L222.63,426.36L222.86,426.36L222.98,345.79L224.25,345.79L224.37,399.5L225.76,399.5L226,345.79L227.16,345.79L227.39,399.5L229.25,399.5L229.36,345.79L229.95,345.79L230.18,399.5L231.8,399.5L231.92,345.79L232.73,345.79L232.85,399.5L234.71,399.5L234.94,345.79L235.87,345.79L236.1,399.5L238.66,399.5L238.77,345.79L239.58,345.79L239.7,399.5L242.84,399.5L242.95,345.79L244.23,345.79L244.35,399.5L245.16,399.5L245.28,426.36L245.51,426.36L245.62,399.5L245.86,399.5L246.09,345.79L247.13,345.79L247.25,399.5L248.18,399.5L248.41,345.79L250.27,345.79L250.38,399.5L250.62,399.5L250.97,345.79L251.43,345.79L251.55,399.5L252.94,399.5L253.17,345.79L253.98,345.79L254.22,399.5L255.15,345.79L255.26,399.5L256.77,399.5L256.89,426.36L257.59,399.5L258.05,426.36L258.51,345.79L258.86,399.5L258.98,399.5L263.97,399.5L264.09,345.79L264.79,345.79L264.9,399.5L266.18,399.5L266.3,345.79L267.22,345.79L267.46,399.5L268.39,399.5L268.85,345.79L269.66,345.79L269.9,399.5L270.59,426.36L271.06,426.36L271.99,345.79L272.22,399.5L273.38,399.5L273.61,345.79L275.7,345.79L275.93,399.5L276.98,399.5L277.21,345.79L278.26,345.79L278.37,399.5L278.61,399.5L278.95,345.79L279.65,399.5L280,345.79L280.46,345.79L280.7,399.5L281.39,399.5L281.51,345.79L286.04,345.79L286.15,399.5L286.97,399.5L287.08,345.79L288.01,345.79L288.13,399.5L288.59,426.36L288.71,345.79L289.99,345.79L290.22,399.5L290.8,399.5L291.03,345.79L293.7,345.79L294.05,399.5L294.86,399.5L294.98,345.79L295.79,345.79L295.91,399.5L297.53,399.5L298,345.79L299.04,345.79L299.16,399.5L300.09,399.5L300.32,345.79L301.95,345.79L302.06,399.5L303.23,399.5L303.46,345.79L305.32,345.79L305.55,399.5L307.75,399.5L307.99,345.79L308.22,345.79L308.34,399.5L309.84,399.5L310.08,345.79L311.7,345.79L311.94,399.5L312.4,399.5L312.52,345.79L313.68,345.79L313.79,399.5L314.95,399.5L315.19,345.79L316.12,345.79L316.23,399.5L316.58,426.36L316.7,399.5L317.05,345.79L317.97,345.79L318.09,399.5L318.44,399.5L318.55,345.79L319.6,345.79L319.72,399.5L320.88,399.5L320.99,345.79L322.97,345.79L323.08,399.5L324.01,399.5L324.48,345.79L326.1,345.79L326.22,399.5L326.8,399.5L326.92,345.79L328.31,345.79L328.66,399.5L329.01,399.5L329.12,345.79L330.63,345.79L330.75,399.5L333.42,399.5L333.65,345.79L334.93,345.79L335.16,399.5L335.97,345.79L336.09,345.79L337.25,345.79L337.37,399.5L337.72,399.5L337.83,345.79L339.92,345.79L340.04,399.5L340.85,345.79L341.08,345.79L342.01,399.5L342.25,399.5L343.17,345.79L343.29,345.79L343.64,345.79L343.99,399.5L345.38,399.5L345.5,345.79L346.66,345.79L346.78,426.36L347.12,426.36L347.24,399.5L347.94,345.79L348.17,345.79L350.49,345.79L350.72,399.5L351.42,399.5L351.54,345.79L353.05,345.79L353.16,399.5L353.86,399.5L353.98,345.79L358.85,345.79L359.2,399.5L359.9,399.5L360.01,345.79L363.61,345.79L363.73,399.5L364.54,399.5L364.66,345.79L367.45,345.79L367.56,399.5L369.54,399.5L369.65,345.79L369.89,345.79L370,399.5L371.98,399.5L372.21,345.79L374.18,345.79L374.41,399.5L374.76,399.5L374.88,345.79L376.27,345.79L376.39,238.36L376.62,238.36L376.74,345.79L377.43,399.5L377.55,345.79L381.96,345.79L382.08,399.5L382.66,399.5L382.78,345.79L385.91,345.79L386.03,399.5L386.84,399.5L387.07,345.79L388.23,345.79L388.47,399.5L389.51,399.5L389.74,345.79L391.37,345.79L391.49,399.5L392.42,399.5L392.53,345.79L394.16,345.79L394.27,399.5L395.09,399.5L395.2,345.79L396.83,345.79L396.94,399.5L397.29,399.5L397.53,345.79L402.63,345.79L402.75,238.36L403.45,399.5L403.56,345.79L403.68,345.79L405.65,345.79L405.77,399.5L406.58,399.5L406.7,345.79L413.2,345.79L413.32,399.5L415.18,399.5L415.29,345.79L419.94,345.79L420.05,399.5L420.52,399.5L420.64,345.79L427.84,345.79L427.95,399.5L428.76,399.5L428.88,345.79L430.51,345.79L430.74,399.5L431.67,345.79L431.78,345.79L439.57,345.79L439.68,399.5L440.38,399.5L440.49,345.79L442.12,345.79L442.35,399.5L443.05,399.5L443.17,345.79L450.02,345.79L450.13,399.5L450.95,399.5L451.18,345.79L468.95,345.79L469.06,399.5L469.99,399.5L470.11,345.79L481.61,345.79L481.72,399.5L482.53,399.5L482.65,345.79L487.76,345.79L487.88,399.5L488.57,399.5L488.69,345.79L489.5,399.5L489.62,345.79L491.94,345.79L492.17,399.5L492.52,399.5L492.64,238.36L493.1,238.36L493.22,345.79L495.19,345.79L495.31,399.5L495.66,399.5L495.77,345.79L496.7,345.79L496.93,238.36L497.17,238.36L497.28,345.79L506.92,345.79L507.04,399.5L507.97,345.79L508.08,345.79L522.6,345.79L522.72,238.36L522.95,238.36L523.06,345.79L530.26,345.79L530.38,399.5L530.61,399.5L530.85,345.79L545.71,345.79L545.83,399.5L546.06,399.5L546.17,345.79L560.34,345.79L560.46,238.36L560.69,238.36L560.92,345.79L572.07,345.79L572.19,238.36L572.42,238.36L572.65,345.79L576.95,345.79L577.07,238.36L577.41,238.36L577.53,345.79L586.24,345.79L586.36,238.36L587.17,238.36L587.29,345.79L588.1,238.36L588.22,238.36L589.14,345.79L589.26,345.79L589.49,345.79L589.61,238.36L590.42,345.79L590.54,345.79L594.6,345.79L594.72,238.36L595.53,345.79L595.76,238.36L596.34,238.36L596.46,345.79L608.54,345.79L608.65,399.5L609,399.5L609.12,345.79L613.07,345.79L613.18,238.36L614.34,238.36L614.46,399.5L614.81,399.5L614.93,345.79L616.67,345.79L616.9,399.5L617.83,345.79L617.95,345.79L619.69,345.79L619.8,238.36L622.36,238.36L622.47,345.79L626.31,345.79L626.42,238.36L628.51,238.36L628.75,345.79L631.65,345.79L631.76,238.36L632.23,238.36L632.35,345.79L640.71,345.79L640.82,238.36L641.64,345.79L641.75,345.79L646.75,345.79L646.86,238.36L647.68,345.79L647.79,345.79L652.2,345.79L652.32,238.36L652.9,238.36L653.02,345.79L653.37,238.36L653.71,345.79L653.83,345.79L654.64,345.79L654.76,238.36L655.22,238.36L655.34,345.79L664.4,345.79L664.51,238.36L667.42,238.36L667.53,345.79L668.11,345.79L668.23,238.36L668.46,238.36L668.7,345.79L671.37,345.79L671.48,238.36L671.95,238.36L672.06,345.79L672.99,238.36L673.11,238.36L673.46,345.79L673.8,238.36L673.92,238.36L674.97,238.36L675.08,345.79L677.64,345.79L677.75,238.36L678.22,238.36L678.33,345.79L686.11,345.79L686.23,238.36L688.44,238.36L688.55,345.79L689.48,345.79L689.6,238.36L690.64,238.36L690.76,345.79L691.92,345.79L692.15,238.36L693.78,238.36L693.9,345.79L694.24,345.79L694.36,238.36L694.71,238.36L694.82,345.79L695.64,345.79L695.75,238.36L695.99,238.36L696.1,345.79L698.19,345.79L698.31,238.36L698.89,238.36L699.01,345.79L699.59,345.79L699.7,238.36L700.52,238.36L700.63,345.79L701.44,238.36L701.56,238.36L703.07,238.36L703.19,345.79L704,345.79"/></g><g class="points"/><g class="text"/></g><g class="trace scatter trace8ae594" style="stroke-miterlimit: 2; opacity: 1;"><g class="fills"/><g class="errorbars"/><g class="lines"/><g class="points"><path class="point" transform="translate(704,345.79)" style="opacity: 1; stroke-width: 0px; fill: rgb(251, 147, 65); fill-opacity: 1;" d="M3,0A3,3 0 1,1 0,-3A3,3 0 0,1 3,0Z"/></g><g class="text"/></g></g></g><g class="overplot"/><path class="xlines-above crisp" style="fill: none;" d="M0,0"/><path class="ylines-above crisp" style="fill: none;" d="M0,0"/><g class="overlines-above"/><g class="xaxislayer-above"><g class="xtick"><text text-anchor="middle" x="0" y="543" style="font-family: TOBESTRIPPEDOpen SansTOBESTRIPPED, verdana, arial, sans-serif; font-size: 12px; fill: rgb(32, 32, 32); fill-opacity: 1; white-space: pre;" transform="translate(145.39,0)">89k</text></g><g class="xtick"><text text-anchor="middle" x="0" y="543" style="font-family: TOBESTRIPPEDOpen SansTOBESTRIPPED, verdana, arial, sans-serif; font-size: 12px; fill: rgb(32, 32, 32); fill-opacity: 1; white-space: pre;" transform="translate(261.52,0)">90k</text></g><g class="xtick"><text text-anchor="middle" x="0" y="543" style="font-family: TOBESTRIPPEDOpen SansTOBESTRIPPED, verdana, arial, sans-serif; font-size: 12px; fill: rgb(32, 32, 32); fill-opacity: 1; white-space: pre;" transform="translate(377.65,0)">91k</text></g><g class="xtick"><text text-anchor="middle" x="0" y="543" style="font-family: TOBESTRIPPEDOpen SansTOBESTRIPPED, verdana, arial, sans-serif; font-size: 12px; fill: rgb(32, 32, 32); fill-opacity: 1; white-space: pre;" transform="translate(493.78,0)">92k</text></g><g class="xtick"><text text-anchor="middle" x="0" y="543" style="font-family: TOBESTRIPPEDOpen SansTOBESTRIPPED, verdana, arial, sans-serif; font-size: 12px; fill: rgb(32, 32, 32); fill-opacity: 1; white-space: pre;" transform="translate(609.92,0)">93k</text></g><g class="xtick"><text text-anchor="middle" x="0" y="543" style="font-family: TOBESTRIPPEDOpen SansTOBESTRIPPED, verdana, arial, sans-serif; font-size: 12px; fill: rgb(32, 32, 32); fill-opacity: 1; white-space: pre;" transform="translate(726.05,0)">94k</text></g></g><g class="yaxislayer-above"><g class="ytick"><text text-anchor="end" x="69" y="4.199999999999999" style="font-family: TOBESTRIPPEDOpen SansTOBESTRIPPED, verdana, arial, sans-serif; font-size: 12px; fill: rgb(32, 32, 32); fill-opacity: 1; white-space: pre;" transform="translate(0,503.21)">0</text></g><g class="ytick"><text text-anchor="end" x="69" y="4.199999999999999" style="font-family: TOBESTRIPPEDOpen SansTOBESTRIPPED, verdana, arial, sans-serif; font-size: 12px; fill: rgb(32, 32, 32); fill-opacity: 1; white-space: pre;" transform="translate(0,419.29)">200</text></g><g class="ytick"><text text-anchor="end" x="69" y="4.199999999999999" style="font-family: TOBESTRIPPEDOpen SansTOBESTRIPPED, verdana, arial, sans-serif; font-size: 12px; fill: rgb(32, 32, 32); fill-opacity: 1; white-space: pre;" transform="translate(0,335.36)">400</text></g><g class="ytick"><text text-anchor="end" x="69" y="4.199999999999999" style="font-family: TOBESTRIPPEDOpen SansTOBESTRIPPED, verdana, arial, sans-serif; font-size: 12px; fill: rgb(32, 32, 32); fill-opacity: 1; white-space: pre;" transform="translate(0,251.43)">600</text></g><g class="ytick"><text text-anchor="end" x="69" y="4.199999999999999" style="font-family: TOBESTRIPPEDOpen SansTOBESTRIPPED, verdana, arial, sans-serif; font-size: 12px; fill: rgb(32, 32, 32); fill-opacity: 1; white-space: pre;" transform="translate(0,167.5)">800</text></g><g class="ytick"><text text-anchor="end" x="69" y="4.199999999999999" style="font-family: TOBESTRIPPEDOpen SansTOBESTRIPPED, verdana, arial, sans-serif; font-size: 12px; fill: rgb(32, 32, 32); fill-opacity: 1; white-space: pre;" transform="translate(0,83.57)">1000</text></g></g><g class="overaxes-above"/></g></g><g class="polarlayer"/><g class="ternarylayer"/><g class="geolayer"/><g class="pielayer"/><g class="sunburstlayer"/><g class="glimages"/><defs id="topdefs-b146ae"><g class="clips"/></defs><g class="layer-above"><g class="imagelayer"/><g class="shapelayer"/></g><g class="infolayer"><g class="g-gtitle"/><g class="g-xtitle"/><g class="g-ytitle"/></g></svg>