<svg class="main-svg" xmlns="http://www.w3.org/2000/svg" xmlns:xlink="http://www.w3.org/1999/xlink" width="800" height="600" style="" viewBox="0 0 800 600"><rect x="0" y="0" width="800" height="600" style="fill: rgb(255, 255, 255); fill-opacity: 1;"/><defs id="defs-2b9b5c"><g class="clips"><clipPath id="clip2b9b5cxyplot" class="plotclip"><rect width="710" height="470"/></clipPath><clipPath class="axesclip" id="clip2b9b5cx"><rect x="80" y="0" width="710" height="600"/></clipPath><clipPath class="axesclip" id="clip2b9b5cy"><rect x="0" y="50" width="800" height="470"/></clipPath><clipPath class="axesclip" id="clip2b9b5cxy"><rect x="80" y="50" width="710" height="470"/></clipPath></g><g class="gradients"/></defs><g class="bglayer"/><g class="layer-below"><g class="imagelayer"/><g class="shapelayer"/></g><g class="cartesianlayer"><g class="subplot xy"><g class="layer-subplot"><g class="shapelayer"/><g class="imagelayer"/></g><g class="gridlayer"><g class="x"><path class="xgrid crisp" transform="translate(171.01,0)" d="M0,50v470" style="stroke: rgb(238, 238, 238); stroke-opacity: 1; stroke-width: 1px;"/><path class="xgrid crisp" transform="translate(286.61,0)" d="M0,50v470" style="stroke: rgb(238, 238, 238); stroke-opacity: 1; stroke-width: 1px;"/><path class="xgrid crisp" transform="translate(402.2,0)" d="M0,50v470" style="stroke: rgb(238, 238, 238); stroke-opacity: 1; stroke-width: 1px;"/><path class="xgrid crisp" transform="translate(517.8,0)" d="M0,50v470" style="stroke: rgb(238, 238, 238); stroke-opacity: 1; stroke-width: 1px;"/><path class="xgrid crisp" transform="translate(633.4,0)" d="M0,50v470" style="stroke: rgb(238, 238, 238); stroke-opacity: 1; stroke-width: 1px;"/><path class="xgrid crisp" transform="translate(749,0)" d="M0,50v470" style="stroke: rgb(238, 238, 238); stroke-opacity: 1; stroke-width: 1px;"/></g><g class="y"><path class="ygrid crisp" transform="translate(0,419.29)" d="M80,0h710" style="stroke: rgb(238, 238, 238); stroke-opacity: 1; stroke-width: 1px;"/><path class="ygrid crisp" transform="translate(0,335.36)" d="M80,0h710" style="stroke: rgb(238, 238, 238); stroke-opacity: 1; stroke-width: 1px;"/><path class="ygrid crisp" transform="translate(0,251.43)" d="M80,0h710" style="stroke: rgb(238, 238, 238); stroke-opacity: 1; stroke-width: 1px;"/><path class="ygrid crisp" transform="translate(0,167.5)" d="M80,0h710" style="stroke: rgb(238, 238, 238); stroke-opacity: 1; stroke-width: 1px;"/><path class="ygrid crisp" transform="translate(0,83.57)" d="M80,0h710" style="stroke: rgb(238, 238, 238); stroke-opacity: 1; stroke-width: 1px;"/></g></g><g class="zerolinelayer"><path class="yzl zl crisp" transform="translate(0,503.21)" d="M80,0h710" style="stroke: rgb(68, 68, 68); stroke-opacity: 1; stroke-width: 1px;"/></g><path class="xlines-below"/><path class="ylines-below"/><g class="overlines-below"/><g class="xaxislayer-below"/><g class="yaxislayer-below"/><g class="overaxes-below"/><g class="plot" transform="translate(80, 50)" clip-path="url('#clip2b9b5cxyplot')"><g class="scatterlayer mlayer"><g class="trace scatter trace3b7b39" style="stroke-miterlimit: 2; opacity: 1;"><g class="fills"/><g class="errorbars"/><g class="lines"><path class="js-line" style="vector-effect: non-scaling-stroke; fill: none; stroke: rgb(88, 153, 218); stroke-opacity: 1; stroke-width: 1.5px; opacity: 1;" d="M-7272.49,446.5L-7270.99,23.5L-7249.95,392.37L-6907.32,446.5L-6786.63,446.5L-6783.51,23.5L-6719.12,446.5L-6710.8,144.36L-6700.63,389.01L-6669.65,23.5L-6630.34,446.5L-6624.22,446.5L-6597.98,245.49L-6579.25,444.4L-6534.4,441.88L-6520.87,250.53L-6479.49,334.46L-6476.37,446.5L-6416.6,23.5L-6408.63,446.5L-6354.3,23.5L-6343.66,438.11L-6340.19,443.14L-6316.61,338.23L-6300.08,353.76L-6290.83,88.96L-6221.7,446.5L-6213.03,23.5L-6145.76,446.5L-6143.56,374.74L-6139.28,441.88L-6116.51,446.5L-6088.19,181.29L-6076.51,420.9L-6074.2,428.88L-6070.27,446.5L-6045.07,271.93L-6026.23,428.46L-6025.3,342.85L-5996.52,446.5L-5994.67,23.5L-5934.67,446.5L-5923.34,415.03L-5917.45,446.5L-5887.97,23.5L-5869.71,437.27L-5860.46,446.5L-5758.04,442.72L-5741.62,23.5L-5687.87,446.5L-5685.67,404.12L-5675.5,431.81L-5645.45,446.08L-5641.52,235L-5620.59,413.35L-5614.93,443.14L-5582.56,432.23L-5578.05,290.81L-5524.76,446.5L-5524.3,388.59L-5512.62,402.44L-5501.18,23.5L-5456.67,446.5L-5455.86,408.31L-5454.25,318.51L-5414.83,194.29L-5399.92,446.5L-5395.75,440.63L-5388.7,441.04L-5374.71,203.11L-5362,329L-5358.42,446.5L-5342.12,229.54L-5328.24,440.63L-5322.58,446.5L-5266.17,23.5L-5261.31,432.23L-5248.94,446.5L-5214.96,23.5L-5210.22,251.37L-5203.86,386.91L-5182.82,23.5L-5150.11,446.5L-5149.53,433.91L-5139.36,400.34L-5125.95,305.5L-5087.34,441.04L-5083.87,386.07L-5048.15,446.5L-5039.36,375.16L-5028.96,445.24L-5027.34,430.97L-5025.84,446.5L-5001.1,386.49L-4976.94,444.4L-4968.39,446.5L-4912.9,369.29L-4908.62,416.71L-4905.85,446.5L-4893.13,382.71L-4854.06,392.37L-4853.02,437.27L-4850.82,387.75L-4837.07,442.72L-4804.81,430.13L-4801.35,432.23L-4792.1,304.24L-4773.03,446.5L-4754.88,428.88L-4743.66,407.89L-4733.38,446.5L-4706.79,235.42L-4698.46,398.24L-4692.57,379.36L-4659.28,23.5L-4647.25,441.46L-4642.63,428.46L-4639.16,418.8L-4637.2,169.96L-4628.3,446.5L-4590.38,430.55L-4584.25,417.13L-4560.09,446.5L-4540.67,267.73L-4537.78,400.34L-4537.44,443.56L-4505.88,256.82L-4493.97,428.04L-4486.69,420.9L-4482.18,268.57L-4464.84,443.56L-4442.41,392.79L-4436.75,355.44L-4422.65,319.35L-4405.08,444.82L-4400.34,430.55L-4354.79,425.94L-4346,446.5L-4310.98,358.79L-4298.84,437.27L-4284.16,444.4L-4273.41,358.38L-4256.99,442.3L-4251.91,441.46L-4233.76,329.42L-4222.89,446.5L-4207.17,446.5L-4199.77,425.52L-4185.67,359.63L-4156.42,446.5L-4155.61,430.97L-4149.26,393.21L-4134.58,373.9L-4101.75,445.66L-4096.2,431.81L-4083.94,446.5L-4052.62,344.53L-4050.42,420.9L-4048.11,414.61L-4040.02,445.66L-4021.06,377.68L-4006.15,433.49L-4003.72,427.2L-3995.16,443.98L-3984.64,405.79L-3980.6,426.36L-3979.21,316.41L-3944.3,442.3L-3935.75,391.95L-3931.82,438.95L-3931.47,354.6L-3923.15,442.3L-3893.32,383.55L-3889.85,413.77L-3884.54,446.08L-3855.29,336.97L-3850.32,375.16L-3847.78,418.8L-3832.63,247.17L-3807.2,438.53L-3803.15,431.39L-3793.44,432.23L-3781.77,49.94L-3771.83,373.48L-3770.32,433.91L-3742.81,406.21L-3738.77,437.27L-3737.73,387.75L-3716.92,442.3L-3706.86,375.16L-3698.77,417.54L-3697.5,380.2L-3678.19,350.4L-3667.79,436.01L-3666.06,427.62L-3630.68,438.53L-3622.94,443.14L-3596,420.48L-3593.81,442.72L-3588.84,446.5L-3558.66,422.16L-3549.07,433.91L-3548.03,441.04L-3535.2,424.68L-3519.82,444.4L-3515.31,436.85L-3514.74,412.51L-3492.08,403.28L-3482.95,444.82L-3475.55,432.23L-3473.82,421.74L-3460.52,404.96L-3450.58,442.72L-3439.37,427.2L-3437.29,391.53L-3410.58,383.97L-3401.33,442.72L-3401.1,437.27L-3399.14,400.34L-3393.59,443.56L-3366.19,396.56L-3363.53,369.29L-3349.43,440.63L-3327.58,414.19L-3324.92,412.93L-3308.28,402.44L-3290.94,446.5L-3289.67,430.97L-3286.66,416.71L-3286.08,440.63L-3256.84,255.56L-3253.25,350.82L-3250.59,370.13L-3230.6,443.14L-3218.57,365.93L-3216.15,423.84L-3210.48,382.29L-3209.67,326.9L-3183.43,440.63L-3176.96,414.19L-3176.5,421.32L-3173.37,429.29L-3155.92,355.44L-3145.17,382.71L-3142.51,425.1L-3134.19,441.46L-3119.62,352.92L-3112.8,390.69L-3112.69,309.28L-3088.64,435.17L-3079.74,427.62L-3076.62,425.1L-3062.28,53.71L-3052.34,219.89L-3049.34,408.31L-3034.89,443.56L-3030.38,426.36L-3030.03,368.87L-3029.11,437.27L-3009.46,174.99L-2998.13,375.16L-2996.28,415.45L-2983.68,437.69L-2968.19,313.47L-2964.6,389.85L-2961.83,360.47L-2956.86,248.01L-2945.53,430.13L-2939.29,423.84L-2902.18,444.82L-2860.22,422.58L-2856.06,437.27L-2851.78,438.11L-2849.7,420.06L-2839.87,443.98L-2824.96,432.23L-2819.53,440.21L-2816.64,443.56L-2789.36,397.82L-2783.23,417.13L-2782.42,417.96L-2758.84,440.21L-2753.17,428.04L-2752.94,394.46L-2726.24,441.04L-2722.77,431.81L-2722.54,416.71L-2720,411.67L-2708.79,436.85L-2693.18,425.1L-2690.98,411.67L-2687.63,401.6L-2675.49,441.46L-2661.85,428.04L-2659.77,406.63L-2640,403.7L-2630.99,440.21L-2629.95,437.27L-2617.46,391.11L-2601.63,415.87L-2601.51,431.39L-2596.89,392.79L-2595.27,435.59L-2573.42,422.16L-2570.53,410.83L-2569.95,350.4L-2556.31,440.21L-2543.13,432.65L-2542.55,430.55L-2541.98,436.85L-2537.12,376L-2517.47,412.51L-2513.77,424.68L-2508.34,431.39L-2491.92,377.26L-2491.81,417.96L-2491.34,420.48L-2490.88,436.43L-2466.49,376.84L-2464.76,421.74L-2464.41,390.69L-2456.78,326.48L-2439.33,430.13L-2438.28,389.43L-2435.74,390.27L-2434.47,282.84L-2412.97,423.42L-2409.5,380.62L-2409.04,363.83L-2401.76,336.13L-2382.34,425.1L-2381.53,380.62L-2370.08,320.61L-2361.64,432.65L-2356.44,414.61L-2354.71,413.77L-2350.2,421.74L-2334.13,347.88L-2325.92,392.79L-2325.81,412.51L-2305.23,428.88L-2304.54,360.89L-2301.07,389.85L-2300.61,423L-2272.05,319.77L-2271.82,373.48L-2270.32,321.87L-2268.59,424.26L-2247.78,371.38L-2247.66,402.44L-2245.24,403.28L-2242.69,313.89L-2223.5,352.08L-2222.35,381.04L-2219.34,358.38L-2211.48,425.1L-2210.44,406.21L-2173.68,440.21L-2167.09,423.42L-2164.09,443.56L-2150.91,431.39L-2149.4,438.95L-2137.73,407.05L-2124.78,431.39L-2123.74,434.75L-2113.8,420.48L-2113.57,438.53L-2101.32,433.91L-2100.74,438.53L-2082.59,415.03L-2078.54,423.84L-2077.16,434.33L-2071.72,409.57L-2066.64,437.27L-2053.11,421.74L-2052.53,428.88L-2051.03,407.47L-2034.15,436.85L-2031.38,429.71L-2029.3,415.87L-2014.5,404.54L-2010.69,438.11L-2007.33,421.74L-2006.41,422.58L-2001.55,432.23L-1994.04,405.38L-1985.83,418.38L-1983.29,417.54L-1970.46,433.91L-1963.64,389.85L-1962.83,422.58L-1961.67,424.26L-1961.44,435.17L-1951.38,399.5L-1940.98,420.06L-1940.17,423.42L-1937.63,433.49L-1934.39,401.6L-1922.6,417.96L-1918.09,423L-1907.69,373.06L-1905.26,434.75L-1900.64,424.68L-1899.71,386.49L-1895.2,384.39L-1881.56,430.55L-1877.52,420.48L-1876.59,430.13L-1854.28,396.98L-1853.82,416.29L-1850.47,389.43L-1844.92,427.2L-1834.28,411.25L-1833.59,403.7L-1828.85,396.98L-1815.56,428.46L-1813.94,409.15L-1812.67,405.79L-1810.93,432.65L-1809.66,395.72L-1794.63,417.13L-1792.09,407.89L-1781.11,390.69L-1780.41,426.78L-1772.9,413.77L-1772.44,391.95L-1768.74,386.49L-1754.87,422.16L-1753.36,411.67L-1752.21,405.38L-1745.27,384.81L-1738.68,426.36L-1733.37,420.9L-1732.9,402.44L-1718.92,427.2L-1718.68,376.84L-1716.72,393.21L-1715.79,377.68L-1712.91,352.08L-1707.24,417.54L-1698.22,392.37L-1696.14,404.96L-1688.74,422.16L-1679.73,357.54L-1677.53,373.06L-1676.03,399.08L-1674.76,375.16L-1669.67,423L-1661.12,405.38L-1660.54,418.38L-1654.41,421.32L-1645.74,377.68L-1644.24,390.69L-1643.2,429.29L-1626.21,344.53L-1624.93,362.15L-1624.36,374.32L-1614.3,344.53L-1606.67,423.84L-1605.17,399.08L-1604.94,387.33L-1604.13,428.04L-1592.45,363.41L-1587.37,399.92L-1586.21,388.59L-1575.23,412.93L-1571.53,342.85L-1570.03,396.14L-1568.64,390.69L-1562.51,376.84L-1555,423.84L-1551.76,384.81L-1551.3,414.19L-1547.83,422.58L-1534.65,378.1L-1534.42,386.91L-1534.19,401.18L-1532.46,414.19L-1526.68,361.73L-1517.77,395.72L-1516.73,388.17L-1514.54,362.57L-1514.42,419.22L-1500.2,386.91L-1499.63,386.49L-1496.62,420.06L-1485.06,315.57L-1481.36,322.29L-1446.34,433.07L-1438.47,434.75L-1434.66,414.61L-1431.19,423.42L-1430.38,434.75L-1423.22,436.85L-1415.93,421.32L-1415.24,425.94L-1414.66,434.33L-1414.31,411.25L-1399.17,419.64L-1399.06,433.49L-1391.43,434.33L-1385.41,414.61L-1383.68,423.84L-1383.22,419.64L-1373.28,425.52L-1373.05,419.64L-1372.93,411.25L-1362.18,431.39L-1357.79,422.16L-1356.52,432.23L-1345.53,413.35L-1341.37,419.64L-1340.68,425.52L-1337.21,432.65L-1333.16,411.25L-1331.78,413.77L-1330.62,408.31L-1318.48,404.54L-1316.29,432.23L-1314.44,426.36L-1314.32,413.35L-1313.74,429.71L-1307.27,410.83L-1299.64,424.26L-1298.95,420.48L-1294.44,434.33L-1289.58,410.41L-1285.88,424.68L-1284.73,423.42L-1275.94,428.04L-1271.78,402.44L-1270.74,417.13L-1270.39,418.38L-1266.7,394.04L-1266.12,421.32L-1265.89,425.52L-1262.65,430.55L-1255.14,408.73L-1251.78,415.03L-1251.44,407.47L-1249.47,400.34L-1247.51,429.71L-1237.8,425.94L-1236.99,407.89L-1234.79,402.86L-1227.74,429.71L-1223.35,414.61L-1222.65,415.87L-1221.73,402.02L-1215.95,431.39L-1209.36,414.61L-1208.9,397.4L-1203.12,424.26L-1200.92,383.13L-1196.18,417.96L-1193.29,414.19L-1188.67,422.58L-1186.24,399.92L-1180,408.31L-1179.19,413.77L-1177.57,393.63L-1167.28,419.64L-1166.47,419.22L-1166.24,417.13L-1164.74,422.58L-1158.15,405.38L-1154.56,422.16L-1153.87,425.1L-1143.81,427.62L-1140.92,402.86L-1140.35,418.8L-1135.38,379.78L-1128.44,398.24L-1126.82,405.79L-1126.01,420.06L-1122.31,396.56L-1117.11,399.08L-1116.88,423.84L-1116.76,396.98L-1113.76,429.71L-1104.4,401.18L-1104.05,408.73L-1102.55,389.01L-1093.07,424.68L-1092.26,417.96L-1091.1,410.83L-1090.87,418.38L-1084.4,393.63L-1079.54,414.19L-1079.19,396.14L-1075.5,386.49L-1072.61,416.71L-1067.06,416.29L-1066.83,399.08L-1064.98,420.9L-1062.78,391.53L-1055.61,411.25L-1054.11,401.6L-1052.14,388.59L-1048.79,428.46L-1043.36,409.57L-1043.01,417.96L-1042.43,422.58L-1038.16,394.46L-1036.65,406.21L-1035.85,381.04L-1031.68,417.54L-1024.52,381.04L-1023.71,386.49L-1019.78,413.35L-1016.77,381.46L-1014.46,401.18L-1013.88,384.39L-1011.8,383.55L-1009.37,421.74L-1002.44,399.08L-1002.21,406.63L-993.42,394.46L-990.88,423L-990.53,412.09L-988.91,417.13L-978.16,380.2L-977.58,381.88L-977.47,397.82L-974.12,371.38L-972.73,414.61L-966.37,405.79L-965.79,405.79L-959.67,421.74L-958.86,382.29L-955.5,395.3L-953.42,407.89L-949.96,427.62L-944.06,392.37L-942.79,403.7L-942.33,388.59L-942.09,374.32L-941.86,413.35L-934,393.63L-931.11,400.76L-925.8,369.29L-921.4,407.05L-921.29,385.65L-920.02,398.24L-917.01,405.79L-911.23,363.41L-909.96,391.11L-908.57,396.14L-908.22,364.25L-902.91,410.83L-899.09,390.69L-898.63,382.71L-897.59,409.15L-893.66,293.75L-889.61,343.27L-889.15,312.21L-879.44,379.78L-879.21,370.96L-877.71,365.51L-876.9,325.64L-870.08,419.22L-867.77,407.05L-867.65,397.4L-861.99,425.94L-857.71,412.51L-856.78,408.73L-855.74,420.06L-850.54,366.77L-846.5,375.58L-846.38,387.75L-846.03,392.37L-840.83,354.6L-840.72,355.86L-840.14,324.8L-834.13,384.39L-832.85,383.13L-832.28,334.04L-822.22,400.76L-821.99,391.53L-819.1,368.87L-817.94,418.8L-812.86,394.88L-812.51,401.18L-809.04,420.06L-806.38,387.75L-804.65,403.7L-804.53,386.07L-803.03,406.63L-802.91,379.78L-801.41,405.38L-801.3,359.63L-800.83,407.89L-796.09,356.28L-792.4,368.45L-791.93,386.91L-786.96,337.81L-783.38,399.08L-783.03,360.89L-779.22,335.29L-775.17,407.05L-773.44,391.11L-773.32,374.74L-771.93,394.04L-771.12,366.35L-770.08,382.71L-769.39,409.99L-768.58,362.99L-760.72,402.86L-759.8,406.21L-758.06,414.19L-755.4,356.28L-753.09,405.79L-717.95,415.45L-713.9,433.49L-710.2,428.04L-709.63,420.9L-700.96,435.59L-700.73,429.71L-700.26,427.62L-699.11,436.01L-697.72,426.36L-692.29,430.55L-691.94,426.36L-691.36,432.65L-685.58,421.74L-684.89,429.29L-684.66,412.93L-679.57,410.83L-677.61,430.13L-677.49,426.36L-676.45,425.94L-670.55,433.91L-667.2,409.57L-667.09,417.13L-665.24,414.61L-662.69,431.39L-659.23,426.36L-658.65,423L-653.91,416.71L-653.21,432.65L-651.6,419.22L-651.02,416.71L-648.24,411.67L-644.54,430.97L-643.97,421.32L-642.58,424.26L-637.84,418.8L-637.03,432.23L-635.87,423.84L-635.64,409.99L-631.37,401.18L-631.02,427.2L-628.82,415.87L-628.71,394.46L-628.59,420.9L-621.43,406.63L-621.08,409.15L-618.77,429.71L-616.22,400.34L-613.91,419.64L-613.45,417.13L-612.87,412.51L-612.64,427.62L-607.78,423.42L-607.55,401.18L-606.63,400.34L-606.51,426.78L-600.73,420.9L-600.04,430.13L-595.99,433.07L-592.87,413.77L-592.64,420.9L-590.33,428.88L-587.32,402.44L-586.28,412.93L-585.59,421.32L-582.82,423.84L-579,407.05L-578.42,409.57L-574.61,422.16L-574.15,398.24L-572.18,420.06L-571.49,409.99L-570.56,424.68L-568.71,404.96L-565.13,416.71L-564.67,412.93L-562.24,403.28L-560.04,433.49L-558.08,413.77L-557.5,420.06L-556.11,425.94L-554.96,405.79L-552.53,415.87L-552.41,425.1L-550.56,396.98L-545.59,409.15L-545.48,416.29L-541.78,419.64L-541.43,397.4L-539.35,414.19L-539.23,407.05L-537.96,393.63L-537.27,415.03L-535.77,396.56L-535.54,415.45L-534.26,394.88L-533.34,420.48L-529.29,416.71L-528.95,400.76L-526.06,426.36L-521.89,421.32L-521.43,416.29L-520.62,424.68L-520.51,404.96L-515.19,420.06L-514.96,408.31L-513.23,403.28L-510.8,424.68L-509.18,408.73L-508.95,404.54L-504.56,426.36L-503.17,420.48L-502.13,408.31L-501.43,407.89L-501.32,424.26L-496.35,412.09L-496.12,404.96L-494.15,427.2L-490.45,387.33L-490.11,402.86L-489.87,412.09L-488.37,395.72L-486.06,425.94L-484.33,414.19L-483.86,412.51L-483.75,422.58L-483.05,386.49L-478.31,410.41L-477.97,407.47L-474.38,422.58L-473.11,394.04L-472.42,416.29L-472.3,402.86L-470.11,419.64L-469.53,389.85L-466.87,406.63L-466.41,404.12L-465.14,424.26L-464.44,396.98L-460.97,412.93L-460.74,396.98L-457.39,389.43L-456.47,420.06L-455.54,413.35L-455.43,387.33L-449.88,419.64L-449.76,399.5L-449.18,402.86L-446.87,421.32L-444.56,391.53L-444.33,415.45L-440.05,387.75L-439.59,419.64L-438.9,402.86L-438.78,412.51L-437.05,394.46L-435.89,416.29L-434.04,408.31L-433.69,420.48L-432.65,402.86L-429.88,421.32L-428.38,409.57L-428.03,402.44L-426.64,396.14L-426.06,420.9L-424.33,407.89L-423.41,385.65L-420.63,423.84L-418.09,414.19L-417.28,402.02L-416.7,425.1L-412.31,410.83L-411.85,405.79L-410.69,414.61L-408.49,391.95L-408.38,426.36L-403.29,392.37L-402.94,413.35L-402.6,419.64L-398.44,401.6L-398.09,402.02L-397.97,412.93L-395.43,395.72L-394.85,420.9L-393.93,418.8L-393.58,386.49L-392.19,417.54L-390.92,386.07L-389.07,389.85L-387.8,392.37L-383.06,420.06L-382.95,408.73L-382.71,410.41L-381.91,417.96L-379.25,383.97L-378.21,401.18L-377.97,412.09L-377.51,378.1L-376.93,418.38L-374.74,383.97L-371.96,398.66L-371.85,415.03L-370.11,385.65L-367.22,400.34L-366.99,414.19L-366.07,418.38L-362.14,385.65L-361.68,391.95L-361.44,415.87L-357.28,397.4L-357.05,399.92L-356.59,418.38L-356.01,389.01L-353.24,406.63L-352.66,394.46L-352.54,391.11L-350.23,414.19L-348.73,398.24L-348.61,406.21L-348.03,397.4L-345.03,420.06L-344.1,416.29L-343.87,414.19L-342.83,416.29L-339.71,385.23L-339.25,407.89L-339.02,407.05L-338.09,383.55L-337.4,408.73L-335.09,399.92L-333.7,394.04L-331.27,380.2L-330.46,411.25L-330.12,394.46L-328.96,383.55L-328.61,376L-325.96,404.96L-324.92,398.24L-324.11,380.62L-323.07,408.31L-320.52,403.7L-320.41,406.63L-319.37,409.99L-318.67,362.57L-316.36,394.88L-316.25,404.54L-315.44,383.13L-313.24,415.03L-312.78,394.46L-312.2,411.25L-312.08,385.23L-308.27,398.24L-306.77,385.23L-304.69,421.32L-303.3,400.34L-302.26,401.18L-298.91,394.04L-298.21,415.45L-298.1,402.02L-297.06,381.04L-294.28,418.8L-293.47,404.96L-293.01,391.53L-291.16,411.25L-289.77,400.76L-289.66,408.73L-289.43,395.3L-287.69,413.77L-285.84,403.7L-285.15,416.71L-283.3,420.48L-282.03,396.14L-281.33,404.54L-281.1,414.61L-278.44,374.74L-277.4,411.67L-277.06,392.79L-276.36,381.88L-275.32,409.99L-273.94,403.28L-273.59,398.66L-272.66,389.85L-271.86,417.96L-270.01,400.76L-269.89,395.3L-268.85,378.52L-268.62,413.35L-266.31,389.85L-266.19,406.63L-266.08,409.57L-265.04,386.91L-263.07,396.56L-262.26,400.34L-261.22,414.61L-260.3,379.36L-260.18,385.65L-260.06,369.29L-259.49,405.38L-256.94,404.96L-256.37,371.38L-255.79,364.67L-254.75,411.25L-253.13,396.56L-252.55,380.2L-252.09,407.05L-251.39,364.25L-249.2,373.48L-249.08,373.9L-246.77,404.12L-246.19,357.96L-245.38,381.88L-245.04,380.2L-244.92,397.82L-244.46,368.87L-242.84,409.99L-242.72,377.26L-242.15,405.38L-240.3,376.84L-240.18,411.25L-238.91,394.88L-238.68,399.5L-238.33,383.97L-235.67,412.51L-235.56,391.11L-235.33,411.67L-233.36,371.38L-232.55,378.94L-232.09,386.49L-231.28,383.55L-231.16,407.05L-230.36,395.3L-230.24,403.7L-228.97,391.53L-228.62,407.47L-227.93,402.44L-226.89,407.05L-225.62,418.38L-225.04,381.88L-223.65,382.71L-223.54,399.92L-222.96,412.09L-221.34,383.13L-220.53,392.37L-220.18,408.73L-217.76,395.72L-217.29,390.27L-214.98,407.89L-214.75,384.81L-214.63,380.2L-213.59,399.5L-212.21,378.1L-211.74,387.33L-211.17,396.98L-210.47,399.92L-209.32,383.13L-209.09,369.29L-208.97,402.86L-206.31,372.64L-206.08,406.21L-205.04,406.63L-203.07,373.9L-202.61,389.43L-202.27,400.34L-200.88,360.89L-200.53,401.6L-199.38,374.32L-199.14,377.26L-198.34,396.14L-197.99,381.04L-196.72,364.67L-196.02,410.83L-193.83,394.88L-193.48,381.46L-192.21,399.5L-191.17,371.8L-190.94,393.63L-190.59,400.34L-189.32,382.71L-189.09,375.58L-187.35,409.99L-186.54,386.91L-186.31,374.74L-184.69,404.54L-183.89,383.55L-183.08,372.64L-180.42,409.99L-180.3,401.6L-180.19,400.76L-179.72,380.62L-178.34,405.38L-177.41,385.65L-177.18,394.04L-176.6,369.71L-176.26,401.6L-174.87,381.46L-174.29,375.58L-172.67,403.28L-171.98,371.8L-171.52,374.32L-170.82,399.92L-169.55,363.83L-168.97,393.21L-168.74,376.84L-168.51,374.74L-168.4,399.08L-167.35,354.6L-166.66,408.73L-165.97,389.43L-164.81,382.71L-163.77,370.54L-163.66,388.17L-163.54,348.3L-162.62,331.1L-161.34,389.85L-160.77,392.37L-160.42,373.06L-158.92,385.23L-157.76,387.75L-157.53,379.78L-156.49,410.83L-155.91,384.81L-155.33,412.09L-153.6,352.92L-153.02,373.48L-152.79,388.17L-152.21,392.37L-151.75,386.07L-151.06,372.64L-150.71,395.3L-149.78,349.14L-148.63,392.79L-148.4,378.1L-148.28,399.08L-147.82,367.61L-146.43,380.2L-145.85,387.75L-145.28,398.66L-144.93,374.32L-144,377.68L-143.54,396.14L-143.19,398.24L-142.96,368.03L-141.69,404.12L-141,382.71L-140.54,396.98L-140.3,401.18L-140.19,383.13L-139.26,389.01L-138.92,375.16L-137.99,406.63L-136.61,393.63L-136.03,407.05L-135.22,365.93L-133.95,379.36L-133.02,383.97L-132.68,399.08L-131.06,369.29L-130.83,378.1L-130.59,399.08L-128.86,356.28L-128.51,386.91L-127.24,396.56L-126.55,403.28L-125.97,378.1L-125.85,381.88L-125.74,378.94L-125.05,360.89L-123.77,393.21L-123.66,386.07L-122.85,364.67L-122.04,393.63L-121.92,370.54L-121.35,397.82L-121.12,397.4L-121,385.65L-120.65,368.87L-119.73,396.98L-119.5,385.65L-119.03,389.85L-118.8,357.12L-117.07,391.11L-116.95,383.55L-115.68,366.77L-114.99,373.9L-114.76,383.55L-114.64,365.51L-113.37,381.88L-112.21,392.37L-111.98,357.96L-111.06,398.24L-110.48,370.96L-110.13,376.42L-108.63,402.86L-108.17,389.85L-108.05,367.61L-107.47,359.21L-107.24,397.4L-107.13,385.23L-106.09,373.9L-105.97,374.32L-105.74,382.29L-105.05,377.68L-103.54,393.21L-103.31,387.33L-102.27,384.39L-102.04,389.85L-101.93,372.64L-101.12,365.51L-100.89,401.18L-100.08,394.04L-99.96,381.04L-98.69,380.2L-98.34,409.15L-98,398.24L-96.72,407.05L-96.49,387.33L-96.03,377.26L-95.57,381.04L-94.87,386.49L-94.53,381.46L-94.41,403.28L-93.72,393.63L-93.26,368.45L-91.98,406.21L-91.06,399.5L-90.6,380.2L-90.48,395.3L-90.25,379.36L-89.09,393.63L-88.86,386.49L-88.52,413.35L-87.82,381.04L-87.71,384.81L-87.59,408.31L-86.09,376L-85.97,401.6L-85.74,394.04L-83.89,372.22L-83.66,389.85L-83.31,392.79L-83.08,378.94L-82.16,391.95L-81.47,380.62L-81.35,363.83L-79.73,387.33L-79.62,380.62L-79.38,370.13L-79.27,365.51L-78.92,387.75L-78.23,369.71L-78.11,388.17L-77.65,398.24L-76.61,368.45L-76.49,389.85L-75.45,395.3L-75.34,368.45L-74.76,384.39L-74.64,383.13L-73.72,402.86L-73.49,389.85L-73.26,373.06L-73.03,386.07L-72.56,349.56L-71.99,380.2L-71.41,382.71L-71.29,382.29L-71.06,371.38L-70.6,369.29L-70.02,365.09L-68.06,390.69L-67.94,356.28L-67.82,392.37L-66.67,376.84L-65.97,373.9L-65.51,381.88L-64.7,355.86L-64.59,389.85L-63.78,388.59L-63.55,389.01L-63.43,401.6L-63.08,363.83L-62.16,379.78L-61.7,396.14L-61.35,381.88L-61.24,396.98L-60.19,383.97L-59.96,391.11L-59.85,383.55L-59.39,398.66L-58.23,383.55L-57.42,370.13L-57.07,397.4L-56.96,382.29L-56.84,378.1L-56.38,389.85L-56.15,369.29L-55.69,346.21L-54.53,403.28L-54.3,388.17L-53.03,377.26L-52.22,411.25L-51.87,375.16L-51.64,377.26L-50.25,389.01L-49.91,370.96L-48.87,389.85L-48.52,386.49L-47.94,391.11L-47.83,378.52L-47.25,381.46L-46.9,406.21L-45.17,377.68L-45.05,379.36L-44.7,380.2L-44.59,361.31L-43.78,373.06L-43.43,370.96L-42.97,380.2L-42.62,349.98L-41.58,397.4L-41.12,389.43L-40.54,385.23L-40.43,364.25L-38.69,409.99L-38.46,385.65L-38.12,386.49L-37.65,376.84L-37.54,390.69L-36.84,359.21L-36.61,372.64L-36.03,370.13L-35.46,405.38L-35.23,376.84L-34.3,388.17L-34.07,365.09L-33.38,389.01L-32.91,368.45L-32.45,380.62L-31.87,349.56L-31.76,388.17L-31.64,359.21L-31.06,360.89L-30.6,372.22L-29.68,336.55L-29.56,369.29L-29.33,360.47L-28.75,376L-28.64,370.96L-28.17,364.67L-26.9,381.88L-26.79,364.25L-26.32,378.94L-26.21,367.61L-26.09,349.98L-25.4,375.58L10.32,421.74L10.55,412.51L10.78,423.84L11.24,415.45L11.36,420.06L11.82,419.22L12.29,414.61L12.52,413.77L12.63,417.13L13.56,407.89L14.02,425.52L14.13,424.68L14.37,415.45L14.71,411.25L15.06,420.9L15.41,419.22L15.75,425.1L15.98,410.41L16.1,409.15L16.79,421.74L17.14,425.1L17.37,412.93L17.49,427.62L17.6,423L18.53,421.74L18.64,426.36L18.99,419.64L19.57,416.71L19.8,413.35L20.15,425.94L21.07,414.19L22.46,428.46L22.8,420.48L22.92,421.74L23.04,414.61L23.85,425.1L24.08,414.61L24.42,426.36L25.12,424.26L25.69,416.71L25.81,425.1L26.04,415.87L26.39,420.48L26.97,420.48L27.43,418.8L27.66,422.58L28.12,429.71L28.35,422.58L28.47,421.74L29.16,416.29L29.51,429.29L30.43,423.42L30.67,429.71L30.78,431.39L30.9,424.68L31.01,423L31.24,433.49L31.47,426.78L31.71,427.2L32.05,424.26L32.75,426.78L33.09,428.88L33.56,420.9L34.02,423.42L34.48,421.32L34.83,420.9L34.94,424.68L35.29,419.22L35.52,423L36.1,426.36L37.02,419.22L37.49,430.55L37.95,419.64L38.64,420.06L39.1,421.32L39.22,420.9L39.45,421.74L39.68,425.52L40.38,417.13L40.49,425.52L40.72,416.71L41.07,421.74L41.65,419.22L41.88,421.74L42.8,418.38L42.92,415.87L43.27,423L43.73,423.84L44.77,418.8L45,421.32L45.46,418.8L45.58,411.25L45.81,426.36L46.16,413.77L46.62,420.9L46.96,420.9L47.31,419.22L47.66,419.22L47.77,414.61L48.35,425.94L48.58,418.38L48.7,420.48L48.93,413.35L49.16,415.03L50.09,417.13L50.2,423L50.78,414.19L50.9,417.54L51.36,421.32L51.47,423L51.7,417.54L51.94,419.64L52.17,422.16L52.86,416.71L53.09,423.84L54.59,411.67L54.83,426.36L55.06,414.19L55.63,420.9L55.87,414.19L56.68,418.38L57.14,412.51L57.72,419.22L57.95,403.28L58.06,418.8L58.18,412.51L58.99,417.54L59.68,422.58L59.8,411.25L60.26,407.05L60.49,423L60.72,417.54L61.3,422.58L61.99,421.74L62.22,417.96L62.34,408.73L62.45,419.22L62.57,411.67L63.15,414.19L63.73,424.68L64.07,410.41L64.77,421.32L65,412.93L65.34,423.42L65.58,411.25L65.92,414.19L66.85,408.31L66.96,419.22L67.66,411.25L68.23,412.93L68.81,417.54L69.04,408.31L69.28,413.77L69.62,423.42L70.2,409.99L70.32,420.06L70.55,421.32L70.78,418.8L71.01,415.87L71.12,420.48L71.36,414.61L72.17,418.8L72.51,418.38L72.97,412.93L73.67,412.51L74.36,423.84L74.48,422.58L74.59,420.48L74.71,417.54L75.29,417.96L75.52,416.71L75.75,417.13L75.98,419.22L76.1,420.48L76.56,414.19L76.9,415.87L77.37,407.05L77.95,420.06L78.41,418.8L78.87,418.38L79.22,412.51L79.45,421.32L80.03,425.52L80.14,413.77L80.72,420.9L81.76,420.48L81.99,425.94L82.22,411.25L82.68,416.71L82.8,415.87L83.38,417.96L83.61,418.38L83.73,425.94L83.84,412.93L83.96,421.32L84.65,422.16L85.34,407.47L85.57,410.83L86.38,419.22L86.5,413.35L86.73,406.21L86.96,417.13L87.19,422.16L87.42,425.52L88,417.54L88.23,418.38L88.46,409.99L88.58,427.62L88.93,415.03L89.16,416.71L89.39,422.58L89.97,410.83L90.43,417.13L90.66,414.61L90.78,416.29L91.01,417.13L91.59,407.47L92.16,417.54L92.39,421.32L92.51,405.38L92.97,418.38L93.44,415.87L93.78,420.9L93.9,412.09L94.36,420.06L94.59,423.42L94.82,412.09L95.28,418.38L95.4,420.9L96.21,415.87L96.44,412.93L96.56,423.84L97.13,413.77L97.37,415.45L97.71,418.8L98.17,413.77L98.41,414.19L98.64,404.12L99.22,415.87L99.79,419.22L100.02,421.32L100.14,414.61L100.6,404.96L101.06,423.42L101.18,405.38L101.99,420.06L102.34,417.54L102.57,416.29L102.91,415.87L103.15,417.96L104.07,403.28L104.19,421.32L104.65,424.68L104.76,408.31L105.23,411.67L105.34,422.58L106.61,407.89L107.89,404.54L108.35,421.74L108.69,411.25L108.81,420.9L108.93,407.05L109.62,412.09L109.73,408.73L110.66,418.38L110.78,413.35L111.12,399.08L111.47,407.05L111.58,418.8L112.51,404.54L112.74,413.77L113.09,415.03L113.2,412.09L113.55,411.67L113.67,406.63L114.01,406.21L114.24,412.51L114.36,410.41L114.59,419.64L114.71,420.06L114.82,412.51L115.17,409.99L115.63,415.03L115.98,416.71L116.21,403.28L116.67,415.87L117.13,416.71L117.48,413.35L117.6,420.48L117.83,405.79L118.29,417.96L118.87,415.45L119.33,410.83L119.68,416.29L120.14,405.79L120.37,411.67L120.49,415.45L121.06,419.64L121.29,414.61L121.76,396.56L122.1,409.15L122.22,411.25L122.68,399.92L122.8,406.63L123.38,413.77L123.49,418.8L123.95,400.34L124.18,412.93L124.76,408.73L124.88,395.72L125.34,410.83L125.57,407.89L125.92,407.05L126.61,407.05L126.84,411.67L127.54,397.82L127.65,415.45L128.23,397.4L128.58,404.96L128.69,411.25L128.92,401.6L129.04,407.47L129.27,417.54L129.85,404.96L130.31,407.47L130.43,410.83L131.24,403.28L131.58,411.67L131.81,412.09L131.93,393.63L132.05,414.19L132.62,406.63L132.85,394.04L132.97,415.45L133.43,409.15L133.78,405.38L134.24,415.03L134.59,408.73L134.7,402.86L135.51,411.25L135.63,409.99L136.09,401.18L136.32,407.47L136.55,391.95L137.13,410.41L137.36,399.92L137.48,396.98L137.94,409.15L138.06,407.05L138.17,398.66L138.52,395.72L138.98,397.82L139.1,415.87L140.02,390.27L140.14,408.31L140.25,402.86L140.48,408.73L140.83,404.96L140.95,425.52L141.64,395.72L141.99,412.09L142.22,400.76L142.68,409.57L143.03,402.44L143.26,397.4L143.49,407.89L143.6,406.21L143.72,412.93L143.95,406.63L144.41,412.51L144.99,404.96L145.8,397.82L146.15,398.24L146.38,403.28L146.73,408.31L146.84,394.88L147.42,412.93L147.65,407.05L147.77,406.21L148,410.41L148.11,396.56L148.58,416.71L149.04,409.57L149.5,415.03L149.96,400.34L150.19,410.83L150.43,412.09L151.81,391.95L152.27,408.73L152.62,409.99L152.85,400.34L152.97,403.7L153.08,406.21L153.55,415.03L153.78,407.47L154.12,407.05L154.59,412.93L155.05,410.83L155.16,399.08L155.51,410.83L155.63,401.18L155.74,390.69L155.97,413.77L156.55,407.47L157.25,408.31L157.59,419.64L157.71,411.25L158.17,412.93L158.75,401.6L159.1,408.73L159.21,391.11L159.44,409.57L159.79,398.66L159.9,407.47L160.25,407.89L160.71,401.6L161.06,400.76L161.41,419.22L161.64,410.41L161.75,405.79L161.99,408.73L162.1,399.5L163.14,415.03L163.26,412.93L163.6,401.18L163.72,407.05L164.07,414.19L164.18,399.92L164.76,417.54L165.34,407.89L166.15,406.63L166.49,415.03L168.11,400.76L168.34,415.03L168.46,396.56L168.92,413.35L169.15,406.21L169.38,406.63L169.61,403.28L170.08,407.89L170.19,384.81L171,412.51L171.12,407.05L171.23,385.65L171.81,417.13L172.04,396.98L172.27,411.25L172.62,406.21L172.97,409.15L173.2,397.82L173.43,415.03L173.66,403.7L173.78,406.21L174.59,394.04L174.93,404.96L175.28,401.6L175.39,412.51L175.51,403.7L176.09,415.03L176.78,417.54L177.13,404.54L177.48,407.89L177.94,407.05L178.4,414.61L178.75,407.89L179.32,409.99L179.44,401.18L180.02,407.05L180.37,404.54L180.48,418.8L181.06,404.54L181.29,414.19L181.64,420.9L181.98,408.73L182.1,418.38L182.56,402.86L182.91,412.93L183.14,412.93L183.26,417.13L183.6,420.06L184.06,406.63L184.53,411.25L184.99,391.53L185.1,419.22L185.91,404.54L186.03,418.8L186.15,393.21L186.84,404.96L187.19,407.05L187.53,395.3L187.99,401.6L188.11,409.57L188.46,421.32L188.57,397.4L188.8,397.4L189.04,420.48L189.5,402.44L189.84,406.63L190.08,417.96L190.31,398.66L190.77,417.13L191.12,403.28L191.81,415.03L191.93,404.12L192.16,400.76L192.85,412.93L193.08,403.28L193.2,420.9L193.54,404.54L193.89,407.89L194.01,397.82L194.82,399.5L195.05,415.87L195.39,410.41L195.74,406.21L195.86,407.05L196.09,406.63L196.55,418.38L196.9,403.7L197.36,409.57L197.71,408.73L197.94,390.27L198.17,413.77L198.28,407.89L198.51,409.57L198.98,389.43L199.44,405.38L200.13,404.96L200.36,410.41L200.83,406.21L201.06,401.18L201.4,407.05L201.75,409.99L201.98,414.61L202.1,408.31L202.56,410.41L202.68,409.57L202.79,402.86L203.37,410.83L203.48,401.18L204.18,415.03L204.29,399.5L204.99,417.96L205.33,411.25L206.03,402.44L206.37,398.66L206.49,390.27L206.61,414.61L206.95,410.83L207.42,391.95L207.65,404.54L207.76,409.57L208.22,406.63L208.69,409.99L209.15,400.76L209.38,402.44L209.73,394.04L210.42,409.99L210.77,395.72L211,404.12L211.46,391.11L211.69,411.67L212.27,403.7L212.39,388.17L212.96,412.93L213.31,403.7L213.54,393.63L213.77,396.56L214.24,407.89L214.47,408.31L214.7,387.33L215.51,412.51L215.74,415.45L216.66,389.01L216.89,386.91L217.24,391.53L217.36,405.38L217.7,398.66L218.17,402.86L218.28,406.21L218.86,399.5L218.98,407.05L219.44,407.47L219.78,388.17L219.9,404.96L220.25,409.99L220.36,399.5L220.48,395.3L220.59,393.63L220.94,396.14L221.52,400.76L221.75,389.01L222.1,401.6L223.25,394.46L223.37,405.38L223.83,393.21L224.18,395.3L224.29,409.15L224.52,394.46L224.99,409.15L225.33,404.96L226.03,402.44L226.14,391.53L226.37,403.7L226.95,399.92L227.07,387.75L227.76,407.05L227.99,403.7L228.57,404.12L228.8,410.41L229.03,398.66L229.15,398.66L229.84,389.01L229.96,408.73L230.88,400.76L231,394.04L231.69,399.92L231.81,397.4L231.92,391.95L232.04,405.79L232.62,396.98L232.73,397.82L233.19,400.76L233.54,384.81L234.23,401.18L234.47,395.72L235.16,401.6L235.27,407.47L235.97,395.3L236.2,401.6L236.55,403.28L236.66,393.63L236.89,404.96L237.12,399.5L237.47,397.82L238.05,407.47L238.16,392.37L238.51,407.47L238.63,402.86L238.74,387.75L239.09,410.83L239.55,399.5L239.67,395.72L240.82,403.7L241.52,401.18L242.09,399.5L242.44,404.96L242.67,399.5L243.02,397.4L243.25,406.21L243.71,406.21L243.94,400.76L244.29,406.63L244.41,415.87L244.52,399.5L245.22,403.7L245.33,407.47L245.91,391.95L246.26,415.45L247.41,389.85L247.53,402.86L248.11,406.63L248.92,404.54L249.03,402.44L249.38,412.51L249.72,409.15L249.96,397.4L250.3,407.05L250.42,391.95L250.53,403.7L250.65,394.46L251.34,414.19L251.92,413.35L252.27,411.25L252.5,401.18L253.08,405.79L253.19,403.7L253.77,400.34L254.23,417.13L254.81,407.05L255.16,418.38L255.62,400.76L256.54,420.48L256.66,401.6L257.47,415.45L257.59,406.63L257.93,404.12L258.16,419.64L258.28,417.54L258.39,403.28L258.74,420.48L258.97,409.99L259.32,414.61L259.43,405.38L259.78,421.74L260.01,409.15L260.24,415.45L261.05,399.08L261.4,398.24L261.75,413.35L262.32,406.21L263.48,412.51L263.83,417.54L264.06,399.5L264.17,413.35L264.29,397.82L264.87,412.51L265.21,414.61L266.83,399.92L266.95,390.27L267.18,412.93L267.76,405.38L267.87,409.15L268.68,397.82L269.38,405.79L269.61,408.31L270.07,400.76L270.19,407.89L270.53,399.08L270.65,387.33L271.46,405.79L271.69,397.4L271.92,399.92L272.15,406.63L272.38,389.85L272.5,411.25L273.08,406.63L273.19,394.88L273.54,398.24L273.65,409.15L274.23,397.82L274.81,399.5L275.27,403.28L275.39,402.02L275.62,399.08L275.73,409.99L276.2,392.79L276.43,396.14L276.77,381.04L276.89,389.85L277.01,400.34L277.24,397.4L277.58,408.31L278.05,386.07L278.16,399.08L278.39,404.96L278.62,394.46L279.2,399.92L279.55,397.4L279.66,392.37L279.9,399.08L280.13,398.24L280.24,404.54L281.51,382.29L281.98,389.01L282.09,399.08L282.44,386.07L282.55,393.21L282.9,386.91L283.25,389.85L283.36,402.44L283.48,381.46L283.71,405.38L284.06,402.02L284.17,398.66L284.87,376.84L284.98,383.55L285.21,402.86L286.25,385.23L286.6,391.53L286.95,391.11L287.52,387.33L288.22,401.6L288.8,400.34L288.91,402.02L289.37,390.27L289.61,385.65L289.72,399.08L289.84,407.89L290.18,405.38L290.65,398.24L290.88,395.3L291.34,402.86L291.46,388.59L291.57,396.14L292.5,372.64L292.96,408.73L293.42,401.18L293.54,394.46L293.77,408.73L294.35,398.66L294.46,395.72L294.81,408.31L295.39,400.34L295.85,399.5L296.08,412.51L296.19,399.92L296.31,399.5L296.66,402.02L297,394.88L297.24,406.21L297.7,407.89L298.04,404.96L298.16,415.03L298.28,414.61L298.39,408.73L299.32,396.56L299.55,407.05L299.66,391.53L299.89,404.54L300.36,401.18L301.05,389.43L301.28,405.38L301.4,404.12L301.63,408.73L301.74,391.11L302.21,412.93L302.32,402.02L302.55,390.69L303.25,407.89L303.48,404.12L303.71,412.09L303.82,395.72L303.94,409.57L304.06,415.45L305.44,399.5L305.91,400.76L306.02,389.85L306.6,395.72L306.95,393.21L307.18,408.31L307.41,393.21L308.1,394.46L308.22,394.04L308.45,399.5L308.56,383.97L308.91,401.18L309.37,380.2L309.49,404.54L310.18,394.88L310.3,404.12L310.76,409.57L310.99,389.85L311.34,396.56L311.8,396.98L312.03,386.49L312.15,379.78L312.49,405.79L313.42,380.62L313.88,389.85L314.46,382.71L314.69,412.09L314.81,407.89L315.04,400.76L315.38,398.24L315.73,389.43L316.08,387.33L317.12,392.37L317.35,400.34L317.46,386.91L317.58,396.14L317.93,388.59L318.16,381.04L318.27,400.76L318.51,388.59L318.62,378.52L318.74,378.94L318.85,390.27L318.97,407.05L319.2,383.97L319.31,393.21L319.55,367.19L320.35,393.21L321.05,383.97L321.74,406.63L321.97,382.29L322.32,401.6L322.55,375.58L322.67,393.63L322.78,371.38L323.36,402.86L323.59,402.44L324.17,393.21L324.63,396.14L324.75,391.53L324.98,382.29L325.21,403.7L325.9,380.2L326.25,384.39L326.37,391.95L326.48,390.27L326.6,396.56L326.71,382.29L327.06,376.42L327.64,400.76L327.75,391.95L327.98,391.53L328.22,393.63L328.45,389.43L328.79,400.76L329.72,384.39L329.83,392.79L330.07,401.6L330.3,381.04L330.76,393.21L330.87,401.6L330.99,386.49L331.45,391.11L331.68,405.38L332.15,394.46L332.72,398.24L333.42,385.23L333.65,389.43L333.76,415.03L334,389.01L334.23,402.02L334.92,404.96L335.04,399.5L335.61,406.21L335.73,401.6L335.85,402.86L336.08,408.73L336.42,398.24L336.77,400.34L338.27,412.09L338.39,410.41L338.62,418.38L338.74,398.66L339.08,399.5L339.43,416.29L339.54,404.12L340.35,408.73L340.47,416.29L340.58,399.92L341.05,405.79L341.16,398.24L341.86,416.29L342.32,402.02L342.67,414.19L342.78,391.53L342.9,411.67L343.13,403.28L343.71,397.4L344.17,415.45L344.4,413.35L344.98,407.05L345.09,388.17L345.44,412.51L346.02,409.99L346.25,414.19L346.48,400.76L347.17,401.6L347.29,397.82L347.98,405.79L348.33,404.54L348.68,404.96L348.79,387.75L349.02,413.35L349.6,405.79L349.83,405.38L349.95,408.73L350.18,403.7L350.53,398.66L350.64,389.01L351.1,412.09L351.22,400.34L351.34,403.7L352.26,404.54L352.38,401.6L352.49,402.02L352.61,398.66L352.84,396.98L352.95,407.47L353.18,403.7L353.42,391.53L353.53,407.89L353.99,399.92L354.46,401.18L354.92,414.19L355.15,408.31L355.61,389.43L356.19,415.87L356.54,406.63L356.88,404.54L357.12,389.85L357.35,405.38L357.58,400.34L357.69,405.79L358.16,380.2L358.27,395.3L358.62,402.44L358.96,402.44L359.54,405.38L360.7,390.27L360.93,394.46L361.16,390.69L361.51,403.7L361.74,394.46L361.97,394.04L362.09,391.11L362.32,388.59L362.66,409.99L362.9,397.4L363.36,389.43L363.59,402.44L364.17,382.71L364.51,383.13L364.63,395.3L364.98,400.34L365.21,393.63L365.44,391.11L365.79,409.15L366.02,389.43L366.25,399.08L366.71,381.04L366.83,394.04L367.4,391.95L367.63,399.08L367.87,400.76L368.44,390.27L368.56,404.12L368.79,405.79L368.91,398.24L369.02,375.58L369.48,380.62L369.72,391.95L370.18,395.3L370.41,384.39L370.87,387.75L371.33,386.49L371.45,398.66L371.57,395.72L371.8,391.53L371.91,394.88L372.49,374.74L373.07,402.44L373.53,373.06L374.69,400.34L375.03,393.63L375.26,396.14L375.84,373.06L375.96,392.79L376.3,399.92L376.65,370.96L377.58,393.21L377.69,396.98L378.62,377.26L378.85,391.95L378.96,396.98L379.08,383.55L379.19,386.49L379.66,383.55L380.12,394.88L380.47,387.33L380.58,391.95L380.7,388.17L380.93,368.45L381.16,393.21L381.74,390.69L381.97,384.39L382.89,396.98L383.24,382.29L383.82,394.88L384.05,393.63L384.17,379.36L384.28,371.38L384.4,379.78L385.09,368.45L385.78,399.92L386.01,393.63L386.13,378.94L386.82,397.4L387.17,378.52L387.52,389.01L388.1,383.55L388.21,376.84L388.44,392.37L388.79,384.81L389.37,399.08L389.48,386.91L389.6,399.08L390.18,393.63L390.75,387.75L390.87,393.63L391.1,389.43L391.22,406.63L391.45,399.08L391.68,392.37L391.79,390.27L391.91,396.98L392.03,409.57L392.14,387.75L392.72,393.21L393.18,402.02L393.41,389.43L393.64,395.3L393.88,405.38L394.34,394.46L394.68,400.34L395.26,394.46L395.49,394.04L396.3,407.89L396.42,403.28L396.77,412.51L397,409.57L397.23,397.4L397.69,387.75L397.81,414.61L398.73,386.07L399.08,395.72L399.19,404.96L399.66,393.21L399.77,404.12L400.46,402.44L400.93,396.98L401.04,401.18L401.39,410.83L401.85,410.41L402.43,402.02L402.66,403.28L402.89,392.79L403.24,395.72L403.35,393.21L403.47,401.18L403.59,404.96L403.7,381.04L403.82,407.89L404.39,407.47L404.63,400.34L404.74,407.89L404.86,396.56L405.44,401.6L405.9,389.85L406.24,409.57L406.82,401.18L406.94,409.15L407.17,417.13L408.09,390.27L408.21,393.63L408.67,398.24L408.79,414.19L409.25,386.07L409.48,404.12L409.6,406.21L409.83,404.96L409.94,389.85L410.87,404.96L411.45,391.11L412.14,403.28L412.49,396.14L413.18,401.18L413.3,383.55L413.64,402.86L414.22,399.5L414.8,401.6L415.26,405.79L415.49,385.23L415.61,407.89L416.07,382.29L416.65,387.33L416.88,388.59L417.23,386.49L417.34,394.04L417.57,381.04L417.8,382.71L417.92,395.72L418.27,393.63L418.38,391.11L418.73,398.24L418.96,390.69L419.19,373.9L419.54,397.82L419.77,394.46L420.12,388.59L420.23,382.71L420.58,393.63L420.81,395.72L421.16,403.7L421.39,385.65L422.08,391.11L422.31,386.07L422.66,389.01L422.89,385.23L423.01,393.21L423.35,402.86L423.47,392.37L424.05,395.3L424.28,373.9L424.62,391.95L424.86,403.7L424.97,373.9L425.2,379.36L425.32,392.37L425.78,376.84L426.13,394.04L426.47,362.15L426.94,377.26L427.17,386.07L427.28,382.71L427.51,383.13L428.21,399.92L428.67,395.72L428.9,377.68L429.13,387.33L429.25,371.38L429.48,398.24L429.83,370.96L430.4,384.39L430.52,389.85L430.64,394.46L430.98,373.48L431.68,392.37L431.79,368.87L432.02,396.56L432.14,367.61L432.83,386.07L432.95,382.71L433.06,387.33L433.18,385.65L433.53,399.5L433.87,403.7L434.22,380.2L434.57,387.75L434.68,389.43L435.03,387.33L435.61,391.53L436.3,382.71L436.42,398.66L436.88,369.71L437.46,376.84L437.57,403.7L438.38,369.71L438.5,398.66L438.61,405.38L438.84,379.78L439.07,381.04L439.31,383.55L439.42,394.88L439.77,379.36L440.23,382.71L440.46,386.91L441.16,387.75L441.27,369.71L442.2,378.94L443.24,399.08L443.47,383.55L443.7,398.24L443.93,385.23L444.28,375.58L444.39,373.06L444.51,388.17L444.97,400.76L445.09,389.43L445.32,373.06L445.43,394.88L446.13,386.49L446.7,379.36L447.74,392.79L448.21,382.71L448.32,388.59L448.67,376.42L448.9,370.54L449.94,407.05L450.06,376.84L450.63,397.4L450.87,394.46L450.98,380.62L451.21,377.68L451.33,382.71L451.79,403.7L451.91,377.26L452.37,399.92L452.6,391.53L452.72,398.66L453.06,389.01L453.18,389.01L453.64,377.68L453.99,395.72L454.33,388.59L454.68,395.3L455.14,358.79L455.37,386.07L455.49,391.53L455.61,392.79L455.84,382.29L455.95,398.66L456.07,381.04L456.41,397.82L456.88,373.9L457.11,396.56L457.69,387.75L457.92,385.65L458.03,378.52L458.38,397.82L458.61,389.85L459.07,372.64L459.3,390.69L459.42,379.78L459.77,396.98L460,383.97L460.23,395.3L460.69,378.52L460.81,391.95L461.15,389.43L461.38,382.71L461.5,396.98L461.62,391.53L462.08,387.75L462.43,377.26L462.66,379.78L462.77,389.43L463,397.4L463.23,381.88L463.35,387.33L463.7,390.69L464.27,382.71L464.51,384.39L464.62,387.33L465.2,384.39L465.43,394.04L465.66,391.95L466.12,384.39L466.24,402.44L466.47,383.97L467.05,392.37L467.28,382.71L467.63,404.96L467.86,393.63L468.21,391.95L468.9,414.61L469.13,411.67L469.25,404.54L469.82,386.07L469.94,396.56L470.29,394.46L470.4,388.17L470.52,397.82L471.1,391.53L471.33,374.74L471.67,399.5L472.02,368.87L472.37,377.68L472.6,391.53L472.71,390.27L472.83,396.98L473.06,395.3L473.41,404.54L473.64,390.69L473.87,392.37L473.99,384.39L474.1,397.4L474.68,382.71L474.91,395.3L475.26,399.5L475.6,364.25L476.53,392.79L476.64,391.53L476.99,389.85L477.8,399.5L477.92,398.66L478.03,377.68L478.15,398.66L478.72,382.71L478.84,379.78L479.07,405.79L479.53,403.28L479.88,391.95L480.23,393.21L480.69,391.95L480.81,378.1L481.38,378.94L481.5,398.66L482.42,373.06L482.54,382.71L482.77,409.57L483.93,385.65L484.27,376.42L484.5,403.28L485.08,385.65L485.2,384.39L485.31,382.71L485.43,389.01L485.55,386.07L485.66,396.98L486.01,378.94L486.24,397.82L486.47,391.95L486.82,373.48L487.05,380.62L487.39,394.04L487.63,365.93L488.09,397.82L488.2,391.95L488.32,386.49L488.67,391.53L489.13,390.27L489.71,395.72L489.82,360.05L490.05,399.08L490.52,386.49L490.75,386.49L491.21,382.71L491.32,362.99L492.13,391.95L492.25,371.38L493.06,394.04L493.41,382.71L493.75,373.06L493.98,396.98L494.1,393.21L494.21,364.67L494.45,389.85L495.02,379.36L495.14,381.88L495.83,373.9L495.95,386.91L496.3,382.71L496.99,399.5L497.22,400.76L497.34,400.34L497.57,378.52L497.68,373.06L497.8,381.46L498.03,377.26L498.61,370.96L499.3,386.07L499.53,378.94L499.65,378.1L499.76,377.26L499.88,381.88L500.11,389.01L500.92,380.2L501.15,395.3L501.84,366.77L501.96,390.69L502.31,378.94L502.77,389.01L503.23,384.39L503.93,371.8L504.16,368.45L504.5,403.28L504.73,396.14L504.85,394.88L505.77,369.29L505.89,378.94L506.01,398.66L506.24,385.65L506.47,388.17L507.16,390.69L507.62,381.46L508.09,391.95L508.55,398.24L508.66,381.88L509.36,404.96L509.71,394.88L509.82,391.11L509.94,399.92L510.28,383.97L510.51,389.85L510.75,384.81L511.67,399.5L512.02,396.98L512.48,379.78L512.71,383.55L513.06,396.98L513.29,368.87L513.75,393.63L513.87,391.11L513.98,388.17L514.1,395.72L514.21,388.59L514.44,396.98L514.91,383.55L515.25,400.34L515.72,373.48L515.95,395.3L516.29,383.55L516.41,393.21L516.76,372.64L516.99,381.04L517.1,386.49L518.37,394.88L518.49,376.42L519.53,399.5L519.65,382.29L520.34,396.14L520.57,389.01L520.69,399.5L520.92,383.55L521.15,368.87L521.38,396.56L521.84,379.36L522.31,390.69L522.54,389.43L522.77,394.46L522.88,371.38L523.35,398.66L523.46,392.37L523.69,388.17L524.04,379.78L524.5,389.85L524.62,396.56L524.73,385.23L524.96,394.46L525.31,390.27L526.24,369.71L526.35,383.13L526.47,378.94L526.81,383.55L527.04,381.04L527.28,390.69L527.51,356.7L527.85,389.85L528.2,371.38L528.66,391.11L528.78,368.03L528.89,392.79L529.01,367.19L529.59,386.49L529.7,386.91L530.28,383.55L530.63,369.29L531.09,393.21L531.55,389.43L531.78,385.65L532.25,403.28L532.36,379.78L532.59,378.52L532.82,394.46L533.06,370.13L533.17,389.85L533.75,391.53L534.33,387.75L534.67,388.17L535.14,361.73L535.83,394.46L536.06,374.32L536.87,390.27L537.1,384.81L537.33,381.88L537.56,383.55L537.91,378.94L538.14,391.53L538.26,379.36L538.6,395.72L538.84,393.63L539.18,375.16L539.41,380.62L539.53,368.87L539.65,394.88L539.88,388.17L540.11,390.69L540.22,379.36L540.34,401.18L540.8,400.34L541.15,401.18L541.73,403.7L541.96,371.8L542.07,372.22L542.19,377.68L542.54,374.74L542.65,391.53L542.77,398.66L542.88,384.39L543.11,385.23L543.23,374.32L543.34,388.59L543.81,383.13L544.04,371.8L544.5,400.34L544.85,393.63L545.08,384.39L545.31,382.71L545.54,387.33L545.66,393.63L545.89,378.1L546.12,380.62L546.47,389.01L546.7,391.95L546.81,369.71L546.93,388.59L547.51,366.77L547.74,365.09L547.85,392.37L548.31,377.26L548.78,380.2L549.12,401.18L549.24,390.69L549.36,371.38L549.82,393.63L550.28,383.97L550.51,377.68L551.09,378.94L551.55,365.09L552.01,388.59L552.59,387.75L552.71,380.2L552.94,378.52L553.05,395.3L553.52,385.23L553.86,388.17L554.33,389.43L554.79,356.28L554.9,370.13L555.02,381.46L555.48,373.48L555.6,381.88L555.94,380.2L556.06,399.92L556.29,373.06L556.64,373.9L556.87,373.06L557.1,405.38L557.45,377.26L557.68,379.36L557.91,380.2L558.03,376L558.72,385.65L558.83,370.54L559.53,395.3L560.11,366.77L560.45,358.38L560.57,397.82L560.92,383.97L561.15,378.94L561.61,388.59L561.84,358.38L563,389.01L563.23,388.59L563.34,371.38L563.57,388.59L563.81,366.35L564.04,368.45L564.27,368.87L564.61,371.8L564.73,385.65L565.42,392.37L565.54,373.06L566,379.36L566.12,366.77L566.35,373.06L566.7,356.7L567.62,393.63L568.08,387.33L568.31,372.64L569.01,385.65L569.24,373.48L569.35,379.78L569.93,373.9L570.28,389.43L570.39,389.01L570.63,373.9L571.32,384.81L571.55,381.04L571.9,386.49L572.36,400.76L572.71,368.87L573.17,387.33L573.63,380.2L573.75,389.43L573.86,373.48L574.79,393.21L575.02,374.32L575.6,399.08L575.71,386.49L575.94,386.49L576.41,368.87L576.64,384.39L576.75,388.17L577.1,373.48L577.56,377.68L577.79,377.26L578.14,392.79L578.6,384.39L578.72,375.58L578.83,369.71L578.95,395.3L579.3,381.04L579.41,391.53L579.76,380.62L579.87,398.24L580.1,388.17L580.57,381.88L580.68,402.86L580.8,373.06L581.03,376.84L581.49,381.04L581.61,409.15L582.42,374.32L583.11,394.46L583.23,378.1L583.92,391.95L584.27,386.91L584.73,368.03L584.84,378.52L585.19,387.33L585.77,371.38L586.12,376.84L586.23,389.85L586.46,394.46L586.69,362.15L587.04,382.29L587.27,373.06L588.08,396.14L588.2,390.27L588.77,364.25L589.01,381.46L589.24,376.42L589.35,396.56L589.81,365.09L589.93,378.52L590.05,375.58L590.62,370.13L590.74,390.27L591.32,380.62L591.78,398.24L592.01,373.06L593.05,376.84L593.17,384.81L593.4,376L593.63,386.49L593.75,383.13L593.86,404.12L594.21,369.29L594.79,382.29L594.9,387.33L595.48,390.69L595.59,373.48L595.71,394.88L596.29,386.91L596.4,392.79L596.52,376.42L596.87,395.72L597.44,388.17L597.68,382.71L597.79,401.18L598.14,371.8L598.48,371.38L599.18,394.88L599.41,388.59L599.64,378.52L599.76,379.78L599.99,376L600.1,365.09L601.14,390.69L601.37,378.1L601.95,396.14L602.07,393.63L602.41,380.62L602.65,381.88L602.76,374.32L602.99,394.46L603.22,368.87L603.57,370.13L603.69,386.49L604.38,382.71L604.61,373.06L604.84,358.38L605.42,392.79L605.54,377.68L605.88,391.11L606.11,371.8L606.23,374.74L606.35,367.19L606.58,369.29L606.69,403.28L607.27,367.61L607.85,368.45L608.31,386.49L608.54,366.35L608.66,363.83L608.89,360.05L609.12,389.43L609.7,385.65L609.93,376.42L610.28,390.27L610.62,380.62L610.85,382.71L611.43,392.37L611.78,353.34L611.89,377.68L612.01,393.63L612.59,360.47L612.93,376.84L613.05,371.8L613.17,364.25L613.4,376.42L613.97,375.16L614.21,373.9L614.32,386.49L614.44,369.29L614.9,381.46L615.13,374.32L615.48,365.09L615.94,385.23L616.4,387.33L617.1,369.29L617.44,364.67L617.91,378.94L618.02,377.68L618.14,360.89L618.95,380.62L619.18,369.71L619.52,379.36L619.75,370.96L620.1,370.96L620.22,364.67L620.45,387.75L620.68,366.77L620.8,377.68L620.91,380.2L621.14,358.38L621.6,376.42L621.95,366.35L622.07,376.84L622.18,356.28L622.3,382.29L622.41,382.29L622.88,383.97L623.57,365.51L623.69,374.74L623.92,374.32L624.26,342.43L624.49,374.32L624.96,377.68L625.07,349.56L625.53,385.23L625.77,377.68L625.88,379.78L626.11,370.96L626.23,389.43L626.69,363.83L627.04,373.06L627.38,370.13L628.08,377.68L628.31,375.58L628.42,371.38L628.66,382.71L628.77,357.96L628.89,380.62L629.12,364.67L630.27,385.65L630.39,375.58L630.74,355.86L630.97,368.45L631.2,371.8L631.31,383.13L631.43,352.08L632.01,380.62L632.12,389.01L632.47,385.23L632.59,357.54L632.93,361.31L633.05,387.33L633.28,393.63L633.4,365.93L633.86,370.54L633.97,381.46L634.2,377.26L634.32,397.4L635.36,360.47L635.59,374.32L635.82,369.29L636.17,371.38L636.29,389.01L636.75,362.57L636.86,381.46L637.09,386.07L637.21,362.99L637.9,401.6L638.37,391.95L638.48,366.35L638.94,387.75L639.06,366.77L639.75,397.82L639.87,389.85L639.98,392.79L640.33,399.08L641.02,378.1L641.26,393.63L641.37,399.92L641.72,378.94L642.07,385.23L642.41,378.94L642.76,383.13L643.68,394.46L643.8,377.26L644.15,394.46L644.38,381.46L644.72,392.37L644.96,399.5L645.07,394.04L645.19,376.84L645.42,394.46L645.76,365.51L645.88,389.85L646.46,379.78L646.69,401.6L647.15,381.46L647.73,386.49L647.85,387.33L647.96,399.5L648.08,385.23L648.42,390.27L648.65,386.91L648.89,382.29L649,397.4L649.23,378.94L649.69,391.53L649.93,387.75L650.04,397.4L650.27,362.99L650.5,395.3L650.74,385.65L651.66,392.37L651.89,379.36L652.01,380.62L652.24,373.48L652.47,396.56L652.7,368.45L653.39,380.62L653.63,395.72L653.97,375.58L654.09,383.55L654.2,370.54L654.55,369.29L654.78,383.55L655.59,383.55L655.94,393.63L656.17,371.8L656.63,395.72L656.98,386.07L657.44,368.03L657.67,384.81L657.9,389.43L658.71,374.74L658.83,389.43L659.75,362.15L659.98,383.97L660.1,394.04L660.56,378.52L660.79,366.77L661.02,381.46L661.6,371.8L661.72,375.58L662.06,366.35L662.18,376L662.64,379.36L662.76,377.68L662.87,363.41L662.99,381.04L663.45,348.72L663.57,363.83L663.8,378.94L664.14,340.33L664.38,373.9L664.49,358.79L664.72,376L665.07,372.64L665.3,375.58L665.65,376.84L665.76,355.86L666.46,379.36L666.69,376.84L666.8,367.19L667.03,368.03L667.15,378.1L667.96,352.5L668.07,374.32L668.54,368.87L668.65,385.23L668.77,368.03L668.88,374.74L669.35,360.47L669.46,362.57L669.58,383.55L669.69,355.02L670.16,378.94L670.62,346.21L671.31,379.78L671.54,373.9L671.66,361.73L671.77,388.17L672.12,362.99L672.7,388.17L672.93,352.92L673.51,357.96L673.74,381.04L673.85,355.44L674.43,363.83L674.66,361.73L675.01,368.87L675.36,351.66L675.47,358.38L675.59,364.67L675.82,372.64L676.4,370.96L676.51,353.76L677.67,370.13L678.13,368.45L678.48,374.74L678.59,374.32L678.71,357.96L678.83,358.38L678.94,363.83L679.06,344.53L679.63,373.06L679.75,376.42L679.87,355.02L680.56,359.63L680.68,366.77L681.14,384.39L681.25,360.47L681.37,362.15L682.29,386.91L682.41,376L682.52,365.93L682.87,372.64L683.33,361.31L683.8,386.91L683.91,356.7L684.26,361.73L684.95,372.64L685.18,362.57L685.3,360.47L685.41,368.03L685.53,370.96L685.65,379.36L686.22,369.71L686.34,373.9L686.69,378.52L686.8,375.16L687.03,388.59L687.26,385.23L687.38,369.71L687.61,388.59L687.84,364.25L688.19,379.78L688.3,378.52L688.54,384.39L688.65,373.06L688.77,356.28L689.58,375.58L689.81,370.96L689.92,386.49L690.39,381.46L690.62,371.38L691.31,390.69L691.43,378.94L691.54,380.2L692.23,387.33L692.47,376.84L692.58,396.14L693.04,393.63L693.39,395.3L693.51,374.32L694.08,387.33L694.2,387.33L694.55,393.21L694.78,374.74L695.24,396.14L695.59,386.07L695.7,378.1L696.05,390.27L696.17,384.81L696.28,370.13L696.51,400.34L697.09,391.95L697.44,382.71L697.55,379.78L697.67,390.69L698.01,395.3L698.71,384.81L698.94,399.92L699.06,409.57L699.17,388.17L699.63,399.5L699.75,399.5L699.86,398.24L699.98,376L700.67,404.54L701.02,402.86L701.14,403.28L701.25,385.23L701.95,392.79L702.18,396.56L702.29,398.66L702.41,394.04L702.52,380.2L703.33,400.34L738.47,410.41L739.17,420.06L739.4,416.29L739.75,409.15L740.32,405.38L740.79,417.13L741.02,412.51L741.48,418.38L741.71,411.25L741.83,404.96L742.75,420.48L743.21,415.87L743.33,410.41L743.79,412.93L744.02,416.71L744.14,410.41L744.49,421.32L745.18,412.09L745.29,413.35L745.53,421.74L746.33,411.25L746.45,418.38L746.57,421.32L747.03,412.09L747.38,415.03L747.61,417.54L747.84,417.13L748.07,422.16L748.18,408.31L748.88,417.13L749.34,423.84L749.57,408.31L750.15,421.32L750.96,422.16L751.77,411.25L752,424.26L752.11,413.35L752.23,421.74L752.69,414.61L753.62,415.87L753.73,418.38L754.08,423.84L754.77,410.83L754.89,416.71L755,421.74L755.12,421.32L755.24,413.35L755.35,425.94L755.47,410.83L756.39,420.9L756.51,415.45L757.32,426.36L757.55,412.93L757.78,422.58L758.24,427.2L759.4,431.39L759.63,412.09L759.98,412.09L761.02,421.32L761.13,418.8L761.25,425.1L761.83,412.93L762.29,425.94L762.63,423.42L762.75,430.55L763.1,416.71L763.56,417.13L763.91,419.64L764.72,415.03L764.95,423.42L765.18,419.64L765.29,417.54L766.1,426.36L766.22,409.99L766.8,420.9L767.61,413.35L767.72,419.64L767.95,409.99L768.18,420.48L768.99,414.61L769.22,420.48L770.26,406.21L770.61,417.54L770.84,423.42L772,407.89L772.34,413.35L772.46,415.03L772.81,403.28L773.85,418.38L773.96,412.51L774.54,410.41L775.12,419.64L775.23,418.8L775.47,407.89L775.81,422.16L776.85,410.83L777.2,417.54L777.89,407.05L778.47,417.54L778.59,422.58L778.93,408.73L780.09,412.51L780.21,414.19L780.44,425.52L780.67,410.83L780.78,406.21L781.36,414.19L782.05,407.05L782.63,402.02L783.1,418.38L783.56,416.71L783.79,407.47L783.9,403.28L785.06,416.29L785.29,408.73L785.41,419.22L785.75,420.06L785.87,409.15L786.56,404.12L786.91,420.06L787.49,418.38L787.6,409.57L788.41,406.21L788.64,415.45L788.99,414.19L789.11,413.77L789.57,412.93L789.92,415.03L790.03,413.77L790.15,408.31L791.19,420.06L791.53,405.38L791.65,415.03L791.88,411.25L792.57,404.96L792.69,415.87L792.81,410.83L793.27,416.29L793.5,422.58L794.89,411.25L795.12,415.87L795.35,419.22L795.46,408.73L795.58,415.87L795.7,400.76L795.93,419.22L797.31,409.99L797.55,415.45L797.66,408.73L797.89,421.74L799.05,417.96L799.28,416.71L800.09,408.73L800.78,418.8L800.9,410.83L801.01,417.13L802.05,420.48L802.75,406.63L802.86,411.25L803.21,413.35L803.44,416.29L803.67,412.09L803.79,421.32L805.52,409.57L805.64,412.93L806.33,418.8L807.14,409.15L807.37,414.19L807.49,412.93L807.72,408.31L808.53,424.26L809.1,417.54L809.22,406.21L809.57,405.38L810.84,424.26L810.95,415.45L811.19,411.67L811.65,419.64L811.99,405.38L813.04,416.71L813.38,417.96L814.65,402.44L815.12,421.74L815.23,416.29L815.58,411.25L816.39,403.7L816.5,419.22L817.43,411.67L817.54,413.35L818.47,420.48L818.93,407.05L819.28,415.45L819.39,404.12L819.86,400.34L820.66,423.42L821.47,420.06L821.82,413.77L822.51,417.13L823.32,406.21L823.67,411.67L823.79,416.71L823.9,417.54L824.13,412.09L825.06,407.89L825.17,399.5L825.29,421.74L827.02,405.38L827.72,417.54L828.53,407.47L828.76,421.74L829.33,415.87L829.45,407.89L830.84,402.44L831.3,418.38L831.53,413.77L831.65,412.51L831.99,411.25L832.11,418.8L832.8,413.77L833.15,405.38L834.07,416.71L835.23,409.57L835.35,406.21L835.58,405.79L837.31,414.61L837.77,411.25L837.89,419.22L839.04,401.18L839.85,414.61L839.97,411.67L840.43,401.6L840.78,419.22L841.7,410.83L841.82,417.54L843.78,398.24L844.13,409.15L844.36,409.99L845.29,420.48L845.4,402.86L845.87,414.61L846.1,400.76L847.25,398.24L848.06,413.77L848.41,408.73L848.52,409.15L849.56,402.02L850.37,417.54L850.49,412.93L850.84,409.57L851.07,399.5L852.11,416.71L852.92,409.99L853.15,409.99L853.84,417.13L855.11,396.98L855.34,409.57L855.46,406.21L855.58,412.51L856.62,402.44L857.43,405.79L857.66,397.4L859.04,393.21L859.16,409.99L859.74,407.05L860.2,407.89L860.55,415.87L861.24,400.76L862.63,409.99L862.74,397.82L862.86,396.98L863.09,410.83L863.44,402.86L863.67,409.57L864.36,396.56L865.4,416.71L865.98,403.7L866.44,396.98L867.94,412.93L868.52,394.88L868.87,411.25L868.98,399.92L870.26,415.03L870.83,412.09L870.95,400.34L871.64,414.61L873.49,412.51L873.61,409.99L874.19,418.8L874.3,399.5L875.69,407.47L875.92,412.51L877.42,413.77L878.23,397.82L878.46,417.96L879.62,400.34L881.01,410.41L881.24,407.89L881.7,403.7L882.16,415.03L882.51,408.31L882.74,401.6L883.78,401.18L884.36,418.8L885.28,413.35L885.52,409.15L886.44,402.86L887.02,414.19L887.71,412.51L887.83,405.79L888.06,415.45L889.91,395.72L890.37,404.96L890.83,408.31L891.76,415.45L891.87,398.24L893.26,410.83L893.38,410.83L894.65,415.03L895.92,397.4L896.15,407.05L897.31,388.59L897.88,413.35L898.69,403.7L898.81,406.21L899.04,387.33L899.85,412.51L901.58,405.79L901.7,409.57L903.66,385.65L904.01,412.09L904.47,403.7L904.82,400.34L905.17,391.11L905.28,395.72L905.51,410.41L906.21,391.95L908.52,394.88L908.75,398.66L908.98,412.09L909.44,391.53L911.64,400.76L911.76,400.76L911.99,406.21L912.1,394.88L914.42,403.7L914.53,395.72L914.65,392.79L915.92,411.25L916.96,398.24L917.3,402.02L917.65,410.83L918,388.17L918.81,396.56L918.92,381.04L919.73,409.57L921.93,407.47L922.04,394.04L922.97,393.63L924.47,412.09L925.4,406.21L925.63,412.93L928.06,419.64L928.4,399.08L928.63,402.44L928.86,402.44L928.98,416.71L931.75,395.72L931.87,408.31L932.1,413.35L933.95,397.4L934.76,417.13L935.11,408.73L935.22,415.87L938.46,399.08L938.58,403.28L938.69,410.83L939.73,396.14L941.12,417.13L941.93,406.63L942.04,412.09L942.74,415.03L944.59,396.14L945.28,405.38L945.63,412.93L948.63,397.82L948.86,401.18L949.09,406.21L949.9,392.79L950.6,407.05L951.64,404.12L951.75,400.34L951.87,410.83L952.1,389.85L954.87,398.66L955.11,397.82L956.03,407.47L956.72,386.91L957.65,399.08L957.76,413.77L961.46,387.75L961.58,402.44L962.16,406.63L963.43,384.81L965.05,392.79L965.16,402.86L965.86,406.63L968.17,383.13L968.86,393.63L968.98,403.7L969.56,385.65L969.79,405.79L971.17,403.28L971.29,399.92L972.45,393.21L972.56,410.83L974.06,397.4L974.18,392.79L975.34,412.09L977.42,385.65L977.53,401.18L980.07,387.75L980.88,409.15L981,405.79L981.12,397.4L982.85,391.95L984.58,409.99L984.81,403.28L984.93,395.72L986.09,392.37L987.59,412.93L988.63,402.86L989.09,408.31L990.02,394.04L991.4,413.35L992.79,403.7L993.37,413.35L993.83,420.48L995.57,392.79L997.18,401.18L997.3,407.89L998.34,414.61L999.84,386.91L1001.23,404.12L1001.34,410.83L1002.62,412.93L1004.47,373.9L1005.28,399.92L1005.39,397.4L1007.01,407.47L1007.93,381.46L1008.97,383.13L1009.21,399.08L1010.36,380.62L1011.52,407.47L1013.25,385.65L1013.48,398.66L1016.03,384.81L1016.6,404.12L1017.3,400.34L1017.41,409.57L1018.57,386.91L1021.92,393.21L1022.04,397.82L1023.19,383.13L1025.27,410.41L1026.08,397.82L1026.2,397.4L1026.43,408.73L1028.63,379.78L1030.24,389.85L1030.59,407.89L1033.37,408.31L1034.17,389.43L1034.75,396.98L1034.98,400.76L1035.22,388.17L1035.56,409.57L1039.15,396.56L1039.26,397.4L1040.07,409.99L1040.19,386.07L1043.08,401.18L1043.19,389.01L1046.78,388.17L1046.89,410.83L1047.58,402.44L1047.7,392.79L1049.9,406.21L1051.05,383.55L1051.98,405.79L1052.09,393.63L1052.21,383.55L1053.71,407.05L1056.14,405.38L1056.6,400.34L1057.06,406.63L1058.57,386.49L1060.3,406.63L1060.53,407.47L1063.77,376.84L1065.16,394.04L1065.27,391.11L1067.93,384.39L1068.51,404.54L1069.89,394.88L1070.01,385.65L1070.59,380.2L1071.86,405.79L1074.75,404.12L1074.87,389.01L1076.14,376L1079.14,399.5L1079.72,394.88L1079.84,381.88L1081.34,376L1083.54,403.7L1084.46,381.04L1084.69,381.88L1085.15,400.76L1086.89,376.42L1089.32,391.11L1089.43,375.16L1093.25,402.86L1094.29,389.85L1094.4,394.04L1094.52,402.44L1097.99,381.88L1099.14,386.49L1099.37,396.98L1099.95,399.5L1100.99,379.78L1102.96,392.79L1103.19,401.18L1103.53,405.38L1105.73,367.61L1108.27,388.59L1108.39,399.08L1109.31,378.52L1110.12,407.47L1113.48,390.69L1113.59,397.82L1114.63,412.51L1115.79,385.23L1118.56,402.02L1118.68,399.5L1122.72,404.54L1123.76,378.94L1123.88,393.21L1123.99,401.6L1127.46,408.73L1128.16,383.97L1128.97,389.85L1129.08,397.4L1130.01,403.28L1133.82,380.62L1134.28,389.43L1134.4,390.27L1135.32,401.18L1135.79,366.77L1139.49,386.49L1139.6,395.72L1141.91,370.54L1142.03,407.47L1144.92,376L1145.15,390.27L1146.42,394.46L1148.5,357.12L1150.7,373.9L1150.81,381.04L1152.2,362.99L1156.59,394.88L1156.71,383.13L1157.29,370.13L1161.8,396.14L1162.26,394.04L1162.37,377.68L1163.99,376.84L1167.58,402.44L1167.92,398.24L1168.15,391.95L1169.54,406.63L1170.12,373.48L1173.7,399.92L1173.82,384.81L1175.32,380.62L1178.33,409.99L1179.6,391.11L1179.83,401.18L1183.64,371.8L1185.61,395.3L1185.72,395.72L1188.15,399.08L1190,373.9L1191.39,375.16L1191.5,392.79L1192.54,402.02L1194.05,367.61L1197.63,371.8L1197.75,378.1L1200.98,386.49L1202.37,362.15L1203.87,368.45L1204.1,371.8L1205.49,360.89L1209.31,392.79L1210.23,384.39L1210.35,378.1L1211.27,359.21L1216.01,392.79L1216.24,383.55L1216.47,388.59L1218.9,370.13L1221.91,400.76L1222.6,386.07L1222.72,390.69L1224.22,392.37L1224.8,377.68L1225.49,383.97L1225.61,401.18L1231.04,402.44L1231.15,373.9L1231.85,384.39L1231.96,406.21L1232.77,406.63L1235.66,378.1L1238.32,385.65L1238.44,389.01L1239.02,373.9L1241.79,394.46L1244.68,385.23L1244.8,376L1247.34,370.13L1249.65,394.46L1251.15,394.04L1251.27,382.29L1252.77,396.56L1254.85,363.83L1257.16,375.16L1257.28,363.83L1258.78,355.44L1259.13,391.11L1263.87,371.8L1263.98,359.21L1264.68,345.79L1268.72,384.39L1270.8,377.26L1270.92,369.71L1271.38,361.31L1273,393.21L1277.51,379.36L1277.63,367.19L1280.28,390.27L1284.45,381.04L1284.68,375.58L1289.88,366.77L1291.15,393.63L1291.84,384.81L1291.96,378.52L1297.62,362.57L1298.55,389.85L1298.78,375.16L1299.01,374.74L1303.98,365.93L1304.33,392.37L1305.48,379.36L1305.6,388.59L1305.72,394.88L1310.46,360.89L1312.3,381.04L1312.42,371.38L1314.39,362.15L1319.7,396.14L1319.82,380.2L1324.56,393.63L1324.9,369.29L1325.14,376.84L1325.25,367.61L1325.6,365.93L1327.56,394.88L1332.65,384.81L1332.88,373.9L1333.46,396.14L1335.08,360.89L1340.16,378.52L1340.28,370.96L1341.55,390.69L1343.86,362.15L1347.79,376L1347.91,365.51L1352.42,389.85L1353.69,358.79L1355.54,383.13L1355.65,374.32L1357.04,389.43L1358.89,352.5L1363.28,374.32L1363.4,375.58L1364.44,388.59L1368.6,358.38L1370.57,382.29L1370.68,366.35L1376.23,360.89L1377.62,392.79L1378.43,381.88L1378.54,373.06L1380.85,363.83L1385.83,387.75L1385.94,372.64L1386.06,365.09L1387.44,364.67L1392.18,395.72L1394.03,390.69L1394.15,370.13L1397.39,393.21L1398.66,361.31L1402.36,381.88L1402.47,381.04L1403.4,359.63L1404.55,395.3L1410.45,384.39L1410.56,375.16L1412.64,391.53L1418.08,352.92L1418.66,376L1418.77,386.91L1423.39,394.88L1426.05,352.92L1427.09,366.35L1427.21,380.2L1427.44,356.7L1430.56,388.17L1431.83,365.09"/></g><g class="points"/><g class="text"/></g><g class="trace scatter trace52185b" style="stroke-miterlimit: 2; opacity: 1;"><g class="fills"/><g class="errorbars"/><g class="lines"/><g class="points"><path class="point" transform="translate(1431.83,365.09)" style="opacity: 1; stroke-width: 0px; fill: rgb(88, 153, 218); fill-opacity: 1;" d="M3,0A3,3 0 1,1 0,-3A3,3 0 0,1 3,0Z"/></g><g class="text"/></g></g></g><g class="overplot"/><path class="xlines-above crisp" style="fill: none;" d="M0,0"/><path class="ylines-above crisp" style="fill: none;" d="M0,0"/><g class="overlines-above"/><g class="xaxislayer-above"><g class="xtick"><text text-anchor="middle" x="0" y="543" style="font-family: TOBESTRIPPEDOpen SansTOBESTRIPPED, verdana, arial, sans-serif; font-size: 12px; fill: rgb(32, 32, 32); fill-opacity: 1; white-space: pre;" transform="translate(171.01,0)">64k</text></g><g class="xtick"><text text-anchor="middle" x="0" y="543" style="font-family: TOBESTRIPPEDOpen SansTOBESTRIPPED, verdana, arial, sans-serif; font-size: 12px; fill: rgb(32, 32, 32); fill-opacity: 1; white-space: pre;" transform="translate(286.61,0)">65k</text></g><g class="xtick"><text text-anchor="middle" x="0" y="543" style="font-family: TOBESTRIPPEDOpen SansTOBESTRIPPED, verdana, arial, sans-serif; font-size: 12px; fill: rgb(32, 32, 32); fill-opacity: 1; white-space: pre;" transform="translate(402.2,0)">66k</text></g><g class="xtick"><text text-anchor="middle" x="0" y="543" style="font-family: TOBESTRIPPEDOpen SansTOBESTRIPPED, verdana, arial, sans-serif; font-size: 12px; fill: rgb(32, 32, 32); fill-opacity: 1; white-space: pre;" transform="translate(517.8,0)">67k</text></g><g class="xtick"><text text-anchor="middle" x="0" y="543" style="font-family: TOBESTRIPPEDOpen SansTOBESTRIPPED, verdana, arial, sans-serif; font-size: 12px; fill: rgb(32, 32, 32); fill-opacity: 1; white-space: pre;" transform="translate(633.4,0)">68k</text></g><g class="xtick"><text text-anchor="middle" x="0" y="543" style="font-family: TOBESTRIPPEDOpen SansTOBESTRIPPED, verdana, arial, sans-serif; font-size: 12px; fill: rgb(32, 32, 32); fill-opacity: 1; white-space: pre;" transform="translate(749,0)">69k</text></g></g><g class="yaxislayer-above"><g class="ytick"><text text-anchor="end" x="69" y="4.199999999999999" style="font-family: TOBESTRIPPEDOpen SansTOBESTRIPPED, verdana, arial, sans-serif; font-size: 12px; fill: rgb(32, 32, 32); fill-opacity: 1; white-space: pre;" transform="translate(0,503.21)">0</text></g><g class="ytick"><text text-anchor="end" x="69" y="4.199999999999999" style="font-family: TOBESTRIPPEDOpen SansTOBESTRIPPED, verdana, arial, sans-serif; font-size: 12px; fill: rgb(32, 32, 32); fill-opacity: 1; white-space: pre;" transform="translate(0,419.29)">200</text></g><g class="ytick"><text text-anchor="end" x="69" y="4.199999999999999" style="font-family: TOBESTRIPPEDOpen SansTOBESTRIPPED, verdana, arial, sans-serif; font-size: 12px; fill: rgb(32, 32, 32); fill-opacity: 1; white-space: pre;" transform="translate(0,335.36)">400</text></g><g class="ytick"><text text-anchor="end" x="69" y="4.199999999999999" style="font-family: TOBESTRIPPEDOpen SansTOBESTRIPPED, verdana, arial, sans-serif; font-size: 12px; fill: rgb(32, 32, 32); fill-opacity: 1; white-space: pre;" transform="translate(0,251.43)">600</text></g><g class="ytick"><text text-anchor="end" x="69" y="4.199999999999999" style="font-family: TOBESTRIPPEDOpen SansTOBESTRIPPED, verdana, arial, sans-serif; font-size: 12px; fill: rgb(32, 32, 32); fill-opacity: 1; white-space: pre;" transform="translate(0,167.5)">800</text></g><g class="ytick"><text text-anchor="end" x="69" y="4.199999999999999" style="font-family: TOBESTRIPPEDOpen SansTOBESTRIPPED, verdana, arial, sans-serif; font-size: 12px; fill: rgb(32, 32, 32); fill-opacity: 1; white-space: pre;" transform="translate(0,83.57)">1000</text></g></g><g class="overaxes-above"/></g></g><g class="polarlayer"/><g class="ternarylayer"/><g class="geolayer"/><g class="pielayer"/><g class="sunburstlayer"/><g class="glimages"/><defs id="topdefs-2b9b5c"><g class="clips"/></defs><g class="layer-above"><g class="imagelayer"/><g class="shapelayer"/></g><g class="infolayer"><g class="g-gtitle"/><g class="g-xtitle"/><g class="g-ytitle"/></g></svg>