<svg class="main-svg" xmlns="http://www.w3.org/2000/svg" xmlns:xlink="http://www.w3.org/1999/xlink" width="800" height="600" style="" viewBox="0 0 800 600"><rect x="0" y="0" width="800" height="600" style="fill: rgb(255, 255, 255); fill-opacity: 1;"/><defs id="defs-356c77"><g class="clips"><clipPath id="clip356c77xyplot" class="plotclip"><rect width="710" height="470"/></clipPath><clipPath class="axesclip" id="clip356c77x"><rect x="80" y="0" width="710" height="600"/></clipPath><clipPath class="axesclip" id="clip356c77y"><rect x="0" y="50" width="800" height="470"/></clipPath><clipPath class="axesclip" id="clip356c77xy"><rect x="80" y="50" width="710" height="470"/></clipPath></g><g class="gradients"/></defs><g class="bglayer"/><g class="layer-below"><g class="imagelayer"/><g class="shapelayer"/></g><g class="cartesianlayer"><g class="subplot xy"><g class="layer-subplot"><g class="shapelayer"/><g class="imagelayer"/></g><g class="gridlayer"><g class="x"><path class="xgrid crisp" transform="translate(82.35,0)" d="M0,50v470" style="stroke: rgb(238, 238, 238); stroke-opacity: 1; stroke-width: 1px;"/><path class="xgrid crisp" transform="translate(224.93,0)" d="M0,50v470" style="stroke: rgb(238, 238, 238); stroke-opacity: 1; stroke-width: 1px;"/><path class="xgrid crisp" transform="translate(367.51,0)" d="M0,50v470" style="stroke: rgb(238, 238, 238); stroke-opacity: 1; stroke-width: 1px;"/><path class="xgrid crisp" transform="translate(510.09,0)" d="M0,50v470" style="stroke: rgb(238, 238, 238); stroke-opacity: 1; stroke-width: 1px;"/><path class="xgrid crisp" transform="translate(652.67,0)" d="M0,50v470" style="stroke: rgb(238, 238, 238); stroke-opacity: 1; stroke-width: 1px;"/></g><g class="y"><path class="ygrid crisp" transform="translate(0,419.29)" d="M80,0h710" style="stroke: rgb(238, 238, 238); stroke-opacity: 1; stroke-width: 1px;"/><path class="ygrid crisp" transform="translate(0,335.36)" d="M80,0h710" style="stroke: rgb(238, 238, 238); stroke-opacity: 1; stroke-width: 1px;"/><path class="ygrid crisp" transform="translate(0,251.43)" d="M80,0h710" style="stroke: rgb(238, 238, 238); stroke-opacity: 1; stroke-width: 1px;"/><path class="ygrid crisp" transform="translate(0,167.5)" d="M80,0h710" style="stroke: rgb(238, 238, 238); stroke-opacity: 1; stroke-width: 1px;"/><path class="ygrid crisp" transform="translate(0,83.57)" d="M80,0h710" style="stroke: rgb(238, 238, 238); stroke-opacity: 1; stroke-width: 1px;"/></g></g><g class="zerolinelayer"><path class="yzl zl crisp" transform="translate(0,503.21)" d="M80,0h710" style="stroke: rgb(68, 68, 68); stroke-opacity: 1; stroke-width: 1px;"/></g><path class="xlines-below"/><path class="ylines-below"/><g class="overlines-below"/><g class="xaxislayer-below"/><g class="yaxislayer-below"/><g class="overaxes-below"/><g class="plot" transform="translate(80, 50)" clip-path="url('#clip356c77xyplot')"><g class="scatterlayer mlayer"><g class="trace scatter trace1b7e37" style="stroke-miterlimit: 2; opacity: 1;"><g class="fills"/><g class="errorbars"/><g class="lines"><path class="js-line" style="vector-effect: non-scaling-stroke; fill: none; stroke: rgb(251, 147, 65); stroke-opacity: 1; stroke-width: 1.5px; opacity: 1;" d="M-14200,446.5L-14200,399.5L-11491.17,399.5L-11481.18,238.36L-11465.5,426.36L-11364.27,399.5L-11344.31,399.5L-11221.69,439.79L-11190.32,399.5L-11178.91,399.5L-8094.87,426.36L-8092.02,23.5L-8007.89,426.36L-7987.93,399.5L-7935.18,426.36L-7915.22,399.5L-7900.96,345.79L-7851.05,399.5L-7409.05,399.5L-6747.47,426.36L-6744.62,238.36L-6697.57,399.5L-6676.18,345.79L-6670.48,399.5L-5328.78,399.5L-5325.93,345.79L-5297.42,399.5L-5290.29,238.36L-5230.4,399.5L-5223.27,399.5L-4708.55,399.5L-4697.15,23.5L-4644.39,399.5L-4638.69,399.5L-4085.47,426.36L-4075.49,345.79L-4029.86,399.5L-4019.88,399.5L-3513.72,399.5L-3508.01,238.36L-3463.81,399.5L-3456.69,399.5L-2977.61,399.5L-2970.48,439.79L-2936.26,439.79L-2916.3,399.5L-2474.3,399.5L-2464.32,399.5L-2397.3,399.5L-2394.45,345.79L-2384.47,345.79L-2370.21,399.5L-2345.97,426.36L-2343.12,399.5L-2338.84,399.5L-2298.92,399.5L-2297.5,23.5L-2267.55,399.5L-2264.7,399.5L-2227.63,399.5L-2223.35,426.36L-2209.1,399.5L-2187.71,399.5L-2170.6,345.79L-2164.89,399.5L-2162.04,399.5L-2147.79,426.36L-2142.08,399.5L-2133.53,399.5L-2045.13,399.5L-2035.15,426.36L-2018.04,399.5L-2005.2,399.5L-1928.21,399.5L-1921.08,426.36L-1891.14,399.5L-1879.73,426.36L-1868.33,426.36L-1858.34,399.5L-1561.77,399.5L-1553.22,345.79L-1547.52,345.79L-1543.24,426.36L-1519,399.5L-1514.72,399.5L-1424.9,399.5L-1419.19,426.36L-1403.51,426.36L-1392.1,399.5L-1079.85,399.5L-1078.42,426.36L-1068.44,399.5L-1052.76,399.5L-1028.52,399.5L-1024.24,426.36L-1001.43,399.5L-995.72,399.5L-974.34,426.36L-971.49,399.5L-425.4,399.5L-422.55,426.36L-415.42,426.36L-409.71,399.5L-329.87,399.5L-328.44,426.36L-324.16,426.36L-321.31,399.5L-260,399.5L-254.3,426.36L-241.47,399.5L-234.34,399.5L-41.85,399.5L-36.15,426.36L-33.3,399.5L-27.6,399.5L15.18,399.5L23.73,426.36L32.29,426.36L39.42,439.79L46.55,399.5L47.97,399.5L200.54,399.5L206.24,426.36L210.52,426.36L219.07,399.5L311.75,399.5L313.18,426.36L323.16,426.36L331.71,399.5L350.25,399.5L357.38,426.36L360.23,426.36L368.78,399.5L377.34,399.5L383.04,238.36L384.47,399.5L397.3,426.36L404.43,426.36L417.26,399.5L487.12,399.5L489.98,426.36L495.68,426.36L502.81,399.5L525.62,399.5L528.47,426.36L544.16,399.5L547.01,399.5L568.4,399.5L569.82,345.79L574.1,426.36L575.53,426.36L578.38,426.36L582.65,399.5L1192.9,399.5L1195.76,426.36L1211.44,426.36L1220,399.5L1345.47,399.5L1348.32,426.36L1351.17,399.5L1362.58,399.5L1764.66,399.5L1768.93,426.36L1788.9,399.5L1794.6,399.5L2049.82,399.5L2054.1,345.79L2076.91,399.5L2082.61,399.5L2086.89,399.5L2091.17,426.36L2098.3,426.36L2104,399.5L2249.44,399.5L2253.71,426.36L2265.12,426.36L2267.97,399.5L2287.93,399.5L2300.76,426.36L2325,399.5L2337.84,399.5L2343.54,426.36L2354.95,399.5L2357.8,399.5L2594.48,399.5L2601.61,426.36L2620.15,399.5L2631.55,399.5L2748.47,399.5L2758.45,426.36L2776.99,399.5L2784.12,399.5L2799.8,426.36L2809.78,399.5L2812.63,399.5L2838.3,399.5L2841.15,426.36L2856.83,426.36L2861.11,399.5L2886.78,399.5L2893.9,426.36L2902.46,426.36L2908.16,399.5L2958.07,399.5L2976.6,426.36L2983.73,426.36L2988.01,399.5L5798.29,426.36L5804,345.79L5866.73,399.5L5871.01,399.5L10614.7,399.5L10620.41,23.5L10724.49,399.5L10730.2,399.5L10862.8,426.36L10867.07,399.5L14910,399.5"/></g><g class="points"/><g class="text"/></g><g class="trace scatter trace12257a" style="stroke-miterlimit: 2; opacity: 1;"><g class="fills"/><g class="errorbars"/><g class="lines"/><g class="points"><path class="point" transform="translate(26378.54,399.5)" style="opacity: 1; stroke-width: 0px; fill: rgb(251, 147, 65); fill-opacity: 1;" d="M3,0A3,3 0 1,1 0,-3A3,3 0 0,1 3,0Z"/></g><g class="text"/></g></g></g><g class="overplot"/><path class="xlines-above crisp" style="fill: none;" d="M0,0"/><path class="ylines-above crisp" style="fill: none;" d="M0,0"/><g class="overlines-above"/><g class="xaxislayer-above"><g class="xtick"><text text-anchor="middle" x="0" y="543" style="font-family: TOBESTRIPPEDOpen SansTOBESTRIPPED, verdana, arial, sans-serif; font-size: 12px; fill: rgb(32, 32, 32); fill-opacity: 1; white-space: pre;" transform="translate(82.35,0)">41.5k</text></g><g class="xtick"><text text-anchor="middle" x="0" y="543" style="font-family: TOBESTRIPPEDOpen SansTOBESTRIPPED, verdana, arial, sans-serif; font-size: 12px; fill: rgb(32, 32, 32); fill-opacity: 1; white-space: pre;" transform="translate(224.93,0)">41.6k</text></g><g class="xtick"><text text-anchor="middle" x="0" y="543" style="font-family: TOBESTRIPPEDOpen SansTOBESTRIPPED, verdana, arial, sans-serif; font-size: 12px; fill: rgb(32, 32, 32); fill-opacity: 1; white-space: pre;" transform="translate(367.51,0)">41.7k</text></g><g class="xtick"><text text-anchor="middle" x="0" y="543" style="font-family: TOBESTRIPPEDOpen SansTOBESTRIPPED, verdana, arial, sans-serif; font-size: 12px; fill: rgb(32, 32, 32); fill-opacity: 1; white-space: pre;" transform="translate(510.09,0)">41.8k</text></g><g class="xtick"><text text-anchor="middle" x="0" y="543" style="font-family: TOBESTRIPPEDOpen SansTOBESTRIPPED, verdana, arial, sans-serif; font-size: 12px; fill: rgb(32, 32, 32); fill-opacity: 1; white-space: pre;" transform="translate(652.67,0)">41.9k</text></g></g><g class="yaxislayer-above"><g class="ytick"><text text-anchor="end" x="69" y="4.199999999999999" style="font-family: TOBESTRIPPEDOpen SansTOBESTRIPPED, verdana, arial, sans-serif; font-size: 12px; fill: rgb(32, 32, 32); fill-opacity: 1; white-space: pre;" transform="translate(0,503.21)">0</text></g><g class="ytick"><text text-anchor="end" x="69" y="4.199999999999999" style="font-family: TOBESTRIPPEDOpen SansTOBESTRIPPED, verdana, arial, sans-serif; font-size: 12px; fill: rgb(32, 32, 32); fill-opacity: 1; white-space: pre;" transform="translate(0,419.29)">200</text></g><g class="ytick"><text text-anchor="end" x="69" y="4.199999999999999" style="font-family: TOBESTRIPPEDOpen SansTOBESTRIPPED, verdana, arial, sans-serif; font-size: 12px; fill: rgb(32, 32, 32); fill-opacity: 1; white-space: pre;" transform="translate(0,335.36)">400</text></g><g class="ytick"><text text-anchor="end" x="69" y="4.199999999999999" style="font-family: TOBESTRIPPEDOpen SansTOBESTRIPPED, verdana, arial, sans-serif; font-size: 12px; fill: rgb(32, 32, 32); fill-opacity: 1; white-space: pre;" transform="translate(0,251.43)">600</text></g><g class="ytick"><text text-anchor="end" x="69" y="4.199999999999999" style="font-family: TOBESTRIPPEDOpen SansTOBESTRIPPED, verdana, arial, sans-serif; font-size: 12px; fill: rgb(32, 32, 32); fill-opacity: 1; white-space: pre;" transform="translate(0,167.5)">800</text></g><g class="ytick"><text text-anchor="end" x="69" y="4.199999999999999" style="font-family: TOBESTRIPPEDOpen SansTOBESTRIPPED, verdana, arial, sans-serif; font-size: 12px; fill: rgb(32, 32, 32); fill-opacity: 1; white-space: pre;" transform="translate(0,83.57)">1000</text></g></g><g class="overaxes-above"/></g></g><g class="polarlayer"/><g class="ternarylayer"/><g class="geolayer"/><g class="pielayer"/><g class="sunburstlayer"/><g class="glimages"/><defs id="topdefs-356c77"><g class="clips"/></defs><g class="layer-above"><g class="imagelayer"/><g class="shapelayer"/></g><g class="infolayer"><g class="g-gtitle"/><g class="g-xtitle"/><g class="g-ytitle"/></g></svg>