<svg class="main-svg" xmlns="http://www.w3.org/2000/svg" xmlns:xlink="http://www.w3.org/1999/xlink" width="800" height="600" style="" viewBox="0 0 800 600"><rect x="0" y="0" width="800" height="600" style="fill: rgb(255, 255, 255); fill-opacity: 1;"/><defs id="defs-4413b1"><g class="clips"><clipPath id="clip4413b1xyplot" class="plotclip"><rect width="710" height="470"/></clipPath><clipPath class="axesclip" id="clip4413b1x"><rect x="80" y="0" width="710" height="600"/></clipPath><clipPath class="axesclip" id="clip4413b1y"><rect x="0" y="50" width="800" height="470"/></clipPath><clipPath class="axesclip" id="clip4413b1xy"><rect x="80" y="50" width="710" height="470"/></clipPath></g><g class="gradients"/></defs><g class="bglayer"/><g class="layer-below"><g class="imagelayer"/><g class="shapelayer"/></g><g class="cartesianlayer"><g class="subplot xy"><g class="layer-subplot"><g class="shapelayer"/><g class="imagelayer"/></g><g class="gridlayer"><g class="x"><path class="xgrid crisp" transform="translate(140.66,0)" d="M0,50v470" style="stroke: rgb(238, 238, 238); stroke-opacity: 1; stroke-width: 1px;"/><path class="xgrid crisp" transform="translate(229.12,0)" d="M0,50v470" style="stroke: rgb(238, 238, 238); stroke-opacity: 1; stroke-width: 1px;"/><path class="xgrid crisp" transform="translate(317.58000000000004,0)" d="M0,50v470" style="stroke: rgb(238, 238, 238); stroke-opacity: 1; stroke-width: 1px;"/><path class="xgrid crisp" transform="translate(406.05,0)" d="M0,50v470" style="stroke: rgb(238, 238, 238); stroke-opacity: 1; stroke-width: 1px;"/><path class="xgrid crisp" transform="translate(494.51,0)" d="M0,50v470" style="stroke: rgb(238, 238, 238); stroke-opacity: 1; stroke-width: 1px;"/><path class="xgrid crisp" transform="translate(582.97,0)" d="M0,50v470" style="stroke: rgb(238, 238, 238); stroke-opacity: 1; stroke-width: 1px;"/><path class="xgrid crisp" transform="translate(671.44,0)" d="M0,50v470" style="stroke: rgb(238, 238, 238); stroke-opacity: 1; stroke-width: 1px;"/><path class="xgrid crisp" transform="translate(759.9,0)" d="M0,50v470" style="stroke: rgb(238, 238, 238); stroke-opacity: 1; stroke-width: 1px;"/></g><g class="y"><path class="ygrid crisp" transform="translate(0,419.29)" d="M80,0h710" style="stroke: rgb(238, 238, 238); stroke-opacity: 1; stroke-width: 1px;"/><path class="ygrid crisp" transform="translate(0,335.36)" d="M80,0h710" style="stroke: rgb(238, 238, 238); stroke-opacity: 1; stroke-width: 1px;"/><path class="ygrid crisp" transform="translate(0,251.43)" d="M80,0h710" style="stroke: rgb(238, 238, 238); stroke-opacity: 1; stroke-width: 1px;"/><path class="ygrid crisp" transform="translate(0,167.5)" d="M80,0h710" style="stroke: rgb(238, 238, 238); stroke-opacity: 1; stroke-width: 1px;"/><path class="ygrid crisp" transform="translate(0,83.57)" d="M80,0h710" style="stroke: rgb(238, 238, 238); stroke-opacity: 1; stroke-width: 1px;"/></g></g><g class="zerolinelayer"><path class="yzl zl crisp" transform="translate(0,503.21)" d="M80,0h710" style="stroke: rgb(68, 68, 68); stroke-opacity: 1; stroke-width: 1px;"/></g><path class="xlines-below"/><path class="ylines-below"/><g class="overlines-below"/><g class="xaxislayer-below"/><g class="yaxislayer-below"/><g class="overaxes-below"/><g class="plot" transform="translate(80, 50)" clip-path="url('#clip4413b1xyplot')"><g class="scatterlayer mlayer"><g class="trace scatter trace125a3d" style="stroke-miterlimit: 2; opacity: 1;"><g class="fills"/><g class="errorbars"/><g class="lines"><path class="js-line" style="vector-effect: non-scaling-stroke; fill: none; stroke: rgb(251, 147, 65); stroke-opacity: 1; stroke-width: 1.5px; opacity: 1;" d="M-10438.15,439.79L-10438.07,446.5L-10437.65,23.5L-10362.09,426.36L-10216.65,399.5L-10110.11,426.36L-9611.46,399.5L-9598.92,23.5L-9156.74,446.5L-9038.06,345.79L-8998.58,399.5L-8848.9,426.36L-8810.9,399.5L-8791.9,446.5L-8770.11,238.36L-8640.92,399.5L-8615.13,23.5L-8517.42,399.5L-8471.43,345.79L-8339.23,439.79L-8299.73,426.36L-8184.12,439.79L-8161.52,23.5L-8157.91,439.79L-8078.79,399.5L-8061.74,426.36L-7954.87,345.79L-7933.81,426.36L-7906.81,238.36L-7870.58,426.36L-7837.55,238.36L-7803.48,399.5L-7797.74,446.5L-7762.57,238.36L-7731.95,345.79L-7698.39,399.5L-7662.57,446.5L-7593.46,345.79L-7564.55,345.79L-7560.21,439.79L-7525.08,345.79L-7481.44,345.79L-7447.41,426.36L-7400.31,345.79L-7353.73,345.79L-7273.73,446.5L-7266.37,439.79L-7261.45,345.79L-7186.49,426.36L-7173.53,399.5L-7102.18,446.5L-7097.97,399.5L-7097.07,345.79L-7062.05,446.5L-7024.32,345.79L-7004.87,399.5L-6938.53,238.36L-6937.36,399.5L-6909.14,399.5L-6883.33,446.5L-6838.52,345.79L-6835.37,446.5L-6766.2,238.36L-6739.88,345.79L-6712.62,238.36L-6670.81,345.79L-6653.73,446.5L-6579.74,345.79L-6572.99,345.79L-6568.75,238.36L-6532.78,439.79L-6508.15,426.36L-6504.24,399.5L-6485.29,238.36L-6445.92,426.36L-6435.86,399.5L-6429.2,426.36L-6362.02,23.5L-6356.74,399.5L-6322.33,399.5L-6319.2,23.5L-6250.18,399.5L-6245.9,345.79L-6221.61,426.36L-6193.81,238.36L-6182.91,345.79L-6173.31,345.79L-6129.38,399.5L-6114.28,345.79L-6107.21,23.5L-6042.83,399.5L-6037.91,345.79L-6037.74,345.79L-6021.63,345.79L-6014.02,238.36L-5949.46,446.5L-5943.26,345.79L-5930.77,345.79L-5923.16,399.5L-5913.72,238.36L-5872.01,345.79L-5862.6,345.79L-5818.92,23.5L-5807.57,345.79L-5801.51,399.5L-5782.53,345.79L-5753.86,426.36L-5747.5,426.36L-5746.58,439.79L-5727.37,446.5L-5714.48,23.5L-5682.6,238.36L-5681.86,426.36L-5622.04,345.79L-5611.91,345.79L-5599.09,439.79L-5569.57,238.36L-5567.95,345.79L-5564.13,23.5L-5521.02,399.5L-5509.46,345.79L-5497.66,345.79L-5493.26,439.79L-5470.92,238.36L-5441.76,345.79L-5439.08,238.36L-5433.63,399.5L-5382.45,345.79L-5378.86,23.5L-5375.88,446.5L-5324.85,345.79L-5314.04,345.79L-5268.61,446.5L-5263.45,345.79L-5253.73,23.5L-5216.25,399.5L-5197.04,238.36L-5192.98,345.79L-5134.77,345.79L-5131.03,238.36L-5114.94,23.5L-5072.72,399.5L-5067.46,345.79L-5027.09,345.79L-5003.11,426.36L-4991.32,399.5L-4973.57,426.36L-4972.4,345.79L-4950.51,439.79L-4918.34,426.36L-4914.61,399.5L-4882.84,426.36L-4864.36,399.5L-4856.9,399.5L-4799.97,399.5L-4799.1,345.79L-4780.09,426.36L-4750.81,399.5L-4744.55,345.79L-4738.69,426.36L-4711.6,238.36L-4700.15,345.79L-4688.37,345.79L-4683.68,426.36L-4649.51,238.36L-4648.45,345.79L-4629.24,426.36L-4579.98,345.79L-4566.28,345.79L-4550.12,345.79L-4548.62,238.36L-4529.97,399.5L-4504.48,345.79L-4494.22,345.79L-4482.31,238.36L-4458.89,439.79L-4455.36,345.79L-4445.54,345.79L-4431.57,345.79L-4427.79,399.5L-4382.57,238.36L-4375.89,345.79L-4368.87,345.79L-4358.42,238.36L-4356.85,446.5L-4325.42,345.79L-4321.22,345.79L-4309.12,345.79L-4284.25,426.36L-4267.1,439.79L-4262.84,238.36L-4238.97,426.36L-4237.83,426.36L-4205.49,439.79L-4191.5,238.36L-4190.64,399.5L-4187.44,23.5L-4185.93,426.36L-4146.62,399.5L-4143.08,399.5L-4131.2,439.79L-4113.62,345.79L-4102.89,399.5L-4098.9,399.5L-4087.61,399.5L-4084,345.79L-4076.36,426.36L-4041.74,345.79L-4035.67,399.5L-3993.55,345.79L-3990.07,345.79L-3947.08,399.5L-3940.42,345.79L-3892.23,399.5L-3890.82,345.79L-3888.22,446.5L-3850.21,345.79L-3847.96,399.5L-3811.7,345.79L-3804.64,345.79L-3780.85,345.79L-3776.82,399.5L-3736.98,345.79L-3735.47,345.79L-3707.12,399.5L-3697.76,345.79L-3693.37,345.79L-3691.25,238.36L-3656.4,439.79L-3654.31,345.79L-3653.46,345.79L-3618.19,345.79L-3616.68,238.36L-3601.39,345.79L-3594.93,238.36L-3590.38,23.5L-3553.28,399.5L-3552.59,345.79L-3529.85,399.5L-3527.2,345.79L-3509.1,446.5L-3497.74,426.36L-3496.02,238.36L-3458.96,426.36L-3458.09,426.36L-3440.96,23.5L-3422.9,399.5L-3420.27,399.5L-3409.49,426.36L-3384.05,345.79L-3382.92,399.5L-3374.25,426.36L-3354.67,23.5L-3346.42,345.79L-3344.89,399.5L-3310.73,345.79L-3309.41,399.5L-3308.25,399.5L-3273.59,345.79L-3272.87,399.5L-3240.59,345.79L-3239.64,399.5L-3237.63,399.5L-3237.38,439.79L-3235.22,345.79L-3204.19,345.79L-3203.04,399.5L-3168.33,345.79L-3167.55,399.5L-3151.68,23.5L-3133.74,345.79L-3132.38,345.79L-3115.89,345.79L-3115.03,399.5L-3085.82,345.79L-3079.44,399.5L-3046.55,345.79L-3044.59,399.5L-3012.21,345.79L-3009.39,345.79L-3004.86,426.36L-2977.47,345.79L-2976.86,345.79L-2930.94,345.79L-2928.24,399.5L-2897.31,345.79L-2889.05,345.79L-2848.61,345.79L-2824.32,426.36L-2818.23,439.79L-2812.66,426.36L-2812.1,345.79L-2781.99,426.36L-2781.47,399.5L-2780.31,426.36L-2779.09,439.79L-2749.67,399.5L-2748.64,399.5L-2738.13,426.36L-2724.08,345.79L-2719.4,399.5L-2718.58,345.79L-2704.49,426.36L-2700.39,238.36L-2688.4,399.5L-2687.75,345.79L-2669.33,439.79L-2658.85,399.5L-2656.84,345.79L-2635.15,426.36L-2628.3,399.5L-2627.65,345.79L-2599.07,399.5L-2598.68,345.79L-2572.36,399.5L-2571.01,345.79L-2570.74,345.79L-2543.44,399.5L-2542.31,345.79L-2514.54,399.5L-2512.31,345.79L-2488.28,399.5L-2488.16,345.79L-2485.08,345.79L-2460.01,399.5L-2459.47,345.79L-2458.93,23.5L-2434.24,399.5L-2432.63,345.79L-2430.99,399.5L-2403.57,345.79L-2403.43,345.79L-2379.63,399.5L-2378.45,345.79L-2376.6,345.79L-2343.1,345.79L-2342.8,399.5L-2317.5,345.79L-2317.05,345.79L-2286.08,345.79L-2284.83,399.5L-2261.86,345.79L-2256.51,345.79L-2211.18,345.79L-2210.37,399.5L-2186.19,345.79L-2185.36,345.79L-2164.32,345.79L-2163.66,238.36L-2139.46,345.79L-2139.1,345.79L-2127.22,345.79L-2126.04,238.36L-2101.57,426.36L-2101.47,426.36L-2079.86,439.79L-2078.7,426.36L-2077.87,399.5L-2059.04,439.79L-2055.16,426.36L-2054.96,426.36L-2050.51,345.79L-2041.74,439.79L-2034.48,399.5L-2034.18,399.5L-2012.81,439.79L-2012.3,426.36L-2012.13,399.5L-2007.3,439.79L-1998.8,345.79L-1990.74,399.5L-1990.49,345.79L-1984.46,439.79L-1969.15,399.5L-1968.52,399.5L-1955.88,426.36L-1948.24,345.79L-1947.32,399.5L-1947.11,399.5L-1936.72,426.36L-1928.08,345.79L-1926.04,399.5L-1925.42,399.5L-1903.5,345.79L-1903.19,399.5L-1887.07,238.36L-1882.56,345.79L-1882.13,345.79L-1861.21,399.5L-1860.98,345.79L-1841.79,399.5L-1841.22,345.79L-1840.54,345.79L-1830.83,238.36L-1820.37,399.5L-1820.02,399.5L-1800.18,345.79L-1799.81,345.79L-1784.86,238.36L-1781.57,399.5L-1780.57,345.79L-1780.18,345.79L-1772.6,238.36L-1769.65,399.5L-1768.25,345.79L-1768.13,23.5L-1750.59,399.5L-1748.34,238.36L-1747.82,238.36L-1727.89,345.79L-1726.93,345.79L-1715.83,345.79L-1714.88,238.36L-1711.27,399.5L-1696.46,345.79L-1695.52,345.79L-1691.07,345.79L-1690.1,238.36L-1668.55,399.5L-1667.72,345.79L-1659.62,345.79L-1657.33,238.36L-1651.7,399.5L-1637.98,345.79L-1636.2,345.79L-1622.34,345.79L-1621.9,238.36L-1616.24,23.5L-1603.53,345.79L-1602.63,345.79L-1585.68,238.36L-1584.77,345.79L-1568.81,238.36L-1566.44,345.79L-1563.29,238.36L-1561.74,426.36L-1549.37,345.79L-1548.73,345.79L-1542.78,345.79L-1542.62,238.36L-1525.75,345.79L-1523.17,238.36L-1505.33,399.5L-1504.83,345.79L-1503.54,399.5L-1487.37,238.36L-1486.36,345.79L-1485.32,345.79L-1468.96,238.36L-1468.13,345.79L-1463.06,345.79L-1462.9,238.36L-1457.66,238.36L-1456.78,345.79L-1445.31,238.36L-1441.22,345.79L-1440.71,345.79L-1439.35,238.36L-1438.01,399.5L-1426.24,345.79L-1425.73,238.36L-1389.75,446.5L-1389,426.36L-1388.94,399.5L-1374.38,426.36L-1373.95,399.5L-1373.41,399.5L-1369.12,439.79L-1364.23,345.79L-1358.6,426.36L-1358.2,399.5L-1345.01,426.36L-1343.51,399.5L-1343.22,399.5L-1341.1,446.5L-1339.2,345.79L-1328.46,399.5L-1328.31,399.5L-1323.71,345.79L-1313.45,426.36L-1313.37,399.5L-1303.32,426.36L-1299.02,399.5L-1298.77,399.5L-1281.52,399.5L-1281.08,426.36L-1267.34,345.79L-1267.07,399.5L-1266.88,399.5L-1264.05,399.5L-1263.86,426.36L-1251.73,345.79L-1250.1,399.5L-1249.07,399.5L-1248.03,426.36L-1234.82,345.79L-1234.54,399.5L-1221.46,345.79L-1221.16,399.5L-1220.85,399.5L-1206.47,345.79L-1205.43,399.5L-1191.92,345.79L-1191.28,345.79L-1176.87,399.5L-1176.64,399.5L-1174.04,238.36L-1164.29,399.5L-1163.72,399.5L-1151.43,345.79L-1150.66,345.79L-1144.81,345.79L-1144.58,399.5L-1132.05,345.79L-1131.58,399.5L-1119.77,345.79L-1119.3,399.5L-1118.59,399.5L-1106.07,345.79L-1105.34,399.5L-1104.52,238.36L-1093.02,345.79L-1092.64,345.79L-1080.77,399.5L-1080.38,345.79L-1071.77,399.5L-1068.43,345.79L-1068.29,345.79L-1064.21,345.79L-1063.56,399.5L-1051.8,345.79L-1051.54,345.79L-1038.95,399.5L-1038.29,345.79L-1034.02,345.79L-1033.61,399.5L-1021.48,238.36L-1021.08,345.79L-1019.53,345.79L-1012.68,345.79L-1012.41,399.5L-1000.52,345.79L-1000.24,345.79L-985.19,345.79L-984.05,399.5L-973.25,345.79L-972.53,345.79L-950.96,345.79L-950.81,399.5L-938.2,238.36L-937.89,238.36L-932.66,399.5L-927.19,345.79L-926.42,345.79L-924.32,399.5L-916.62,345.79L-915.42,345.79L-908.49,345.79L-907.72,238.36L-906.52,399.5L-896.91,345.79L-896.62,345.79L-884.34,345.79L-884.18,238.36L-878.23,399.5L-873.5,345.79L-872.86,345.79L-869.19,238.36L-863.28,345.79L-862,345.79L-851.83,345.79L-851.52,238.36L-841.04,345.79L-840.87,345.79L-834.2,345.79L-833.22,238.36L-822.35,345.79L-821.71,345.79L-806.5,345.79L-806.18,238.36L-800.98,23.5L-796.01,345.79L-795.36,345.79L-785.87,345.79L-785.05,238.36L-775.5,345.79L-774.84,345.79L-766.57,345.79L-765.41,238.36L-756.08,345.79L-755.56,345.79L-748.52,345.79L-747.84,238.36L-738.7,345.79L-737.5,345.79L-736.12,238.36L-729.38,345.79L-728.5,345.79L-727.29,238.36L-722.51,345.79L-699.7,426.36L-697.33,426.36L-696.98,399.5L-688.82,439.79L-688.69,439.79L-679.89,426.36L-679.7,426.36L-675.06,426.36L-674.49,399.5L-666.55,426.36L-666.36,426.36L-659.66,399.5L-658.66,426.36L-658.52,426.36L-650.82,399.5L-650.76,426.36L-649.57,345.79L-644.23,399.5L-644.09,426.36L-638.1,345.79L-636.67,399.5L-636.52,426.36L-629.11,399.5L-628.87,426.36L-621.32,399.5L-621.24,399.5L-619.11,399.5L-618.64,426.36L-611.3,345.79L-610.66,399.5L-610.5,399.5L-607.15,426.36L-603.39,399.5L-603.31,399.5L-600.76,345.79L-597.43,426.36L-597.19,399.5L-596.95,345.79L-592.64,426.36L-590.13,345.79L-589.96,345.79L-585.04,426.36L-583.01,399.5L-582.83,399.5L-580.86,399.5L-580.7,345.79L-573.6,399.5L-573.06,399.5L-572.49,345.79L-566.77,426.36L-566.58,399.5L-565.94,399.5L-563.33,345.79L-561.4,426.36L-559.42,426.36L-559.25,426.36L-555.21,439.79L-551.9,345.79L-551.81,345.79L-546.07,399.5L-545.49,345.79L-545.21,345.79L-539.98,426.36L-538.38,399.5L-538.29,345.79L-532.63,399.5L-531.97,345.79L-531.88,345.79L-525.99,426.36L-524.87,399.5L-524.58,345.79L-519.34,399.5L-518.38,345.79L-517.98,345.79L-512.02,399.5L-511.62,345.79L-504.8,399.5L-504.49,345.79L-498.28,426.36L-497.86,345.79L-493.67,399.5L-491.92,345.79L-491.82,345.79L-489.05,426.36L-485.94,345.79L-485.72,345.79L-484.53,345.79L-484.32,399.5L-479.46,23.5L-479.25,399.5L-473.34,345.79L-473,426.36L-467.92,345.79L-467.27,399.5L-466.29,345.79L-463.33,399.5L-460.76,345.79L-460.65,345.79L-459.5,345.79L-458.48,399.5L-456.59,426.36L-453.18,345.79L-452.73,345.79L-449.21,345.79L-449.1,399.5L-442.39,345.79L-441.72,345.79L-438.84,345.79L-438.61,399.5L-434.12,345.79L-433.41,399.5L-433.16,399.5L-431.04,399.5L-430.21,345.79L-423.85,345.79L-423.13,399.5L-417.45,345.79L-417.33,345.79L-413.57,399.5L-412.24,345.79L-412.12,345.79L-409.78,399.5L-407.15,345.79L-407.03,345.79L-400.47,345.79L-400.08,399.5L-394.94,345.79L-394.7,345.79L-392.74,345.79L-392.36,399.5L-391.11,399.5L-390.74,345.79L-381.56,345.79L-380.67,399.5L-374.99,345.79L-374.87,345.79L-371.13,399.5L-370.48,345.79L-369.84,345.79L-368.19,399.5L-365.24,345.79L-365.11,345.79L-363.97,345.79L-363.59,399.5L-358.59,345.79L-358.46,345.79L-350.64,345.79L-350.51,399.5L-345.63,345.79L-345.08,345.79L-331.78,345.79L-331.51,399.5L-326.71,345.79L-326.58,345.79L-325.5,345.79L-325.22,399.5L-320.28,345.79L-320.01,345.79L-318.63,399.5L-316.11,345.79L-314.98,345.79L-309.96,345.79L-309.82,399.5L-305.44,345.79L-305.02,345.79L-302.07,345.79L-301.53,399.5L-296.81,345.79L-296.67,345.79L-294.97,399.5L-292.91,345.79L-292.2,345.79L-288.31,345.79L-288.18,238.36L-287.11,238.36L-286.57,345.79L-274.99,345.79L-274.69,399.5L-273.69,399.5L-273.27,345.79L-270.27,345.79L-270.11,399.5L-266.39,345.79L-265.97,345.79L-249.76,345.79L-249.32,399.5L-245,345.79L-244.54,399.5L-241.34,345.79L-240.76,345.79L-217.75,345.79L-217.6,238.36L-216.58,238.36L-215.69,345.79L-200.08,345.79L-199.78,399.5L-196.55,345.79L-196.11,345.79L-153.52,345.79L-153.22,238.36L-151.65,238.36L-151.49,345.79L-143.76,345.79L-143.61,238.36L-141.42,238.36L-141.27,345.79L-136.32,345.79L-136.02,238.36L-135.23,238.36L-134.58,345.79L-121.61,345.79L-121.29,238.36L-120.82,238.36L-120.66,345.79L-117.38,345.79L-117.22,238.36L-116.73,238.36L-116.58,345.79L-111.05,345.79L-110.89,238.36L-109.57,345.79L-109.24,238.36L-108.91,238.36L-107.6,345.79L-107.12,345.79L-106,345.79L-105.51,399.5L-103.68,345.79L-103.36,345.79L-101.69,345.79L-101.53,238.36L-99.89,345.79L-99.55,345.79L-88.65,345.79L-88.31,238.36L-86.51,345.79L-86.35,345.79L-84.2,238.36L-83.7,238.36L-83.22,238.36L-82.58,345.79L-81.57,238.36L-81.25,345.79L-80.92,345.79L-78.36,345.79L-77.86,238.36L-76.22,238.36L-76.05,345.79L-68.42,345.79L-68.26,238.36L-67.44,238.36L-67.28,345.79L-61.33,345.79L-60.82,238.36L-60,238.36L-59.48,345.79L-57.13,345.79L-56.95,238.36L-55.06,345.79L-54.88,345.79L-52.45,345.79L-51.93,238.36L-50.09,238.36L-49.22,345.79L-47.68,345.79L-47.52,238.36L-47.19,238.36L-46.86,345.79L-44.09,345.79L-43.93,238.36L-42.53,238.36L-41.82,345.79L-38.35,345.79L-38,238.36L-36.67,345.79L-36.5,345.79L-33.53,345.79L-33.19,238.36L-31.7,238.36L-31.53,345.79L-28.25,345.79L-27.4,238.36L-26.73,238.36L-26.55,345.79L-22.23,345.79L-21.72,238.36L-20.35,238.36L4.76,426.36L5.21,426.36L5.26,399.5L5.48,399.5L5.52,426.36L6.88,426.36L6.93,399.5L7.13,399.5L7.19,426.36L8.36,426.36L8.41,399.5L8.8,399.5L8.85,426.36L11.69,426.36L11.85,439.79L13.28,439.79L13.4,426.36L16.7,426.36L16.88,439.79L17.3,439.79L17.36,426.36L24.99,426.36L25.17,439.79L25.4,439.79L25.46,426.36L26.11,426.36L26.43,439.79L26.85,439.79L26.91,426.36L27.8,426.36L27.86,399.5L28.35,399.5L28.41,426.36L29.23,426.36L29.3,399.5L29.79,399.5L29.92,426.36L31.61,426.36L31.67,399.5L32.2,399.5L32.32,426.36L33.44,426.36L33.51,399.5L34.36,399.5L34.55,426.36L35.6,426.36L35.72,399.5L36.47,426.36L36.54,426.36L39.1,426.36L39.22,399.5L39.54,399.5L39.61,426.36L40.82,426.36L40.95,399.5L41.75,426.36L41.81,426.36L42.33,426.36L42.39,399.5L43.29,426.36L43.43,399.5L43.81,399.5L43.94,426.36L44.29,426.36L44.42,399.5L44.75,426.36L45.12,399.5L45.19,399.5L45.38,399.5L45.51,426.36L47.68,426.36L47.74,399.5L48.96,399.5L49.11,426.36L50.42,426.36L50.49,399.5L51.39,399.5L51.53,426.36L52.21,426.36L52.28,399.5L52.6,399.5L52.74,426.36L53.07,426.36L53.2,399.5L54.64,399.5L54.72,426.36L55.56,426.36L55.62,345.79L56.38,399.5L56.45,399.5L57.26,426.36L57.58,426.36L58.45,399.5L58.59,399.5L59.01,399.5L59.09,426.36L60.08,426.36L60.15,399.5L61,426.36L61.09,426.36L61.95,399.5L62.25,426.36L63.99,426.36L64.07,399.5L64.45,426.36L64.77,399.5L64.85,399.5L66.82,399.5L66.89,426.36L67.43,426.36L67.51,399.5L68.7,399.5L68.85,426.36L69.58,426.36L69.73,399.5L70.32,399.5L70.4,426.36L71.4,426.36L71.47,399.5L71.75,399.5L71.9,426.36L72.41,426.36L72.49,345.79L72.75,345.79L72.82,399.5L74.07,399.5L74.15,426.36L74.62,426.36L74.85,399.5L75.54,399.5L75.62,426.36L76.15,426.36L76.22,399.5L77.27,399.5L77.35,426.36L77.67,426.36L77.89,399.5L78.77,399.5L78.85,426.36L79.83,426.36L80.06,399.5L85.1,399.5L85.34,426.36L85.83,426.36L85.9,399.5L86.67,399.5L86.82,426.36L87.45,426.36L87.68,399.5L88.16,399.5L88.23,345.79L88.45,345.79L88.6,399.5L88.75,399.5L88.83,426.36L89.22,426.36L89.45,399.5L91.14,399.5L91.3,345.79L91.52,345.79L91.6,426.36L91.99,426.36L92.07,399.5L92.3,399.5L92.76,345.79L93.05,345.79L93.2,426.36L93.67,426.36L93.76,399.5L95.56,399.5L95.71,345.79L96.23,345.79L96.47,426.36L96.71,426.36L96.79,399.5L97.52,399.5L97.68,345.79L98.55,426.36L98.63,426.36L98.87,426.36L98.95,399.5L99.11,345.79L99.67,399.5L99.84,399.5L101.7,399.5L102.03,426.36L102.27,426.36L102.43,399.5L103.32,399.5L103.48,426.36L103.89,426.36L103.97,399.5L104.65,399.5L104.73,345.79L105.07,345.79L105.15,399.5L106.64,399.5L106.96,345.79L107.44,345.79L107.61,399.5L108.1,399.5L108.27,426.36L109.02,426.36L109.19,345.79L109.97,345.79L110.05,399.5L111.24,399.5L111.32,345.79L111.89,345.79L111.97,399.5L113.06,399.5L113.14,345.79L113.64,345.79L113.72,399.5L115.51,399.5L115.67,426.36L116.11,426.36L116.36,399.5L116.89,399.5L117.07,345.79L117.67,345.79L117.85,399.5L118.61,399.5L118.94,345.79L119.27,345.79L119.44,399.5L120.43,426.36L120.52,426.36L121.02,345.79L121.36,399.5L121.44,399.5L122.22,399.5L122.31,426.36L122.64,426.36L122.81,399.5L123.57,399.5L123.65,345.79L124.34,345.79L124.43,399.5L125.39,399.5L125.56,345.79L125.73,345.79L126.06,399.5L126.48,345.79L126.75,426.36L126.84,426.36L127.66,399.5L127.85,399.5L128.2,399.5L128.46,345.79L128.79,345.79L128.88,399.5L129.51,399.5L129.59,345.79L130.2,345.79L130.38,399.5L130.93,399.5L131.02,345.79L131.72,345.79L131.89,399.5L132.25,345.79L132.6,399.5L132.69,399.5L133.83,399.5L133.92,345.79L134.85,399.5L134.94,399.5L135.93,426.36L136.02,399.5L136.64,399.5L136.73,345.79L136.89,345.79L136.98,426.36L137.16,426.36L137.26,345.79L138.23,345.79L138.33,399.5L139.42,399.5L139.6,345.79L140.54,345.79L140.72,399.5L142.2,399.5L142.29,345.79L142.72,345.79L142.9,399.5L144.18,399.5L144.27,345.79L144.91,345.79L145,399.5L146.44,399.5L146.63,345.79L147.35,345.79L147.54,399.5L149.58,399.5L149.67,345.79L150.34,345.79L150.44,399.5L152.96,399.5L153.05,345.79L154.07,345.79L154.16,399.5L154.84,399.5L154.94,426.36L155.12,426.36L155.22,399.5L155.4,399.5L155.58,345.79L156.4,345.79L156.49,399.5L157.26,399.5L157.45,345.79L158.91,345.79L159,399.5L159.2,399.5L159.49,345.79L159.88,345.79L159.97,399.5L161.11,399.5L161.29,345.79L161.94,345.79L162.13,399.5L162.88,345.79L162.98,399.5L164.25,399.5L164.34,426.36L164.91,399.5L165.29,426.36L165.67,345.79L166.07,399.5L166.26,399.5L170.3,399.5L170.39,345.79L170.94,345.79L171.04,399.5L172.1,399.5L172.19,345.79L172.94,345.79L173.14,399.5L173.94,399.5L174.35,345.79L175.02,345.79L175.21,399.5L175.81,426.36L176.2,426.36L176.99,345.79L177.18,399.5L178.16,399.5L178.37,345.79L180.16,345.79L180.36,399.5L181.25,399.5L181.44,345.79L182.31,345.79L182.4,399.5L182.6,399.5L182.91,345.79L183.52,399.5L183.83,345.79L184.23,345.79L184.43,399.5L185.02,399.5L185.12,345.79L188.99,345.79L189.09,399.5L189.84,399.5L189.93,345.79L190.73,345.79L190.83,399.5L191.24,426.36L191.34,345.79L192.43,345.79L192.63,399.5L193.15,399.5L193.35,345.79L195.68,345.79L195.98,399.5L196.72,399.5L196.82,345.79L197.53,345.79L197.63,399.5L199.07,399.5L199.48,345.79L200.43,345.79L200.53,399.5L201.35,399.5L201.57,345.79L203,345.79L203.1,399.5L204.17,399.5L204.39,345.79L206.02,345.79L206.23,399.5L208.23,399.5L208.44,345.79L208.64,345.79L208.75,399.5L210.15,399.5L210.37,345.79L211.83,345.79L212.04,399.5L212.46,399.5L212.56,345.79L213.59,345.79L213.69,399.5L214.79,399.5L215.01,345.79L215.84,345.79L215.95,399.5L216.27,426.36L216.38,399.5L216.69,345.79L217.55,345.79L217.66,399.5L217.97,399.5L218.08,345.79L219.03,345.79L219.14,399.5L220.26,399.5L220.37,345.79L222.16,345.79L222.27,399.5L223.11,399.5L223.53,345.79L225.04,345.79L225.15,399.5L225.67,399.5L225.78,345.79L227.07,345.79L227.38,399.5L227.7,399.5L227.8,345.79L229.22,345.79L229.33,399.5L231.93,399.5L232.14,345.79L233.32,345.79L233.55,399.5L234.35,345.79L234.46,345.79L235.55,345.79L235.66,399.5L235.98,399.5L236.09,345.79L238.05,345.79L238.16,399.5L239.13,345.79L239.35,399.5L240.36,399.5L240.48,345.79L241.55,345.79L241.87,399.5L243.21,399.5L243.31,345.79L244.42,345.79L244.54,426.36L244.87,426.36L244.98,399.5L245.85,345.79L245.97,345.79L248.11,345.79L248.33,399.5L249.01,399.5L249.12,345.79L250.57,345.79L250.68,399.5L251.37,399.5L251.48,345.79L256.21,345.79L256.55,399.5L257.25,399.5L257.37,345.79L260.94,345.79L261.05,399.5L261.88,399.5L261.99,345.79L264.75,345.79L264.87,399.5L266.89,399.5L267,345.79L267.23,345.79L267.34,399.5L269.32,399.5L269.55,345.79L271.49,345.79L271.72,399.5L272.07,399.5L272.18,345.79L273.58,345.79L273.7,238.36L273.92,238.36L274.03,345.79L274.74,399.5L274.85,345.79L279.31,345.79L279.43,399.5L280.01,399.5L280.12,345.79L283.31,345.79L283.43,399.5L284.26,399.5L284.49,345.79L285.66,345.79L285.9,399.5L286.97,399.5L287.22,345.79L288.88,345.79L289,399.5L289.97,399.5L290.09,345.79L291.77,345.79L291.89,399.5L292.74,399.5L292.86,345.79L294.55,345.79L294.66,399.5L295.02,399.5L295.27,345.79L300.56,345.79L300.68,238.36L301.4,399.5L301.52,345.79L301.64,345.79L303.7,345.79L303.82,399.5L304.67,399.5L304.79,345.79L311.71,345.79L311.85,399.5L313.84,399.5L313.97,345.79L318.85,345.79L318.98,399.5L319.48,399.5L319.6,345.79L327.41,345.79L327.53,399.5L328.4,399.5L328.53,345.79L330.27,345.79L330.54,399.5L331.54,345.79L331.67,345.79L340.16,345.79L340.29,399.5L341.08,399.5L341.21,345.79L342.98,345.79L343.24,399.5L344.02,399.5L344.14,345.79L351.69,345.79L351.82,399.5L352.72,399.5L352.98,345.79L373.07,345.79L373.21,399.5L374.28,399.5L374.41,345.79L387.69,345.79L387.82,399.5L388.78,399.5L388.91,345.79L394.92,345.79L395.06,399.5L395.91,399.5L396.05,345.79L397.02,399.5L397.15,345.79L399.86,345.79L400.13,399.5L400.56,399.5L400.71,238.36L401.23,238.36L401.36,345.79L403.67,345.79L403.8,399.5L404.21,399.5L404.34,345.79L405.47,345.79L405.75,238.36L406.04,238.36L406.18,345.79L417.68,345.79L417.82,399.5L418.77,345.79L418.91,345.79L436.7,345.79L436.84,238.36L437.11,238.36L437.25,345.79L446.13,345.79L446.27,399.5L446.56,399.5L446.84,345.79L465.41,345.79L465.56,399.5L465.85,399.5L466,345.79L484.09,345.79L484.25,238.36L484.55,238.36L484.84,345.79L499.23,345.79L499.38,238.36L499.67,238.36L499.97,345.79L505.58,345.79L505.73,238.36L506.17,238.36L506.32,345.79L517.75,345.79L517.9,238.36L518.94,238.36L519.08,345.79L519.99,238.36L520.14,238.36L520.3,238.36L520.61,345.79L522,345.79L522.16,238.36L522.97,345.79L523.14,345.79L528.85,345.79L529,238.36L529.76,345.79L529.91,345.79L530.07,345.79L530.37,238.36L531.13,238.36L531.28,345.79L547.53,345.79L547.69,399.5L548.17,399.5L548.33,345.79L553.63,345.79L553.79,238.36L555.33,238.36L555.49,399.5L555.94,399.5L556.1,345.79L558.47,345.79L558.79,399.5L558.94,399.5L559.1,345.79L562.59,345.79L562.76,238.36L566.18,238.36L566.34,345.79L571.56,345.79L571.73,238.36L574.59,238.36L574.92,345.79L578.88,345.79L579.05,238.36L579.7,238.36L579.87,345.79L591.67,345.79L591.83,238.36L592.63,345.79L592.79,345.79L600.12,345.79L600.28,238.36L601.12,345.79L601.3,345.79L607.91,345.79L608.07,238.36L608.91,238.36L609.07,345.79L609.57,238.36L609.73,345.79L609.89,345.79L611.41,345.79L611.59,238.36L612.26,238.36L612.42,345.79L625.4,345.79L625.58,238.36L629.77,238.36L629.93,345.79L630.78,345.79L630.96,238.36L631.3,238.36L631.62,345.79L635.51,345.79L635.68,238.36L636.34,238.36L636.51,345.79L636.68,345.79L636.86,238.36L638.04,238.36L638.21,345.79L638.55,345.79L638.72,238.36L640.75,238.36L640.92,345.79L644.66,345.79L644.84,238.36L645.51,238.36L645.68,345.79L657.25,345.79L657.42,238.36L660.66,238.36L660.83,345.79L662.19,345.79L662.36,238.36L663.88,238.36L664.05,345.79L665.81,345.79L666.15,238.36L668.51,238.36L668.67,345.79L669.2,345.79L669.37,238.36L669.9,238.36L670.08,345.79L671.28,345.79L671.45,238.36L671.78,238.36L671.95,345.79L675.07,345.79L675.23,238.36L676.06,238.36L676.24,345.79L677.11,345.79L677.29,238.36L678.46,238.36L678.63,345.79L679.49,238.36L679.67,238.36L682.23,238.36L682.4,345.79L683.6,345.79"/></g><g class="points"/><g class="text"/></g><g class="trace scatter trace60b7a5" style="stroke-miterlimit: 2; opacity: 1;"><g class="fills"/><g class="errorbars"/><g class="lines"/><g class="points"><path class="point" transform="translate(683.6,345.79)" style="opacity: 1; stroke-width: 0px; fill: rgb(251, 147, 65); fill-opacity: 1;" d="M3,0A3,3 0 1,1 0,-3A3,3 0 0,1 3,0Z"/></g><g class="text"/></g></g></g><g class="overplot"/><path class="xlines-above crisp" style="fill: none;" d="M0,0"/><path class="ylines-above crisp" style="fill: none;" d="M0,0"/><g class="overlines-above"/><g class="xaxislayer-above"><g class="xtick"><text text-anchor="middle" x="0" y="543" style="font-family: TOBESTRIPPEDOpen SansTOBESTRIPPED, verdana, arial, sans-serif; font-size: 12px; fill: rgb(32, 32, 32); fill-opacity: 1; white-space: pre;" transform="translate(140.66,0)">01:20:00</text></g><g class="xtick"><text text-anchor="middle" x="0" y="543" style="font-family: TOBESTRIPPEDOpen SansTOBESTRIPPED, verdana, arial, sans-serif; font-size: 12px; fill: rgb(32, 32, 32); fill-opacity: 1; white-space: pre;" transform="translate(229.12,0)">01:25:00</text></g><g class="xtick"><text text-anchor="middle" x="0" y="543" style="font-family: TOBESTRIPPEDOpen SansTOBESTRIPPED, verdana, arial, sans-serif; font-size: 12px; fill: rgb(32, 32, 32); fill-opacity: 1; white-space: pre;" transform="translate(317.58000000000004,0)">01:30:00</text></g><g class="xtick"><text text-anchor="middle" x="0" y="543" style="font-family: TOBESTRIPPEDOpen SansTOBESTRIPPED, verdana, arial, sans-serif; font-size: 12px; fill: rgb(32, 32, 32); fill-opacity: 1; white-space: pre;" transform="translate(406.05,0)">01:35:00</text></g><g class="xtick"><text text-anchor="middle" x="0" y="543" style="font-family: TOBESTRIPPEDOpen SansTOBESTRIPPED, verdana, arial, sans-serif; font-size: 12px; fill: rgb(32, 32, 32); fill-opacity: 1; white-space: pre;" transform="translate(494.51,0)">01:40:00</text></g><g class="xtick"><text text-anchor="middle" x="0" y="543" style="font-family: TOBESTRIPPEDOpen SansTOBESTRIPPED, verdana, arial, sans-serif; font-size: 12px; fill: rgb(32, 32, 32); fill-opacity: 1; white-space: pre;" transform="translate(582.97,0)">01:45:00</text></g><g class="xtick"><text text-anchor="middle" x="0" y="543" style="font-family: TOBESTRIPPEDOpen SansTOBESTRIPPED, verdana, arial, sans-serif; font-size: 12px; fill: rgb(32, 32, 32); fill-opacity: 1; white-space: pre;" transform="translate(671.44,0)">01:50:00</text></g><g class="xtick"><text text-anchor="middle" x="0" y="543" style="font-family: TOBESTRIPPEDOpen SansTOBESTRIPPED, verdana, arial, sans-serif; font-size: 12px; fill: rgb(32, 32, 32); fill-opacity: 1; white-space: pre;" transform="translate(759.9,0)">01:55:00</text></g></g><g class="yaxislayer-above"><g class="ytick"><text text-anchor="end" x="69" y="4.199999999999999" style="font-family: TOBESTRIPPEDOpen SansTOBESTRIPPED, verdana, arial, sans-serif; font-size: 12px; fill: rgb(32, 32, 32); fill-opacity: 1; white-space: pre;" transform="translate(0,503.21)">0</text></g><g class="ytick"><text text-anchor="end" x="69" y="4.199999999999999" style="font-family: TOBESTRIPPEDOpen SansTOBESTRIPPED, verdana, arial, sans-serif; font-size: 12px; fill: rgb(32, 32, 32); fill-opacity: 1; white-space: pre;" transform="translate(0,419.29)">200</text></g><g class="ytick"><text text-anchor="end" x="69" y="4.199999999999999" style="font-family: TOBESTRIPPEDOpen SansTOBESTRIPPED, verdana, arial, sans-serif; font-size: 12px; fill: rgb(32, 32, 32); fill-opacity: 1; white-space: pre;" transform="translate(0,335.36)">400</text></g><g class="ytick"><text text-anchor="end" x="69" y="4.199999999999999" style="font-family: TOBESTRIPPEDOpen SansTOBESTRIPPED, verdana, arial, sans-serif; font-size: 12px; fill: rgb(32, 32, 32); fill-opacity: 1; white-space: pre;" transform="translate(0,251.43)">600</text></g><g class="ytick"><text text-anchor="end" x="69" y="4.199999999999999" style="font-family: TOBESTRIPPEDOpen SansTOBESTRIPPED, verdana, arial, sans-serif; font-size: 12px; fill: rgb(32, 32, 32); fill-opacity: 1; white-space: pre;" transform="translate(0,167.5)">800</text></g><g class="ytick"><text text-anchor="end" x="69" y="4.199999999999999" style="font-family: TOBESTRIPPEDOpen SansTOBESTRIPPED, verdana, arial, sans-serif; font-size: 12px; fill: rgb(32, 32, 32); fill-opacity: 1; white-space: pre;" transform="translate(0,83.57)">1000</text></g></g><g class="overaxes-above"/></g></g><g class="polarlayer"/><g class="ternarylayer"/><g class="geolayer"/><g class="pielayer"/><g class="sunburstlayer"/><g class="glimages"/><defs id="topdefs-4413b1"><g class="clips"/></defs><g class="layer-above"><g class="imagelayer"/><g class="shapelayer"/></g><g class="infolayer"><g class="g-gtitle"/><g class="g-xtitle"/><g class="g-ytitle"/></g></svg>