<svg class="main-svg" xmlns="http://www.w3.org/2000/svg" xmlns:xlink="http://www.w3.org/1999/xlink" width="800" height="600" style="" viewBox="0 0 800 600"><rect x="0" y="0" width="800" height="600" style="fill: rgb(255, 255, 255); fill-opacity: 1;"/><defs id="defs-3de42a"><g class="clips"><clipPath id="clip3de42axyplot" class="plotclip"><rect width="710" height="470"/></clipPath><clipPath class="axesclip" id="clip3de42ax"><rect x="80" y="0" width="710" height="600"/></clipPath><clipPath class="axesclip" id="clip3de42ay"><rect x="0" y="50" width="800" height="470"/></clipPath><clipPath class="axesclip" id="clip3de42axy"><rect x="80" y="50" width="710" height="470"/></clipPath></g><g class="gradients"/></defs><g class="bglayer"/><g class="layer-below"><g class="imagelayer"/><g class="shapelayer"/></g><g class="cartesianlayer"><g class="subplot xy"><g class="layer-subplot"><g class="shapelayer"/><g class="imagelayer"/></g><g class="gridlayer"><g class="x"><path class="xgrid crisp" transform="translate(130.3,0)" d="M0,50v470" style="stroke: rgb(238, 238, 238); stroke-opacity: 1; stroke-width: 1px;"/><path class="xgrid crisp" transform="translate(237.26,0)" d="M0,50v470" style="stroke: rgb(238, 238, 238); stroke-opacity: 1; stroke-width: 1px;"/><path class="xgrid crisp" transform="translate(344.23,0)" d="M0,50v470" style="stroke: rgb(238, 238, 238); stroke-opacity: 1; stroke-width: 1px;"/><path class="xgrid crisp" transform="translate(451.2,0)" d="M0,50v470" style="stroke: rgb(238, 238, 238); stroke-opacity: 1; stroke-width: 1px;"/><path class="xgrid crisp" transform="translate(558.1600000000001,0)" d="M0,50v470" style="stroke: rgb(238, 238, 238); stroke-opacity: 1; stroke-width: 1px;"/><path class="xgrid crisp" transform="translate(665.13,0)" d="M0,50v470" style="stroke: rgb(238, 238, 238); stroke-opacity: 1; stroke-width: 1px;"/><path class="xgrid crisp" transform="translate(772.1,0)" d="M0,50v470" style="stroke: rgb(238, 238, 238); stroke-opacity: 1; stroke-width: 1px;"/></g><g class="y"><path class="ygrid crisp" transform="translate(0,449.92)" d="M80,0h710" style="stroke: rgb(238, 238, 238); stroke-opacity: 1; stroke-width: 1px;"/><path class="ygrid crisp" transform="translate(0,356.75)" d="M80,0h710" style="stroke: rgb(238, 238, 238); stroke-opacity: 1; stroke-width: 1px;"/><path class="ygrid crisp" transform="translate(0,263.58000000000004)" d="M80,0h710" style="stroke: rgb(238, 238, 238); stroke-opacity: 1; stroke-width: 1px;"/><path class="ygrid crisp" transform="translate(0,170.42000000000002)" d="M80,0h710" style="stroke: rgb(238, 238, 238); stroke-opacity: 1; stroke-width: 1px;"/><path class="ygrid crisp" transform="translate(0,77.25)" d="M80,0h710" style="stroke: rgb(238, 238, 238); stroke-opacity: 1; stroke-width: 1px;"/></g></g><g class="zerolinelayer"/><path class="xlines-below"/><path class="ylines-below"/><g class="overlines-below"/><g class="xaxislayer-below"/><g class="yaxislayer-below"/><g class="overaxes-below"/><g class="plot" transform="translate(80, 50)" clip-path="url('#clip3de42axyplot')"><g class="scatterlayer mlayer"><g class="trace scatter tracefaaa35" style="stroke-miterlimit: 2; opacity: 1;"><g class="fills"/><g class="errorbars"/><g class="lines"><path class="js-line" style="vector-effect: non-scaling-stroke; fill: none; stroke: rgb(251, 147, 65); stroke-opacity: 1; stroke-width: 1.5px; opacity: 1;" d="M-9437.58,446.5L-9056.56,194.95L-8809.89,27.25L-8620.88,353.33L-8604.94,344.02L-8229.38,92.47L-8131.83,27.25L-8078.56,446.5L-7497.84,55.2L-7477.73,45.88L-7397.61,437.18L-7345.51,399.92L-7311.71,381.28L-6774.31,27.25L-6734.3,446.5L-6101.17,27.25L-6060.63,446.5L-5640.57,167L-5636.39,167L-5428.45,27.25L-5393.47,446.5L-5298.49,390.6L-5295.7,381.28L-4752.74,27.25L-4716.8,446.5L-4079.6,27.25L-4044.4,446.5L-3978.94,409.23L-3976.8,399.92L-3908.13,362.65L-3906.2,353.33L-3840.63,316.07L-3835.93,306.75L-3769.18,269.48L-3765.33,260.17L-3698.58,222.9L-3697.62,213.58L-3628.94,176.32L-3627.55,167L-3559.2,129.73L-3558.02,120.42L-3490.96,83.15L-3485.5,73.83L-3433.19,45.88L-3429.13,36.57L-3404.95,27.25L-3372.54,446.5L-3318.95,418.55L-3316.71,409.23L-3262.15,381.28L-3260.55,371.97L-3205.89,344.02L-3205.35,334.7L-3150.16,306.75L-3149.52,297.43L-3095.29,269.48L-3093.47,260.17L-3039.88,232.22L-3037.84,222.9L-2983.08,194.95L-2981.9,185.63L-2927.56,157.68L-2925.96,148.37L-2871.08,120.42L-2870.44,111.1L-2814.92,83.15L-2813.85,73.83L-2761.76,45.88L-2758.13,36.57L-2731.49,27.25L-2694.48,446.5L-2643.88,418.55L-2643.03,409.23L-2588.26,381.28L-2587.19,371.97L-2545.9,353.33L-2542.69,344.02L-2503.76,325.38L-2503.54,316.07L-2462.47,297.43L-2460.86,288.12L-2421.29,269.48L-2417.11,260.17L-2378.82,241.53L-2376.47,232.22L-2336.78,213.58L-2335.61,204.27L-2294.53,185.63L-2293.03,176.32L-2253.56,157.68L-2252.17,148.37L-2210.77,129.73L-2209.28,120.42L-2168.74,101.78L-2168.63,92.47L-2126.81,73.83L-2126.38,64.52L-2085.73,45.88L-2084.23,36.57L-2057.06,27.25L-2024.76,446.5L-1983.36,427.87L-1982.4,418.55L-1941.43,399.92L-1940.47,390.6L-1899.82,371.97L-1899.07,362.65L-1857.78,344.02L-1856.71,334.7L-1816.07,316.07L-1815.75,306.75L-1773.92,288.12L-1773.6,278.8L-1732.52,260.17L-1731.88,250.85L-1692.84,232.22L-1692.52,232.22L-1669.63,213.58L-1668.67,213.58L-1648.88,204.27L-1648.02,194.95L-1620.42,185.63L-1620.32,176.32L-1593.15,167L-1591.33,157.68L-1565.34,148.37L-1564.48,139.05L-1536.88,129.73L-1535.71,120.42L-1509.07,111.1L-1508.54,101.78L-1481.47,92.47L-1480.72,83.15L-1452.91,73.83L-1452.7,64.52L-1424.99,55.2L-1424.89,45.88L-1397.61,36.57L-1396.97,27.25L-1383.28,27.25L-1350.44,446.5L-1323.38,437.18L-1323.27,427.87L-1296.31,418.55L-1295.35,409.23L-1267.86,399.92L-1266.58,390.6L-1239.62,381.28L-1239.19,371.97L-1211.7,362.65L-1211.6,353.33L-1183.78,344.02L-1183.68,334.7L-1156.19,325.38L-1155.54,316.07L-1128.8,306.75L-1127.41,297.43L-1100.03,288.12L-1099.71,278.8L-1072.22,269.48L-1072,260.17L-1044.73,250.85L-1044.08,241.53L-1016.7,232.22L-1015.95,222.9L-988.78,213.58L-988.25,204.27L-960.65,194.95L-960.44,185.63L-932.63,176.32L-932.52,167L-904.71,157.68L-903.74,148.37L-876.9,139.05L-876.36,129.73L-848.87,120.42L-848.55,111.1L-821.38,101.78L-820.84,92.47L-806.94,92.47L-806.4,83.15L-793.46,83.15L-792.82,73.83L-779.34,73.83L-778.91,64.52L-765.22,64.52L-765.01,55.2L-751.1,55.2L-750.78,45.88L-737.3,45.88L-736.45,36.57L-723.5,36.57L-723.18,27.25L-709.71,27.25L-676.01,446.5L-663.71,446.5L-663.18,437.18L-649.48,437.18L-649.27,427.87L-635.58,427.87L-635.26,418.55L-621.56,418.55L-621.46,409.23L-607.77,409.23L-607.34,399.92L-593.75,399.92L-593.22,390.6L-579.63,390.6L-579.53,381.28L-565.84,381.28L-565.41,371.97L-552.14,371.97L-551.29,362.65L-538.13,362.65L-537.49,353.33L-523.9,353.33L-523.69,344.02L-510,344.02L-509.68,334.7L-495.99,334.7L-495.88,325.38L-482.19,325.38L-481.76,316.07L-468.07,316.07L-467.96,306.75L-454.38,306.75L-453.41,297.43L-440.47,297.43L-439.51,288.12L-426.14,288.12L-426.03,278.8L-412.44,278.8L-412.12,269.48L-398.22,269.48L-398.11,260.17L-384.31,260.17L-384.21,250.85L-370.41,250.85L-370.09,241.53L-356.39,241.53L-356.29,232.22L-342.49,232.22L-342.38,222.9L-328.48,222.9L-328.37,213.58L-315.1,213.58L-314.46,204.27L-300.56,204.27L-300.34,194.95L-286.65,194.95L-286.54,185.63L-272.64,185.63L-272.53,176.32L-258.73,176.32L-258.3,167L-244.83,167L-244.61,157.68L-230.81,157.68L-230.49,148.37L-217.12,148.37L-216.69,139.05L-203,139.05L-202.68,129.73L-188.99,129.73L-188.78,120.42L-174.98,120.42L-174.76,111.1L-161.18,111.1L-160.86,101.78L-147.17,101.78L-146.95,92.47L-133.05,92.47L-132.73,83.15L-119.14,83.15L-118.93,73.83L-105.23,73.83L-105.02,64.52L-91.44,64.52L-91.12,55.2L-77.42,55.2L-77,45.88L-63.3,45.88L-62.98,36.57L-49.4,36.57L-49.18,27.25L-35.39,27.25L-3.08,446.5L10.5,446.5L10.61,437.18L24.2,437.18L24.62,427.87L38.31,427.87L38.74,418.55L52.11,418.55L52.43,409.23L66.34,409.23L66.45,399.92L80.25,399.92L80.67,390.6L94.26,390.6L94.37,381.28L108.06,381.28L108.27,371.97L122.18,371.97L122.28,362.65L136.08,362.65L136.3,353.33L149.99,353.33L150.1,344.02L163.89,344.02L164.11,334.7L177.91,334.7L178.23,325.38L191.81,325.38L192.13,316.07L205.83,316.07L205.93,306.75L219.84,306.75L219.94,297.43L233.74,297.43L233.85,288.12L247.65,288.12L247.97,278.8L261.66,278.8L261.77,269.48L275.67,269.48L275.78,260.17L289.58,260.17L289.69,250.85L303.49,250.85L303.7,241.53L317.5,241.53L317.61,232.22L331.4,232.22L331.51,222.9L345.42,222.9L345.52,213.58L359.22,213.58L359.43,204.27L373.34,204.27L373.44,194.95L387.13,194.95L387.35,185.63L401.25,185.63L401.47,176.32L415.16,176.32L415.27,167L429.07,167L429.28,157.68L443.08,157.68L443.19,148.37L457.09,148.37L457.2,139.05L471,139.05L471.21,129.73L485.01,129.73L485.12,120.42L498.92,120.42L499.02,111.1L512.93,111.1L513.03,101.78L526.73,101.78L526.94,92.47L540.85,92.47L540.95,83.15L554.75,83.15L554.86,73.83L568.66,73.83L568.87,64.52L582.67,64.52L582.88,55.2L596.68,55.2L596.79,45.88L610.59,45.88L610.7,36.57L624.49,36.57L624.6,27.25L638.51,27.25"/></g><g class="points"/><g class="text"/></g><g class="trace scatter trace001a22" style="stroke-miterlimit: 2; opacity: 1;"><g class="fills"/><g class="errorbars"/><g class="lines"/><g class="points"><path class="point" transform="translate(638.51,27.25)" style="opacity: 1; stroke-width: 0px; fill: rgb(251, 147, 65); fill-opacity: 1;" d="M3,0A3,3 0 1,1 0,-3A3,3 0 0,1 3,0Z"/></g><g class="text"/></g></g></g><g class="overplot"/><path class="xlines-above crisp" style="fill: none;" d="M0,0"/><path class="ylines-above crisp" style="fill: none;" d="M0,0"/><g class="overlines-above"/><g class="xaxislayer-above"><g class="xtick"><text text-anchor="middle" x="0" y="543" style="font-family: TOBESTRIPPEDOpen SansTOBESTRIPPED, verdana, arial, sans-serif; font-size: 12px; fill: rgb(32, 32, 32); fill-opacity: 1; white-space: pre;" transform="translate(130.3,0)">89k</text></g><g class="xtick"><text text-anchor="middle" x="0" y="543" style="font-family: TOBESTRIPPEDOpen SansTOBESTRIPPED, verdana, arial, sans-serif; font-size: 12px; fill: rgb(32, 32, 32); fill-opacity: 1; white-space: pre;" transform="translate(237.26,0)">90k</text></g><g class="xtick"><text text-anchor="middle" x="0" y="543" style="font-family: TOBESTRIPPEDOpen SansTOBESTRIPPED, verdana, arial, sans-serif; font-size: 12px; fill: rgb(32, 32, 32); fill-opacity: 1; white-space: pre;" transform="translate(344.23,0)">91k</text></g><g class="xtick"><text text-anchor="middle" x="0" y="543" style="font-family: TOBESTRIPPEDOpen SansTOBESTRIPPED, verdana, arial, sans-serif; font-size: 12px; fill: rgb(32, 32, 32); fill-opacity: 1; white-space: pre;" transform="translate(451.2,0)">92k</text></g><g class="xtick"><text text-anchor="middle" x="0" y="543" style="font-family: TOBESTRIPPEDOpen SansTOBESTRIPPED, verdana, arial, sans-serif; font-size: 12px; fill: rgb(32, 32, 32); fill-opacity: 1; white-space: pre;" transform="translate(558.1600000000001,0)">93k</text></g><g class="xtick"><text text-anchor="middle" x="0" y="543" style="font-family: TOBESTRIPPEDOpen SansTOBESTRIPPED, verdana, arial, sans-serif; font-size: 12px; fill: rgb(32, 32, 32); fill-opacity: 1; white-space: pre;" transform="translate(665.13,0)">94k</text></g><g class="xtick"><text text-anchor="middle" x="0" y="543" style="font-family: TOBESTRIPPEDOpen SansTOBESTRIPPED, verdana, arial, sans-serif; font-size: 12px; fill: rgb(32, 32, 32); fill-opacity: 1; white-space: pre;" transform="translate(772.1,0)">95k</text></g></g><g class="yaxislayer-above"><g class="ytick"><text text-anchor="end" x="69" y="4.199999999999999" style="font-family: TOBESTRIPPEDOpen SansTOBESTRIPPED, verdana, arial, sans-serif; font-size: 12px; fill: rgb(32, 32, 32); fill-opacity: 1; white-space: pre;" transform="translate(0,449.92)">10</text></g><g class="ytick"><text text-anchor="end" x="69" y="4.199999999999999" style="font-family: TOBESTRIPPEDOpen SansTOBESTRIPPED, verdana, arial, sans-serif; font-size: 12px; fill: rgb(32, 32, 32); fill-opacity: 1; white-space: pre;" transform="translate(0,356.75)">20</text></g><g class="ytick"><text text-anchor="end" x="69" y="4.199999999999999" style="font-family: TOBESTRIPPEDOpen SansTOBESTRIPPED, verdana, arial, sans-serif; font-size: 12px; fill: rgb(32, 32, 32); fill-opacity: 1; white-space: pre;" transform="translate(0,263.58000000000004)">30</text></g><g class="ytick"><text text-anchor="end" x="69" y="4.199999999999999" style="font-family: TOBESTRIPPEDOpen SansTOBESTRIPPED, verdana, arial, sans-serif; font-size: 12px; fill: rgb(32, 32, 32); fill-opacity: 1; white-space: pre;" transform="translate(0,170.42000000000002)">40</text></g><g class="ytick"><text text-anchor="end" x="69" y="4.199999999999999" style="font-family: TOBESTRIPPEDOpen SansTOBESTRIPPED, verdana, arial, sans-serif; font-size: 12px; fill: rgb(32, 32, 32); fill-opacity: 1; white-space: pre;" transform="translate(0,77.25)">50</text></g></g><g class="overaxes-above"/></g></g><g class="polarlayer"/><g class="ternarylayer"/><g class="geolayer"/><g class="pielayer"/><g class="sunburstlayer"/><g class="glimages"/><defs id="topdefs-3de42a"><g class="clips"/></defs><g class="layer-above"><g class="imagelayer"/><g class="shapelayer"/></g><g class="infolayer"><g class="g-gtitle"/><g class="g-xtitle"/><g class="g-ytitle"/></g></svg>