<svg class="main-svg" xmlns="http://www.w3.org/2000/svg" xmlns:xlink="http://www.w3.org/1999/xlink" width="800" height="600" style="" viewBox="0 0 800 600"><rect x="0" y="0" width="800" height="600" style="fill: rgb(255, 255, 255); fill-opacity: 1;"/><defs id="defs-d688a7"><g class="clips"><clipPath id="clipd688a7xyplot" class="plotclip"><rect width="710" height="470"/></clipPath><clipPath class="axesclip" id="clipd688a7x"><rect x="80" y="0" width="710" height="600"/></clipPath><clipPath class="axesclip" id="clipd688a7y"><rect x="0" y="50" width="800" height="470"/></clipPath><clipPath class="axesclip" id="clipd688a7xy"><rect x="80" y="50" width="710" height="470"/></clipPath></g><g class="gradients"/></defs><g class="bglayer"/><g class="layer-below"><g class="imagelayer"/><g class="shapelayer"/></g><g class="cartesianlayer"><g class="subplot xy"><g class="layer-subplot"><g class="shapelayer"/><g class="imagelayer"/></g><g class="gridlayer"><g class="x"><path class="xgrid crisp" transform="translate(81.35,0)" d="M0,50v470" style="stroke: rgb(238, 238, 238); stroke-opacity: 1; stroke-width: 1px;"/><path class="xgrid crisp" transform="translate(185.22,0)" d="M0,50v470" style="stroke: rgb(238, 238, 238); stroke-opacity: 1; stroke-width: 1px;"/><path class="xgrid crisp" transform="translate(289.1,0)" d="M0,50v470" style="stroke: rgb(238, 238, 238); stroke-opacity: 1; stroke-width: 1px;"/><path class="xgrid crisp" transform="translate(392.97,0)" d="M0,50v470" style="stroke: rgb(238, 238, 238); stroke-opacity: 1; stroke-width: 1px;"/><path class="xgrid crisp" transform="translate(496.84,0)" d="M0,50v470" style="stroke: rgb(238, 238, 238); stroke-opacity: 1; stroke-width: 1px;"/><path class="xgrid crisp" transform="translate(600.72,0)" d="M0,50v470" style="stroke: rgb(238, 238, 238); stroke-opacity: 1; stroke-width: 1px;"/><path class="xgrid crisp" transform="translate(704.59,0)" d="M0,50v470" style="stroke: rgb(238, 238, 238); stroke-opacity: 1; stroke-width: 1px;"/></g><g class="y"><path class="ygrid crisp" transform="translate(0,419.63)" d="M80,0h710" style="stroke: rgb(238, 238, 238); stroke-opacity: 1; stroke-width: 1px;"/><path class="ygrid crisp" transform="translate(0,316.89)" d="M80,0h710" style="stroke: rgb(238, 238, 238); stroke-opacity: 1; stroke-width: 1px;"/><path class="ygrid crisp" transform="translate(0,214.15)" d="M80,0h710" style="stroke: rgb(238, 238, 238); stroke-opacity: 1; stroke-width: 1px;"/><path class="ygrid crisp" transform="translate(0,111.4)" d="M80,0h710" style="stroke: rgb(238, 238, 238); stroke-opacity: 1; stroke-width: 1px;"/></g></g><g class="zerolinelayer"/><path class="xlines-below"/><path class="ylines-below"/><g class="overlines-below"/><g class="xaxislayer-below"/><g class="yaxislayer-below"/><g class="overaxes-below"/><g class="plot" transform="translate(80, 50)" clip-path="url('#clipd688a7xyplot')"><g class="scatterlayer mlayer"><g class="trace scatter tracedbc7c0" style="stroke-miterlimit: 2; opacity: 1;"><g class="fills"/><g class="errorbars"/><g class="lines"><path class="js-line" style="vector-effect: non-scaling-stroke; fill: none; stroke: rgb(25, 169, 121); stroke-opacity: 1; stroke-width: 1.5px; opacity: 1;" d="M0,136.88L0.1,205.74L0.82,201.69L0.87,201.91L1.03,195.9L1.49,204.21L1.54,203.52L1.6,204.3L1.65,202.26L1.87,206.36L2.3,205.23L2.36,204.24L2.47,203.35L2.68,206.62L2.73,206.17L2.78,207.86L3.06,205.35L3.38,208.21L3.43,207.82L3.48,208.82L4.14,206.03L4.35,206.57L4.42,207.65L4.47,207.9L4.91,206.72L4.97,206.22L5.02,205.98L5.35,207.8L5.45,207.57L5.51,208.26L5.78,208.03L6.11,211.93L6.43,210.33L6.49,209.87L6.77,210.33L7.48,205.74L7.64,207.34L7.69,208.03L8.24,205.28L8.69,205.97L8.75,205.97L8.86,204.82L9.31,207.11L9.37,207.34L9.48,208.03L9.77,206.65L9.83,205.97L10.35,204.82L10.63,208.72L10.69,208.49L10.75,207.8L11.09,207.11L11.25,208.72L11.32,209.64L11.54,208.72L11.77,210.79L11.82,210.79L11.9,210.56L12.99,214.46L13.04,213.31L14,219.74L14.24,218.82L14.29,219.05L14.47,219.74L14.93,216.52L15.15,218.13L15.21,219.28L16.67,227.08L16.73,226.39L16.79,225.93L16.97,227.77L17.27,225.02L17.45,225.02L17.51,222.95L17.81,222.26L19.01,228.46L19.25,227.31L19.31,227.08L19.61,225.47L20.03,226.62L20.09,227.31L20.15,226.39L20.58,229.38L20.71,228.92L20.76,228.69L20.94,230.29L21.18,228L21.54,229.38L21.6,229.84L25.19,273.67L25.26,273.9L25.32,272.99L25.57,275.97L25.76,275.28L25.82,277.12L25.95,276.66L26.2,282.4L26.26,284.23L26.45,283.77L28.2,296.85L28.27,296.4L28.33,295.48L28.65,299.38L28.9,297.08L28.96,297.54L29.03,297.77L29.09,296.85L29.16,294.33L29.7,300.53L30.01,298.46L30.08,296.17L30.82,302.59L30.94,300.3L31.01,300.99L32.34,319.12L32.6,317.28L32.67,317.74L33.9,330.59L33.96,330.13L34.03,328.99L34.45,331.74L34.65,328.07L34.72,327.61L34.98,325.54L35.32,328.53L35.38,328.53L35.44,328.53L35.71,330.13L36.03,327.15L36.1,326.69L36.23,326.46L36.29,327.38L36.36,328.53L36.49,330.13L36.55,333.12L36.75,329.91L37.07,334.27L37.27,333.35L37.34,333.35L38.12,326.69L38.19,327.15L38.25,328.07L38.51,329.91L38.7,326.23L38.9,328.99L38.96,329.22L40.4,320.04L40.53,320.95L40.59,321.18L41.34,313.84L41.47,314.76L41.54,316.59L42.08,312.92L42.49,313.84L42.56,313.84L42.63,312.69L42.97,315.68L43.04,315.68L43.12,79.73L44,64.58L44.13,65.27L44.2,64.81L45.64,43.24L45.7,43.24L45.91,43.93L46.18,41.4L46.38,43.47L46.45,43.7L47.41,34.06L47.75,35.89L47.82,35.89L48.23,37.73L48.51,32.22L48.64,33.37L48.71,34.06L49.87,23.5L49.94,259.67L50.29,263.8L50.71,261.74L50.78,260.36L51.41,261.97L51.55,260.59L51.63,261.05L52.75,267.71L52.82,266.56L53.18,265.41L53.53,268.39L53.6,267.94L53.67,267.48L53.74,267.25L54.09,268.62L54.16,269.31L54.23,268.62L54.65,270.92L54.94,268.85L55.01,268.62L55.15,268.17L55.36,269.54L55.43,269.54L55.5,270L55.64,270.46L56.28,267.48L56.35,267.71L56.41,270L56.63,268.39L56.83,270.69L57.04,269.77L57.11,269.31L57.18,269.54L57.33,267.48L57.4,267.48L57.68,267.02L57.89,268.62L58.11,267.71L58.18,267.02L58.47,266.79L58.76,267.94L58.83,266.1L59.05,267.48L59.41,265.18L59.7,267.25L59.78,266.33L59.92,267.02L60.15,266.1L60.22,267.48L60.36,266.33L60.88,269.77L61.11,268.62L61.19,267.71L62.23,272.98L62.3,273.44L62.38,274.13L62.89,272.53L62.96,273.44L63.03,272.53L63.84,274.13L63.92,273.9L63.99,273.44L64.06,272.3L64.64,274.82L64.75,275.74L64.83,274.59L65.12,276.89L65.41,276.66L65.48,277.35L65.63,277.12L66.07,279.41L66.36,278.03L66.43,278.03L66.65,279.64L66.73,278.03L66.8,277.58L66.95,277.35L67.02,278.72L67.31,277.58L67.53,279.41L67.69,278.95L67.76,279.41L68.05,278.49L68.13,280.1L68.58,279.87L68.66,278.95L68.73,278.26L68.95,282.85L69.03,282.17L69.1,282.62L70.31,286.3L70.47,285.61L70.54,280.79L70.7,280.56L70.85,281.94L71,281.71L71.07,281.94L71.89,285.15L71.97,283.77L72.04,282.85L72.27,285.38L72.65,283.54L72.72,281.94L72.95,282.17L73.32,280.56L73.4,282.17L73.47,282.62L73.93,281.25L74.08,282.85L74.15,282.4L74.26,283.54L74.85,286.53L75.15,286.07L75.23,285.38L75.38,285.84L76.88,276.2L76.96,276.43L77.03,274.36L77.41,272.98L77.55,274.13L77.63,275.05L77.78,274.36L77.93,275.28L78,275.28L78.08,279.87L78.3,281.02L78.38,279.64L78.46,279.87L78.54,278.72L78.62,279.64L79.09,276.43L79.17,275.51L79.56,276.2L79.87,273.9L79.95,275.28L80.03,276.43L80.73,280.1L80.8,281.02L80.88,281.48L81.27,279.87L81.36,279.64L81.44,278.72L81.91,281.02L81.98,281.25L82.99,290.43L83.07,290.2L84.39,311.54L84.47,310.86L84.63,309.94L84.71,311.08L84.78,313.84L85.71,320.72L85.94,320.5L86.02,320.5L86.1,320.27L86.17,323.25L86.41,325.54L86.49,326.46L87.34,329.45L87.42,329.68L87.81,327.38L87.89,291.81L88.12,293.18L88.28,290.89L88.52,292.03L88.6,290.89L88.68,289.74L89.08,293.64L89.16,293.18L89.25,294.33L89.33,295.25L89.74,291.35L89.82,291.58L90.3,284.69L90.65,285.38L90.73,285.84L91.45,279.18L91.53,277.35L92.18,271.38L92.5,272.3L92.58,272.76L92.66,272.98L92.74,271.15L92.82,270.46L94.19,258.75L94.28,259.21L94.44,256.92L94.52,256.23L94.68,255.08L95,257.38L95.08,257.15L95.16,257.84L95.88,261.51L95.96,297.31L96.2,296.85L96.6,298L96.68,298.69L96.76,299.84L97.08,295.94L97.16,296.17L97.25,295.94L98.72,289.97L98.8,290.66L98.88,291.58L99.89,286.3L99.97,287.44L100.38,290.66L100.71,289.51L100.8,287.9L101.97,292.95L102.05,293.41L102.22,293.18L102.38,294.33L102.55,293.64L102.63,294.1L103.05,295.48L103.14,294.1L104.14,290.43L104.23,290.2L105.17,288.36L105.34,288.82L105.42,289.74L106.82,295.48L106.9,294.1L107.15,293.87L107.4,296.4L107.65,294.1L107.73,294.33L108.39,292.49L108.48,293.18L108.56,293.41L108.8,292.72L108.88,294.33L108.96,296.17L109.53,297.31L109.7,297.08L109.78,295.71L109.95,297.31L110.13,295.02L110.3,295.25L110.39,295.25L111.32,290.89L111.41,291.12L111.49,292.26L111.74,293.87L112.09,291.81L112.18,292.49L112.27,291.58L113.87,298.69L113.96,298.23L114.04,298L115.06,301.22L115.15,300.3L116.25,303.51L116.34,303.28L116.43,302.36L116.76,305.58L116.85,306.04L117.52,303.74L117.69,304.66L117.77,305.81L117.94,306.26L118.02,305.35L118.11,305.81L118.2,303.74L119.22,307.87L119.3,307.18L119.9,309.02L119.99,308.56L120.07,307.18L121.01,310.4L121.1,309.25L122.07,306.04L122.16,306.26L122.24,306.95L122.33,306.26L122.59,307.87L122.85,307.41L122.94,307.41L123.11,309.94L123.73,309.71L123.82,309.02L124.95,312.92L125.03,313.38L125.29,314.3L125.38,312.23L125.47,312.69L125.65,311.54L125.74,309.94L125.83,310.17L125.92,308.1L126.01,308.56L126.2,306.95L126.54,307.64L126.63,306.49L126.98,308.56L127.25,306.72L127.34,305.58L128.56,309.94L128.64,308.79L128.73,308.33L128.99,310.4L129.43,308.56L129.52,309.48L129.61,310.4L129.78,308.33L130.13,309.48L130.22,308.79L131.1,312.23L131.19,311.77L131.89,309.48L132.24,309.94L132.33,311.08L133.68,306.72L133.77,307.64L136.2,334.27L136.38,333.58L136.47,332.2L136.65,331.74L137.64,335.64L137.73,334.27L137.91,333.35L138.18,334.95L138.27,334.5L138.36,335.41L139.35,341.15L139.44,341.84L139.53,341.38L139.62,343.22L139.8,342.3L139.89,343.68L140.07,343.22L140.16,343.91L140.25,344.82L141.43,351.25L141.51,352.17L142.51,362.96L142.78,361.12L142.87,361.58L142.96,361.81L143.05,359.51L143.88,352.86L143.96,353.55L144.05,353.78L144.98,336.79L145.07,337.94L146.28,344.14L146.38,343.91L146.47,342.53L147.32,340.46L147.41,341.61L147.5,342.3L147.77,340.46L148.33,340.92L148.43,342.53L148.52,342.3L148.7,343.68L148.79,342.53L148.88,343.45L149.16,342.76L149.25,343.68L149.35,345.51L149.72,343.68L150.54,349.18L150.64,348.73L150.82,349.18L150.91,347.81L151,347.58L151.37,342.07L151.66,344.14L151.76,345.51L152.12,345.28L152.4,348.96L152.58,348.27L152.68,347.35L153.14,347.81L153.42,344.82L153.52,356.53L153.61,356.3L153.79,357.68L153.89,357.22L153.98,357.45L156.3,370.99L156.39,373.28L156.58,375.35L156.77,372.82L156.87,371.22L157.53,374.89L157.63,374.66L157.73,371.91L157.82,372.14L158.01,370.99L158.11,369.61L158.34,371.22L158.82,369.38L158.91,370.53L159.01,370.07L160.44,362.96L160.54,365.25L160.82,368.69L161.29,366.63L161.39,365.48L161.97,367.55L162.06,365.48L163.02,372.14L163.11,371.22L163.4,372.6L163.49,374.43L163.68,373.74L164.15,377.42L164.34,376.73L164.44,375.58L165.39,372.14L165.48,373.05L165.67,373.74L165.86,371.22L165.96,370.3L166.05,369.61L166.43,372.37L166.53,370.07L166.62,371.22L167.11,368.92L167.4,369.84L167.49,370.76L167.59,370.07L167.97,372.37L168.07,372.6L168.83,367.78L168.93,368.46L169.02,370.07L169.71,366.86L170.2,367.09L170.29,366.63L170.59,365.94L170.78,368.46L170.88,367.55L170.97,368.01L171.36,370.53L171.66,369.15L171.76,367.09L172.05,363.19L172.16,234.2L172.46,235.11L173.24,230.75L173.33,231.67L174.62,220.2L174.72,220.2L174.91,219.05L175.01,217.21L175.32,216.98L175.81,218.82L175.91,217.21L176.2,216.98L176.29,218.82L176.49,217.67L176.59,216.06L176.78,217.21L177.08,215.38L177.18,215.84L177.27,214L177.37,215.15L177.67,212.16L177.87,212.62L177.96,211.47L178.07,210.33L178.55,213.08L178.65,214.46L178.85,213.08L178.94,215.15L179.33,213.08L179.43,214.92L179.53,216.06L180.02,213.08L180.11,213.08L180.6,208.72L180.7,207.34L181.19,201.15L181.68,203.9L181.78,204.13L181.88,203.44L181.98,332.43L182.48,334.04L182.58,332.43L182.69,330.59L182.89,331.28L183.09,329.45L183.19,328.99L183.49,329.68L183.71,328.53L183.81,328.76L183.91,326.92L184.3,331.28L184.81,330.36L184.91,329.68L185.02,328.07L185.22,330.36L185.52,330.13L185.62,330.36L186.12,331.97L186.53,331.74L186.63,330.13L186.94,328.76L187.24,331.28L187.34,329.91L187.44,330.82L189.06,324.4L189.16,324.63L190.26,328.53L190.36,328.3L190.46,328.07L190.56,329.45L190.66,329.68L191.26,336.56L191.76,336.1L191.86,335.87L192.67,333.12L192.77,334.27L192.87,334.04L193.98,342.3L194.28,340.46L194.38,340L195.11,341.84L195.21,341.61L195.32,340.69L196.34,344.14L196.45,343.22L196.55,342.99L197.68,348.96L197.78,348.27L198.41,348.5L198.62,347.12L198.72,347.81L199.54,350.79L199.66,349.64L199.76,348.04L199.87,347.81L200.08,348.73L200.18,348.5L200.28,349.87L201.01,346.66L201.11,345.28L201.74,343.45L201.84,345.97L202.04,344.82L202.35,346.89L202.45,347.12L202.76,346.66L203.07,348.04L203.28,347.58L203.38,345.74L203.6,347.35L204.01,345.51L204.11,345.97L204.22,344.36L204.42,343.68L204.73,344.82L204.84,344.59L204.94,345.51L205.04,345.28L205.25,346.66L205.35,347.58L205.56,348.5L205.97,346.89L206.07,346.43L206.39,344.59L206.8,346.2L206.9,346.2L207,345.74L207.31,347.35L207.62,346.2L207.72,346.89L208.34,349.41L208.45,350.1L208.77,349.64L208.99,350.79L209.09,348.73L209.2,349.64L209.52,348.04L209.84,348.73L209.94,346.43L210.15,347.35L210.58,345.97L210.69,345.74L211.11,348.04L211.22,348.73L211.64,349.87L211.95,349.41L212.06,349.18L212.27,348.96L212.8,350.1L212.9,349.87L213,350.1L213.32,349.64L213.53,350.79L213.64,349.87L215.02,356.3L215.34,355.84L215.44,354.92L216.08,352.86L216.19,353.78L216.29,354L216.4,354.23L216.5,353.32L216.61,352.63L217.56,355.84L217.66,356.76L217.87,356.53L218.19,357.91L218.41,356.76L218.51,356.76L218.94,356.3L219.05,357.22L219.16,358.82L219.26,358.37L219.58,359.74L219.69,359.97L219.79,359.28L220.01,361.58L220.11,363.19L221.49,369.84L221.6,369.84L222.02,367.32L222.23,370.07L222.34,370.3L223.54,373.97L223.87,373.74L223.97,375.58L224.19,373.74L224.3,375.81L225.4,370.3L225.51,369.38L225.62,367.78L226.05,369.15L226.16,370.99L226.81,373.05L227.14,372.83L227.25,372.6L227.57,374.66L227.9,372.6L228.01,372.6L228.57,367.09L228.68,340.46L229.01,338.4L229.45,339.09L229.56,339.55L229.77,339.77L230.21,337.48L230.43,338.17L230.53,338.86L231.08,334.95L231.4,337.02L231.51,337.48L231.94,333.81L232.05,332.2L233.14,327.38L233.25,326.69L233.36,327.38L233.58,325.77L233.69,324.63L233.79,325.54L234.12,323.71L234.23,322.1L234.34,323.02L234.88,321.87L234.99,322.1L235.97,326.23L236.08,325.09L236.52,329.22L236.96,327.61L237.08,325.31L237.41,322.79L237.96,323.48L238.07,323.48L238.19,323.71L238.3,323.25L238.41,322.1L238.53,321.41L238.86,323.02L238.97,322.33L239.08,323.48L239.52,325.54L239.64,352.4L240.09,350.33L240.31,352.63L240.43,352.4L240.76,350.56L241.09,352.63L241.2,353.32L241.54,351.71L241.88,353.77L242,353.32L243.21,359.51L243.65,359.05L243.76,359.05L244.76,360.66L244.88,359.97L244.99,360.66L245.22,358.59L245.33,359.97L245.44,358.14L246.23,355.61L246.34,356.53L246.44,357.45L246.55,359.28L247.22,358.14L247.33,357.91L248.11,354.46L248.34,355.38L248.45,357.22L249.11,354.23L249.23,353.55L249.67,355.38L250.23,354.92L250.34,355.15L250.68,353.32L250.91,354.92L251.02,355.84L251.37,354.23L251.48,355.15L251.59,356.07L251.82,356.3L252.5,351.02L252.73,351.94L252.84,352.63L252.96,352.86L253.08,352.4L253.19,352.4L253.3,351.25L253.76,348.96L253.87,350.33L253.98,350.56L254.44,346.66L255.01,347.12L255.13,346.43L256.17,350.79L256.29,350.1L257.42,354.46L257.54,353.32L257.78,351.48L257.9,349.87L258.69,352.86L258.81,352.17L258.93,350.33L259.5,352.4L259.61,353.32L260.07,351.02L260.18,352.63L260.29,354L260.52,353.78L260.87,356.07L260.98,357.22L261.21,358.37L261.55,356.07L261.67,355.15L262.12,355.84L262.24,353.78L262.35,354.69L262.47,355.38L263.03,355.15L263.71,359.74L263.83,358.59L264.17,359.28L264.28,357.91L264.42,356.99L264.76,358.82L265.22,358.59L265.33,356.3L265.45,355.15L265.93,355.84L266.05,356.76L266.28,355.61L266.4,357.45L266.51,357.45L266.63,359.28L267.56,357.45L267.68,358.14L267.91,358.82L268.15,357.68L268.26,357.45L268.5,356.53L269.55,360.89L269.67,359.74L270.26,356.3L270.49,357.91L270.61,358.37L271.66,364.56L271.78,362.73L272.12,364.56L272.24,362.73L272.36,361.58L272.59,360.2L273.06,361.81L273.17,361.81L273.52,364.33L273.99,363.87L274.1,363.19L275.15,360.89L275.27,361.12L275.38,360.89L275.5,362.04L275.61,362.27L275.85,360.43L276.33,360.89L276.44,361.81L277.27,363.19L277.38,363.19L277.96,364.56L278.08,362.96L278.2,363.41L278.66,361.35L278.78,362.96L279.6,360.66L279.71,361.12L279.83,361.58L279.95,362.96L280.53,362.27L280.64,361.81L282.31,367.78L282.42,366.86L282.54,365.48L282.9,363.19L283.38,364.79L283.5,364.79L283.73,363.41L283.85,363.87L283.97,365.02L284.33,366.17L284.45,364.79L284.57,363.64L284.69,363.87L284.93,363.19L285.05,363.41L285.17,362.5L285.29,362.04L285.53,363.87L285.89,362.5L286.01,363.64L286.12,364.79L286.6,363.64L286.72,362.96L286.84,363.41L286.96,361.12L287.08,360.66L287.68,364.1L288.16,362.5L288.28,360.89L288.52,360.66L288.75,361.35L288.87,361.81L288.99,360.89L289.47,362.96L289.58,362.73L290.18,361.12L290.3,362.04L290.42,362.5L291.02,364.56L291.25,364.1L291.37,364.1L292.44,368.69L292.68,368L292.8,367.09L293.03,366.86L293.15,368.46L293.27,367.32L293.39,366.4L293.51,365.48L293.86,367.78L294.1,366.17L294.22,365.94L294.34,365.25L294.69,365.94L294.81,367.78L295.76,364.56L295.88,365.48L296.23,365.02L296.96,367.55L297.21,367.09L297.33,366.86L297.57,366.63L297.69,367.32L297.81,369.84L298.41,368.46L298.53,368.69L298.65,370.76L298.9,373.51L299.38,371.45L299.5,370.99L299.63,370.53L299.87,371.68L299.99,372.37L300.11,371.68L300.35,373.28L300.47,374.43L301.19,377.19L301.32,376.5L301.44,376.73L301.68,375.58L302.04,376.5L302.17,376.73L302.29,376.27L302.41,377.64L302.53,376.96L302.65,377.87L303.62,374.66L303.74,372.83L303.86,373.51L304.1,372.14L304.23,370.76L304.58,370.07L305.07,371.68L305.19,370.3L306.16,373.97L306.28,373.28L306.52,375.35L306.76,374.66L306.89,372.6L307.25,370.53L307.62,372.82L307.74,372.6L307.87,373.05L308.11,371.91L308.23,372.14L308.35,371.22L308.84,369.84L309.43,374.43L309.56,373.74L309.68,373.97L309.81,372.14L311.02,366.86L311.14,368.01L311.26,367.78L311.5,368.69L311.62,370.07L312.22,373.05L312.47,371.68L312.6,370.3L313.34,366.17L313.47,367.09L313.59,366.17L314.09,367.09L314.34,365.48L314.46,366.63L314.58,366.86L314.7,365.71L314.83,365.71L315.57,367.55L315.69,366.86L315.82,366.86L315.94,368L316.19,366.63L316.56,366.86L316.68,367.09L317.17,366.86L317.54,369.38L317.67,368.23L318.79,363.87L318.92,363.87L319.29,366.63L319.9,366.4L320.03,366.17L320.28,365.48L321.14,370.3L321.27,368.69L321.39,367.32L321.77,366.4L321.89,368.01L322.01,368.01L322.38,368.46L322.51,366.4L322.88,366.17L323.26,368.46L323.38,368L323.5,367.32L323.87,368.69L324.12,366.86L324.25,366.86L325.11,370.76L325.36,369.84L325.48,369.61L325.73,369.15L325.85,370.76L326.71,372.82L326.84,372.14L326.96,371.22L327.08,373.74L327.45,372.6L327.57,374.43L328.44,377.64L328.57,377.42L328.7,376.73L328.82,377.42L329.2,375.81L329.33,374.43L329.71,375.12L329.96,373.51L330.09,375.12L330.34,377.19L330.97,376.5L331.1,376.73L331.37,378.33L331.75,377.64L331.88,377.42L332.25,378.79L332.39,376.96L332.52,376.73L332.9,379.48L333.28,379.02L333.41,377.87L334.67,380.4L334.79,381.32L334.92,380.86L335.17,382.69L335.3,383.38L335.55,383.15L336.05,385.22L336.18,384.53L336.3,384.53L336.43,384.99L336.68,384.07L336.81,384.3L336.93,383.38L337.19,381.55L337.56,382.24L337.69,383.15L338.31,387.51L338.57,386.14L338.7,387.97L339.2,388.89L339.33,388.2L339.45,387.74L339.58,388.2L339.71,386.6L339.84,385.91L341.61,381.78L341.74,381.78L341.86,382.01L341.99,384.07L342.24,384.76L342.62,383.84L342.74,383.38L342.87,384.76L343.13,382.92L343.38,383.38L343.51,382.69L344.52,384.53L344.65,383.38L344.91,381.78L345.42,385.22L345.55,384.07L345.68,384.3L345.81,383.15L345.94,382.92L346.71,384.3L346.84,382.46L347.22,382.92L347.61,381.09L347.73,382.24L347.86,380.4L348.25,384.07L348.38,384.07L349.18,382.24L349.31,383.61L349.57,384.07L349.7,383.15L349.95,383.61L350.08,383.15L350.59,379.94L350.98,380.86L351.11,381.78L352.14,375.58L352.4,375.81L352.53,376.27L352.66,376.96L353.05,375.12L353.18,373.74L354.21,376.73L354.34,377.42L354.47,378.56L354.86,376.27L355.11,378.33L355.24,377.64L355.76,376.27L356.02,377.42L356.16,378.1L356.42,378.33L357.32,373.97L357.45,374.2L357.58,376.73L357.97,377.19L358.09,375.81L358.22,375.12L358.35,374.2L358.74,376.27L358.87,376.5L359,377.19L359.39,375.35L359.52,376.04L359.65,376.5L359.78,377.64L360.17,375.12L360.3,374.66L360.55,375.12L361.33,370.76L361.59,372.37L361.72,372.82L362.11,373.97L362.5,372.37L362.63,373.28L363.29,376.04L363.68,375.81L363.82,374.43L365.14,381.55L365.66,380.63L365.8,381.09L366.19,384.53L366.71,383.38L366.84,384.07L366.98,384.99L367.24,382.69L367.37,382.01L367.9,382.24L368.16,379.94L368.43,380.17L368.56,381.78L368.69,382.01L368.82,380.86L368.95,380.63L369.22,379.94L369.76,380.4L369.89,381.32L370.02,380.4L370.28,383.84L370.42,383.61L370.81,380.17L371.21,382.69L371.34,382.01L372.13,378.79L372.39,379.48L372.52,381.09L372.79,380.17L373.05,380.86L373.18,381.78L373.84,378.33L373.97,379.25L374.1,379.71L374.24,378.56L374.76,380.17L374.9,379.02L375.03,380.17L375.29,378.56L375.68,379.71L375.81,380.63L377.39,375.12L377.53,375.58L378.32,372.14L378.45,373.05L378.58,374.66L378.97,375.58L379.38,373.05L379.51,373.74L379.77,374.2L379.91,373.97L380.05,373.05L380.72,376.96L381.26,376.73L381.39,375.35L381.53,374.66L381.8,376.27L381.93,376.27L382.06,376.96L382.61,376.73L382.74,377.64L383.01,379.48L383.28,379.25L383.41,377.19L384.35,380.4L384.48,379.71L385.69,382.46L385.83,381.32L385.97,379.94L387.17,385.22L387.31,384.53L387.98,382.92L388.11,383.61L388.25,384.53L388.51,383.38L388.92,384.3L389.05,385.45L389.18,384.99L389.33,385.91L389.6,385.45L389.74,386.6L389.87,386.37L390.14,387.28L390.27,387.51L390.55,386.83L390.82,388.66L390.95,387.51L391.08,386.37L391.76,387.74L391.89,387.28L392.02,385.68L392.16,386.37L392.29,384.99L392.43,383.61L392.83,386.14L393.37,385.91L393.5,386.14L394.17,384.07L394.3,384.53L394.44,385.22L394.58,383.84L394.98,386.83L395.11,386.6L395.38,385.45L395.66,386.14L395.79,387.28L396.46,385.22L396.6,385.91L396.74,386.6L397.01,385.68L397.55,389.58L397.69,388.66L397.82,387.74L398.92,388.89L399.06,388.2L399.19,387.51L399.33,388.66L399.46,390.5L399.59,390.73L399.73,389.58L399.87,389.35L400.01,390.5L400.29,387.74L400.42,387.51L400.56,386.6L400.84,388.43L400.98,390.27L401.11,391.87L401.66,390.27L401.8,389.12L402.21,389.81L403.31,385.22L403.44,385.45L403.58,385.91L403.86,383.84L404.13,385.22L404.26,386.14L405.9,390.96L406.19,389.81L406.32,389.12L407.83,384.99L407.96,385.45L408.24,386.6L408.51,384.76L408.65,385.22L408.79,385.91L409.61,384.53L409.75,384.99L409.89,385.68L410.16,384.07L410.3,383.38L411.81,378.33L411.95,379.25L412.09,379.48L412.64,378.1L412.77,380.17L413.05,378.56L413.18,377.64L413.32,376.96L413.59,379.25L413.73,378.33L413.86,379.71L414.41,382.92L414.7,380.4L414.83,381.09L415.81,382.92L415.95,381.55L417.63,388.66L418.05,387.51L418.19,387.06L418.46,387.74L418.74,386.83L418.88,386.83L420.13,392.56L420.27,393.71L420.41,393.25L420.55,394.86L420.69,394.63L420.83,396.01L421.39,398.07L421.53,397.15L421.68,396.69L421.96,396.69L422.1,395.78L423.07,398.76L423.21,398.07L423.35,397.38L423.49,398.3L423.78,398.3L423.91,399.68L424.19,399.22L424.47,399.91L424.61,400.83L425.72,403.35L425.89,403.12L426.03,402.66L426.17,402.89L426.45,401.97L426.58,404.5L426.72,402.89L427.15,406.1L427.29,406.1L427.57,404.5L427.98,406.1L428.12,405.65L428.95,409.09L429.09,408.86L429.23,407.94L429.37,408.17L429.65,407.48L429.93,407.71L430.07,407.48L430.35,408.86L430.49,407.71L430.63,406.79L430.77,408.17L431.05,406.33L431.32,407.25L431.47,405.88L432.45,401.97L432.59,402.43L433.02,401.28L433.16,400.37L433.73,401.06L433.87,400.37L434.02,398.3L435.02,393.94L435.16,395.09L435.3,396.24L436.14,401.28L436.28,400.83L436.43,398.99L436.57,397.84L436.71,399.68L437.14,399.22L437.29,399.45L437.57,400.83L437.72,399.91L437.86,398.76L439.56,396.92L439.71,397.15L439.85,397.61L439.99,397.38L440.16,398.3L440.3,398.07L440.44,398.3L440.58,399.91L441.15,398.53L441.3,397.61L442.01,395.32L442.15,395.55L442.29,396.92L443.29,392.79L443.43,394.63L443.57,394.4L443.86,395.32L444,396.69L444.56,396.47L444.84,397.61L444.98,396.24L446.54,400.37L446.68,399.68L447.39,400.37L447.53,399.45L447.68,397.84L447.96,399.68L448.1,398.99L448.24,400.6L448.39,401.06L448.53,399.22L448.67,399.45L449.1,400.37L449.38,400.14L449.52,398.53L450.23,395.78L450.51,396.69L450.65,397.61L450.79,397.38L450.94,394.86L452.23,400.6L452.38,400.37L452.96,398.53L453.11,399.68L453.25,400.6L453.68,398.99L453.82,400.6L454.11,400.14L454.69,402.2L454.84,399.68L455.12,399.68L455.27,398.07L456.28,400.14L456.42,398.99L457.14,396.47L457.43,396.69L457.58,396.92L458.02,397.84L458.45,394.63L458.59,395.09L459.03,395.32L459.17,394.4L460.47,390.27L460.61,391.19L461.33,393.48L461.48,393.25L461.62,393.48L461.76,393.25L461.9,393.71L462.05,395.55L462.33,394.86L462.48,395.78L462.77,395.09L462.91,396.69L463.34,399.91L463.78,398.3L463.92,398.53L464.07,398.76L464.21,400.6L464.79,399.91L464.93,400.83L465.07,400.6L465.21,401.29L465.36,402.2L466.37,396.24L466.66,396.92L466.81,397.84L467.81,399.91L467.95,399.45L468.1,399.45L468.24,398.53L468.53,398.99L469.26,395.78L469.4,396.01L469.55,396.01L470.56,399.22L470.71,398.99L471,398.76L471.59,399.45L471.73,399.22L471.88,401.51L472.17,403.35L472.32,401.29L472.47,401.06L472.92,401.74L473.07,400.83L474.98,405.19L475.13,404.96L475.42,405.65L475.71,404.73L475.86,405.88L477.18,400.6L477.33,401.29L477.47,402.43L477.91,399.22L478.21,401.06L478.35,401.51L478.64,401.74L478.8,400.14L479.24,401.29L479.68,401.06L479.82,399.68L480.12,399.68L480.26,400.6L481,402.2L481.15,401.06L481.44,402.2L481.73,401.29L481.88,400.37L482.47,399.22L482.61,400.14L482.76,400.6L483.49,403.58L483.63,402.66L483.78,401.97L484.23,403.81L484.52,402.2L484.67,401.74L485.26,399.91L485.4,400.6L485.55,401.29L485.84,402.66L485.99,401.06L486.14,401.51L486.29,401.06L486.72,401.74L486.87,401.29L487.02,400.37L487.6,402.66L487.9,401.74L488.04,401.51L488.34,400.83L488.49,399.45L489.38,401.29L489.53,402.2L490.12,399.91L490.27,399.22L490.6,398.76L491.04,401.97L491.19,401.06L491.34,399.22L491.49,399.22L491.64,401.06L492.24,398.07L492.54,398.53L492.68,400.6L492.83,401.06L492.98,400.14L493.28,400.83L493.43,399.68L494.33,398.3L494.48,398.53L494.63,399.45L495.25,399.22L496,403.58L496.14,402.89L496.3,401.74L496.45,401.29L496.59,402.89L496.74,404.73L497.04,404.5L497.19,405.19L497.33,405.19L497.48,405.19L497.63,405.42L497.78,404.04L498.08,401.29L498.38,402.2L498.53,404.96L500.03,410.92L500.18,410.01L500.62,409.55L500.77,408.86L500.92,409.55L501.08,408.17L501.38,408.4L501.53,406.33L501.82,406.56L501.97,407.94L502.27,407.48L502.56,408.17L502.72,408.4L502.87,408.17L503.16,408.63L503.31,409.32L503.46,410.01L503.76,408.63L503.91,408.17L504.05,408.86L504.35,407.02L504.5,406.79L504.65,406.56L504.8,407.48L504.95,408.4L505.1,407.94L505.25,409.09L505.39,408.63L505.54,409.32L505.99,406.56L506.44,407.71L506.59,408.63L507.33,412.76L507.48,412.53L507.62,410.92L508.22,409.09L508.37,410.7L508.66,412.76L508.97,411.38L509.12,410.24L510.34,412.76L510.49,412.3L510.64,411.61L511.1,409.55L511.25,410.7L511.4,411.38L511.55,410.92L511.85,412.3L512,413.45L512.15,412.76L512.45,412.99L512.6,414.37L513.2,422.17L513.65,418.96L513.81,417.81L513.96,417.81L514.11,418.73L514.57,419.65L514.72,418.73L514.87,418.5L515.33,417.81L515.48,418.96L515.63,418.96L516.08,420.79L516.24,420.34L516.39,422.86L517.44,424.93L517.59,425.15L518.79,429.29L518.94,430.43L519.09,430.2L519.24,431.35L520.17,432.5L520.32,406.33L520.63,406.79L520.78,408.4L521.53,412.3L521.69,412.07L521.84,410.7L522.14,409.32L522.29,410.47L523.19,418.04L523.51,417.35L523.66,417.12L523.96,416.43L524.11,418.73L524.41,420.79L524.57,418.5L524.72,417.58L525.02,418.04L525.32,417.58L525.48,416.66L525.79,415.97L526.09,417.35L526.24,418.04L526.7,417.35L526.85,416.43L527.15,415.52L527.46,416.89L527.61,417.35L528.36,411.84L528.67,413.91L528.82,415.97L529.13,416.43L529.28,415.06L530.98,421.25L531.14,421.25L532.21,418.96L532.37,419.65L532.53,419.42L532.68,417.81L532.99,417.58L533.14,418.5L533.29,419.42L533.6,420.79L533.91,419.42L534.06,419.42L534.22,419.42L534.37,420.34L534.98,424.24L535.28,423.09L535.44,422.17L535.75,446.5L536.22,445.35L536.37,443.52L536.68,442.83L536.83,443.52L536.98,421.25L537.45,422.4L537.6,421.25L537.76,419.65L538.53,417.35L538.69,417.81L538.84,418.73L539.45,417.81L539.61,418.5L539.76,417.81L540.22,421.25L540.53,419.88L540.69,419.19L540.84,420.11L541,418.96L541.31,419.65L541.47,418.5L542.24,420.11L542.39,414.83L542.54,415.97L542.85,413.91L543.01,413.91L543.16,412.3L543.77,412.07L543.93,412.53L544.85,408.86L545,409.09L545.62,407.71L545.77,405.42L545.93,405.19L546.08,405.88L546.24,406.33L546.4,404.5L546.86,406.56L547.01,405.65L547.17,405.88L547.47,405.65L547.62,406.56L547.78,405.88L547.93,404.96L548.08,406.1L548.55,404.27L548.7,404.27L548.86,404.5L549.01,404.04L549.17,404.04L549.33,406.1L549.64,407.02L549.79,406.56L549.95,404.5L550.9,400.6L551.05,403.58L551.68,405.19L551.84,406.56L552.15,408.4L552.31,407.94L552.46,429.97L552.62,429.97L552.78,429.06L553.87,432.27L554.02,431.35L554.18,431.58L554.34,430.66L554.49,431.35L554.65,430.43L554.96,432.04L555.27,431.58L555.43,429.97L555.74,431.35L556.22,430.89L556.37,430.89L556.7,432.04L556.85,432.96L557.01,433.19L557.32,432.96L557.48,431.81L557.79,430.43L557.95,435.25L558.1,433.65L558.57,436.17L558.73,436.63L559.51,434.79L559.66,435.48L560.13,434.34L560.29,434.57L560.44,436.17L560.6,436.17L560.76,437.55L560.91,439.16L561.38,438.24L561.53,437.55L562.01,438.01L562.32,436.4L562.48,437.32L562.63,437.09L562.79,437.78L562.94,438.01L563.41,435.48L563.88,436.86L564.03,438.47L564.34,438.7L564.5,436.17L564.66,436.86L564.97,435.02L565.13,434.11L565.45,432.96L565.61,433.88L565.76,435.25L566.86,437.78L567.02,437.32L568.28,428.37L568.59,429.52L568.74,428.83L568.9,428.83L569.06,429.97L569.22,430.2L569.38,429.75L569.54,428.83L569.7,429.29L569.86,427.91L570.01,428.14L570.17,426.76L570.33,426.99L570.49,425.84L571.45,423.09L571.61,423.55L572.26,423.78L572.42,424.7L572.9,423.32L573.05,424.47L573.21,424.7L573.85,425.61L574.01,425.38L574.17,424.7L574.64,423.55L574.8,424.7L574.96,425.38L575.28,425.15L575.44,424.24L575.75,425.84L575.92,424.24L576.08,377.64L576.55,374.89L576.71,373.28L577.52,376.04L577.68,374.43L578.15,376.27L578.63,375.58L578.79,374.89L579.27,375.35L579.43,374.2L579.58,375.35L580.22,374.66L580.38,375.12L580.85,377.42L581.18,376.5L581.34,376.04L582.45,378.33L582.61,378.1L582.77,377.42L582.93,378.33L583.25,377.87L583.41,379.25L584.04,383.15L584.36,382.69L584.51,382.69L584.67,382.92L584.83,382.24L584.99,381.55L585.15,380.86L585.31,382.24L585.62,382.01L585.78,383.61L585.94,383.61L586.1,384.99L586.74,388.43L586.9,387.06L587.06,385.22L587.38,385.68L587.54,386.6L587.86,387.28L588.02,386.37L588.18,387.28L588.5,386.14L588.66,386.37L588.81,385.68L588.97,383.84L589.45,384.76L589.61,385.22L589.94,385.91L591.24,383.84L591.4,384.07L591.56,384.07L591.72,382.69L591.88,384.76L592.04,431.12L592.37,432.27L592.53,433.19L592.69,435.25L593.18,432.27L593.34,432.04L594.48,429.75L594.64,427.45L595.29,431.12L595.44,432.27L596.09,429.97L596.25,430.43L596.41,431.35L597.22,430.2L597.38,430.89L598.53,424.93L598.69,424.7L599.34,423.32L599.5,425.15L599.66,425.38L599.82,424.01L600.79,421.94L600.95,423.09L601.28,422.63L601.44,421.48L601.93,420.11L602.09,419.19L602.25,419.88L602.41,418.5L602.57,417.12L603.22,421.25L603.71,420.11L603.87,420.79L604.36,420.79L604.52,421.71L605,421.71L605.16,423.78L605.32,424.01L605.49,422.63L606.93,426.3L607.1,424.7L607.42,424.47L607.91,426.07L608.07,424.7L609.2,426.3L609.37,427.45L610.01,427.91L610.17,428.6L610.34,427.45L610.82,429.06L610.99,428.6L611.15,429.52L611.31,428.37L611.48,426.99L611.64,425.61L612.3,425.84L612.47,425.61L612.63,426.07L612.8,425.61L612.96,424.47L613.29,424.01L613.45,424.24L613.62,424.93L614.13,424.24L614.29,426.3L614.46,425.61L614.62,426.3L615.6,429.06L615.77,426.99L616.1,426.3L616.26,427.91L617.08,432.27L617.25,430.89L617.41,431.12L617.74,432.27L617.9,431.81L618.07,430.66L618.39,432.73L618.73,430.66L618.89,430.2L619.92,432.5L620.09,430.89L620.58,429.06L620.92,429.52L621.08,429.75L622.06,432.04L622.23,432.27L623.38,429.97L623.54,431.81L624.04,431.58L624.21,432.96L624.37,431.12L624.54,432.27L624.7,430.43L625.03,431.12L625.2,430.89L626.02,429.29L626.18,430.2L626.35,430.43L627.66,426.53L627.83,427.22L627.99,428.14L628.97,430.43L629.14,429.75L629.64,429.29L629.81,431.12L630.8,427.68L630.96,427.91L631.29,426.99L631.46,428.14L632.11,425.38L632.28,425.84L632.44,426.07L633.27,426.76L633.44,425.61L633.78,426.07L634.79,421.94L634.96,423.32L635.13,424.7L635.47,427.45L635.8,424.24L635.97,425.15L636.14,426.53L636.47,423.78L636.64,425.38L636.81,425.38L636.97,426.76L637.14,424.93L637.31,424.93L637.48,424.01L637.65,424.47L637.82,422.63L638.48,424.7L638.65,424.24L638.82,423.09L639.15,423.55L639.32,422.86L639.49,422.86L639.65,422.17L640,423.78L640.17,422.63L640.34,421.02L640.67,423.32L640.83,423.09L641,424.01L641.34,424.24L641.67,422.63L641.84,423.78L642.17,424.01L642.34,423.09L642.5,423.55L642.67,424.47L643.17,423.55L643.34,424.47L644.33,428.6L644.5,428.14L644.67,427.45L645.01,425.15L645.18,425.61L645.35,427.68L645.51,427.45L645.68,425.84L645.85,424.24L646.52,424.93L646.68,426.76L648.02,432.5L648.52,431.58L648.68,431.12L649.02,432.04L649.19,431.58L649.35,431.12L650.02,429.75L650.19,430.2L650.36,430.89L650.53,429.75L650.86,432.04L651.02,432.73L651.35,433.88L651.52,435.25L652.02,432.04L652.36,434.34L652.52,433.88L652.86,432.96L653.19,434.79L653.36,434.11L654.53,438.7L654.69,437.32L655.03,436.63L655.19,435.25L655.37,435.25L655.54,436.17L655.71,435.02L656.21,435.94L656.37,436.86L656.87,434.56L657.04,435.94L658.37,440.3L658.71,439.61L658.87,438.93L659.87,440.76L660.04,440.3L660.21,438.47L660.37,438.47L660.55,437.32L660.88,437.55L661.05,436.63L661.21,438.01L661.55,437.78L661.88,440.53L662.21,439.16L662.38,439.16L663.05,441.22L663.22,440.76L663.39,440.07L664.73,433.65L664.89,434.34L665.06,433.88L666.23,439.84L666.4,438.7L666.56,439.16L666.73,437.78L666.9,437.55L667.07,437.09L667.23,438.93L667.41,437.09L667.9,439.39L668.07,438.93L668.91,436.63L669.08,437.55L669.24,438.01L669.74,437.55L669.91,437.55L670.08,438.01L670.25,437.32L670.41,436.4L670.58,436.63L670.75,436.4"/></g><g class="points"/><g class="text"/></g><g class="trace scatter trace222664" style="stroke-miterlimit: 2; opacity: 1;"><g class="fills"/><g class="errorbars"/><g class="lines"/><g class="points"><path class="point" transform="translate(670.75,436.4)" style="opacity: 1; stroke-width: 0px; fill: rgb(25, 169, 121); fill-opacity: 1;" d="M3,0A3,3 0 1,1 0,-3A3,3 0 0,1 3,0Z"/></g><g class="text"/></g></g></g><g class="overplot"/><path class="xlines-above crisp" style="fill: none;" d="M0,0"/><path class="ylines-above crisp" style="fill: none;" d="M0,0"/><g class="overlines-above"/><g class="xaxislayer-above"><g class="xtick"><text text-anchor="middle" x="0" y="543" style="font-family: TOBESTRIPPEDOpen SansTOBESTRIPPED, verdana, arial, sans-serif; font-size: 12px; fill: rgb(32, 32, 32); fill-opacity: 1; white-space: pre;" transform="translate(81.35,0)">23:40:00</text></g><g class="xtick"><text text-anchor="middle" x="0" y="543" style="font-family: TOBESTRIPPEDOpen SansTOBESTRIPPED, verdana, arial, sans-serif; font-size: 12px; fill: rgb(32, 32, 32); fill-opacity: 1; white-space: pre;" transform="translate(185.22,0)">23:50:00</text></g><g class="xtick"><text text-anchor="middle" x="0" y="543" style="font-family: TOBESTRIPPEDOpen SansTOBESTRIPPED, verdana, arial, sans-serif; font-size: 12px; fill: rgb(32, 32, 32); fill-opacity: 1; white-space: pre;" transform="translate(289.1,0)">00:00:00</text></g><g class="xtick"><text text-anchor="middle" x="0" y="543" style="font-family: TOBESTRIPPEDOpen SansTOBESTRIPPED, verdana, arial, sans-serif; font-size: 12px; fill: rgb(32, 32, 32); fill-opacity: 1; white-space: pre;" transform="translate(392.97,0)">00:10:00</text></g><g class="xtick"><text text-anchor="middle" x="0" y="543" style="font-family: TOBESTRIPPEDOpen SansTOBESTRIPPED, verdana, arial, sans-serif; font-size: 12px; fill: rgb(32, 32, 32); fill-opacity: 1; white-space: pre;" transform="translate(496.84,0)">00:20:00</text></g><g class="xtick"><text text-anchor="middle" x="0" y="543" style="font-family: TOBESTRIPPEDOpen SansTOBESTRIPPED, verdana, arial, sans-serif; font-size: 12px; fill: rgb(32, 32, 32); fill-opacity: 1; white-space: pre;" transform="translate(600.72,0)">00:30:00</text></g><g class="xtick"><text text-anchor="middle" x="0" y="543" style="font-family: TOBESTRIPPEDOpen SansTOBESTRIPPED, verdana, arial, sans-serif; font-size: 12px; fill: rgb(32, 32, 32); fill-opacity: 1; white-space: pre;" transform="translate(704.59,0)">00:40:00</text></g></g><g class="yaxislayer-above"><g class="ytick"><text text-anchor="end" x="69" y="4.199999999999999" style="font-family: TOBESTRIPPEDOpen SansTOBESTRIPPED, verdana, arial, sans-serif; font-size: 12px; fill: rgb(32, 32, 32); fill-opacity: 1; white-space: pre;" transform="translate(0,419.63)">30</text></g><g class="ytick"><text text-anchor="end" x="69" y="4.199999999999999" style="font-family: TOBESTRIPPEDOpen SansTOBESTRIPPED, verdana, arial, sans-serif; font-size: 12px; fill: rgb(32, 32, 32); fill-opacity: 1; white-space: pre;" transform="translate(0,316.89)">35</text></g><g class="ytick"><text text-anchor="end" x="69" y="4.199999999999999" style="font-family: TOBESTRIPPEDOpen SansTOBESTRIPPED, verdana, arial, sans-serif; font-size: 12px; fill: rgb(32, 32, 32); fill-opacity: 1; white-space: pre;" transform="translate(0,214.15)">40</text></g><g class="ytick"><text text-anchor="end" x="69" y="4.199999999999999" style="font-family: TOBESTRIPPEDOpen SansTOBESTRIPPED, verdana, arial, sans-serif; font-size: 12px; fill: rgb(32, 32, 32); fill-opacity: 1; white-space: pre;" transform="translate(0,111.4)">45</text></g></g><g class="overaxes-above"/></g></g><g class="polarlayer"/><g class="ternarylayer"/><g class="geolayer"/><g class="pielayer"/><g class="sunburstlayer"/><g class="glimages"/><defs id="topdefs-d688a7"><g class="clips"/></defs><g class="layer-above"><g class="imagelayer"/><g class="shapelayer"/></g><g class="infolayer"><g class="g-gtitle"/><g class="g-xtitle"/><g class="g-ytitle"/></g></svg>