<svg class="main-svg" xmlns="http://www.w3.org/2000/svg" xmlns:xlink="http://www.w3.org/1999/xlink" width="800" height="600" style="" viewBox="0 0 800 600"><rect x="0" y="0" width="800" height="600" style="fill: rgb(255, 255, 255); fill-opacity: 1;"/><defs id="defs-ca2000"><g class="clips"><clipPath id="clipca2000xyplot" class="plotclip"><rect width="710" height="470"/></clipPath><clipPath class="axesclip" id="clipca2000x"><rect x="80" y="0" width="710" height="600"/></clipPath><clipPath class="axesclip" id="clipca2000y"><rect x="0" y="50" width="800" height="470"/></clipPath><clipPath class="axesclip" id="clipca2000xy"><rect x="80" y="50" width="710" height="470"/></clipPath></g><g class="gradients"/></defs><g class="bglayer"/><g class="layer-below"><g class="imagelayer"/><g class="shapelayer"/></g><g class="cartesianlayer"><g class="subplot xy"><g class="layer-subplot"><g class="shapelayer"/><g class="imagelayer"/></g><g class="gridlayer"><g class="x"><path class="xgrid crisp" transform="translate(162.05,0)" d="M0,50v470" style="stroke: rgb(238, 238, 238); stroke-opacity: 1; stroke-width: 1px;"/><path class="xgrid crisp" transform="translate(280.99,0)" d="M0,50v470" style="stroke: rgb(238, 238, 238); stroke-opacity: 1; stroke-width: 1px;"/><path class="xgrid crisp" transform="translate(399.94,0)" d="M0,50v470" style="stroke: rgb(238, 238, 238); stroke-opacity: 1; stroke-width: 1px;"/><path class="xgrid crisp" transform="translate(518.89,0)" d="M0,50v470" style="stroke: rgb(238, 238, 238); stroke-opacity: 1; stroke-width: 1px;"/><path class="xgrid crisp" transform="translate(637.83,0)" d="M0,50v470" style="stroke: rgb(238, 238, 238); stroke-opacity: 1; stroke-width: 1px;"/><path class="xgrid crisp" transform="translate(756.78,0)" d="M0,50v470" style="stroke: rgb(238, 238, 238); stroke-opacity: 1; stroke-width: 1px;"/></g><g class="y"><path class="ygrid crisp" transform="translate(0,496.88)" d="M80,0h710" style="stroke: rgb(238, 238, 238); stroke-opacity: 1; stroke-width: 1px;"/><path class="ygrid crisp" transform="translate(0,435.79)" d="M80,0h710" style="stroke: rgb(238, 238, 238); stroke-opacity: 1; stroke-width: 1px;"/><path class="ygrid crisp" transform="translate(0,374.71)" d="M80,0h710" style="stroke: rgb(238, 238, 238); stroke-opacity: 1; stroke-width: 1px;"/><path class="ygrid crisp" transform="translate(0,313.63)" d="M80,0h710" style="stroke: rgb(238, 238, 238); stroke-opacity: 1; stroke-width: 1px;"/><path class="ygrid crisp" transform="translate(0,252.54)" d="M80,0h710" style="stroke: rgb(238, 238, 238); stroke-opacity: 1; stroke-width: 1px;"/><path class="ygrid crisp" transform="translate(0,191.46)" d="M80,0h710" style="stroke: rgb(238, 238, 238); stroke-opacity: 1; stroke-width: 1px;"/><path class="ygrid crisp" transform="translate(0,130.38)" d="M80,0h710" style="stroke: rgb(238, 238, 238); stroke-opacity: 1; stroke-width: 1px;"/><path class="ygrid crisp" transform="translate(0,69.3)" d="M80,0h710" style="stroke: rgb(238, 238, 238); stroke-opacity: 1; stroke-width: 1px;"/></g></g><g class="zerolinelayer"/><path class="xlines-below"/><path class="ylines-below"/><g class="overlines-below"/><g class="xaxislayer-below"/><g class="yaxislayer-below"/><g class="overaxes-below"/><g class="plot" transform="translate(80, 50)" clip-path="url('#clipca2000xyplot')"><g class="scatterlayer mlayer"><g class="trace scatter trace7ed79c" style="stroke-miterlimit: 2; opacity: 1;"><g class="fills"/><g class="errorbars"/><g class="lines"><path class="js-line" style="vector-effect: non-scaling-stroke; fill: none; stroke: rgb(88, 153, 218); stroke-opacity: 1; stroke-width: 1.5px; opacity: 1;" d="M-7530.52,378.18L-7529.45,291.72L-7529.33,292.8"/></g><g class="points"/><g class="text"/></g><g class="trace scatter traceb6aa04" style="stroke-miterlimit: 2; opacity: 1;"><g class="fills"/><g class="errorbars"/><g class="lines"><path class="js-line" style="vector-effect: non-scaling-stroke; fill: none; stroke: rgb(244, 180, 0); stroke-opacity: 1; stroke-width: 1.5px; opacity: 1;" d="M-7494.72,302L-7494.6,281.53L-7493.17,355.6L-7471.52,339.39L-7119.44,380.59L-6974.09,423.03L-6968.14,356.44L-6960.41,259.29L-6901.65,410.75L-6890.59,350.17L-6800.9,403.38L-6782.47,384.69L-6629.86,351.39L-6620.58,368.45L-6566.1,375.41L-6550.4,420.71L-6516.62,422.76L-6494.5,163.36L-6481.89,372.68L-6473.68,378.14L-6413.85,362.72L-6404.81,409.79L-6375.07,355.21L-6333.44,386.05L-6329.4,381.41L-6325.83,365.04L-6294.31,401.61L-6273.73,397.65L-6264.93,420.3L-6195.23,273.48L-6188.45,318.51L-6182.74,398.74L-6158,337.2L-6118.27,361.49L-6106.97,403.65L-6060.58,415.25L-6042.03,371.45L-6036.43,382.91L-5964.71,303.91L-5936.88,326.97L-5919.75,331.88L-5862.06,335.97L-5851.83,334.61L-5740.61,339.25L-5736.45,334.06L-5671.98,372.95L-5658.3,361.63L-5644.51,360.81L-5636.42,334.75L-5600.5,374.73L-5588.72,368.18L-5583.37,373.36L-5542.09,352.48L-5529.01,387.28L-5525.32,403.11L-5511.88,332.29L-5467.87,363.26L-5464.18,392.06L-5456.21,422.35L-5430.52,357.81L-5412.68,376.23L-5404,377.18L-5395.31,396.83L-5361.65,361.9L-5350.71,357.4L-5339.88,345.94L-5325.02,404.34L-5311.1,386.6L-5310.62,396.42L-5300.04,407.2L-5282.79,388.92L-5246.39,306.55L-5206.07,298.72L-5203.93,311.82L-5198.58,349.76L-5183.35,376.77L-5174.67,207.44L-5151.12,316.73L-5143.27,324.24L-5044.18,333.52L-5042.88,330.11L-5036.57,330.93L-4911.68,386.46L-4904.3,272.66L-4872.54,380.59L-4840.19,372.95L-4839,355.9L-4793.56,401.33L-4792.97,303.91L-4783.22,274.16L-4775.13,365.99L-4758.83,362.99L-4752.88,359.72L-4712.32,377.32L-4707.33,399.7L-4693.89,340.2L-4647.26,358.35L-4644.05,359.72L-4583.27,378.82L-4582.2,373.09L-4576.61,354.94L-4539.26,405.97L-4492.39,290.3L-4459.21,341.84L-4457.54,350.57L-4446.84,366.81L-4434.82,187.24L-4432.09,172.1L-4424.47,353.85L-4421.02,386.73L-4407.58,421.39L-4400.68,274.3L-4396.05,95.82L-4391.76,57.34L-4386.53,309.64L-4372.73,298.86L-4369.16,300.5L-4308.14,393.15L-4301.48,385.64L-4299.1,300.22L-4291.25,307.32L-4288.28,401.61L-4280.79,393.83L-4272.22,237.18L-4265.8,66.89L-4232.02,323.56L-4226.31,344.02L-4203,323.83L-4185.15,350.71L-4181.47,309.23L-4168.26,338.16L-4144.24,309.23L-4138.76,333.52L-4118.9,408.7L-4091.78,350.85L-4089.16,277.16L-4078.93,176.6L-4066.68,377.05L-4054.55,344.71L-4048.25,308.41L-4037.9,294.63L-4031.36,341.57L-4012.44,332.97L-4010.42,339.39L-3993.53,388.1L-3973.19,307.87L-3970.46,329.7L-3967.72,325.88L-3949.52,331.33L-3942.38,360.4L-3941.31,373.5L-3937.27,395.06L-3909.91,343.34L-3902.42,353.3L-3893.97,352.76L-3886.84,334.47L-3837.35,379.37L-3834.74,373.09L-3829.62,365.17L-3785.37,375.27L-3747.91,261.06L-3719.6,297.49L-3708.77,291.76L-3704.25,290.54L-3581.26,342.93L-3576.74,350.98L-3563.9,334.2L-3553.43,368.72L-3550.57,212.49L-3544.03,191.47L-3539.87,203.34L-3538.44,337.61L-3517.98,339.79L-3511.2,366.4L-3509.18,379.78L-3497.76,255.06L-3472.07,359.58L-3468.98,360.4L-3463.39,368.31L-3461.84,340.61L-3456.96,359.58L-3454.7,229L-3450.9,222.04L-3449.95,253.97L-3449.35,251.65L-3446.73,152.99L-3402.37,363.54L-3401.06,228.45L-3388.33,357.67L-3361.33,300.5L-3361.21,300.36L-3340.16,333.38L-3338.97,347.3L-3330.64,413.07L-3306.73,321.65L-3304.36,321.78L-3284.37,363.67L-3282.35,369.68L-3271.65,235L-3247.86,297.63L-3245.12,302.13L-3232.04,387.14L-3214.31,311.28L-3211.1,303.36L-3198.61,292.86L-3192.07,324.1L-3189.69,342.39L-3177.32,371.32L-3159.12,316.73L-3158.77,318.24L-3156.86,318.1L-3137.47,369.54L-3135.21,400.38L-3130.22,446.5L-3112.26,323.69L-3108.21,330.79L-3105.24,334.47L-3084.54,264.61L-3081.09,305.55L-3078.24,331.47L-3074.79,303.91L-3073.12,412.93L-3045.05,322.6L-3043.98,321.37L-3036.01,352.21L-2997.83,280.56L-2959.05,287.26L-2957.51,288.63L-2900.89,295.72L-2900.77,296.81L-2900.65,297.63L-2604.83,302.54L-2604.24,301.04L-2587.94,336.11L-2585.8,342.8L-2533.82,390.15L-2531.09,387.55L-2529.54,382.5L-2520.5,391.78L-2517.88,253.42L-2514.91,247.01L-2513.24,101.69L-2507.65,67.98L-2506.94,203.75L-2502.9,195.43L-2501.82,333.93L-2490.05,341.84L-2489.57,340.34L-2485.89,198.16L-2475.78,23.5L-2461.74,304.18L-2461.03,303.09L-2446.28,297.9L-2445.21,304.59L-2442.23,325.47L-2429.86,390.96L-2414.16,349.21L-2413.33,350.03L-2383.59,373.77L-2382.88,291.22L-2372.53,270.34L-2370.75,346.21L-2347.67,325.47L-2341.25,344.84L-2341.13,345.25L-2335.18,356.44L-2334.82,216.44L-2329.47,206.21L-2329.35,206.35L-2326.38,62.66L-2323.52,49.7L-2321.86,185.2L-2316.74,169.09L-2314.37,313.32L-2291.53,322.47L-2289.62,271.57L-2285.34,278.66L-2246.92,292.45L-2244.31,298.75L-2231.46,284.94L-2224.8,284.8L-2223.25,282.76L-2153.19,283.17L-2150.93,280.44L-2060.65,287.81L-2059.11,286.17L-2043.17,299L-2033.89,285.76L-2033.65,286.03L-1908.28,296.13L-1906.38,295.04L-1787.08,314.41L-1786.24,317.96L-1754.72,329.29L-1753.41,327.1L-1752.7,326.29L-1718.21,327.1L-1715.83,325.74L-1707.02,320.56L-1701.32,330.11L-1700.96,188.74L-1690.13,161.45L-1689.06,299.81L-1664.8,291.63L-1662.18,303.09L-1659.68,312.91L-1645.05,330.93L-1639.82,318.51L-1639.58,318.1L-1613.89,301.32L-1613.3,302.27L-1595.93,328.47L-1589.39,314.82L-1588.44,314.82L-1574.28,294.49L-1567.98,308.82L-1567.5,310.18L-1550.61,342.52L-1549.18,338.84L-1547.64,307.73L-1537.41,273.89L-1535.86,297.49L-1499.82,288.35L-1497.32,300.76L-1482.69,295.04L-1482.22,294.36L-1469.13,282.62L-1463.66,286.99L-1461.4,290.95L-1439.04,286.85L-1438.8,286.03L-1415.37,285.9L-1415.01,284.26L-1265.26,287.12L-1264.19,285.35L-1252.29,297.63L-1245.87,290.13L-1244.68,288.76L-1205.43,291.22L-1205.19,292.17L-1170.34,291.35L-1170.22,289.99L-1153.92,296.13L-1152.62,297.22L-1136.32,297.22L-1135.49,297.22L-1121.21,294.36L-1121.1,293.81L-1120.86,292.72L-1103.85,292.45L-1102.42,296.27L-1081.01,300.91L-1079.23,298.04L-1078.99,296.27L-1064.95,291.9L-1064.83,292.31L-1063.53,293.95L-1046.75,304.32L-1046.16,306.36L-1027.6,300.36L-1027.37,300.91L-1008.93,295.58L-1008.81,296.54L-1008.45,296.95L-1000.84,292.45L-996.2,300.22L-995.84,300.77L-981.1,308.14L-980.74,309.91L-968.84,307.32L-968.72,307.73L-968.13,310.87L-951.95,316.87L-951.72,316.19L-951.6,315.1L-943.39,319.46L-943.15,271.3L-931.49,247.96L-931.14,296.4L-914.6,294.36L-914.37,292.99L-902.23,301.45L-901.76,305.14L-890.81,336.79L-888.08,328.33L-887.6,327.51L-873.92,312.64L-872.74,311.96L-853.7,309.37L-852.63,311.96L-851.8,314.01L-838.36,328.61L-835.86,323.28L-835.74,322.74L-816.83,307.05L-816.35,308.68L-800.42,311.69L-800.06,312.1L-789.47,328.06L-786.97,321.92L-750.34,329.29L-742.49,298.39L-741.66,300.18L-741.18,301.65L-722.27,281.94L-719.53,285.21L-719.06,285.35L-713.11,290.54L-711.32,293.54L-702.88,293.81L-702.05,291.35L-701.57,290.67L-690.51,289.85L-690.39,290.13L-689.91,290.54L-685.63,294.36L-681.23,290.81L-680.64,290.26L-667.31,289.44L-666.6,289.17L-648.05,295.72L-647.81,294.77L-646.97,294.9L-641.86,295.86L-640.31,291.76L-640.19,291.35L-628.06,291.35L-627.94,291.76L-619.02,289.44L-618.78,288.63L-611.05,279.89L-608.67,282.76L-608.08,282.62L-595.71,292.99L-593.69,289.85L-593.09,290.13L-569.66,288.76L-569.42,289.03L-556.34,289.31L-556.22,289.85L-554.2,287.67L-549.68,288.63L-549.2,288.9L-544.8,283.58L-542.66,287.94L-541.59,290.67L-532.91,295.99L-532.79,295.45L-526.01,290.26L-525.89,290.4L-524.94,290.95L-523.03,287.12L-518.87,291.22L-518.27,290.4L-517.09,287.67L-512.92,291.63L-511.73,293.95L-498.65,285.08L-498.29,286.17L-491.75,293.4L-491.16,293.13L-490.08,289.72L-486.4,294.22L-483.9,290.26L-483.3,289.99L-474.98,278.94L-474.38,280.57L-459.99,290.54L-459.87,290.26L-458.21,290.67L-451.07,292.04L-450.48,290.13L-449.76,288.35L-437.75,285.35L-437.63,285.62L-437.03,285.62L-427.99,287.94L-426.69,290.13L-421.21,294.22L-421.1,294.77L-417.53,297.09L-416.1,295.31L-415.51,292.45L-408.01,286.72L-407.65,286.85L-402.42,286.72L-402.06,287.94L-396.95,290.26L-396,287.67L-395.28,286.31L-385.65,282.35L-385.29,283.58L-383.98,286.85L-378.39,291.35L-377.68,289.44L-377.44,288.35L-374.11,293.54L-373.76,294.49L-369.59,293.13L-368.88,294.9L-368.4,296.54L-366.62,293.95L-363.88,296.68L-363.53,297.49L-361.74,295.58L-358.89,300.09L-358.53,299.54L-358.05,298.59L-357.7,299.95L-354.13,295.86L-354.01,296.54L-353.53,295.18L-344.85,287.81L-343.9,289.03L-343.78,289.58L-340.93,296.68L-338.9,292.72L-338.19,292.17L-331.05,292.99L-330.7,291.22L-330.58,290.54L-321.54,291.08L-320.94,289.44L-318.33,292.17L-316.3,290.54L-316.07,289.99L-304.05,302.54L-302.98,300.22L-301.67,299.41L-298.94,298.31L-297.99,299.95L-297.27,300.5L-295.61,300.09L-295.13,298.31L-294.66,296.54L-291.44,299.95L-291.33,300.63L-287.28,302.95L-286.33,299.41L-286.09,298.59L-280.38,292.58L-279.67,293.13L-279.31,294.22L-274.55,292.17L-273.84,293.13L-273.6,293.4L-272.65,295.58L-270.87,291.22L-270.63,291.49L-270.51,291.22L-269.32,293.54L-267.18,291.49L-266.11,290.81L-264.68,290.54L-263.97,289.99L-262.3,289.44L-260.04,291.9L-259.92,291.9L-258.38,292.99L-257.31,290.13L-256.71,291.35L-256,292.72L-250.53,294.9L-250.29,295.45L-248.39,290.13L-246.72,294.08L-246.36,294.36L-244.82,297.63L-242.8,296.81L-242.68,296.68L-241.61,295.31L-240.65,299.27L-239.58,300.5L-238.87,298.04L-236.02,299.81L-235.54,298.45L-226.62,286.17L-226.5,286.58L-225.19,284.12L-223.41,286.44L-223.29,286.85L-222.46,287.53L-221.5,284.94L-221.27,283.58L-218.17,287.4L-217.82,288.08L-215.79,286.72L-215.2,287.4L-213.89,289.72L-210.44,292.45L-210.08,291.9L-206.4,298.04L-206.04,296.54L-205.8,295.45L-203.42,299.54L-201.52,297.9L-200.57,295.99L-199.74,294.63L-198.19,297.49L-197.83,297.77L-194.15,296.27L-194.03,297.36L-193.79,297.9L-191.89,295.45L-191.29,294.9L-186.77,296.68L-185.94,295.58L-182.37,293.13L-182.25,293.95L-181.06,297.09L-173.21,290.81L-172.5,292.72L-169.17,289.31L-169.05,288.9L-167.98,289.03L-167.62,287.67L-166.91,285.76L-164.41,286.31L-164.17,285.62L-161.55,290.13L-160.96,288.9L-160.6,288.76L-159.89,290.95L-159.65,290.81L-158.94,291.08L-155.49,295.86L-154.77,296.54L-154.06,295.45L-153.47,298.04L-153.23,298.18L-152.99,298.18L-151.21,302.27L-150.14,301.04L-149.78,299.41L-147.76,296.68L-147.28,297.36L-147.04,297.63L-146.33,298.31L-144.07,295.86L-143.83,297.09L-141.45,295.18L-141.1,295.18L-139.19,290.4L-138.72,291.63L-137.77,292.99L-135.15,290.95L-134.67,290.26L-133.01,291.22L-132.06,287.53L-131.94,287.67L-130.87,288.9L-130.39,289.58L-129.2,289.03L-128.96,290.4L-125.16,286.99L-124.8,287.4L-121.83,287.67L-120.76,287.26L-120.28,287.81L-120.04,286.99L-119.69,285.49L-118.62,287.12L-117.9,285.08L-117.54,285.08L-111.12,295.72L-110.65,295.18L-110.41,295.18L-108.74,294.22L-108.27,295.58L-106.24,298.18L-106.01,298.04L-103.87,297.77L-103.39,298.18L-101.61,294.49L-101.49,295.72L-101.25,295.04L-97.92,295.45L-97.68,296.95L-95.3,298.59L-95.18,298.18L-93.64,300.22L-93.16,299L-92.8,299.54L-91.85,297.77L-91.14,298.45L-90.78,299.68L-89,299.68L-88.76,300.36L-86.98,300.22L-86.74,300.77L-83.41,298.59L-83.17,298.72L-82.34,295.45L-81.38,297.09L-81.15,298.18L-74.72,290.67L-74.61,291.08L-72.58,294.77L-71.51,294.9L-70.44,293.4L-69.97,293.95L-69.73,293.4L-68.9,290.67L-68.06,291.49L-67.71,291.49L-67.47,290.81L-66.16,291.76L-65.33,294.22L-64.26,293.95L-63.78,295.45L-61.88,295.58L-61.52,294.77L-60.93,295.45L-60.81,294.9L-60.21,293.4L-59.26,296.81L-58.43,296.13L-58.19,296.13L-57.83,295.86L-57.6,297.09L-57.48,296.81L-56.88,299L-56.64,298.18L-56.29,300.22L-55.81,299.54L-55.45,299.27L-54.74,301.45L-54.38,300.36L-53.91,300.36L-51.41,298.18L-51.17,298.45L-49.75,295.58L-49.27,296.4L-48.67,296.4L-48.08,297.22L-47.84,296.4L-46.89,293.67L-46.53,296.27L-45.94,295.72L-45.46,294.77L-42.73,290.13L-42.13,290.13L-41.06,289.03L-40.59,290.4L-39.28,290.26L-39.16,289.58L-38.68,290.54L-38.45,289.58L-38.33,288.49L-37.73,288.63L-0.98,302L-0.38,323.44L0.09,320.6L0.57,315.64L1.4,319.36L1.88,317.22L2.35,315.19L2.83,316.45L3.3,317.08L3.54,315.98L4.49,316.5L4.61,316.2L4.85,316.45L4.97,318L6.28,321.27L6.52,320.47L7.47,319.19L9.01,317.23L9.13,317.21L11.99,313.05L12.23,313.46L12.34,313.87L12.46,314.14L12.7,313.05L12.94,312.64L13.53,312.37L14.25,312.37L17.34,303.64L17.58,302.95L17.82,302.27L18.05,300.77L19.12,297.36L19.72,297.49L21.15,295.04L21.38,295.45L22.1,295.31L24.36,290.81L24.72,291.76L25.67,291.35L26.26,289.72L26.5,289.03L26.98,290.67L27.57,289.72L27.69,290.26L28.16,291.22L30.54,294.63L30.66,295.18L32.45,298.45L32.57,298.04L33.76,299.54L33.99,300.22L34.71,301.45L35.18,301.45L35.9,303.91L36.37,303.36L37.09,304.32L37.44,303.5L38.39,306.36L38.63,305.95L38.75,305.82L39.58,307.32L39.94,306.64L40.06,306.91L40.3,306.77L40.65,306.23L40.77,306.09L41.25,306.77L42.8,303.36L43.03,303.36L43.98,302.82L44.22,301.72L44.34,302.13L44.58,301.32L44.82,301.04L46.36,298.45L46.6,299.27L47.79,297.49L48.03,298.86L48.15,297.9L48.27,298.72L49.22,296.27L50.17,297.49L50.29,298.04L50.41,298.45L50.65,298.31L50.88,297.36L52.43,295.58L52.55,295.86L53.98,296.54L54.33,298.04L55.28,298.59L55.64,297.49L56.24,299L57.19,299.41L57.31,299.13L58.02,299.54L59.21,299.54L59.45,300.5L59.69,300.91L60.04,300.63L60.16,299.68L60.28,300.09L60.64,299.41L60.76,299.41L60.99,299L62.66,296.4L63.02,296.27L64.21,296.54L64.92,295.18L65.39,294.49L65.63,295.18L65.87,295.18L66.58,293.54L66.7,293.95L67.18,293.67L67.3,294.22L67.54,293.95L68.01,293.67L68.84,294.36L69.08,293.95L69.56,293.81L71.46,289.58L72.53,290.95L72.77,291.22L73.01,290.95L73.25,290.4L74.79,288.63L75.51,289.44L76.22,289.31L76.46,289.99L76.81,290.26L77.41,289.31L77.65,289.31L78.36,289.85L78.6,289.03L79.19,287.4L79.55,287.81L79.79,288.49L80.86,287.67L80.98,288.76L81.81,288.76L82.05,289.44L83.59,291.63L83.95,291.63L84.55,292.45L84.9,291.76L85.14,292.45L85.73,292.17L85.85,291.35L86.21,291.08L86.57,291.9L87.28,292.04L88.35,290.54L88.59,291.08L88.95,290.67L89.42,291.49L89.9,291.22L90.02,291.9L90.25,291.9L91.56,293.13L91.68,292.45L92.51,291.35L92.63,291.63L93.11,292.04L93.7,292.72L93.94,292.86L96.56,288.76L96.8,289.31L97.63,289.85L98.11,290.95L99.41,294.22L99.53,294.08L99.77,295.31L100.48,294.08L100.72,294.36L100.84,295.04L100.96,295.86L101.44,294.49L102.03,294.63L102.39,294.08L102.98,294.77L103.1,294.22L104.77,296.27L104.89,295.45L105.6,294.63L105.72,295.18L105.96,295.72L106.91,296.54L107.38,297.09L107.98,298.18L108.45,298.31L109.76,296.13L110.12,296.13L110.71,296.4L111.19,295.58L112.02,294.77L112.26,295.45L113.21,294.22L113.33,294.63L114.04,293.95L114.16,293.81L115.35,295.04L115.47,294.9L115.95,295.18L116.18,295.58L116.3,294.63L116.42,294.77L116.54,293.54L119.16,299.54L119.52,299.95L119.63,300.36L119.75,299.68L120.11,299.95L120.35,300.09L121.66,302.68L121.89,303.23L122.49,302.13L122.61,301.45L123.8,304.18L124.04,304.59L125.22,306.23L125.7,305.55L126.53,305.68L126.89,305.41L127.01,305.27L127.48,306.36L127.84,304.73L127.96,304.86L128.44,305.95L128.91,305.27L129.39,304.45L129.51,304.59L129.74,303.91L129.86,303.91L130.22,303.23L131.53,300.63L131.65,300.91L131.89,301.04L132.48,301.86L132.72,301.59L132.96,301.04L133.31,299.95L133.67,300.5L134.15,300.09L134.5,301.59L134.74,300.5L135.1,300.36L135.57,300.5L135.81,299.54L136.29,299L136.52,299.27L137,299.41L138.07,301.04L138.31,300.77L138.43,300.36L139.97,301.45L140.09,301.18L141.64,299.41L141.76,298.31L142.83,299.68L142.95,299.54L143.19,298.45L145.21,299.68L145.33,299.27L145.45,298.86L146.4,297.36L146.64,297.9L146.99,297.9L147.71,297.49L147.94,297.22L148.42,297.9L148.54,296.81L148.78,297.09L148.9,297.22L150.2,294.22L150.44,294.63L151.39,292.86L151.75,293.81L152.7,293.54L152.82,293.81L152.94,293.95L153.3,293.4L153.77,293.67L154.84,292.45L155.08,292.86L155.2,293.13L157.22,290.13L157.34,290.4L159.36,287.12L159.72,287.94L160.67,286.85L161.03,287.53L161.38,287.53L161.62,288.49L161.98,288.35L162.22,287.67L163.41,289.85L163.76,289.58L163.88,289.17L164.6,289.85L164.72,289.31L164.95,289.44L166.02,289.85L166.38,289.44L169.59,291.76L170.31,293.54L171.5,293.13L171.61,293.67L171.73,293.4L171.97,293.67L172.33,294.08L173.28,293.4L173.4,292.86L173.64,292.58L173.99,293.81L174.11,293.95L174.35,292.99L175.66,290.67L175.9,291.22L176.25,291.76L176.97,291.63L177.09,291.08L177.32,291.22L177.8,290.4L178.27,291.35L179.23,290.95L179.35,289.85L179.46,290.95L179.94,290.54L180.65,290.67L182.68,288.49L182.91,289.44L183.98,286.58L184.22,286.85L184.34,286.58L184.7,285.49L185.05,286.03L185.41,286.44L185.65,287.12L185.89,285.76L186.01,285.08L187.2,286.31L187.31,285.49L187.55,286.58L188.03,285.35L188.86,286.03L189.93,287.53L190.17,286.17L191.83,285.62L191.95,286.17L192.43,285.08L192.67,285.76L193.14,286.58L194.33,287.67L194.57,287.81L195.28,288.49L195.64,289.31L196.83,289.72L196.95,289.03L197.9,290.54L198.14,289.44L198.97,289.58L199.09,289.03L199.69,289.85L199.8,289.58L200.28,288.49L200.99,286.17L201.35,286.31L201.71,287.4L201.83,286.99L202.06,287.81L202.18,287.53L202.54,288.35L202.66,288.22L203.13,289.03L203.25,289.44L203.61,288.76L203.85,288.49L204.44,289.72L204.56,290.13L204.8,289.58L204.92,290.26L205.28,290.54L205.51,290.81L205.99,290.13L206.23,289.44L206.7,289.99L206.82,289.72L207.42,290.81L207.54,290.4L207.89,289.72L208.84,289.85L209.08,288.49L209.44,289.03L210.15,288.22L210.63,287.67L210.87,288.63L211.34,290.13L211.58,289.58L211.82,289.72L211.94,289.58L212.06,289.99L212.41,290.54L213.01,292.31L213.6,291.08L214.67,292.99L214.79,292.86L216.34,292.17L216.46,291.63L216.93,290.4L217.53,290.95L218.48,292.17L218.72,291.76L219.07,289.85L219.19,289.72L219.31,290.13L219.43,291.08L220.26,291.35L220.98,293.67L222.29,295.18L222.76,294.49L223,294.36L223.59,295.18L225.02,296.81L225.5,296.68L225.85,295.31L226.21,295.86L226.81,295.45L227.16,295.31L227.64,296.4L227.76,296.68L228.35,295.58L228.71,295.72L229.66,295.72L230.25,294.9L230.49,294.77L230.85,295.31L230.97,295.45L231.21,294.49L231.8,295.04L231.92,295.18L232.75,294.77L232.87,295.18L233.82,293.26L234.06,293.54L234.42,293.54L234.77,294.36L235.01,293.95L235.49,293.26L237.15,289.85L237.39,290.13L239.41,286.03L239.77,286.58L240.13,287.81L240.72,286.99L242.51,288.63L242.74,287.4L242.98,288.22L243.46,287.67L243.7,286.99L245,286.44L245.36,285.9L246.19,287.81L246.31,287.67L246.67,286.85L247.26,285.49L247.62,285.62L247.98,286.17L248.22,285.62L248.69,287.53L249.17,288.63L249.52,287.4L251.43,290.26L251.55,289.99L252.02,289.03L253.45,286.99L253.69,287.12L253.81,287.12L254.04,287.4L254.16,286.85L254.28,286.17L254.4,285.9L254.64,286.99L254.88,286.85L255.95,289.44L256.18,289.17L256.42,288.63L257.02,289.72L257.37,289.31L257.73,288.9L258.33,286.85L259.52,288.63L260.47,287.81L260.59,286.72L262.37,289.17L262.73,288.76L262.85,288.63L263.2,287.81L263.32,287.4L263.68,287.12L264.87,290.4L265.58,288.49L265.82,288.08L266.3,289.03L267.01,288.22L267.48,286.03L268.44,285.21L268.67,284.94L268.79,284.12L269.03,284.94L269.39,285.21L269.63,284.94L269.86,285.08L269.98,284.8L270.22,286.31L271.17,285.21L271.41,285.62L271.65,285.49L271.77,285.9L272,286.31L272.12,286.03L272.36,286.44L272.6,286.99L273.67,284.67L274.03,284.67L274.62,284.53L274.86,285.08L275.69,287.67L276.05,286.58L276.17,286.31L276.41,285.49L276.76,285.62L277.12,285.9L278.07,288.63L278.55,287.81L278.67,287.94L278.9,289.44L279.14,289.03L279.5,289.58L279.86,290.13L280.21,291.76L280.69,291.22L280.81,291.08L282.35,293.4L282.47,293.26L282.59,292.72L282.83,293.13L283.3,292.58L283.66,291.76L284.38,291.9L284.97,293.67L286.52,296.27L286.64,295.86L286.99,295.99L287.47,294.63L289.37,294.36L289.73,293.54L290.32,294.77L290.68,294.49L291.04,294.08L291.27,294.22L291.39,293.67L291.75,292.31L293.65,289.85L293.77,290.13L295.32,289.44L295.44,290.26L295.68,290.4L296.98,286.99L297.46,288.49L298.77,286.58L298.89,286.99L299.01,287.67L299.72,289.44L299.96,288.22L300.43,288.76L301.15,287.4L301.27,288.49L302.69,289.31L303.17,290.67L303.29,291.35L303.88,290.26L304.24,289.31L304.48,290.81L304.83,291.63L305.07,290.54L305.31,290.26L308.76,294.63L309.23,292.04L309.59,292.99L310.19,292.72L310.9,291.63L312.21,290.81L312.33,289.85L312.92,290.26L313.28,289.58L314.71,288.08L314.94,288.63L315.06,287.67L315.66,288.9L315.78,289.17L316.25,290.95L316.61,290.54L316.73,289.99L317.44,290.4L318.04,290.54L319.82,290.13L320.06,290.67L320.53,289.85L320.89,291.63L321.37,290.67L321.96,291.22L323.39,292.72L323.63,292.17L324.1,293.13L324.34,292.45L324.46,292.17L324.58,292.72L324.94,291.63L325.05,291.9L325.53,290.67L326.13,290.81L326.36,290.4L327.31,289.85L327.67,290.13L328.5,287.67L328.86,288.63L328.98,288.49L329.69,288.08L329.81,287.26L330.88,285.9L331,286.03L332.31,283.58L333.02,284.26L333.38,283.71L333.98,284.67L334.09,284.12L334.57,284.4L334.93,283.85L335.17,283.17L335.52,283.3L336.12,282.89L336.95,284.8L337.31,285.08L337.66,286.31L337.78,285.9L338.61,286.85L338.73,286.99L338.85,286.17L338.97,286.31L339.33,286.44L339.69,285.76L340.04,286.31L340.16,286.31L341.23,286.31L341.47,285.76L342.3,288.22L342.54,287.81L345.63,290.67L345.75,290.54L346.35,289.03L346.47,289.17L346.82,289.99L347.54,291.08L347.77,290.95L348.01,291.08L348.37,289.85L348.73,290.67L349.08,291.08L349.2,290.95L349.32,291.22L349.68,292.04L349.91,293.13L350.87,292.99L351.82,294.08L352.06,293.67L352.65,293.4L353.13,293.81L354.67,292.45L354.79,292.31L355.62,292.45L355.86,292.31L356.1,292.45L356.22,291.35L356.34,290.81L356.69,291.76L356.93,292.04L357.05,291.49L357.41,291.9L358,291.63L360.26,289.99L360.38,290.54L360.98,290.81L361.1,291.08L361.45,289.58L361.81,289.85L362.28,289.85L363.36,292.31L363.59,292.17L363.83,292.04L364.78,292.72L365.02,291.9L366.09,294.22L366.45,293.67L366.69,293.54L366.8,294.08L366.92,294.36L367.88,292.72L367.99,293.54L368.11,293.81L368.35,293.26L368.59,292.31L369.3,291.49L369.54,291.63L370.02,291.9L370.14,292.45L370.61,291.35L370.73,292.04L370.97,291.9L372.75,293.26L372.99,292.86L373.94,294.22L374.3,292.31L375.25,289.72L375.61,289.44L375.96,288.49L376.08,288.63L376.68,288.9L377.99,286.03L378.22,286.31L378.34,286.72L378.46,286.44L378.58,287.26L379.06,287.12L379.18,286.44L379.89,286.58L380.01,286.72L380.13,286.44L380.36,287.26L380.48,287.67L380.6,287.26L380.96,288.49L381.08,288.49L381.67,286.85L382.39,286.85L382.86,287.81L383.34,288.63L383.58,288.35L383.93,288.63L384.65,287.4L385.6,287.94L385.72,287.67L387.14,288.63L387.74,288.76L388.1,288.22L388.45,289.31L389.05,288.76L389.29,289.03L389.88,287.53L392.14,285.62L392.26,284.53L392.97,282.62L393.21,283.71L393.33,284.12L393.69,284.53L393.81,284.4L394.04,283.71L394.16,283.44L394.52,284.8L395.11,284.53L395.23,283.58L395.47,283.17L395.83,283.99L395.95,284.12L396.3,284.26L396.66,283.44L397.73,280.44L397.85,279.76L399.63,284.67L400.35,284.26L401.78,284.8L401.89,284.4L402.96,284.4L403.32,286.17L403.56,285.9L404.51,286.85L404.75,286.58L404.99,286.99L405.58,286.44L407.37,287.12L407.6,286.03L407.72,286.44L408.2,285.76L408.32,285.49L409.39,288.63L409.51,288.76L409.74,289.72L409.86,289.03L410.1,287.53L411.17,285.21L411.77,284.8L412.48,286.44L412.84,287.26L414.5,290.4L414.62,290.26L415.22,288.9L415.69,288.08L415.93,289.03L416.29,288.63L416.64,288.76L416.88,289.17L417.12,288.9L417.83,290.67L418.07,289.85L418.78,289.17L418.9,289.03L419.26,289.99L419.5,289.58L419.74,288.49L420.21,288.76L420.33,288.63L420.69,290.13L421.16,289.31L421.4,289.44L421.76,290.67L422,291.22L422.71,290.26L423.42,289.31L423.54,290.26L424.26,289.44L424.49,288.35L424.85,287.94L425.56,288.9L425.68,288.76L425.92,288.63L426.87,288.08L426.99,288.76L427.94,291.35L428.06,290.81L428.78,290.95L429.01,291.22L429.49,290.4L430.32,290.81L430.68,291.49L430.8,291.76L431.15,290.81L431.27,291.35L431.39,291.22L432.23,293.13L432.34,292.99L432.46,291.49L432.7,291.22L432.94,292.17L433.06,290.95L433.77,289.17L434.13,289.44L434.49,289.85L435.08,291.9L435.2,291.63L435.56,289.85L435.67,290.26L436.03,289.99L436.63,289.72L436.98,289.31L437.34,289.85L437.46,289.99L437.7,289.31L437.93,290.54L438.29,289.58L438.53,290.26L438.89,290.13L439.01,290.54L439.24,291.49L439.96,290.54L440.19,291.22L441.27,290.54L441.38,290.54L442.45,289.85L443.41,288.63L444,287.81L444.24,288.22L444.48,289.17L446.74,292.99L446.97,291.76L447.45,292.58L448.05,291.9L449,292.04L449.12,291.63L449.59,292.58L450.07,292.17L450.31,292.04L450.78,292.72L450.9,292.31L451.14,291.49L452.45,290.95L452.68,290.95L452.8,290.67L453.28,291.63L453.87,293.26L454.23,292.72L454.59,293.67L455.3,293.95L455.42,293.95L456.97,292.04L457.09,292.31L457.2,292.99L457.56,291.22L457.68,291.22L458.75,289.72L458.99,289.58L459.58,289.72L459.7,290.54L460.53,291.22L460.77,292.17L461.49,291.22L461.61,290.54L461.72,290.26L461.96,290.67L462.32,290.81L462.91,289.72L463.15,290.67L463.87,289.72L464.1,290.81L464.46,290.4L464.7,290.81L464.82,289.99L465.17,291.08L465.53,289.72L465.77,289.72L466.13,290.67L466.84,290.13L467.08,290.81L467.55,291.76L467.79,291.08L467.91,290.81L468.98,289.58L469.22,289.99L470.17,291.9L470.53,291.76L471.83,294.9L471.95,294.22L472.31,293.4L472.43,293.67L472.55,293.54L473.14,293.13L473.38,292.45L473.74,292.72L474.09,293.13L474.21,292.72L474.45,294.36L474.69,295.45L475.17,294.63L475.52,295.72L475.76,295.86L476,295.31L476.12,295.18L476.35,295.45L476.59,295.18L476.83,294.49L477.07,295.58L477.43,295.18L477.78,295.18L479.21,293.81L479.33,293.95L480.04,295.04L480.4,295.72L480.64,295.04L480.87,295.04L481.83,293.4L482.18,292.04L483.49,291.22L483.61,290.26L484.8,288.63L484.92,288.63L485.87,291.63L485.99,291.22L486.35,289.58L487.42,289.99L487.54,289.44L488.25,290.95L488.49,290.81L489.44,289.31L489.56,289.72L489.91,289.85L490.39,290.95L490.63,290.13L490.75,289.85L490.98,290.4L491.22,290.13L491.7,289.31L493.13,291.63L493.36,291.22L494.43,292.17L494.79,291.22L495.62,291.35L495.74,291.63L496.81,292.86L496.93,292.58L497.29,292.17L497.53,292.99L497.76,291.49L497.88,291.49L498.6,291.76L498.72,292.58L499.31,292.72L499.55,292.04L499.79,291.9L500.02,290.81L501.45,292.04L501.57,291.9L501.81,291.08L502.05,290.67L502.4,291.49L502.52,291.63L503,290.54L503.36,289.31L503.83,289.85L504.07,289.03L504.31,288.22L505.26,289.03L505.62,288.49L506.21,289.72L506.92,290.67L507.4,290.81L507.64,290.67L507.76,290.67L507.88,289.72L507.99,289.99L508.83,289.58L509.18,290.81L509.54,290.13L510.25,290.54L511.21,286.72L511.68,288.22L511.8,288.08L512.28,288.63L512.75,288.35L512.87,287.26L513.47,288.35L513.58,288.35L514.42,289.17L514.54,288.63L515.25,291.08L515.73,290.4L515.84,290.54L515.96,290.4L516.32,292.04L517.27,290.81L517.39,291.08L517.51,291.22L518.7,288.63L519.06,288.9L519.41,289.72L519.65,289.31L519.77,290.26L519.89,290.26L520.13,291.76L521.2,288.76L521.32,289.44L521.79,289.58L522.74,294.08L523.1,293.67L523.22,293.13L523.81,292.31L524.05,292.45L524.17,292.58L524.88,294.08L525.12,293.95L525.36,293.67L526.07,293.4L526.31,292.17L526.43,292.58L526.79,291.9L527.03,292.04L527.26,292.17L528.22,291.49L528.33,292.31L530.59,296.13L530.71,295.86L531.31,295.31L531.43,294.9L531.55,295.31L531.9,294.63L532.26,294.9L532.62,294.08L532.85,294.49L533.33,295.45L535.59,292.86L535.83,293.67L536.07,294.63L536.18,294.22L536.42,292.58L536.78,292.31L537.02,292.86L537.61,293.81L538.56,295.04L539.04,295.04L539.99,295.04L540.35,294.9L541.06,295.04L541.3,295.58L542.49,292.72L542.61,293.26L542.73,293.54L542.85,292.72L543.2,292.86L543.32,292.58L543.8,292.17L543.92,292.86L544.15,292.86L544.51,293.81L544.87,292.72L545.7,292.99L545.82,293.67L546.06,292.45L546.29,292.86L546.65,292.99L547.25,292.72L547.48,293.95L547.96,292.58L548.2,292.58L548.67,295.04L549.03,295.31L549.74,293.26L550.1,293.54L550.34,293.13L550.93,292.99L551.05,292.58L551.77,293.67L552,293.4L552.12,292.86L553.31,291.49L553.43,291.76L553.55,292.17L554.03,291.22L554.62,291.63L554.86,292.58L555.93,292.17L556.17,291.22L556.41,291.08L557,293.13L557.36,293.67L557.48,292.04L557.95,292.31L558.31,290.67L559.14,291.76L559.26,291.63L559.38,291.22L560.57,289.44L560.69,290.13L561.16,289.99L561.4,291.22L561.76,291.08L562,292.04L562.71,292.99L563.3,291.49L563.66,290.67L563.78,291.08L564.14,291.49L565.21,292.72L565.33,292.99L565.45,292.86L565.56,293.81L565.8,294.77L566.52,295.72L566.75,295.04L566.87,294.36L567.47,294.63L567.59,293.4L567.71,292.86L567.94,293.67L568.06,293.4L568.3,294.08L568.42,294.22L568.54,293.54L568.66,293.67L568.78,293.26L569.49,292.45L570.2,293.67L571.15,292.31L571.51,292.99L571.87,293.67L572.11,292.31L573.18,290.54L573.53,289.03L574.25,289.44L574.96,289.44L575.56,289.03L575.79,288.9L577.34,288.76L577.7,287.67L579.12,288.9L579.72,289.99L580.31,289.85L580.55,289.31L581.03,290.26L581.27,289.72L581.5,289.17L582.22,290.67L582.45,289.31L582.69,288.49L582.93,289.72L583.05,289.72L583.29,289.85L583.64,289.44L583.76,289.85L583.88,290.4L584.12,290.81L584.36,289.85L584.6,290.54L584.95,290.95L586.02,294.77L586.26,293.95L586.74,294.36L587.21,294.49L587.69,295.86L588.05,294.77L588.16,294.08L588.64,294.08L589,293.4L589.59,294.22L589.71,293.67L590.07,293.81L590.19,292.99L590.54,293.67L590.78,294.77L591.14,295.86L591.49,295.45L591.61,294.77L593.64,299.13L593.75,298.59L594.11,297.09L594.47,297.49L594.71,297.77L595.18,297.9L595.3,298.04L595.42,298.31L596.25,298.86L596.85,298.18L597.2,296.27L597.56,296.4L598.51,294.9L599.11,296.4L599.35,295.72L599.46,295.31L600.42,296.27L600.53,296.68L600.77,296.4L601.13,297.63L602.56,295.18L603.03,294.9L603.63,296.95L603.87,295.72L604.22,294.49L604.82,291.22L605.17,293.26L605.41,294.08L605.77,293.81L605.89,295.04L607.2,297.63L607.43,296.95L607.91,295.72L608.27,296.54L608.5,296.4L609.69,295.45L610.29,296.81L611.12,297.77L611.24,297.22L611.72,296.27L611.83,296.68L612.07,297.22L612.67,298.72L612.79,298.04L612.9,297.22L613.86,296.27L614.33,297.49L615.16,297.09L615.28,295.86L615.52,295.31L616,295.58L616.35,295.86L616.71,297.49L616.95,296.95L617.07,295.58L617.54,294.22L617.9,294.77L618.02,294.9L618.73,293.95L618.97,294.08L619.57,295.04L619.68,294.63L620.16,295.18L620.4,295.99L620.87,295.45L620.99,295.31L622.54,293.13L622.66,293.54L623.25,292.86L623.37,293.26L623.73,294.22L624.56,292.04L624.8,292.99L624.92,293.26L625.63,296.27L625.87,296.13L625.99,295.45L626.94,292.99L627.06,293.13L627.18,293.54L628.37,295.31L628.49,294.77L628.61,294.63L629.32,293.26L629.44,293.95L629.68,292.17L630.15,292.31L630.39,291.22L630.51,290.81L630.75,291.49L630.98,291.35L631.46,291.63L631.82,291.35L632.06,292.17L632.29,291.76L632.65,292.31L633.13,291.22L633.24,291.63L633.36,291.9L633.96,293.13L634.08,292.72L634.67,292.31L635.39,292.72L635.5,292.31L635.74,292.04L636.69,290.13L636.93,289.72L637.05,289.99L637.17,289.31L637.29,288.63L638.12,289.85L638.36,290.67L640.02,287.94L640.14,288.35L640.62,289.72L640.74,289.31L640.98,289.85L641.1,291.08L642.17,293.54L642.4,294.36L643.12,292.04L643.24,292.45L643.59,292.58L644.66,291.49L644.78,292.04L645.73,291.49L645.85,291.63L645.97,291.9L646.09,291.49L646.69,292.86L647.4,292.99L647.64,293.67L649.18,298.31L649.42,298.59L649.78,299.68L650.49,299L651.8,302.41L652.04,302.41L653.82,298.45L654.06,298.18L654.89,298.45L655.01,298.72L656.2,296.68L656.32,297.63L656.56,297.77L656.8,296.68L656.92,297.49L657.15,297.49L657.51,297.22L657.75,297.77L657.99,297.9L659.18,298.45L659.29,297.77L659.89,295.45L660.01,295.58L660.72,295.04L661.91,294.22L662.15,292.99L662.98,293.26L663.34,292.45L663.58,292.31L663.81,293.81L664.88,292.45L665.12,292.58L665.36,292.17L665.6,292.58L665.84,292.17L666.07,291.35L666.31,290.54L666.79,291.35L666.91,291.22L667.5,293.4L667.62,294.08L668.69,295.72L669.05,294.63L669.17,295.04L669.64,294.36L669.76,293.95L670.24,293.54L670.36,292.17L672.38,295.58L672.73,296.13L673.33,294.63L673.45,295.18L674.16,295.86L675.35,292.17L675.47,292.31L675.71,290.4L676.3,290.67L676.42,291.08L677.25,292.99L677.37,293.4L677.49,291.9L677.97,292.31L678.44,291.63L679.99,287.81L680.59,287.81L680.82,288.49L681.06,287.81L681.54,288.08L681.77,287.81L681.89,288.08L682.25,288.35L685.11,282.49L685.22,282.62L685.7,282.49L686.18,283.44L686.65,282.49L686.77,283.17L686.89,283.71L687.13,284.26L687.6,283.99L687.72,283.58L688.91,286.58L689.27,285.21L690.58,287.94L690.7,287.4L691.53,286.31L691.77,286.85L692,287.12L692.84,288.35L693.07,288.22L693.19,287.94L694.62,289.99L694.86,289.58L695.93,291.08L696.05,291.08L696.17,291.35L696.41,290.67L696.64,290.95L696.88,291.08L697.71,291.49L697.95,292.58L698.55,294.08L698.78,292.99L699.02,292.31L699.97,295.72L700.45,294.36L701.28,294.22L701.52,295.18L702.71,297.22L703.07,297.63L704.97,298.04L705.09,299L706.75,301.18L707.35,302L709.37,304.32L709.49,303.64L709.85,301.86L709.97,303.36L710.32,303.64L710.44,303.5L710.68,305.27L711.04,305.68L711.15,304.86L711.27,305.27L711.51,305L711.75,303.77L712.11,304.86L748.27,424.8L749.57,336.11L749.81,333.19L750.29,336.87L750.88,331.66L751.36,332.32L753.02,328.29L753.14,327.99L753.26,328.65L754.21,328.22L754.45,327.23L755.52,329.07L756,327.22L756.83,326.67L756.95,326.15L758.61,328.98L758.97,328.69L759.45,328.14L759.68,328.58L760.28,327.38L761.11,326.56L762.06,325.74L762.18,325.06L763.61,326.01L763.85,325.6L764.2,326.42L764.68,323.83L765.04,323.15L767.54,316.73L767.65,316.87L767.77,317.14L772.17,305.55L772.29,305.95L775.5,300.91L775.62,300.36L775.86,299L776.69,300.22L776.81,300.77L778.24,300.5L778.36,301.18L780.14,300.5L780.98,301.59L783.95,306.91L785.02,305.82L785.14,305.82L786.57,306.5L786.8,305.95L786.92,306.23L787.28,305.95L787.64,307.46L787.76,307.87L792.04,311.82L792.28,312.37L795.73,307.87L796.2,307.46L797.15,306.64L797.75,307.59L797.87,308L799.53,310.46L799.89,309.23L800.13,308.55L802.51,308.82L802.62,308.55L802.74,308.14L804.77,306.23L804.88,306.5L805.36,307.18L807.38,303.77L807.74,304.32L808.1,305L810.36,301.18L810.47,300.77L812.38,298.45L812.62,299.13L812.73,299.81L815.11,297.77L815.35,297.9L815.47,298.04L819.75,301.59L820.47,299.95L820.59,299.68L822.49,299.81L822.61,300.22L826.53,296.13L826.65,296.54L826.77,296.81L830.93,292.58L831.05,293.26L831.77,292.31L832.84,294.36L833.43,293.67L836.29,293.4L837.36,295.04L840.33,294.63L840.45,295.04L840.57,295.58L840.69,296.27L841.76,294.77L842.71,295.72L842.83,295.86L843.3,296.27L843.78,294.49L844.02,293.67L846.16,295.18L846.28,295.04L846.63,296.54L848.3,297.9L849.25,296.68L849.61,296.13L852.7,292.58L853.18,293.81L853.41,293.95L855.32,293.4L855.79,293.81L856.51,293.67L858.17,293.81L858.41,292.86L858.53,292.31L864,295.04L864.12,295.86L866.02,297.49L866.5,296.13L866.62,296.13L872.45,297.63L872.56,297.22L875.06,299.81L875.18,299.41L875.42,298.72L878.99,296.54L879.11,296.54L883.27,293.13L883.51,293.95L890.17,291.49L890.29,291.76L890.41,292.58L893.5,293.54L893.62,292.17L893.98,291.49L895.52,294.36L895.88,293.67L896,294.36L898.38,292.45L898.85,293.13L899.21,293.67L900.04,291.9L901.59,294.9L901.94,294.36L902.18,295.04L907.18,289.03L907.54,289.72L908.49,288.35L910.03,290.54L910.15,290.81L910.27,291.76L912.53,288.08L912.77,288.08L913.36,285.62L915.39,289.17L915.5,289.44L916.1,290.26L917.29,288.22L918,288.22L918.24,287.94L920.38,291.35L921.45,289.58L921.57,289.72L922.76,288.63L923.95,291.49L924.19,291.49L924.31,291.9L930.13,293.13L930.37,292.31L937.03,291.76L937.27,293.13L937.51,293.13L943.1,289.99L943.46,291.35L946.79,291.49L947.03,290.81L947.14,289.58L948.21,291.22L949.88,287.94L950.24,288.63L950.36,288.63L954.16,292.99L955.23,290.4L955.35,290.26L959.63,287.67L959.75,288.49L960.23,288.9L963.56,293.95L964.51,291.35L964.75,290.26L966.41,287.94L967.37,291.22L968.08,289.85L968.2,289.17L972.12,293.81L972.6,292.99L972.72,292.86L980.21,296.81L980.33,295.99L981.4,297.22L984.02,293.95L984.37,294.36L984.49,294.63L990.56,290.13L990.68,290.4L990.8,290.95L1005.43,293.81L1005.67,292.99L1006.14,291.49L1011.26,286.17L1011.61,285.49L1015.66,284.94L1015.78,285.49L1015.9,284.8L1016.25,286.31L1016.49,285.9L1016.73,286.44L1018.27,285.49L1019.7,288.22L1020.53,287.94L1020.65,287.81L1034.09,296.27L1034.33,295.45L1034.45,295.04L1043.97,285.21L1044.2,285.62L1059.79,283.03L1060.14,284.53L1076.44,295.31L1076.91,294.63L1077.15,294.08L1078.94,296.95L1082.15,294.49L1082.27,294.36L1088.33,290.95L1088.45,291.9L1093.81,292.31L1093.92,291.76L1094.04,291.9L1097.85,293.13L1098.68,290.13L1098.8,290.13L1103.56,293.4L1104.27,292.86L1104.51,292.86L1118.43,282.08L1118.66,281.53L1124.26,283.85L1124.37,284.67L1133.53,289.44L1134.48,287.81L1134.72,287.12L1140.08,288.22L1140.31,287.67L1140.43,287.4L1155.18,293.4L1155.3,292.45L1158.16,289.44L1161.01,291.76L1161.13,291.63L1166.72,286.31L1168.38,286.99L1168.5,287.4L1175.4,285.62L1175.76,284.53L1175.88,284.12L1189.56,293.81L1190.39,292.72L1190.51,292.17L1197.76,295.45L1197.88,294.36L1212.28,288.9L1212.39,288.49L1219.89,286.85L1220.13,287.26L1220.36,287.4L1221.55,283.99L1225.84,288.9L1225.95,289.44L1229.05,285.9L1231.78,289.31L1232.38,288.49L1232.5,287.81L1240.7,289.03L1241.06,287.94L1241.18,287.4L1247.72,288.76L1247.84,288.49L1248.08,287.4L1249.03,289.58L1250.81,284.8L1254.03,285.08L1254.14,284.94L1274.01,293.26L1274.48,291.49L1274.6,290.54L1280.67,294.36L1283.29,290.54L1283.41,289.85L1289.83,286.99L1291.02,289.03L1291.38,290.13L1296.97,289.58L1297.92,291.76L1298.04,292.86L1299.46,291.22L1302.44,295.45L1305.17,292.45L1305.29,291.76L1311.48,290.67L1312.43,289.99L1312.55,289.72L1313.38,288.49L1314.69,292.04L1318.26,294.08L1318.38,293.95L1325.27,292.72L1325.51,292.04L1325.63,291.35L1340.98,292.04L1341.09,292.17L1356.08,294.08L1356.56,292.58L1356.68,292.04L1366.67,289.58L1368.33,292.31L1368.45,292.99L1372.73,290.13L1376.42,292.31L1376.54,292.17L1376.66,291.49L1381.3,289.17L1384.51,292.04L1384.87,291.08L1384.99,290.54L1396.05,295.72L1397.59,292.31L1397.71,291.9L1407.82,289.03L1408.3,291.35L1408.42,292.31L1435.42,290.54L1435.54,289.44L1445.77,290.67L1446.36,292.17L1446.48,293.54L1454.09,300.09L1457.9,297.49L1458.02,296.95L1461.47,294.22L1461.71,295.58"/></g><g class="points"/><g class="text"/></g><g class="trace scatter trace0237fe" style="stroke-miterlimit: 2; opacity: 1;"><g class="fills"/><g class="errorbars"/><g class="lines"/><g class="points"><path class="point" transform="translate(-7529.33,292.8)" style="opacity: 1; stroke-width: 0px; fill: rgb(88, 153, 218); fill-opacity: 1;" d="M3,0A3,3 0 1,1 0,-3A3,3 0 0,1 3,0Z"/></g><g class="text"/></g><g class="trace scatter traced217c5" style="stroke-miterlimit: 2; opacity: 1;"><g class="fills"/><g class="errorbars"/><g class="lines"/><g class="points"><path class="point" transform="translate(1461.71,295.58)" style="opacity: 1; stroke-width: 0px; fill: rgb(244, 180, 0); fill-opacity: 1;" d="M3,0A3,3 0 1,1 0,-3A3,3 0 0,1 3,0Z"/></g><g class="text"/></g></g></g><g class="overplot"/><path class="xlines-above crisp" style="fill: none;" d="M0,0"/><path class="ylines-above crisp" style="fill: none;" d="M0,0"/><g class="overlines-above"/><g class="xaxislayer-above"><g class="xtick"><text text-anchor="middle" x="0" y="543" style="font-family: TOBESTRIPPEDOpen SansTOBESTRIPPED, verdana, arial, sans-serif; font-size: 12px; fill: rgb(32, 32, 32); fill-opacity: 1; white-space: pre;" transform="translate(162.05,0)">64k</text></g><g class="xtick"><text text-anchor="middle" x="0" y="543" style="font-family: TOBESTRIPPEDOpen SansTOBESTRIPPED, verdana, arial, sans-serif; font-size: 12px; fill: rgb(32, 32, 32); fill-opacity: 1; white-space: pre;" transform="translate(280.99,0)">65k</text></g><g class="xtick"><text text-anchor="middle" x="0" y="543" style="font-family: TOBESTRIPPEDOpen SansTOBESTRIPPED, verdana, arial, sans-serif; font-size: 12px; fill: rgb(32, 32, 32); fill-opacity: 1; white-space: pre;" transform="translate(399.94,0)">66k</text></g><g class="xtick"><text text-anchor="middle" x="0" y="543" style="font-family: TOBESTRIPPEDOpen SansTOBESTRIPPED, verdana, arial, sans-serif; font-size: 12px; fill: rgb(32, 32, 32); fill-opacity: 1; white-space: pre;" transform="translate(518.89,0)">67k</text></g><g class="xtick"><text text-anchor="middle" x="0" y="543" style="font-family: TOBESTRIPPEDOpen SansTOBESTRIPPED, verdana, arial, sans-serif; font-size: 12px; fill: rgb(32, 32, 32); fill-opacity: 1; white-space: pre;" transform="translate(637.83,0)">68k</text></g><g class="xtick"><text text-anchor="middle" x="0" y="543" style="font-family: TOBESTRIPPEDOpen SansTOBESTRIPPED, verdana, arial, sans-serif; font-size: 12px; fill: rgb(32, 32, 32); fill-opacity: 1; white-space: pre;" transform="translate(756.78,0)">69k</text></g></g><g class="yaxislayer-above"><g class="ytick"><text text-anchor="end" x="69" y="4.199999999999999" style="font-family: TOBESTRIPPEDOpen SansTOBESTRIPPED, verdana, arial, sans-serif; font-size: 12px; fill: rgb(32, 32, 32); fill-opacity: 1; white-space: pre;" transform="translate(0,496.88)">25</text></g><g class="ytick"><text text-anchor="end" x="69" y="4.199999999999999" style="font-family: TOBESTRIPPEDOpen SansTOBESTRIPPED, verdana, arial, sans-serif; font-size: 12px; fill: rgb(32, 32, 32); fill-opacity: 1; white-space: pre;" transform="translate(0,435.79)">30</text></g><g class="ytick"><text text-anchor="end" x="69" y="4.199999999999999" style="font-family: TOBESTRIPPEDOpen SansTOBESTRIPPED, verdana, arial, sans-serif; font-size: 12px; fill: rgb(32, 32, 32); fill-opacity: 1; white-space: pre;" transform="translate(0,374.71)">35</text></g><g class="ytick"><text text-anchor="end" x="69" y="4.199999999999999" style="font-family: TOBESTRIPPEDOpen SansTOBESTRIPPED, verdana, arial, sans-serif; font-size: 12px; fill: rgb(32, 32, 32); fill-opacity: 1; white-space: pre;" transform="translate(0,313.63)">40</text></g><g class="ytick"><text text-anchor="end" x="69" y="4.199999999999999" style="font-family: TOBESTRIPPEDOpen SansTOBESTRIPPED, verdana, arial, sans-serif; font-size: 12px; fill: rgb(32, 32, 32); fill-opacity: 1; white-space: pre;" transform="translate(0,252.54)">45</text></g><g class="ytick"><text text-anchor="end" x="69" y="4.199999999999999" style="font-family: TOBESTRIPPEDOpen SansTOBESTRIPPED, verdana, arial, sans-serif; font-size: 12px; fill: rgb(32, 32, 32); fill-opacity: 1; white-space: pre;" transform="translate(0,191.46)">50</text></g><g class="ytick"><text text-anchor="end" x="69" y="4.199999999999999" style="font-family: TOBESTRIPPEDOpen SansTOBESTRIPPED, verdana, arial, sans-serif; font-size: 12px; fill: rgb(32, 32, 32); fill-opacity: 1; white-space: pre;" transform="translate(0,130.38)">55</text></g><g class="ytick"><text text-anchor="end" x="69" y="4.199999999999999" style="font-family: TOBESTRIPPEDOpen SansTOBESTRIPPED, verdana, arial, sans-serif; font-size: 12px; fill: rgb(32, 32, 32); fill-opacity: 1; white-space: pre;" transform="translate(0,69.3)">60</text></g></g><g class="overaxes-above"/></g></g><g class="polarlayer"/><g class="ternarylayer"/><g class="geolayer"/><g class="pielayer"/><g class="sunburstlayer"/><g class="glimages"/><defs id="topdefs-ca2000"><g class="clips"/></defs><g class="layer-above"><g class="imagelayer"/><g class="shapelayer"/></g><g class="infolayer"><g class="g-gtitle"/><g class="g-xtitle"/><g class="g-ytitle"/></g></svg>