<svg class="main-svg" xmlns="http://www.w3.org/2000/svg" xmlns:xlink="http://www.w3.org/1999/xlink" width="800" height="600" style="" viewBox="0 0 800 600"><rect x="0" y="0" width="800" height="600" style="fill: rgb(255, 255, 255); fill-opacity: 1;"/><defs id="defs-0a1b2e"><g class="clips"><clipPath id="clip0a1b2exyplot" class="plotclip"><rect width="710" height="470"/></clipPath><clipPath class="axesclip" id="clip0a1b2ex"><rect x="80" y="0" width="710" height="600"/></clipPath><clipPath class="axesclip" id="clip0a1b2ey"><rect x="0" y="50" width="800" height="470"/></clipPath><clipPath class="axesclip" id="clip0a1b2exy"><rect x="80" y="50" width="710" height="470"/></clipPath></g><g class="gradients"/></defs><g class="bglayer"/><g class="layer-below"><g class="imagelayer"/><g class="shapelayer"/></g><g class="cartesianlayer"><g class="subplot xy"><g class="layer-subplot"><g class="shapelayer"/><g class="imagelayer"/></g><g class="gridlayer"><g class="x"><path class="xgrid crisp" transform="translate(137.68,0)" d="M0,50v470" style="stroke: rgb(238, 238, 238); stroke-opacity: 1; stroke-width: 1px;"/><path class="xgrid crisp" transform="translate(253.13,0)" d="M0,50v470" style="stroke: rgb(238, 238, 238); stroke-opacity: 1; stroke-width: 1px;"/><path class="xgrid crisp" transform="translate(368.58,0)" d="M0,50v470" style="stroke: rgb(238, 238, 238); stroke-opacity: 1; stroke-width: 1px;"/><path class="xgrid crisp" transform="translate(484.03,0)" d="M0,50v470" style="stroke: rgb(238, 238, 238); stroke-opacity: 1; stroke-width: 1px;"/><path class="xgrid crisp" transform="translate(599.48,0)" d="M0,50v470" style="stroke: rgb(238, 238, 238); stroke-opacity: 1; stroke-width: 1px;"/><path class="xgrid crisp" transform="translate(714.93,0)" d="M0,50v470" style="stroke: rgb(238, 238, 238); stroke-opacity: 1; stroke-width: 1px;"/></g><g class="y"><path class="ygrid crisp" transform="translate(0,474.32)" d="M80,0h710" style="stroke: rgb(238, 238, 238); stroke-opacity: 1; stroke-width: 1px;"/><path class="ygrid crisp" transform="translate(0,414.14)" d="M80,0h710" style="stroke: rgb(238, 238, 238); stroke-opacity: 1; stroke-width: 1px;"/><path class="ygrid crisp" transform="translate(0,353.95)" d="M80,0h710" style="stroke: rgb(238, 238, 238); stroke-opacity: 1; stroke-width: 1px;"/><path class="ygrid crisp" transform="translate(0,293.76)" d="M80,0h710" style="stroke: rgb(238, 238, 238); stroke-opacity: 1; stroke-width: 1px;"/><path class="ygrid crisp" transform="translate(0,233.58)" d="M80,0h710" style="stroke: rgb(238, 238, 238); stroke-opacity: 1; stroke-width: 1px;"/><path class="ygrid crisp" transform="translate(0,173.39)" d="M80,0h710" style="stroke: rgb(238, 238, 238); stroke-opacity: 1; stroke-width: 1px;"/><path class="ygrid crisp" transform="translate(0,113.2)" d="M80,0h710" style="stroke: rgb(238, 238, 238); stroke-opacity: 1; stroke-width: 1px;"/><path class="ygrid crisp" transform="translate(0,53.02)" d="M80,0h710" style="stroke: rgb(238, 238, 238); stroke-opacity: 1; stroke-width: 1px;"/></g></g><g class="zerolinelayer"/><path class="xlines-below"/><path class="ylines-below"/><g class="overlines-below"/><g class="xaxislayer-below"/><g class="yaxislayer-below"/><g class="overaxes-below"/><g class="plot" transform="translate(80, 50)" clip-path="url('#clip0a1b2exyplot')"><g class="scatterlayer mlayer"><g class="trace scatter trace7c83f5" style="stroke-miterlimit: 2; opacity: 1;"><g class="fills"/><g class="errorbars"/><g class="lines"><path class="js-line" style="vector-effect: non-scaling-stroke; fill: none; stroke: rgb(46, 100, 151); stroke-opacity: 1; stroke-width: 1.5px; opacity: 1;" d="M-10217.37,424.63L-10215.87,260.96L-10215.75,262.23"/></g><g class="points"/><g class="text"/></g><g class="trace scatter trace0d22de" style="stroke-miterlimit: 2; opacity: 1;"><g class="fills"/><g class="errorbars"/><g class="lines"><path class="js-line" style="vector-effect: non-scaling-stroke; fill: none; stroke: rgb(25, 169, 121); stroke-opacity: 1; stroke-width: 1.5px; opacity: 1;" d="M-10182.62,177.26L-10181.12,628.63L-10112.77,448.85L-10044.54,419.94L-9771.39,388.01L-9301.27,333.56L-9284.07,372.21L-8879.07,401.12L-8822.73,493.55L-8799.41,380.28L-8715.25,352.04L-8680.61,340.95L-8534.92,333.89L-8486.31,382.97L-8463.22,447.84L-8400.42,365.49L-8370.63,314.73L-8291.32,395.4L-8257.72,366.16L-8245.71,406.16L-8209.92,351.37L-8175.87,353.39L-8159.24,96.25L-8113.64,429.69L-8068.04,406.5L-7984.8,321.46L-7887.93,340.28L-7880.2,284.15L-7752.05,345.66L-7733.69,411.87L-7725.84,209.19L-7651.72,401.79L-7644.57,412.88L-7627.48,430.36L-7610.85,81.46L-7590.42,15.92L-7569.87,307.67L-7546.78,387L-7519.19,360.45L-7514.68,233.73L-7423.13,394.06L-7406.16,161.12L-7387.11,381.96L-7325.69,295.24L-7308.26,351.37L-7217.05,250.87L-7181.27,290.87L-7180,293.56L-7117.77,268.35L-7098.37,289.86L-7095.95,304.99L-7044.8,297.59L-7009.59,326.83L-6942.63,386.33L-6930.97,357.09L-6924.5,364.48L-6896.33,371.54L-6894.49,282.47L-6870.94,11.21L-6812.29,380.95L-6799.7,364.48L-6755.95,-154.5L-6731.82,411.2L-6714.04,405.49L-6608.17,420.61L-6601.01,410.86L-6593.62,-16.68L-6589.35,-139.37L-6537.86,295.61L-6529.09,298.26L-6429.22,247.17L-6423.34,260.28L-6412.83,284.48L-6273.14,297.25L-6268.75,351.03L-6213.56,420.61L-6202.71,374.56L-6191.74,382.97L-6180.66,341.62L-6175.12,-350.79L-6170.96,-326.25L-6167.73,-337.68L-6162.53,443.81L-6157.69,460.28L-6150.64,390.7L-6129.52,386.33L-6121.2,162.13L-6104.35,377.92L-6078.6,101.97L-6054.59,338.93L-6048.01,-328.94L-5980.01,392.71L-5973.31,365.49L-5969.96,343.3L-5954.96,195.75L-5933.71,341.62L-5913.16,347.67L-5898.38,55.92L-5866.29,313.05L-5855.55,347.67L-5758.11,249.86L-5746.8,279.78L-5743.8,278.1L-5681.8,255.24L-5674.3,315.41L-5659.17,347L-5627.65,327.84L-5622.11,7.18L-5554.46,501.62L-5542.8,413.55L-5535.53,409.86L-5502.62,385.66L-5500.08,-322.22L-5499.62,-671.45L-5463.95,517.42L-5442.93,438.09L-5442.24,435.07L-5360.73,308.35L-5357.16,315.74L-5353.23,-726.24L-5350.34,-676.5L-5344.57,-1063.37L-5343.3,-31.81L-5272.41,379.27L-5267.34,370.87L-5254.29,343.64L-5251.52,353.72L-5248.4,131.55L-5245.17,120.45L-5242.05,125.83L-5237.43,322.46L-5218.73,310.7L-5212.27,208.18L-5203.03,178.6L-5201.07,282.13L-5193.56,261.96L-5185.83,83.48L-5139.42,374.9L-5135.03,371.54L-5127.87,108.35L-5034.7,419.94L-5029.28,406.5L-5026.39,85.5L-5018.54,102.3L-5014.15,442.46L-4986.21,340.61L-4980.67,310.36L-4916.14,253.22L-4910.94,245.16L-4857.49,288.18L-4853.56,268.35L-4849.41,276.08L-4818,265.66L-4805.42,296.25L-4798.72,323.47L-4733.73,309.36L-4732.57,312.04L-4721.83,337.59L-4715.6,320.11L-4713.52,-40.21L-4703.48,-79.88L-4701.17,258.94L-4680.16,246.84L-4677.85,264.65L-4672.88,317.76L-4663.99,382.97L-4647.6,285.15L-4623.93,362.46L-4614.7,335.91L-4590.34,223.98L-4566.32,284.15L-4562.51,292.89L-4551.89,362.8L-4544.27,307L-4540.92,-5.26L-4534.69,-17.36L-4532.96,-14L-4524.99,298.26L-4516.79,287.17L-4504.21,338.6L-4502.94,345.99L-4467.27,289.52L-4459.42,301.29L-4458.95,70.04L-4414.85,343.64L-4399.73,287.84L-4361.75,262.97L-4358.05,287.15L-4323.76,235.74L-4318.45,246.16L-4317.18,246.5L-4260.03,277.76L-4252.88,262.97L-4252.07,260.95L-4201.96,243.48L-4196.54,254.57L-4195.38,256.25L-4077.39,267.68L-4077.28,270.7L-4073.93,272.05L-4064.69,286.84L-4045.76,264.65L-4030.98,277.42L-4028.33,278.43L-4009.51,262.63L-4001.77,289.19L-3998.31,306.33L-3973.03,266.33L-3956.63,304.99L-3947.16,285.49L-3902.02,275.41L-3901.68,276.08L-3899.02,278.1L-3883.44,298.6L-3870.51,273.73L-3865.54,294.57L-3862.54,311.71L-3839.8,271.71L-3821.09,298.6L-3819.82,309.02L-3793.85,277.76L-3778.84,295.24L-3776.41,307.34L-3746.74,275.74L-3737.51,294.57L-3735.78,305.99L-3725.96,288.85L-3719.5,299.94L-3716.84,-42.23L-3708.76,-70.46L-3706.45,269.02L-3704.6,260.28L-3680.01,330.87L-3679.32,343.98L-3671.59,382.63L-3636.6,210.87L-3633.6,357.77L-3598.16,235.74L-3596.89,231.37L-3592.96,221.29L-3568.03,250.53L-3566.76,249.86L-3565.26,261.63L-3553.83,293.22L-3538.24,252.55L-3528.43,262.3L-3527.27,258.6L-3514.46,279.78L-3497.49,254.57L-3492.29,268.68L-3491.25,275.74L-3473.93,252.55L-3462.04,289.86L-3456.73,270.37L-3456.16,266L-3421.17,292.21L-3411.01,259.61L-3410.09,252.55L-3389.89,279.1L-3367.14,266.67L-3366.91,264.65L-3351.56,258.6L-3330.08,287.51L-3328.01,285.83L-3325.35,275.07L-3314.73,253.9L-3289.68,277.42L-3287.25,279.1L-3251.81,269.02L-3247.08,289.19L-3246.61,290.2L-3240.38,301.29L-3228.83,250.87L-3228.6,249.19L-3204.13,291.88L-3190.39,269.02L-3189.35,266L-3172.26,285.83L-3160.83,273.73L-3159.45,281.46L-3158.76,287.84L-3122.39,257.93L-3119.85,261.96L-3118.7,267.34L-3095.37,281.79L-3082.21,270.03L-3081.17,271.04L-3069.17,280.78L-3049.77,261.29L-3047.69,250.2L-3023.33,286.5L-3013.29,272.38L-3011.21,265.66L-2989.28,302.3L-2977.38,261.29L-2973.46,262.63L-2944.71,296.25L-2904.77,257.93L-2859.63,221.96L-2857.66,227.01L-2857.43,228.35L-2844.04,223.31L-2835.84,243.14L-2830.88,237.42L-2829.38,245.49L-2794.51,261.63L-2790.12,248.52L-2788.97,246.84L-2786.2,240.45L-2775.92,266.67L-2763.46,262.63L-2763.11,262.63L-2728.59,278.77L-2725.01,260.28L-2723.28,251.54L-2709.89,243.81L-2697.88,275.41L-2692.57,258.6L-2691.99,257.59L-2673.98,240.45L-2664.98,266.33L-2664.63,273.05L-2657.24,306.33L-2647.31,259.27L-2636,274.73L-2635.65,274.73L-2598.48,253.22L-2593.05,262.97L-2592.7,263.64L-2577.58,269.02L-2564.54,257.59L-2564.07,260.28L-2561.53,260.62L-2548.49,286.84L-2537.64,245.83L-2536.83,246.16L-2523.43,285.49L-2502.54,276.42L-2501.5,274.4L-2488.34,294.23L-2475.52,269.69L-2474.48,262.97L-2468.71,255.91L-2463.17,272.05L-2460.75,285.83L-2431.31,254.9L-2428.88,258.26L-2427.38,262.3L-2417.57,281.46L-2412.14,248.52L-2407.41,250.53L-2405.1,242.8L-2396.44,279.78L-2377.97,255.91L-2377.85,254.9L-2368.15,282.8L-2349.91,279.1L-2348.76,267.68L-2332.25,254.57L-2326.48,276.75L-2323.36,269.69L-2323.01,268.01L-2314.82,258.94L-2301.19,282.13L-2295.77,272.72L-2294.96,272.05L-2284.11,264.65L-2268.52,285.49L-2268.06,278.77L-2263.79,281.79L-2243.93,263.31L-2240.35,272.72L-2239.54,279.1L-2175.7,264.04L-2175.12,260.17L-2151.69,226L-2143.49,230.7L-2142.57,232.05L-2137.25,225.32L-2127.44,251.21L-2126.86,247.17L-2126.17,251.88L-2109.66,278.1L-2107.01,261.63L-2103.31,257.26L-2098.81,256.25L-2076.18,288.18L-2075.84,285.15L-2074.68,280.45L-2066.71,295.24L-2056.67,270.03L-2055.63,255.58L-2048.24,239.11L-2036.58,258.26L-2033.47,244.82L-2032.54,251.54L-2026.19,245.16L-2023.07,261.63L-2022.73,269.02L-2015.22,272.38L-2011.64,250.2L-2009.8,240.79L-2005.41,238.1L-1999.87,259.95L-1996.98,261.63L-1974.93,277.09L-1973.55,268.68L-1972.62,254.9L-1961.89,273.39L-1957.04,245.83L-1953.46,257.59L-1952.3,248.85L-1927.37,262.63L-1927.14,258.6L-1926.33,254.9L-1916.51,243.48L-1909.36,259.95L-1906.35,259.27L-1904.16,266L-1896.31,254.9L-1888.81,276.42L-1885.92,274.4L-1883.96,275.74L-1872.64,280.78L-1868.6,262.63L-1867.45,258.94L-1861.1,251.54L-1850.01,281.46L-1846.09,263.98L-1842.86,261.63L-1833.62,279.1L-1824.73,257.26L-1823.92,256.58L-1819.77,254.57L-1815.38,272.72L-1814.92,274.73L-1810.53,279.44L-1803.95,256.92L-1798.64,279.1L-1797.6,284.48L-1793.21,298.26L-1785.13,266.67L-1782.13,269.02L-1781.78,264.99L-1774.4,251.88L-1755.23,291.88L-1755,290.87L-1754.19,299.61L-1742.65,314.73L-1734.33,304.65L-1733.53,303.64L-1714.13,269.69L-1712.17,274.73L-1710.67,279.1L-1702.82,308.68L-1690.58,293.89L-1690.35,291.54L-1657.91,266L-1651.79,281.46L-1651.33,284.48L-1645.44,296.25L-1641.05,277.09L-1636.09,277.09L-1634.82,275.74L-1623.62,305.32L-1620.38,299.94L-1619.23,-48.95L-1608.84,-80.55L-1608.49,-79.54L-1607.8,262.63L-1598.45,257.26L-1594.75,271.71L-1590.95,261.96L-1590.71,260.62L-1586.9,263.98L-1584.94,255.91L-1583.67,283.14L-1573.97,349.69L-1570.05,285.49L-1569.24,268.35L-1562.66,245.16L-1550.77,258.26L-1549.61,257.59L-1529.29,303.31L-1525.95,292.55L-1525.02,289.86L-1505.63,250.87L-1501.7,264.65L-1500.89,265.66L-1493.51,287.84L-1489.58,279.1L-1454.14,257.93L-1453.44,265.87L-1440.05,246.16L-1439.36,243.47L-1432.89,231.04L-1427.24,256.58L-1426.89,262.97L-1419.96,284.82L-1413.27,251.88L-1412,252.55L-1411.54,253.56L-1410.5,257.93L-1399.3,241.12L-1397.45,246.16L-1397.1,245.16L-1386.71,286.84L-1376.67,268.35L-1376.21,265.32L-1369.17,271.71L-1360.39,249.53L-1358.89,252.55L-1358.54,252.21L-1349.65,265.66L-1343.19,250.53L-1342.73,249.86L-1341.34,245.83L-1336.15,276.08L-1335.8,279.44L-1331.07,286.16L-1328.07,261.96L-1327.95,260.28L-1314.33,243.14L-1313.06,243.81L-1312.48,245.49L-1288,259.95L-1286.27,251.54L-1285.7,247.84L-1279.46,238.1L-1271.15,247.51L-1271.03,247.51L-1267.8,252.55L-1263.3,234.4L-1262.61,235.74L-1262.37,232.05L-1241.94,266.33L-1235.36,256.58L-1235.24,254.23L-1231.78,248.18L-1224.97,262.63L-1224.85,263.31L-1210.54,268.01L-1209.73,258.6L-1202.69,268.35L-1199.8,256.58L-1196.91,257.93L-1195.99,260.62L-1184.79,251.54L-1184.21,245.49L-1178.33,238.1L-1164.7,283.14L-1154.31,276.42L-1154.2,273.73L-1149.7,283.14L-1146.81,273.39L-1146.46,266L-1144.85,268.68L-1138.15,256.92L-1134.11,269.02L-1133.99,269.02L-1131.8,257.59L-1127.64,278.1L-1122.68,274.73L-1121.87,278.43L-1112.29,246.84L-1108.6,260.62L-1108.13,264.31L-1096.36,253.89L-1094.39,254.57L-1093.93,257.59L-1079.73,267.68L-1079.27,266.67L-1078.58,262.63L-1077.08,259.27L-1072.34,277.76L-1071.42,280.78L-1066.8,284.82L-1054.56,256.58L-1052.26,265.32L-1051.33,271.71L-1043.94,246.16L-1037.25,259.27L-1036.9,263.31L-1031.36,284.82L-1025.93,258.6L-1025.82,258.26L-1022.82,241.46L-1014.27,256.58L-1013.81,264.31L-1006.31,287.51L-1002.03,266L-1001.46,265.32L-1000.07,266.33L-986.45,247.51L-985.99,250.53L-985.41,250.87L-982.18,250.2L-973.52,266L-973.06,260.28L-972.02,260.28L-963.82,276.08L-960.01,269.02L-959.55,262.3L-952.51,241.79L-949.04,252.55L-948.12,257.93L-940.62,269.36L-939.92,259.95L-939.23,256.25L-934.84,245.83L-930.92,263.31L-929.07,258.26L-928.72,261.29L-925.95,273.39L-919.83,250.87L-919.72,252.55L-919.49,249.86L-914.41,243.14L-910.71,261.29L-910.48,262.97L-905.98,276.75L-901.13,259.27L-900.9,257.26L-893.97,245.49L-888.32,267L-887.85,267L-885.78,264.99L-883.58,275.41L-880.35,272.72L-880.12,274.73L-878.27,281.12L-873.77,261.63L-868.11,269.36L-867.77,269.69L-866.84,266.67L-863.03,287.51L-862.8,288.18L-843.98,249.53L-843.52,249.86L-843.06,245.16L-832.78,258.26L-832.32,261.63L-824.24,280.11L-821.7,271.04L-821.47,268.68L-811.66,256.25L-809.69,260.28L-809.12,263.64L-808.19,268.01L-802.54,254.23L-800.23,264.32L-799.3,257.93L-795.38,254.23L-792.61,268.01L-792.38,268.01L-791.45,266.33L-789.38,264.31L-781.87,276.42L-781.64,274.06L-781.06,270.37L-774.14,282.13L-773.79,278.43L-773.44,283.14L-771.71,284.15L-765.48,265.66L-762.59,269.36L-726.22,399.1L-717.22,277.71L-717.1,276.96L-716.18,279.14L-715.03,262.63L-714.68,258.26L-701.29,230.7L-696.67,235.74L-696.44,237.09L-693.78,244.15L-689.74,233.73L-689.63,233.39L-685.01,229.02L-682.12,232.05L-681.08,232.38L-679.81,231.37L-675.08,240.79L-672.66,236.75L-672.42,233.73L-671.73,229.02L-668.15,242.47L-665.15,237.76L-664.46,238.43L-663.19,233.39L-660.3,241.79L-656.61,237.42L-656.15,237.09L-653.95,239.11L-649.68,226L-648.3,234.06L-647.83,235.41L-646.8,228.01L-641.6,244.48L-640.91,247.17L-637.56,260.62L-633.06,252.21L-632.94,251.54L-629.82,257.93L-628.09,251.21L-625.78,253.22L-625.44,255.24L-621.86,265.32L-618.74,252.89L-618.63,250.53L-615.85,246.16L-614.82,256.92L-612.51,252.89L-612.16,254.57L-609.97,252.21L-607.77,259.95L-607.54,261.29L-606.27,264.31L-604.08,255.91L-603.73,252.55L-601.42,253.9L-599.46,246.5L-596.23,248.85L-596.11,249.19L-588.38,254.57L-588.03,258.26L-586.07,251.21L-581.91,263.64L-581.8,262.97L-581.68,264.31L-578.56,269.36L-576.72,261.29L-575.91,266L-575.68,268.35L-571.87,275.74L-570.48,266.67L-570.02,266L-564.36,253.56L-564.13,249.19L-559.17,238.77L-557.44,245.83L-556.86,249.86L-548.55,272.72L-548.43,271.71L-547.85,271.37L-540.81,255.91L-540.35,256.25L-539.89,254.9L-535.04,265.32L-532.85,262.63L-532.5,262.3L-528.23,264.99L-527.65,259.95L-527.42,257.93L-523.61,253.9L-521.42,260.28L-521.3,261.29L-512.18,270.37L-511.6,266.33L-510.1,267.34L-505.14,258.94L-505.02,259.27L-502.83,256.25L-501.44,263.98L-500.75,263.64L-496.48,276.75L-494.29,274.4L-493.71,273.39L-492.9,276.75L-489.55,266L-489.32,263.98L-484.82,246.5L-482.39,252.55L-482.28,253.56L-481.59,262.3L-479.05,253.22L-476.39,256.58L-476.04,259.27L-473.27,271.04L-470.62,264.99L-470.5,262.97L-470.04,259.27L-467.15,269.69L-465.65,262.97L-465.08,269.36L-459.77,257.26L-458.15,261.29L-457.57,261.29L-456.3,258.6L-454.22,266.67L-453.3,265.66L-452.72,270.03L-447.64,256.58L-444.99,261.63L-444.87,261.96L-441.41,251.54L-439.1,255.24L-438.18,259.27L-436.79,254.9L-435.29,261.96L-433.21,254.9L-432.98,253.89L-431.6,251.21L-429.98,261.96L-429.86,261.63L-429.29,262.3L-428.48,260.62L-427.21,268.35L-425.71,267.34L-425.36,271.04L-423.05,266L-419.01,276.42L-418.9,273.73L-413.24,260.95L-412.66,266.67L-409.43,345.32L-405.74,334.9L-405.62,335.57L-405.27,332.88L-402.5,342.97L-402.39,342.97L-401.81,347L-399.73,303.31L-399.27,287.17L-398,266.33L-394.19,281.46L-394.07,281.46L-392.57,284.15L-390.03,266.67L-389.92,266.67L-388.19,268.68L-385.99,259.27L-385.53,266.67L-385.3,268.68L-384.72,272.05L-381.14,261.29L-381.03,258.6L-379.76,256.58L-375.72,269.02L-375.26,266.33L-374.45,270.7L-373.76,259.27L-373.52,255.58L-372.25,250.2L-369.37,256.92L-369.02,254.9L-368.68,253.56L-359.56,276.42L-359.32,271.71L-359.21,271.04L-358.63,267.68L-356.32,275.74L-355.05,273.05L-354.71,274.06L-348.01,246.16L-347.2,254.23L-345.82,246.84L-342.93,255.58L-342.82,256.58L-341.55,252.21L-340.28,254.9L-340.16,258.6L-340.04,257.26L-338.54,265.32L-338.08,264.65L-337.97,264.65L-336,272.72L-333.58,268.35L-333.46,266.67L-332.31,272.05L-331.27,266L-329.54,267L-329.19,264.32L-324,249.86L-323.88,251.54L-323.42,250.53L-322.5,255.58L-322.27,260.95L-318.46,257.93L-318.22,260.28L-318.11,261.63L-316.84,262.63L-316.26,255.91L-315.92,250.53L-315.22,246.84L-314.76,249.86L-314.65,250.53L-311.76,261.29L-310.95,259.27L-310.37,250.53L-309.33,248.85L-307.37,254.57L-307.26,254.57L-306.45,251.21L-305.99,256.58L-305.87,258.94L-303.68,278.43L-303.22,277.42L-302.29,272.72L-301.71,275.74L-301.6,277.09L-300.21,276.75L-299.06,282.47L-298.94,283.47L-297.21,281.46L-296.4,289.19L-294.79,287.51L-294.1,282.13L-293.75,278.43L-293.06,282.13L-292.94,281.12L-292.25,282.13L-290.75,272.72L-290.05,269.69L-288.9,270.03L-287.17,264.65L-286.13,266.33L-285.9,266.33L-285.21,264.31L-283.94,274.4L-282.32,266.33L-282.09,264.31L-277.01,248.85L-276.66,250.87L-272.85,235.74L-272.16,239.44L-272.04,239.78L-271.58,238.43L-270.31,245.49L-270.2,245.83L-268,254.9L-266.62,250.87L-266.5,250.53L-262.35,261.96L-261.88,262.97L-261.08,263.64L-260.85,259.61L-260.61,258.94L-257.96,255.91L-256.69,265.66L-256.57,265.32L-256.34,264.31L-253.57,271.37L-252.42,268.68L-252.19,269.02L-250.69,264.65L-248.72,267L-248.49,268.01L-247.8,271.37L-245.72,264.65L-245.38,261.63L-244.45,256.92L-242.37,267L-242.26,268.01L-241.8,269.69L-240.99,264.99L-240.53,265.66L-240.41,266.67L-238.45,255.58L-238.33,255.58L-234.64,269.02L-234.06,269.36L-229.79,251.21L-229.56,251.54L-228.87,250.53L-227.71,258.6L-227.6,259.61L-226.67,266.33L-225.52,252.21L-225.17,249.86L-224.48,255.58L-222.98,248.85L-221.94,252.21L-221.82,252.21L-219.51,267.68L-217.9,266.33L-217.67,264.99L-216.17,268.68L-215.13,260.28L-215.01,260.62L-214.78,262.63L-213.74,266L-211.2,253.9L-211.09,255.91L-210.39,257.26L-209.93,252.55L-209.82,250.87L-209.47,252.21L-208.2,244.48L-206.58,245.49L-206.47,246.84L-205.43,249.19L-204.39,243.48L-204.28,244.48L-204.04,243.81L-203.7,242.13L-202.08,248.18L-201.74,246.84L-200.93,250.53L-197.69,264.65L-197.46,262.3L-197.23,259.95L-196.54,252.55L-194.58,255.24L-193.65,257.59L-192.5,260.95L-190.42,251.88L-189.84,253.56L-189.73,256.25L-186.38,244.82L-186.26,245.49L-185.8,247.84L-184.07,259.61L-182.8,256.58L-182.34,253.56L-181.19,256.58L-181.07,254.23L-179.68,259.95L-178.53,257.59L-178.18,252.21L-177.49,255.24L-176.11,250.2L-175.87,250.2L-174.95,254.23L-172.64,242.8L-172.53,243.14L-172.41,243.14L-172.18,241.46L-170.56,246.16L-170.22,245.16L-169.99,247.84L-168.02,244.48L-167.22,246.5L-166.98,246.84L-164.1,257.59L-163.87,258.6L-162.71,251.54L-162.02,252.55L-161.79,255.58L-161.33,258.94L-160.4,254.9L-159.37,258.26L-159.13,256.58L-157.4,257.59L-157.29,256.92L-157.06,258.6L-155.44,259.95L-154.63,255.91L-154.4,257.26L-154.29,257.59L-151.28,261.96L-151.05,263.98L-148.05,259.27L-147.82,258.94L-145.74,261.96L-145.4,259.95L-144.7,266.67L-143.66,258.26L-143.2,260.62L-143.09,260.95L-140.2,252.21L-139.85,251.88L-139.39,249.19L-138.81,253.89L-138.35,253.56L-138.12,253.56L-136.51,260.95L-135.93,259.95L-135.7,258.26L-135.12,262.97L-133.5,259.27L-133.27,258.6L-132.7,253.89L-132.12,260.62L-131.66,258.94L-131.43,259.95L-131.2,262.97L-130.96,261.96L-130.62,260.62L-128.19,271.04L-127.73,275.74L-124.73,267.34L-124.61,269.36L-124.15,269.69L-123.81,267.34L-123,262.3L-121.84,267L-121.73,267L-121.27,269.02L-121.04,271.71L-120.34,269.36L-119.65,273.73L-119.3,275.41L-119.19,276.08L-118.26,272.72L-117.8,272.72L-117.69,271.71L-116.88,273.05L-116.19,269.36L-115.84,272.05L-115.15,269.69L-115.03,272.72L-113.53,266.67L-113.07,268.35L-111.22,281.12L-111.11,280.11L-109.49,277.09L-109.38,277.09L-109.03,278.77L-108.22,275.07L-108.11,273.05L-107.07,269.02L-106.95,271.37L-106.72,273.05L-105.91,277.42L-104.99,274.06L-104.87,273.39L-102.68,277.76L-102.33,276.08L-101.99,277.76L-99.45,261.63L-99.33,263.31L-98.98,263.31L-98.75,262.97L-98.41,259.27L-98.18,259.61L-97.48,257.59L-97.37,256.58L-96.91,255.58L-96.21,258.6L-95.87,256.25L-95.75,255.24L-94.94,247.84L-93.79,251.21L-93.67,252.55L-93.56,252.89L-93.33,252.21L-93.21,250.2L-92.52,254.9L-91.83,249.53L-91.71,249.86L-91.6,248.52L-90.1,252.55L-89.75,250.53L-89.63,248.52L-87.79,253.56L-87.56,250.87L-87.32,250.87L-84.9,256.92L-84.78,259.27L-84.09,262.63L-83.86,265.32L-83.63,264.31L-82.71,267.34L-82.59,268.68L-80.97,260.62L-80.4,264.31L-80.28,265.66L-80.17,265.32L-79.7,266.33L-79.59,266.33L-79.36,268.35L-79.13,269.02L-79.01,267.68L-78.32,266L-76.01,275.41L-75.78,278.1L-75.55,281.79L-74.62,279.78L-74.05,282.8L-71.51,276.08L-71.39,277.09L-71.16,275.74L-69.54,282.13L-69.31,281.12L-69.08,278.77L-68.39,281.12L-68.16,281.46L-67.58,278.77L-66.66,283.81L-66.54,283.47L-66.43,282.8L-64.93,276.75L-64.58,274.06L-64.47,274.4L-64.23,272.38L-64.12,269.69L-63.89,270.7L-63.08,268.35L-62.96,265.32L-62.5,262.97L-62.39,263.31L-62.04,266.67L-61.81,267L-61.69,264.31L-61.12,260.95L-60.66,264.31L-60.54,267L-60.19,269.69L-59.5,266.33L-59.27,266.33L-58.81,268.01L-58.58,268.68L-57.77,265.32L-57.42,266L-57.19,267.68L-56.96,268.01L-56.85,267L-56.73,263.98L-56.38,263.98L-56.04,266.67L-54.19,261.63L-53.84,261.96L-52.8,266L-52.23,265.32L-52.11,263.98L-51.77,263.64L-50.73,272.72L-50.03,271.37L-49.92,270.7L-46.22,257.59L-46.11,257.93L-45.99,258.94L-45.65,256.58L-44.95,260.62L-44.72,260.62L-44.38,258.26L-44.15,260.95L-44.03,261.63L-43.68,261.63L-43.45,262.97L-43.34,262.63L-42.99,265.32L-42.88,267.34L-41.95,268.35L-41.72,271.04L-40.45,274.06L-40.22,278.43L-39.07,274.73L-38.95,275.41L-38.72,276.75L-38.6,275.41L-38.37,276.75L-38.03,279.44L-36.87,282.8L-36.76,282.13L-36.53,281.79L-36.06,281.12L-35.72,282.13L-35.49,281.79L-35.26,281.46L-35.03,280.78L-34.91,282.13L-34.79,284.15L0.07,278.1L0.3,255.69L0.76,234.88L1.11,241.12L1.23,253.65L1.8,305.41L2.38,302.1L2.61,298.56L3.65,282.3L3.88,277.11L4.92,265.59L5.04,266.64L5.5,276.7L5.73,274.06L5.96,271.63L8.04,256.49L8.15,256.79L8.27,258.49L8.96,266.89L9.19,269.69L11.39,263.84L11.85,264.31L13.93,248.18L14.16,249.19L14.39,250.2L14.73,250.87L14.85,249.86L15.08,248.52L15.89,254.57L16.35,253.89L16.47,253.89L16.58,254.23L16.7,252.89L17.16,246.84L17.27,246.16L17.62,248.52L17.74,248.18L17.85,247.84L18.08,248.85L18.31,251.88L19.24,248.52L19.47,249.53L19.58,250.53L21.31,236.75L21.43,237.09L21.55,238.77L22.12,238.1L22.47,239.44L22.93,239.11L23.16,238.1L23.28,238.43L23.51,237.76L23.74,237.76L23.85,237.76L24.2,240.11L24.55,238.43L24.78,238.43L25.24,241.79L25.59,239.44L25.93,239.11L27.32,235.41L27.43,234.4L28.13,231.71L28.24,233.06L28.36,234.06L28.82,236.42L28.93,235.41L29.05,233.06L29.51,235.74L29.97,234.4L31.01,237.09L31.13,236.42L31.47,236.08L32.05,234.06L32.28,234.4L32.74,235.41L33.67,238.43L33.78,235.74L34.24,233.73L34.59,235.74L34.82,237.09L35.05,236.08L35.17,234.06L35.75,232.38L35.98,235.74L36.21,233.39L37.59,227.01L37.71,228.35L37.94,227.34L38.17,229.69L38.4,231.04L38.98,230.03L39.21,231.04L40.36,228.01L40.48,229.69L40.83,228.01L41.06,229.02L41.17,231.04L41.52,230.37L41.86,231.37L42.21,233.73L42.33,233.06L42.67,235.41L42.79,235.41L43.71,240.79L43.94,239.44L44.75,231.37L45.21,238.43L45.33,238.1L45.44,240.45L45.91,241.12L46.25,238.1L46.37,236.75L46.71,239.11L46.94,238.77L47.06,240.11L47.52,241.79L47.64,242.47L49.14,254.57L49.25,252.55L49.71,249.53L49.83,247.17L51.45,259.27L52.14,258.6L52.49,257.93L52.6,258.94L52.83,256.58L53.06,259.61L53.18,258.26L53.52,255.58L53.64,256.25L53.76,254.57L54.1,254.57L54.22,253.22L54.79,251.54L54.91,253.22L55.83,263.64L56.06,262.97L56.3,261.63L57.68,248.85L58.14,249.19L58.26,250.2L58.84,254.23L58.95,253.89L59.41,252.89L60.57,247.84L60.8,248.85L60.91,250.2L61.03,248.52L61.26,251.88L61.61,252.21L61.84,252.89L61.95,250.2L62.18,250.53L62.3,249.86L62.53,248.52L63.22,246.5L63.57,247.51L63.8,247.84L63.92,247.17L64.03,246.84L64.49,244.15L64.61,242.47L65.53,239.11L65.65,240.45L65.99,241.46L67.15,237.42L67.26,238.43L67.38,239.78L67.73,242.13L68.07,240.11L68.19,239.78L69.46,247.17L69.57,246.5L69.8,247.84L69.92,245.49L70.03,246.5L70.38,244.82L70.5,243.48L71.53,238.1L71.65,238.1L72,240.45L72.46,236.75L72.8,235.41L72.92,238.1L73.15,235.41L73.38,235.07L73.5,236.08L73.61,235.74L73.73,233.39L73.96,237.42L74.65,236.75L74.77,237.09L75.23,232.38L75.58,233.06L75.81,233.06L75.92,231.71L76.38,234.4L76.5,234.74L77.08,240.79L77.19,239.11L77.31,237.09L77.65,236.75L77.77,234.74L78,235.07L79.15,230.37L79.27,230.37L79.62,232.72L79.85,231.37L79.96,229.36L81.35,233.39L81.46,233.39L82.04,229.02L82.39,231.04L82.62,232.05L83.08,231.37L83.2,233.73L83.31,232.72L83.54,236.08L83.77,237.76L84.81,245.83L85.04,246.5L85.16,245.83L85.27,248.52L85.39,248.85L85.74,246.16L86.2,247.17L86.31,247.84L86.54,248.18L86.66,249.86L87.47,255.58L87.93,253.9L88.16,252.21L89.89,261.29L90.01,260.62L90.47,256.25L90.82,255.24L90.93,257.59L91.05,257.59L91.28,257.26L91.39,257.93L91.51,259.61L91.85,258.6L92.09,259.27L92.32,259.95L94.05,265.32L94.16,264.31L94.62,267.34L95.09,265.66L95.32,266L95.43,263.64L95.55,263.98L95.66,261.96L96.59,257.93L96.7,259.95L96.93,259.61L97.4,261.96L97.51,259.61L98.2,261.29L98.32,259.95L98.55,257.93L99.82,261.29L100.05,257.93L100.4,257.26L100.97,259.61L101.09,257.59L101.44,253.56L101.67,255.91L101.78,258.6L102.13,261.29L102.36,259.95L102.71,258.26L102.94,259.27L103.17,257.26L103.28,256.25L103.86,258.26L103.98,257.93L104.09,255.91L104.21,254.9L104.67,257.26L104.9,255.58L106.17,251.54L106.4,251.54L107.09,250.2L107.21,250.87L107.44,252.21L108.13,249.53L108.25,250.53L108.36,247.17L108.48,246.84L108.59,248.18L108.71,247.17L108.83,248.18L109.52,250.53L109.86,250.2L110.1,248.85L111.13,242.8L111.37,243.81L111.6,244.15L112.06,243.81L112.29,246.5L112.4,243.48L112.87,248.52L112.98,250.53L113.67,245.49L113.79,248.18L114.02,248.85L114.14,249.19L114.25,248.52L114.37,247.51L114.6,250.53L115.18,248.85L115.29,248.18L115.75,250.2L115.87,247.84L116.21,247.17L116.56,247.17L116.68,248.85L117.14,248.18L117.6,250.2L117.83,248.52L118.75,252.89L118.87,252.89L119.79,248.18L120.02,252.55L120.49,251.54L120.72,248.52L121.06,246.5L121.41,248.18L121.52,249.19L122.33,254.23L122.68,253.56L123.26,261.63L123.6,258.94L123.95,260.28L125.1,255.91L125.22,257.59L125.57,258.6L126.14,255.24L126.49,257.59L126.84,258.6L126.95,258.26L127.07,256.58L127.99,258.6L128.34,257.93L129.03,260.62L129.26,259.95L129.38,259.61L130.3,256.25L130.41,256.25L130.76,260.95L131.34,260.28L131.45,258.26L131.92,254.9L132.03,256.25L132.26,258.26L132.61,257.59L132.95,254.23L133.19,253.22L133.42,255.58L134.11,256.92L134.46,253.89L135.61,247.51L135.73,249.86L136.53,249.86L136.88,247.17L137.11,244.82L137.46,245.49L137.92,245.83L139.07,247.51L139.19,246.84L139.53,245.16L139.88,247.51L140,248.18L140.11,248.52L140.23,247.17L140.46,248.18L140.57,246.84L141.5,250.53L141.73,250.53L141.84,251.88L142.07,251.54L142.42,248.52L143.46,253.9L143.58,252.89L143.81,252.21L143.92,253.89L144.04,255.24L145.31,258.6L145.42,256.92L145.54,256.58L145.88,259.27L146.35,259.61L146.46,259.27L146.58,258.6L146.81,258.6L147.04,262.97L147.27,261.29L147.5,263.64L147.62,263.31L147.85,264.31L148.89,268.68L149.12,268.35L149.23,267.68L150.04,261.29L150.27,261.63L150.5,260.95L150.85,261.63L150.96,260.28L151.2,261.96L151.66,258.26L151.77,260.95L152.23,261.29L152.7,256.92L153.39,255.58L154.77,264.99L154.89,264.31L155.01,264.65L155.35,265.66L155.47,264.99L155.58,262.3L156.74,258.26L156.85,259.61L156.97,260.28L157.08,259.61L157.31,255.58L157.43,254.57L157.66,256.92L158.12,261.29L158.93,264.99L159.16,264.65L159.28,264.65L160.32,261.96L160.55,264.65L162.62,279.44L162.86,277.76L162.97,276.75L163.78,274.73L164.13,275.07L164.24,275.74L164.36,275.07L164.59,276.75L164.7,277.76L166.32,267L166.78,271.04L167.36,274.4L167.7,274.06L168.05,272.05L168.28,272.72L168.4,270.03L168.63,269.69L168.97,272.05L169.21,271.04L169.44,271.71L169.67,269.02L169.78,267.68L170.48,259.95L170.82,261.29L170.94,260.95L171.17,264.31L171.63,261.29L171.86,261.29L173.02,255.24L173.13,256.92L173.94,260.95L174.29,259.61L174.4,259.61L175.9,268.01L176.02,267.68L176.25,267.68L176.48,270.37L176.59,274.73L177.75,285.49L178.1,283.81L178.21,283.47L178.67,280.11L178.9,280.45L179.02,281.79L179.37,278.43L179.83,278.77L179.94,280.45L180.75,285.15L180.87,283.14L180.98,281.79L181.91,286.84L182.48,286.16L182.6,285.15L182.83,282.8L183.18,286.16L183.41,287.17L183.52,286.84L183.64,287.84L183.87,287.84L184.1,288.52L186.87,277.76L186.98,278.1L187.1,278.43L187.33,277.76L187.45,276.08L188.72,268.68L189.06,263.31L189.41,263.98L189.64,261.63L189.87,260.28L192.06,274.73L192.18,273.39L192.41,274.06L192.64,272.72L192.76,274.06L193.57,276.08L193.68,275.74L193.8,275.07L194.84,271.04L194.95,271.71L195.18,272.72L195.41,272.72L195.76,271.71L195.99,270.03L196.11,273.39L196.22,273.39L197.03,278.43L197.26,277.09L197.38,277.76L197.95,280.45L198.18,279.1L198.41,278.43L198.65,276.42L198.76,278.77L198.88,278.1L199.11,279.1L199.34,279.78L199.8,278.43L200.15,276.75L200.26,279.44L200.49,281.12L200.72,281.46L200.84,283.81L201.3,288.18L201.53,284.15L201.76,282.8L203.26,273.39L203.38,273.73L203.49,274.4L204.07,270.37L204.53,270.7L204.65,270.37L205.57,277.76L206.03,276.42L206.15,276.08L206.84,272.72L207.19,273.05L207.42,274.4L207.54,274.73L207.77,271.37L207.88,272.05L208.11,269.02L208.23,269.36L208.34,269.69L208.46,268.01L208.57,266.67L209.61,261.29L209.84,263.64L209.96,263.64L210.19,266L210.77,265.66L210.88,265.32L211,266.33L211.34,262.97L211.46,262.3L211.92,265.32L212.15,263.64L212.38,262.3L213.08,265.32L213.31,264.65L213.54,265.32L215.39,274.4L215.5,273.39L215.62,275.74L216.08,274.4L216.42,275.74L217.12,273.39L217.35,274.4L218.73,279.44L218.85,279.44L219.2,280.11L219.43,278.43L219.77,280.11L220,278.1L220.23,279.1L220.35,278.1L220.7,274.4L221.16,276.08L221.27,276.42L221.5,277.42L221.97,277.09L222.54,275.07L222.77,276.75L223.12,276.42L223.24,275.07L224.28,271.71L224.39,272.72L224.97,279.44L225.31,275.74L225.43,275.41L226.24,272.72L226.47,274.06L228.09,267.34L228.2,266.33L228.89,261.29L229.24,260.95L230.28,255.24L230.51,257.26L230.74,258.26L230.86,257.93L230.97,258.6L231.09,258.6L231.89,267.68L232.13,271.71L232.7,270.37L232.82,269.36L233.51,266L233.63,263.98L234.09,266.67L234.32,265.66L234.55,265.66L235.24,266.67L235.36,265.32L236.4,258.6L236.51,258.94L236.63,258.26L236.74,260.62L237.09,259.95L237.32,258.94L237.9,259.61L238.01,257.93L238.48,257.26L238.59,257.59L238.82,258.6L238.94,258.94L239.05,257.59L239.17,255.91L239.75,256.25L239.98,259.95L240.44,262.63L240.67,264.65L240.78,263.64L241.02,264.99L241.25,264.99L241.36,265.32L241.59,264.99L241.82,266.67L244.36,248.18L244.48,249.53L245.17,256.25L245.4,254.23L245.52,253.22L245.86,253.89L246.56,250.87L246.79,250.53L247.02,251.54L247.25,249.86L247.37,250.87L247.6,248.85L247.71,247.84L248.06,251.21L248.4,253.22L248.75,252.55L249.21,255.24L249.67,259.95L250.02,258.94L250.14,256.92L250.37,256.92L250.6,255.58L251.41,252.21L251.75,252.89L252.21,247.51L252.68,249.19L252.79,250.2L253.02,250.53L253.48,248.85L253.6,250.2L254.98,259.61L255.1,259.27L255.91,263.31L256.02,262.63L256.37,261.29L257.29,259.27L257.41,259.61L257.64,262.97L258.22,261.96L258.33,261.29L258.56,261.29L258.68,262.63L259.95,255.91L260.06,256.25L260.3,256.58L260.99,249.53L261.22,251.88L261.33,253.22L261.68,258.6L262.14,271.71L262.95,279.44L263.07,278.1L263.3,278.43L264.22,283.81L264.34,282.47L264.45,281.79L264.68,283.14L265.14,282.47L265.26,281.46L265.72,279.44L265.95,281.79L266.07,281.46L266.41,281.12L266.65,282.47L266.76,282.13L266.99,281.79L267.92,278.1L268.03,279.78L268.26,279.1L268.61,280.45L268.84,281.46L269.07,279.44L269.19,278.77L270.34,284.15L270.46,284.15L270.57,283.47L270.69,284.15L271.03,288.18L271.73,289.86L272.19,290.53L273,286.16L273.11,284.48L273.92,270.37L274.5,272.05L274.61,272.05L274.84,272.72L275.07,270.37L275.3,269.36L275.42,271.04L275.65,269.02L277.04,276.75L277.27,276.42L277.5,276.42L277.73,275.07L277.96,276.75L278.07,278.43L278.54,280.78L278.88,279.44L279,279.78L279.11,279.44L279.23,280.11L279.34,282.13L279.92,285.83L280.04,284.48L280.38,283.47L280.73,285.15L280.96,283.81L281.19,284.15L281.54,285.49L282,285.15L282.35,283.47L283.27,280.78L283.39,280.78L283.96,284.48L284.54,281.79L285.35,284.82L285.69,284.15L285.81,283.81L285.93,285.15L286.27,282.8L286.5,283.14L286.62,284.15L287.54,281.12L287.77,279.44L287.89,281.12L288.35,278.1L288.47,276.42L289.16,274.4L289.27,273.73L290.2,270.03L290.43,270.7L291.01,272.72L291.24,268.01L291.35,267.34L291.7,269.36L291.81,268.01L291.93,269.36L292.85,266.33L292.97,264.99L293.08,263.98L293.31,265.66L293.43,268.35L293.66,270.37L294.12,269.69L294.35,269.69L294.82,270.37L295.39,267.34L295.51,266L295.85,265.66L296.66,268.68L296.78,266.67L297.01,267L297.12,265.32L297.59,265.66L297.7,264.31L298.51,265.66L298.63,263.98L298.86,263.31L298.97,265.66L299.32,264.65L299.66,267L299.78,265.32L300.93,273.05L301.05,272.38L301.28,269.02L301.74,269.36L302.55,264.65L302.78,266.33L302.9,268.35L303.59,267.68L303.7,268.35L304.17,269.02L304.4,266.33L304.51,266L304.63,268.01L304.74,268.35L304.97,268.01L305.09,266.33L305.32,267.34L306.01,265.66L306.13,267L307.28,262.63L307.4,266.33L307.51,268.35L308.09,267L308.21,266.67L308.9,263.64L309.02,263.98L309.13,264.65L309.71,268.35L310.05,266.33L310.17,264.99L310.4,266.67L310.63,264.31L310.86,266.33L310.98,265.32L311.21,262.63L311.56,265.66L311.67,266.33L312.48,260.62L312.71,262.3L312.83,262.63L313.52,264.31L313.63,263.98L313.75,263.98L314.79,270.7L315.25,272.38L316.06,274.73L316.29,274.06L316.4,272.38L316.87,270.37L316.98,271.37L317.1,273.39L317.56,273.73L317.67,273.05L317.79,275.07L318.71,280.45L318.83,278.77L319.06,272.05L319.64,273.39L319.75,274.4L320.33,276.08L320.45,275.07L320.56,274.4L321.37,272.05L321.48,272.72L321.72,274.73L321.95,273.39L322.29,276.08L322.52,272.38L322.87,275.07L323.22,272.38L323.33,272.38L324.14,277.09L324.37,274.73L325.18,277.76L325.29,276.08L326.56,264.99L326.68,265.66L327.37,261.96L327.49,263.31L327.6,263.64L328.3,259.27L328.53,261.63L328.64,260.95L328.76,262.3L329.22,259.95L329.33,258.26L329.57,255.58L330.03,257.26L330.14,257.93L330.6,262.3L330.95,260.95L331.18,260.62L331.3,259.61L331.53,261.96L331.76,262.63L331.99,261.96L332.22,262.97L332.34,264.65L332.91,267.34L333.03,269.36L333.38,268.01L333.61,270.37L333.84,268.68L333.95,270.37L334.65,268.35L334.76,269.02L334.88,269.36L335.22,271.37L335.68,263.98L335.92,266.67L336.03,267.34L336.38,268.01L336.49,266.33L336.72,266L336.95,268.68L338.8,284.48L338.92,283.14L339.03,282.8L339.26,282.13L339.61,284.48L339.84,285.83L340.07,283.81L340.19,281.46L340.3,280.45L340.65,282.47L340.76,282.13L340.88,282.13L341.8,283.14L341.92,282.13L342.27,285.49L342.61,281.79L342.96,280.45L343.3,278.1L343.77,279.1L343.88,279.1L344.23,275.74L344.57,278.43L344.69,278.77L344.92,279.1L345.27,276.75L345.38,277.09L345.5,275.07L345.61,276.75L345.84,274.73L346.08,274.4L346.19,275.41L346.31,275.74L346.88,270.37L347.23,273.73L347.34,274.4L347.69,269.69L347.92,270.7L348.04,272.05L349.31,262.97L349.42,261.29L349.77,258.26L350,258.94L350.46,261.63L350.81,261.96L351.27,260.95L351.39,261.63L351.62,260.95L352.31,262.3L352.54,262.63L352.77,261.29L353,262.97L353.12,264.65L353.46,265.32L353.58,263.64L353.69,263.31L353.93,261.29L354.27,264.65L354.39,265.32L355.08,261.96L355.43,262.97L355.54,263.98L356.12,254.9L356.58,256.92L356.7,256.92L357.04,257.26L357.85,253.22L358.08,254.23L358.2,254.57L359.24,262.3L359.35,261.29L359.47,261.29L359.7,259.27L360.04,261.63L360.16,261.96L360.39,258.94L360.62,260.62L360.97,262.3L361.31,266L361.55,264.99L361.89,263.98L362.12,264.31L362.24,266.67L362.7,264.99L362.82,265.32L363.05,266L363.16,267.34L363.62,266.33L363.85,266.33L363.97,267L364.2,266.67L364.55,264.31L364.89,262.3L365.01,263.64L365.12,266.33L365.36,267L365.47,269.69L365.93,268.68L366.05,271.04L366.16,269.69L366.51,274.06L366.74,273.73L367.32,276.75L367.43,277.42L367.55,277.09L367.78,278.43L367.9,280.78L368.59,276.42L368.82,276.75L368.93,278.1L369.4,280.78L369.86,279.78L369.97,278.43L371.01,272.72L371.24,274.06L372.05,268.01L372.28,268.35L372.4,269.02L372.97,265.66L373.09,266.67L373.21,268.68L374.71,259.95L374.82,258.94L375.17,258.26L375.28,258.6L375.4,259.61L377.13,248.52L377.25,249.53L377.48,250.2L378.4,244.15L378.52,245.16L379.56,242.47L379.67,243.47L380.48,251.21L380.71,250.53L380.94,246.16L383.13,259.27L383.37,261.29L383.6,263.31L383.94,260.28L384.06,260.62L384.17,259.95L384.64,256.92L384.98,259.27L385.1,259.27L386.25,266.67L386.37,267.34L386.94,265.66L387.18,266.67L387.29,268.01L387.64,270.7L387.87,272.72L388.1,275.07L388.56,272.72L388.68,272.05L389.37,273.39L389.48,272.05L389.83,273.05L389.95,272.72L390.06,270.7L390.18,270.37L390.29,272.72L390.41,273.39L390.52,270.37L390.64,270.03L392.02,263.64L392.26,264.65L392.49,267.34L393.06,266.67L393.18,266L393.99,262.3L394.1,260.62L394.91,252.89L395.14,255.91L396.06,262.3L396.18,261.96L396.3,260.28L397.45,257.59L397.57,258.26L397.8,257.26L398.37,261.29L398.49,261.96L399.76,252.55L399.87,252.89L399.99,252.89L400.22,254.9L400.45,252.21L400.8,253.56L400.91,253.56L401.14,253.22L402.65,263.31L402.99,261.96L403.11,260.62L403.68,258.6L403.8,260.62L403.92,260.95L404.03,259.27L404.49,261.96L404.61,262.97L406.46,276.42L406.57,275.07L406.69,272.72L407.61,269.36L407.73,269.69L408.07,271.37L408.3,269.36L408.42,268.01L408.65,268.01L408.76,269.36L409.23,266L409.69,266.33L409.8,267.68L410.03,265.66L410.38,269.69L410.5,269.02L411.19,274.73L411.42,274.06L411.77,271.71L412.23,270.03L412.69,273.05L412.92,272.05L413.15,274.4L413.27,271.37L413.38,269.36L413.96,264.65L414.31,265.32L414.42,266L415.23,269.36L415.35,267L415.58,268.01L415.69,266.33L415.92,264.99L416.96,255.58L417.19,255.91L417.31,256.25L417.54,256.58L418.12,253.9L418.23,256.25L418.92,269.36L419.39,266.33L419.5,266L419.73,266.33L420.31,263.31L420.42,263.98L420.54,264.99L420.66,265.32L420.89,264.65L421,263.98L421.46,263.31L421.69,265.66L422.27,260.62L422.62,262.3L422.73,263.31L423.08,267.34L423.54,265.66L423.66,263.98L423.77,266L424.12,261.63L424.23,261.96L424.35,261.96L424.7,258.94L425.27,266L425.39,264.99L426.2,262.63L426.43,263.31L427.24,266.67L427.35,265.66L427.47,264.99L427.58,265.32L427.81,264.99L427.93,263.31L428.04,262.63L428.28,264.31L428.51,265.32L428.74,266.67L428.97,266L429.08,264.99L430.01,256.92L430.35,257.26L430.47,256.25L431.16,259.95L431.39,258.26L431.51,256.58L431.62,257.59L432.09,256.25L432.2,255.24L433.12,260.62L433.24,257.59L433.47,256.58L433.59,259.95L433.82,260.28L434.39,252.55L434.86,254.23L435.09,254.9L435.43,255.58L435.55,255.91L436.82,252.89L436.93,253.56L437.74,256.58L437.86,254.9L438.09,255.91L438.2,253.9L438.32,251.21L439.13,255.24L439.24,254.9L439.47,253.9L439.59,255.91L439.94,252.21L440.05,252.21L440.17,252.55L440.86,267.34L441.44,265.32L441.55,264.65L442.82,254.9L442.94,255.24L443.05,255.58L443.28,253.9L443.63,256.92L443.75,256.58L443.86,259.95L444.21,256.58L444.44,254.23L444.78,252.89L445.02,255.91L445.13,253.22L445.71,256.25L445.82,256.25L446.86,259.61L446.98,258.6L447.09,258.26L447.21,259.95L447.32,261.29L447.56,259.27L447.67,259.95L447.79,261.96L448.59,264.31L448.83,263.31L449.06,262.63L449.29,263.31L449.4,264.99L450.21,262.3L450.33,264.31L450.67,261.96L450.79,264.31L451.13,263.98L451.48,266.33L451.71,265.32L451.94,261.96L453.1,248.85L453.21,250.87L453.44,251.54L453.67,249.19L454.02,251.54L454.14,253.22L455.06,256.58L455.18,256.25L455.29,259.27L455.87,257.59L455.98,256.92L457.25,248.52L457.6,249.53L457.72,249.86L458.41,246.16L458.52,247.51L458.64,248.52L458.87,247.84L458.99,250.2L460.02,257.26L460.26,256.25L460.6,257.59L462.1,249.19L462.22,250.87L462.79,249.19L463.03,249.86L463.14,249.86L463.83,254.9L463.95,254.57L464.18,251.88L464.64,256.25L465.1,255.24L465.22,253.22L465.45,252.21L465.57,254.9L465.91,250.53L466.03,252.89L466.14,255.58L466.72,252.89L467.07,249.19L468.34,253.56L468.57,254.9L468.68,253.89L468.91,255.58L469.26,255.24L469.49,257.26L471.45,240.79L471.57,238.77L473.19,245.83L473.3,245.16L473.65,247.17L473.99,245.83L474.11,244.48L474.69,245.16L474.8,242.8L474.92,244.15L476.42,237.42L476.53,239.11L476.88,241.79L477,239.44L477.11,236.42L477.46,238.1L477.57,237.42L477.69,235.41L479.42,257.59L479.77,257.26L479.88,256.92L480.57,253.9L480.69,255.91L481.04,251.54L481.61,253.22L481.73,253.9L482.31,257.59L482.42,259.27L482.65,258.6L482.77,260.95L483.11,263.31L483.58,259.27L483.81,258.6L484.85,261.96L484.96,261.63L486,267.34L486.12,267.34L486.35,269.36L486.46,267L486.69,265.32L486.81,264.31L487.15,267.68L487.27,270.37L487.39,270.7L487.5,273.73L487.85,274.06L487.96,272.72L489.12,269.02L489.23,270.7L489.46,268.01L489.58,266.67L490.96,252.21L491.08,252.55L491.2,252.21L491.31,251.88L491.43,252.89L491.54,255.91L491.77,257.26L491.89,254.23L492,254.57L492.12,254.23L492.47,252.89L492.58,255.24L492.81,254.57L493.04,256.58L493.39,254.9L493.5,251.88L493.62,252.21L493.74,250.87L493.85,249.53L493.97,250.2L494.08,248.52L494.54,249.19L494.66,247.17L495.01,246.5L495.58,249.86L495.7,248.52L495.81,248.85L496.04,247.17L496.16,246.84L496.51,251.21L497.08,249.53L497.31,246.84L497.55,247.84L497.66,246.5L497.78,245.16L498.01,243.47L498.35,245.16L498.47,245.83L498.58,246.5L498.93,245.49L499.05,242.8L500.55,248.52L500.78,248.52L500.89,247.51L501.12,251.21L501.24,252.21L501.82,252.55L502.16,249.86L502.39,250.2L502.51,251.88L502.63,252.89L503.09,250.53L503.2,249.86L503.32,248.52L503.55,251.21L503.9,249.19L504.13,249.19L504.36,248.85L504.59,249.86L504.7,249.19L504.93,252.21L505.05,251.54L505.28,252.89L505.51,252.55L505.63,254.57L506.09,252.55L506.32,254.9L506.44,255.91L506.67,256.25L506.78,255.24L506.9,254.57L508.51,245.49L508.63,246.84L509.55,251.54L509.67,251.54L510.24,247.84L510.36,248.18L510.48,249.86L510.59,251.88L511.17,249.19L511.28,247.51L511.4,247.17L511.63,248.85L512.09,250.87L512.32,248.52L512.44,249.53L512.55,248.85L512.9,247.84L513.13,248.85L513.25,248.85L513.48,249.19L513.59,248.18L513.71,248.85L513.82,247.17L514.29,250.53L514.75,249.19L514.98,249.53L515.79,252.89L515.9,251.88L516.02,250.53L516.59,252.89L516.83,250.53L517.98,246.16L518.1,246.16L518.33,243.81L518.79,245.16L518.9,246.5L519.71,252.21L520.06,251.21L520.17,251.88L520.52,251.21L520.64,253.22L521.44,255.24L521.56,254.57L521.79,255.58L522.14,253.56L522.25,252.55L522.48,251.21L522.6,252.55L522.71,254.9L522.83,256.25L523.06,254.23L523.18,251.54L523.29,249.19L523.75,251.88L523.87,253.22L524.91,248.52L525.02,248.85L525.25,248.85L525.37,250.2L526.18,244.15L526.41,245.49L526.75,242.13L527.1,245.83L527.22,245.83L527.33,244.15L527.68,248.85L527.79,249.53L528.02,248.18L528.37,250.2L528.72,252.21L529.18,251.88L529.64,252.89L529.76,251.88L529.87,253.22L529.99,251.21L530.33,251.21L530.56,250.87L531.03,252.21L531.14,250.87L531.26,249.86L531.6,250.53L531.72,248.85L531.83,248.52L532.06,250.87L532.18,248.52L532.53,247.51L532.99,249.19L533.1,248.52L533.33,245.49L533.57,248.18L533.8,250.53L534.37,249.53L534.49,251.88L534.6,251.54L534.84,252.55L534.95,253.56L535.3,251.21L535.53,254.57L535.64,253.56L535.76,254.57L535.87,257.26L536.57,256.25L536.68,256.58L537.03,256.92L537.61,253.89L537.72,255.58L538.65,249.53L538.76,250.2L538.88,252.21L539.34,249.53L539.45,251.21L539.57,253.22L539.68,253.9L539.92,250.87L540.03,251.21L541.19,254.57L541.3,255.91L541.99,261.63L542.22,258.6L542.34,258.26L542.57,259.61L542.8,261.29L542.92,261.63L543.03,261.29L543.26,258.6L543.38,259.27L543.49,257.93L543.61,255.58L543.73,255.91L543.84,254.9L543.96,254.23L544.3,252.21L544.65,253.56L544.88,254.23L545.23,249.86L545.46,251.21L545.57,252.55L545.92,252.89L546.03,250.87L546.15,251.88L546.27,253.22L546.84,252.21L546.96,251.21L547.42,247.84L547.77,249.19L548,249.86L548.69,253.9L548.81,255.91L550.31,270.7L550.42,268.35L551.69,262.3L551.81,262.97L551.92,262.3L552.38,262.97L552.5,264.65L553.08,263.31L553.19,260.95L553.65,263.98L554,262.97L554.12,261.96L554.35,260.62L554.69,263.31L554.81,264.65L554.92,262.97L555.39,266.33L555.5,268.35L555.73,267.34L555.96,269.02L556.08,270.7L557.23,275.41L557.35,275.41L557.46,274.4L557.58,275.74L558.04,275.07L558.16,275.07L558.27,273.73L558.5,275.74L558.73,274.73L558.85,277.76L559.08,277.42L559.2,278.43L559.31,278.77L559.89,276.42L560.12,278.43L561.74,271.04L561.97,272.05L562.2,273.05L562.31,271.37L562.43,269.02L562.54,268.01L562.66,270.03L562.89,269.02L563.01,270.7L563.24,271.37L563.35,269.69L563.47,268.68L563.81,269.36L564.04,270.03L564.28,269.02L564.97,271.37L565.08,270.7L565.55,271.04L566.01,267.34L566.12,268.01L566.24,268.68L566.47,266.33L566.58,266.67L566.7,265.66L567.39,268.68L567.51,267.68L567.62,265.66L568.2,263.64L568.43,264.99L568.55,265.66L568.78,264.31L569.24,264.65L569.36,266.33L570.74,261.29L571.09,261.63L571.2,261.63L571.32,263.64L571.78,258.94L571.9,259.27L572.47,257.93L572.7,253.56L573.74,258.6L573.86,257.59L573.97,257.93L574.67,260.95L575.01,260.28L575.13,258.6L575.71,257.26L575.82,259.27L575.94,258.26L576.28,261.63L576.4,260.95L576.63,260.62L576.74,261.96L577.44,266.33L577.67,263.31L577.78,262.97L577.9,264.31L578.01,264.99L578.36,266.33L578.59,264.31L578.71,264.65L578.82,264.31L579.63,267L579.75,265.66L579.86,262.63L579.98,263.64L580.21,261.29L580.32,261.96L580.44,260.28L580.9,256.92L581.25,257.59L581.36,258.94L581.59,259.27L581.82,258.26L582.05,260.62L583.21,256.58L583.32,258.26L583.44,260.28L583.9,256.25L584.13,259.61L584.36,258.6L584.71,255.24L585.17,256.92L585.29,256.25L585.52,257.26L585.63,255.91L585.75,254.23L585.86,254.57L586.1,253.22L586.21,252.21L586.79,257.26L587.25,255.58L587.37,254.9L588.98,243.14L589.1,244.15L589.56,246.84L589.67,245.83L589.79,244.82L590.83,251.21L591.06,250.53L591.18,248.85L591.75,253.22L592.1,252.21L592.33,251.21L592.79,251.88L592.91,251.21L593.02,253.56L593.25,253.22L593.37,254.57L594.29,250.87L594.41,252.21L594.87,253.89L595.1,251.54L595.22,252.55L595.45,254.57L595.79,253.89L595.91,253.22L596.26,253.89L596.37,252.21L596.49,251.21L596.72,250.2L597.06,252.21L597.18,253.56L597.41,253.56L597.53,255.58L598.56,260.95L598.68,261.63L599.14,259.61L599.37,261.96L599.49,262.63L600.53,271.04L600.64,271.04L600.87,272.05L601.1,271.04L601.22,269.69L601.33,270.7L601.57,267.34L601.8,268.68L602.03,265.66L602.6,261.29L602.84,263.64L602.95,264.31L603.07,263.31L603.3,264.65L603.53,264.31L603.64,266.33L604.45,272.72L604.68,271.04L605.72,277.76L605.95,276.75L606.3,279.44L606.41,278.1L606.53,276.75L607.22,279.1L607.34,276.75L607.68,279.78L607.8,281.12L608.03,280.45L608.15,281.79L608.26,283.14L608.38,282.47L608.61,284.82L608.72,284.48L608.84,284.82L608.95,286.16L609.42,283.47L609.53,281.79L610.46,275.41L610.57,277.76L611.03,282.8L611.38,279.78L611.49,280.78L611.73,281.46L612.07,278.77L612.19,282.47L612.65,282.13L614.15,292.21L614.27,290.2L615.42,281.12L615.54,281.12L615.65,282.13L615.88,280.11L616,278.1L616.23,279.1L616.81,277.09L617.04,277.42L617.38,278.77L617.84,274.4L617.96,275.07L618.08,276.08L618.42,277.42L618.77,275.74L618.88,277.42L619,278.43L619.23,276.42L619.35,274.73L619.46,276.42L619.92,273.73L620.04,272.38L620.27,273.39L620.62,270.03L620.73,268.68L620.85,268.35L621.08,269.36L621.31,269.02L621.42,269.02L621.89,269.69L622,268.68L622.12,267.34L622.46,264.31L622.58,261.96L623.73,254.57L623.85,255.91L624.31,257.93L624.42,257.59L624.54,254.57L624.89,255.24L625.35,252.89L625.46,253.56L625.81,251.54L626.16,253.56L626.27,254.23L626.73,256.92L626.96,254.57L627.08,254.57L627.54,257.26L628,255.91L628.12,255.58L628.35,256.25L628.47,252.89L628.58,254.57L629.27,254.23L629.39,255.24L629.97,254.23L630.43,259.27L630.54,257.26L631.7,254.57L631.81,252.55L632.62,257.59L632.74,257.26L632.85,257.93L633.08,255.58L633.2,254.57L633.55,255.24L633.66,254.23L633.78,256.58L634.82,260.95L634.93,260.95L635.16,262.3L635.39,258.6L635.51,255.58L635.97,253.22L636.2,254.57L636.32,255.91L636.43,252.89L637.01,254.9L637.12,256.58L637.47,256.25L637.93,257.26L638.05,254.9L638.63,258.26L638.97,257.59L639.09,256.25L640.01,258.94L640.24,258.26L640.36,257.59L640.7,258.6L640.93,256.25L641.05,257.93L641.17,256.92L641.4,260.62L641.51,260.62L641.97,257.59L642.2,259.61L642.32,260.28L643.36,265.66L643.47,261.96L643.94,264.65L644.05,266L644.51,268.35L644.63,270.37L645.09,270.03L645.21,272.38L645.32,269.36L645.9,272.05L646.25,271.04L646.36,269.69L647.05,273.39L647.17,275.74L647.4,275.74L647.51,277.09L647.98,277.42L648.32,273.73L648.55,274.4L648.67,273.73L648.78,273.39L648.9,275.41L649.02,276.42L649.48,275.07L649.59,278.1L649.82,277.42L649.94,278.1L650.05,279.78L650.4,281.12L650.52,281.79L650.75,282.8L650.98,281.46L651.21,282.47L651.32,281.79L651.44,281.46L651.56,284.48L652.02,284.15L652.36,285.83L652.48,285.49L652.59,284.48L654.21,279.44L654.33,279.44L654.56,279.78L655.02,277.76L655.13,279.44L656.4,274.4L656.52,275.07L656.64,276.42L656.87,277.09L657.79,273.39L657.91,274.73L658.25,270.7L658.48,273.39L658.6,274.4L658.71,273.05L659.18,275.74L659.29,275.07L659.41,274.73L659.52,274.4L659.75,277.76L659.98,276.08L660.1,278.43L660.56,276.42L660.68,277.09L662.29,269.02L662.41,271.04L662.52,271.04L662.64,269.69L662.99,273.05L663.1,271.71L663.22,271.71L663.68,274.4L663.79,272.72L664.72,269.02L664.83,270.03L664.95,269.69L665.18,271.04L665.29,272.05L665.76,274.4L666.1,274.06L666.22,273.73L667.03,269.02L667.14,269.36L667.26,271.71L668.18,277.42L668.3,276.75L668.41,275.74L668.76,278.1L669.1,274.73L669.22,275.41L669.91,279.1L670.03,277.76L670.14,276.08L670.72,271.71L671.07,273.39L671.18,273.73L672.22,277.76L672.34,277.42L672.45,276.75L672.91,277.76L673.03,275.07L673.38,273.73L674.18,279.78L674.3,279.1L674.41,277.09L674.65,279.78L674.88,279.78L674.99,280.78L675.22,281.12L675.34,283.14L675.68,282.13L676.38,285.83L676.49,285.49L676.61,286.16L676.95,283.81L677.19,285.15L677.3,284.48L678.69,293.56L678.8,291.88L678.92,292.21L679.03,293.22L679.38,289.86L679.49,290.2L679.73,288.52L679.84,290.87L680.07,290.87L680.19,291.2L681.11,297.59L681.23,295.91L681.69,293.56L681.8,295.57L681.92,296.25L682.38,296.58L683.3,293.22L683.42,293.89L683.65,293.56L684,295.91L684.11,294.23L684.23,293.89L684.34,292.89L684.57,296.58L684.69,295.57L684.81,296.58L686.54,287.84L686.88,288.85L687,289.19L687.58,288.18L687.69,288.85L687.81,289.19L688.62,293.89L688.73,292.21L689.42,286.84L689.65,287.84L689.77,289.19L690.12,289.52L690.46,286.84L690.81,287.84L690.92,288.18L691.27,290.53L691.62,288.85L691.73,286.16L691.96,283.14L692.31,287.17L692.43,288.52L692.54,286.84"/></g><g class="points"/><g class="text"/></g><g class="trace scatter trace808731" style="stroke-miterlimit: 2; opacity: 1;"><g class="fills"/><g class="errorbars"/><g class="lines"/><g class="points"><path class="point" transform="translate(-10215.75,262.23)" style="opacity: 1; stroke-width: 0px; fill: rgb(46, 100, 151); fill-opacity: 1;" d="M3,0A3,3 0 1,1 0,-3A3,3 0 0,1 3,0Z"/></g><g class="text"/></g><g class="trace scatter trace3b9643" style="stroke-miterlimit: 2; opacity: 1;"><g class="fills"/><g class="errorbars"/><g class="lines"/><g class="points"><path class="point" transform="translate(692.54,286.84)" style="opacity: 1; stroke-width: 0px; fill: rgb(25, 169, 121); fill-opacity: 1;" d="M3,0A3,3 0 1,1 0,-3A3,3 0 0,1 3,0Z"/></g><g class="text"/></g></g></g><g class="overplot"/><path class="xlines-above crisp" style="fill: none;" d="M0,0"/><path class="ylines-above crisp" style="fill: none;" d="M0,0"/><g class="overlines-above"/><g class="xaxislayer-above"><g class="xtick"><text text-anchor="middle" x="0" y="543" style="font-family: TOBESTRIPPEDOpen SansTOBESTRIPPED, verdana, arial, sans-serif; font-size: 12px; fill: rgb(32, 32, 32); fill-opacity: 1; white-space: pre;" transform="translate(137.68,0)">89k</text></g><g class="xtick"><text text-anchor="middle" x="0" y="543" style="font-family: TOBESTRIPPEDOpen SansTOBESTRIPPED, verdana, arial, sans-serif; font-size: 12px; fill: rgb(32, 32, 32); fill-opacity: 1; white-space: pre;" transform="translate(253.13,0)">90k</text></g><g class="xtick"><text text-anchor="middle" x="0" y="543" style="font-family: TOBESTRIPPEDOpen SansTOBESTRIPPED, verdana, arial, sans-serif; font-size: 12px; fill: rgb(32, 32, 32); fill-opacity: 1; white-space: pre;" transform="translate(368.58,0)">91k</text></g><g class="xtick"><text text-anchor="middle" x="0" y="543" style="font-family: TOBESTRIPPEDOpen SansTOBESTRIPPED, verdana, arial, sans-serif; font-size: 12px; fill: rgb(32, 32, 32); fill-opacity: 1; white-space: pre;" transform="translate(484.03,0)">92k</text></g><g class="xtick"><text text-anchor="middle" x="0" y="543" style="font-family: TOBESTRIPPEDOpen SansTOBESTRIPPED, verdana, arial, sans-serif; font-size: 12px; fill: rgb(32, 32, 32); fill-opacity: 1; white-space: pre;" transform="translate(599.48,0)">93k</text></g><g class="xtick"><text text-anchor="middle" x="0" y="543" style="font-family: TOBESTRIPPEDOpen SansTOBESTRIPPED, verdana, arial, sans-serif; font-size: 12px; fill: rgb(32, 32, 32); fill-opacity: 1; white-space: pre;" transform="translate(714.93,0)">94k</text></g></g><g class="yaxislayer-above"><g class="ytick"><text text-anchor="end" x="69" y="4.199999999999999" style="font-family: TOBESTRIPPEDOpen SansTOBESTRIPPED, verdana, arial, sans-serif; font-size: 12px; fill: rgb(32, 32, 32); fill-opacity: 1; white-space: pre;" transform="translate(0,474.32)">32</text></g><g class="ytick"><text text-anchor="end" x="69" y="4.199999999999999" style="font-family: TOBESTRIPPEDOpen SansTOBESTRIPPED, verdana, arial, sans-serif; font-size: 12px; fill: rgb(32, 32, 32); fill-opacity: 1; white-space: pre;" transform="translate(0,414.14)">34</text></g><g class="ytick"><text text-anchor="end" x="69" y="4.199999999999999" style="font-family: TOBESTRIPPEDOpen SansTOBESTRIPPED, verdana, arial, sans-serif; font-size: 12px; fill: rgb(32, 32, 32); fill-opacity: 1; white-space: pre;" transform="translate(0,353.95)">36</text></g><g class="ytick"><text text-anchor="end" x="69" y="4.199999999999999" style="font-family: TOBESTRIPPEDOpen SansTOBESTRIPPED, verdana, arial, sans-serif; font-size: 12px; fill: rgb(32, 32, 32); fill-opacity: 1; white-space: pre;" transform="translate(0,293.76)">38</text></g><g class="ytick"><text text-anchor="end" x="69" y="4.199999999999999" style="font-family: TOBESTRIPPEDOpen SansTOBESTRIPPED, verdana, arial, sans-serif; font-size: 12px; fill: rgb(32, 32, 32); fill-opacity: 1; white-space: pre;" transform="translate(0,233.58)">40</text></g><g class="ytick"><text text-anchor="end" x="69" y="4.199999999999999" style="font-family: TOBESTRIPPEDOpen SansTOBESTRIPPED, verdana, arial, sans-serif; font-size: 12px; fill: rgb(32, 32, 32); fill-opacity: 1; white-space: pre;" transform="translate(0,173.39)">42</text></g><g class="ytick"><text text-anchor="end" x="69" y="4.199999999999999" style="font-family: TOBESTRIPPEDOpen SansTOBESTRIPPED, verdana, arial, sans-serif; font-size: 12px; fill: rgb(32, 32, 32); fill-opacity: 1; white-space: pre;" transform="translate(0,113.2)">44</text></g><g class="ytick"><text text-anchor="end" x="69" y="4.199999999999999" style="font-family: TOBESTRIPPEDOpen SansTOBESTRIPPED, verdana, arial, sans-serif; font-size: 12px; fill: rgb(32, 32, 32); fill-opacity: 1; white-space: pre;" transform="translate(0,53.02)">46</text></g></g><g class="overaxes-above"/></g></g><g class="polarlayer"/><g class="ternarylayer"/><g class="geolayer"/><g class="pielayer"/><g class="sunburstlayer"/><g class="glimages"/><defs id="topdefs-0a1b2e"><g class="clips"/></defs><g class="layer-above"><g class="imagelayer"/><g class="shapelayer"/></g><g class="infolayer"><g class="g-gtitle"/><g class="g-xtitle"/><g class="g-ytitle"/></g></svg>